<?xml version="1.0" encoding="UTF-8" standalone="no"?><!DOCTYPE svg PUBLIC "-//W3C//DTD SVG 1.1//EN" "http://www.w3.org/Graphics/SVG/1.1/DTD/svg11.dtd"><svg width="100%" height="100%" viewBox="0 0 490 342" version="1.1" xmlns="http://www.w3.org/2000/svg" xmlns:xlink="http://www.w3.org/1999/xlink" xml:space="preserve" xmlns:serif="http://www.serif.com/" style="fill-rule:evenodd;clip-rule:evenodd;stroke-miterlimit:22.9256;"><g><path d="M490,17.08c0,-9.427 -7.653,-17.08 -17.08,-17.08l-455.84,0c-9.427,0 -17.08,7.653 -17.08,17.08l0,307.44c0,9.427 7.653,17.08 17.08,17.08l455.84,0c9.427,0 17.08,-7.653 17.08,-17.08l0,-307.44Z" style="fill:#efd8b8;"/><g id="Layer-1" serif:id="Layer 1"><rect x="209.312" y="59.848" width="73.316" height="6.249" style="fill:#845831;"/><path d="M214.311,69.012l0,4.305c0,1.604 1.312,2.916 2.916,2.916l57.486,0c1.604,0 2.917,-1.312 2.917,-2.916l0,-4.305l-63.319,0Z" style="fill:#845831;"/><path d="M223.753,79.982l0,89.321l9.581,0l0,-75.157c0,-2.291 1.875,-4.166 4.166,-4.166c2.291,0 4.166,1.875 4.166,4.166l0,75.157l8.609,0l0,-75.157c0,-2.291 1.874,-4.166 4.165,-4.166c2.292,0 4.166,1.875 4.166,4.166l0,75.157l9.581,0l0,-89.321l-44.434,0Z" style="fill:#845831;"/><rect x="209.312" y="59.848" width="36.686" height="6.249" style="fill:#845831;"/><path d="M245.998,69.012l-31.687,0l0,4.305c0,1.604 1.312,2.916 2.916,2.916l28.771,0l0,-7.221Z" style="fill:#845831;"/><path d="M245.998,168.315l0,-88.333l-22.245,0l0,89.321l9.581,0l0,-75.157c0,-2.291 1.875,-4.166 4.166,-4.166c2.291,0 4.166,1.875 4.166,4.166l0,75.157l8.609,0l0,-0.988l-4.277,0Z" style="fill:#845831;"/><rect x="280.199" y="75.261" width="61.514" height="5.527" style="fill:#845831;"/><path d="M284.62,83.367l0,3.807c0,1.419 1.16,2.58 2.579,2.58l47.513,0c1.419,0 2.579,-1.161 2.579,-2.58l0,-3.807l-52.671,0Z" style="fill:#845831;"/><path d="M291.305,93.069l0,78.213l8.474,0l0,-65.685c0,-2.027 1.658,-3.685 3.685,-3.685c2.026,0 3.684,1.658 3.684,3.685l0,69.641l7.615,0l0,-69.641c0,-2.027 1.658,-3.685 3.684,-3.685c2.027,0 3.685,1.658 3.685,3.685l0,69.641l8.474,0l0,-82.169l-39.301,0Z" style="fill:#845831;"/><rect x="280.199" y="75.261" width="30.706" height="5.527" style="fill:#845831;"/><path d="M310.904,83.367l-26.284,0l0,3.807c0,1.419 1.16,2.579 2.579,2.579l23.705,0l0,-6.386Z" style="fill:#845831;"/><path d="M310.904,175.238l0,-82.169l-19.599,0l0,78.213l8.474,0l0,-65.685c0,-2.027 1.658,-3.685 3.685,-3.685c2.026,0 3.684,1.658 3.684,3.685l0,69.641l3.756,0Z" style="fill:#845831;"/><rect x="150.228" y="75.261" width="61.515" height="5.527" style="fill:#845831;"/><path d="M154.649,83.367l0,3.807c0,1.419 1.161,2.58 2.579,2.58l47.513,0c1.419,0 2.58,-1.161 2.58,-2.58l0,-3.807l-52.672,0Z" style="fill:#845831;"/><path d="M161.334,93.069l0,82.169l8.475,0l0,-69.641c0,-2.027 1.658,-3.685 3.684,-3.685c2.026,0 3.685,1.658 3.685,3.685l0,65.685l7.615,0l0,-65.685c0,-2.027 1.657,-3.685 3.684,-3.685c2.026,0 3.684,1.658 3.684,3.685l0,63.706l8.474,0l0,-76.234l-39.301,0Z" style="fill:#845831;"/><rect x="150.228" y="75.261" width="30.699" height="5.527" style="fill:#845831;"/><path d="M180.927,83.367l-26.278,0l0,3.807c0,1.419 1.161,2.579 2.579,2.579l23.699,0l0,-6.386Z" style="fill:#845831;"/><path d="M180.927,171.282l0,-78.213l-19.593,0l0,82.169l8.475,0l0,-69.641c0,-2.027 1.658,-3.685 3.684,-3.685c2.026,0 3.685,1.658 3.685,3.685l0,65.685l3.749,0Z" style="fill:#845831;"/><path d="M117.399,184.633c20.472,-7.369 41.745,-12.524 63.293,-15.978c21.548,-3.516 43.417,-5.189 65.278,-5.207c21.861,0.004 43.732,1.679 65.28,5.193c21.549,3.45 42.822,8.612 63.291,15.992c-21.482,-3.388 -42.837,-6.359 -64.258,-8.335c-21.421,-1.917 -42.862,-2.967 -64.313,-2.963c-21.45,-0.019 -42.892,1.035 -64.314,2.948c-21.422,1.974 -42.777,4.951 -64.257,8.35" style="fill:#845831;"/><path d="M133.242,203.735l0.575,0l4.609,29.345c0.711,4.545 2.288,8.075 4.53,10.437c2.255,2.375 5.189,3.568 8.593,3.422l0.16,-0.007l0,0.786l-0.34,0.048c-4.977,0.677 -8.86,-0.734 -11.653,-3.356c-2.788,-2.616 -4.484,-6.438 -5.093,-10.593l-2.971,-21.711l-10.053,22.704c-0.004,0.01 -1.366,2.987 -1.683,5.002l-0.02,0.13l-0.689,0l-12.58,-27.33l-2.152,23.926l-0.006,0.187c0.012,0.468 0.232,0.888 0.543,1.199c0.311,0.312 0.713,0.515 1.09,0.549c0.353,0.011 0.71,0.004 1.063,0.004l0,0.774l-9.862,0l0,-0.799l0.943,0c0.855,0 1.667,-0.279 2.289,-0.797c0.58,-0.482 0.998,-1.175 1.136,-2.043l3.127,-26.87c-1.031,-2.024 -2.413,-4.302 -4.267,-5.98c-1.853,-1.677 -4.185,-2.757 -7.118,-2.382l-0.172,0.022l0,-0.789l0.12,-0.027c3.42,-0.772 6.237,-0.146 8.485,1.101c3.345,1.855 5.426,5.087 6.365,7.125l11.758,25.441l13.174,-29.518l0.099,0Zm21.732,54.486l-0.704,0.076l-0.103,-0.752l0.157,-0.017c2.492,-0.264 5.219,-0.725 7.472,-1.106c1.441,-0.243 2.69,-0.455 3.56,-0.561c0.594,-0.074 1.176,-0.121 1.742,-0.139c3.001,-0.097 5.538,0.594 7.412,2.003c1.88,1.414 3.093,3.546 3.441,6.326c0.049,0.395 0.081,0.807 0.095,1.232c0.093,2.897 -0.689,5.421 -2.168,7.252c-1.453,1.801 -3.578,2.932 -6.201,3.093c-1.719,0.101 -3.485,-0.226 -4.816,-1.155c-1.124,-0.785 -1.937,-1.996 -2.152,-3.731l-0.014,-0.123l0.684,-0.229l0.041,0.159c0.317,1.227 1.09,2.055 2.044,2.557c1.177,0.62 2.631,0.749 3.858,0.529c1.637,-0.302 2.893,-1.274 3.735,-2.674c0.902,-1.499 1.333,-3.487 1.256,-5.669c-0.013,-0.336 -0.036,-0.663 -0.071,-0.977c-0.261,-2.374 -1.156,-4.118 -2.536,-5.245c-1.382,-1.128 -3.26,-1.644 -5.488,-1.564c-0.328,0.012 -0.666,0.037 -1.009,0.075c-0.816,0.095 -1.756,0.268 -2.76,0.454l-1.445,0.261l0,26.965c0.022,0.776 0.342,1.441 0.828,1.918c0.512,0.503 1.21,0.799 1.943,0.799l0.729,0l0.013,0.763l-10.31,0l0.014,-0.763l0.736,0c0.733,0 1.432,-0.296 1.944,-0.799c0.486,-0.477 0.806,-1.142 0.827,-1.918l0,-24.741c0,-0.107 -0.006,-0.215 -0.017,-0.319c-0.06,-0.577 -0.28,-1.08 -0.664,-1.437c-0.385,-0.356 -0.939,-0.569 -1.668,-0.566c-0.128,0.001 -0.265,0.009 -0.405,0.023Zm38.158,-2.408l0.513,0l12.254,29.381c0.416,0.91 0.99,1.575 1.619,2.025c0.73,0.523 1.536,0.759 2.26,0.759l0.534,0l0,0.763l-10.594,0l0,-0.763l0.549,0c0.222,0 0.445,-0.04 0.654,-0.115c0.309,-0.113 0.59,-0.309 0.793,-0.579c0.201,-0.269 0.327,-0.617 0.327,-1.036c0,-0.28 -0.057,-0.593 -0.181,-0.934l-2.879,-7.675l-12.095,0l-3.021,7.703c-0.118,0.331 -0.171,0.635 -0.171,0.906c0,0.422 0.127,0.771 0.332,1.042c0.204,0.27 0.489,0.465 0.801,0.577c0.205,0.073 0.422,0.111 0.637,0.111l0.557,0l0,0.763l-9.505,0l0,-0.763l0.565,0c0.716,0 1.52,-0.236 2.248,-0.759c0.627,-0.452 1.199,-1.116 1.617,-2.026l10.357,-24.585c0.005,-0.01 1.676,-3.667 1.676,-4.641l0,-0.154l0.153,0Zm-0.071,6.063l-5.522,14.086l10.809,0l-5.287,-14.086Zm38.358,23.51c1.223,-1.039 2.028,-2.515 2.724,-4.234l0.038,-0.096l0.778,0c-0.921,2.562 -1.837,5.127 -2.768,7.685l-19.208,0l0.014,-0.763l0.728,0c0.757,0 1.442,-0.303 1.941,-0.792c0.5,-0.491 0.816,-1.172 0.831,-1.925l-0.001,-25.319c-0.014,-0.754 -0.33,-1.438 -0.831,-1.93c-0.499,-0.492 -1.183,-0.795 -1.94,-0.795l-0.728,0l-0.014,-0.763l10.31,0l-0.014,0.763l-0.728,0c-0.757,0 -1.445,0.304 -1.945,0.796c-0.5,0.493 -0.815,1.176 -0.826,1.929l0,27.092l6.395,0c2.381,0 4.026,-0.611 5.244,-1.648Zm21.403,-29.573l0.513,0l12.253,29.381c0.417,0.91 0.991,1.575 1.62,2.025c0.73,0.523 1.537,0.759 2.259,0.759l0.535,0l0,0.763l-10.594,0l0,-0.763l0.549,0c0.222,0 0.445,-0.04 0.653,-0.115c0.31,-0.113 0.59,-0.308 0.793,-0.579c0.201,-0.27 0.327,-0.617 0.327,-1.037c0,-0.279 -0.055,-0.592 -0.179,-0.933l-2.88,-7.675l-12.095,0l-3.021,7.703c-0.118,0.331 -0.171,0.635 -0.171,0.906c0,0.422 0.127,0.771 0.332,1.042c0.204,0.27 0.488,0.465 0.801,0.577c0.204,0.073 0.422,0.111 0.637,0.111l0.557,0l0,0.763l-9.504,0l0,-0.763l0.563,0c0.717,0 1.52,-0.236 2.248,-0.759c0.628,-0.452 1.201,-1.116 1.617,-2.026l10.358,-24.585c0.005,-0.01 1.676,-3.667 1.676,-4.641l0,-0.154l0.153,0Zm-0.071,6.063l-5.522,14.086l10.81,0l-5.288,-14.086Zm43.719,22.639c2.035,-1.97 3.462,-4.966 3.939,-9.278l0.015,-0.136l0.684,0c-0.187,2.458 -0.378,4.916 -0.572,7.373l-0.019,0.033c-1.286,2.1 -3.051,3.902 -5.376,5.134c-2.068,1.095 -4.58,1.739 -7.593,1.739c-4.866,-0.023 -9.016,-1.716 -11.934,-4.697c-2.862,-2.926 -4.538,-7.09 -4.538,-12.132c0,-5.015 1.662,-9.211 4.598,-12.148c2.917,-2.917 7.09,-4.59 12.14,-4.59c2.117,0 4.052,0.295 5.787,0.79c1.962,0.56 3.672,1.379 5.102,2.32l0.058,0.039l0.957,6.699l-0.676,0l-0.03,-0.115c-0.667,-2.57 -2.06,-4.551 -3.94,-5.903c-1.973,-1.42 -4.487,-2.152 -7.265,-2.152c-3.951,0 -7.188,1.486 -9.44,4.083c-2.279,2.63 -3.558,6.402 -3.558,10.932c0,4.526 1.274,8.267 3.489,10.904c2.235,2.663 5.435,4.203 9.253,4.294c3.432,-0.008 6.582,-0.926 8.919,-3.189Zm36.732,-4.048l0.711,0c-0.992,2.757 -1.979,5.519 -2.98,8.274l-24.176,0l0.014,-0.8l0.775,0c0.822,0 1.567,-0.328 2.11,-0.86c0.544,-0.533 0.887,-1.27 0.904,-2.087l-0.001,-27.629c0,-0.732 -0.344,-1.385 -0.875,-1.861c-0.558,-0.5 -1.325,-0.806 -2.121,-0.806l-0.778,0l0,-0.801l10.128,0c1.002,-0.01 2.169,-0.126 3.214,-0.286c1.147,-0.174 2.141,-0.4 2.606,-0.597l0.212,-0.09l0,6.609l-0.8,0l0,-1.033c0,-0.741 -0.288,-1.413 -0.755,-1.912c-0.472,-0.502 -1.128,-0.83 -1.858,-0.879l-5.467,0l0,14.947l9.221,0c0.619,-0.012 1.18,-0.27 1.585,-0.681c0.404,-0.409 0.654,-0.971 0.654,-1.591l0,-0.885l0.784,0l0,8.109l-0.784,0l0,-0.884c0,-0.611 -0.243,-1.166 -0.636,-1.575c-0.395,-0.41 -0.942,-0.673 -1.546,-0.698l-9.278,0l0,14.47l10.38,0c2.574,0 4.352,-0.661 5.67,-1.782c1.322,-1.123 2.193,-2.718 2.945,-4.577l0.039,-0.095l0.103,0Zm51.526,-42.703c3.128,3.756 7.387,8.867 13.616,7.672l0.125,-0.024l0.279,0.727l-0.154,0.05c-3.721,1.179 -6.796,0.727 -9.459,-0.591c-2.653,-1.313 -4.892,-3.485 -6.958,-5.757l-23.826,-26.387l0,22.454c0.022,0.716 0.328,1.363 0.809,1.829c0.479,0.465 1.133,0.751 1.855,0.751l0.996,0l0.012,0.763l-9.723,0l0.014,-0.763l0.995,0c0.727,0 1.385,-0.291 1.865,-0.762c0.481,-0.471 0.785,-1.125 0.8,-1.848l-0.001,-25.067c-0.257,-0.316 -0.543,-0.681 -0.847,-1.07c-2.732,-3.489 -7.036,-8.984 -13.089,-7.228l-0.134,0.038l-0.29,-0.725l0.139,-0.058c3.704,-1.559 6.778,-1.112 9.446,0.302c2.651,1.406 4.893,3.767 6.953,6.057l22.729,25.28l0,-23.068c-0.011,-0.722 -0.313,-1.376 -0.794,-1.848c-0.481,-0.472 -1.143,-0.763 -1.87,-0.763l-0.995,0l-0.013,-0.764l9.73,0l-0.013,0.764l-0.995,0c-0.722,0 -1.378,0.285 -1.857,0.749c-0.479,0.464 -0.785,1.109 -0.808,1.823l0.001,25.748c0.457,0.51 0.944,1.095 1.462,1.716Zm-51.52,-31.44l0.513,0l12.253,29.381c0.417,0.91 0.991,1.575 1.62,2.025c0.731,0.522 1.537,0.758 2.26,0.758l0.534,0l0,0.763l-10.594,0l0,-0.763l0.549,0c0.221,0 0.444,-0.038 0.653,-0.115c0.309,-0.113 0.591,-0.308 0.793,-0.578c0.201,-0.27 0.327,-0.618 0.327,-1.036c0,-0.281 -0.055,-0.593 -0.18,-0.935l-2.879,-7.675l-12.095,0l-3.021,7.704c-0.118,0.331 -0.171,0.634 -0.171,0.906c0,0.421 0.127,0.771 0.332,1.041c0.204,0.271 0.488,0.466 0.801,0.578c0.204,0.073 0.422,0.11 0.638,0.11l0.556,0l0,0.763l-9.504,0l0,-0.763l0.563,0c0.717,0 1.52,-0.236 2.248,-0.759c0.628,-0.451 1.201,-1.115 1.617,-2.026l10.359,-24.584c0.004,-0.01 1.675,-3.667 1.675,-4.642l0,-0.153l0.153,0Zm-0.071,6.063l-5.522,14.086l10.81,0l-5.288,-14.086Zm-20.692,-4.821l0,-0.61l9.505,0l0,0.772l-0.557,0c-0.722,0 -1.527,0.228 -2.253,0.741c-0.624,0.441 -1.194,1.094 -1.606,1.992l-10.987,24.633c-0.005,0.012 -1.677,3.671 -1.677,4.644l0,0.153l-0.664,0l-12.885,-29.391c-0.414,-0.912 -0.985,-1.574 -1.615,-2.022c-0.731,-0.519 -1.541,-0.75 -2.274,-0.75l-0.519,0l0,-0.772l10.594,0l0,0.763l-0.557,0c-0.224,0 -0.448,0.041 -0.658,0.117c-0.305,0.113 -0.581,0.306 -0.781,0.572c-0.197,0.266 -0.321,0.608 -0.321,1.02c0,0.28 0.057,0.592 0.183,0.934l9.431,23.587l9.79,-23.581c0.125,-0.34 0.181,-0.651 0.181,-0.929c0,-0.416 -0.125,-0.76 -0.325,-1.027c-0.201,-0.268 -0.481,-0.463 -0.789,-0.576c-0.211,-0.077 -0.436,-0.117 -0.66,-0.117l-0.556,0l0,-0.153Zm-36.473,0.008l0,-0.61l8.759,0l0,0.764l-0.9,0c-0.609,0 -1.16,0.213 -1.565,0.575c-0.396,0.353 -0.655,0.851 -0.696,1.431l0,18.065c0,3.624 -1.248,6.648 -3.432,8.765c-2.184,2.117 -5.299,3.327 -9.033,3.327c-3.84,0 -7.045,-1.202 -9.291,-3.305c-2.248,-2.104 -3.534,-5.109 -3.534,-8.711l0,-18.039c-0.01,-0.603 -0.26,-1.125 -0.658,-1.498c-0.409,-0.383 -0.976,-0.61 -1.602,-0.61l-0.9,0l0,-0.764l9.59,0l0,0.764l-0.9,0c-0.615,0 -1.173,0.219 -1.579,0.588c-0.394,0.36 -0.649,0.864 -0.674,1.452l0,17.436c0,3.291 0.956,6.031 2.629,7.944c1.667,1.907 4.053,2.998 6.919,2.998c3.005,0 5.508,-1.034 7.26,-2.841c1.754,-1.809 2.76,-4.398 2.767,-7.506l0,-18.024c-0.029,-0.588 -0.286,-1.095 -0.682,-1.456c-0.407,-0.371 -0.964,-0.591 -1.578,-0.591l-0.9,0l0,-0.154Zm-28.97,30.914l0.729,0l0.013,0.763l-10.309,0l0.012,-0.763l0.729,0c0.749,0 1.43,-0.301 1.929,-0.788c0.501,-0.489 0.82,-1.166 0.842,-1.914l0,-11.657l-18.387,0l0,11.657c0.011,0.751 0.324,1.427 0.822,1.914c0.501,0.488 1.19,0.788 1.948,0.788l0.73,0l0.013,0.763l-10.31,0l0.014,-0.763l0.728,0c0.758,0 1.445,-0.299 1.944,-0.786c0.499,-0.487 0.813,-1.163 0.828,-1.916l0,-25.364c-0.019,-0.749 -0.335,-1.424 -0.835,-1.909c-0.498,-0.486 -1.183,-0.785 -1.937,-0.785l-0.728,0l-0.014,-0.764l10.31,0l-0.013,0.764l-0.73,0c-0.753,0 -1.437,0.299 -1.935,0.783c-0.5,0.485 -0.816,1.158 -0.835,1.904l0,12.037l18.387,0l0,-12.068c-0.03,-0.739 -0.351,-1.407 -0.85,-1.888c-0.498,-0.48 -1.176,-0.777 -1.921,-0.777l-0.729,0l-0.012,-0.763l10.301,0l-0.013,0.763l-0.721,0c-0.757,0 -1.444,0.304 -1.945,0.796c-0.501,0.493 -0.819,1.176 -0.834,1.93l0,25.341c0.015,0.752 0.331,1.428 0.831,1.914c0.501,0.488 1.189,0.788 1.948,0.788Zm-67.838,-30.911l-0.01,-0.613l15.605,0.008c4.933,0 9.08,1.622 11.992,4.46c2.9,2.828 4.571,6.858 4.571,11.691c0,4.826 -1.672,8.851 -4.572,11.674c-2.911,2.835 -7.058,4.454 -11.991,4.454l-15.621,0l0.014,-0.763l0.728,0c0.757,0 1.442,-0.302 1.941,-0.79c0.501,-0.49 0.816,-1.169 0.831,-1.919l-0.001,-25.593c0,-0.674 -0.316,-1.275 -0.805,-1.714c-0.514,-0.462 -1.219,-0.744 -1.95,-0.744l-0.729,0l-0.003,-0.151Zm15.595,1.071l-8.824,0l0,28.911l8.824,0c3.866,0 7.07,-1.435 9.307,-3.948c2.246,-2.525 3.523,-6.142 3.523,-10.488c0,-4.348 -1.285,-7.971 -3.532,-10.503c-2.243,-2.526 -5.449,-3.972 -9.298,-3.972Zm-35.398,-2.324l0.512,0l12.254,29.381c0.416,0.91 0.99,1.575 1.62,2.025c0.73,0.522 1.536,0.758 2.259,0.758l0.535,0l0,0.763l-10.594,0l0,-0.763l0.549,0c0.221,0 0.445,-0.039 0.653,-0.115c0.31,-0.113 0.591,-0.308 0.793,-0.578c0.202,-0.269 0.327,-0.617 0.327,-1.036c0,-0.281 -0.056,-0.593 -0.18,-0.935l-2.88,-7.675l-12.094,0l-3.022,7.704c-0.117,0.331 -0.17,0.634 -0.17,0.906c0,0.421 0.127,0.771 0.332,1.041c0.204,0.271 0.489,0.466 0.801,0.578c0.205,0.073 0.422,0.11 0.637,0.11l0.557,0l0,0.763l-9.505,0l0,-0.763l0.564,0c0.717,0 1.52,-0.236 2.248,-0.759c0.627,-0.45 1.2,-1.115 1.617,-2.026l10.358,-24.584c0.004,-0.01 1.676,-3.668 1.676,-4.642l0,-0.153l0.153,0Zm-0.072,6.063l-5.522,14.086l10.81,0l-5.288,-14.086Z" style="fill:#845831;stroke:#845831;stroke-width:0.9px;"/><g><path d="M131.108,315.099c0.569,-1.35 1.294,-2.393 2.167,-3.13c0.871,-0.735 1.959,-1.103 3.259,-1.103c1.609,0 2.839,0.52 3.695,1.563c0.65,0.776 0.978,1.607 0.978,2.493c0,1.458 -0.917,2.963 -2.753,4.516c1.236,0.484 2.168,1.17 2.804,2.067c0.629,0.891 0.947,1.945 0.947,3.154c0,1.734 -0.555,3.23 -1.659,4.5c-1.436,1.654 -3.522,2.48 -6.253,2.48c-1.351,0 -2.268,-0.167 -2.757,-0.504c-0.489,-0.333 -0.73,-0.695 -0.73,-1.079c0,-0.287 0.116,-0.534 0.346,-0.751c0.233,-0.215 0.51,-0.327 0.838,-0.327c0.247,0 0.499,0.039 0.756,0.12c0.166,0.051 0.543,0.232 1.138,0.545c0.589,0.313 1.004,0.499 1.23,0.56c0.363,0.11 0.756,0.165 1.169,0.165c1.007,0 1.88,-0.388 2.626,-1.168c0.745,-0.777 1.119,-1.699 1.119,-2.762c0,-0.777 -0.173,-1.538 -0.519,-2.272c-0.257,-0.555 -0.539,-0.973 -0.842,-1.256c-0.429,-0.392 -1.008,-0.75 -1.749,-1.073c-0.741,-0.317 -1.497,-0.479 -2.268,-0.479l-0.473,0l0,-0.454c0.781,-0.1 1.557,-0.377 2.344,-0.841c0.78,-0.463 1.35,-1.018 1.703,-1.669c0.357,-0.649 0.533,-1.359 0.533,-2.142c0,-1.012 -0.318,-1.828 -0.952,-2.453c-0.64,-0.625 -1.431,-0.938 -2.378,-0.938c-1.528,0 -2.802,0.827 -3.83,2.475l-0.489,-0.237Zm36.616,3.295l6.199,0l0,0.575c-0.857,0.071 -1.486,0.258 -1.895,0.565c-0.409,0.307 -1.049,1.245 -1.915,2.802c-0.867,1.557 -1.845,3.014 -2.928,4.364c0.877,1.023 1.659,1.739 2.349,2.146c0.684,0.409 1.38,0.616 2.081,0.616c0.68,0 1.255,-0.187 1.723,-0.555c0.474,-0.368 0.811,-0.911 1.008,-1.633l0.544,0.404c-0.362,1.385 -0.947,2.413 -1.758,3.084c-0.807,0.665 -1.745,0.998 -2.817,0.998c-0.807,0 -1.623,-0.222 -2.455,-0.66c-0.831,-0.444 -1.738,-1.19 -2.725,-2.243c-1.221,1.094 -2.319,1.849 -3.301,2.267c-0.978,0.423 -2.026,0.636 -3.14,0.636c-1.624,0 -2.913,-0.434 -3.871,-1.301c-0.952,-0.867 -1.431,-1.904 -1.431,-3.109c0,-1.189 0.429,-2.379 1.291,-3.567c0.861,-1.191 2.474,-2.42 4.847,-3.69c-0.468,-1.024 -0.786,-1.864 -0.957,-2.519c-0.166,-0.655 -0.252,-1.28 -0.252,-1.88c0,-1.684 0.619,-2.969 1.859,-3.855c0.968,-0.691 2.066,-1.034 3.296,-1.034c1.174,0 2.132,0.348 2.867,1.039c0.741,0.695 1.109,1.547 1.109,2.56c0,1.044 -0.357,1.955 -1.074,2.741c-0.715,0.787 -1.979,1.648 -3.794,2.58c1.251,2.222 2.555,4.264 3.91,6.123c1.734,-2.065 2.601,-3.804 2.601,-5.211c0,-0.448 -0.146,-0.846 -0.438,-1.199c-0.217,-0.262 -0.53,-0.418 -0.933,-0.469l0,-0.575Zm-5.638,0.384c1.219,-0.579 2.131,-1.239 2.736,-1.975c0.604,-0.736 0.907,-1.557 0.907,-2.46c0,-0.71 -0.217,-1.295 -0.655,-1.758c-0.434,-0.459 -0.978,-0.691 -1.623,-0.691c-0.857,0 -1.502,0.298 -1.935,0.892c-0.439,0.594 -0.656,1.174 -0.656,1.749c0,0.478 0.081,1.018 0.248,1.613c0.166,0.594 0.493,1.471 0.978,2.63Zm2.282,9.222c-1.295,-1.769 -2.192,-3.064 -2.691,-3.88c-0.499,-0.817 -1.049,-1.83 -1.648,-3.038c-1.189,0.679 -2.082,1.431 -2.681,2.246c-0.599,0.823 -0.902,1.709 -0.902,2.666c0,1.054 0.337,1.986 1.019,2.783c0.679,0.801 1.597,1.198 2.75,1.198c0.621,0 1.22,-0.125 1.794,-0.372c0.581,-0.252 1.366,-0.787 2.359,-1.603Zm33.044,-4.071l0,2.085l-2.691,0l0,5.292l-2.449,0l0,-5.292l-8.436,0l0,-1.879l9.252,-13.269l1.633,0l0,13.063l2.691,0Zm-5.14,0l0,-9.948l-6.995,9.948l6.995,0Zm27.717,-2.863c1.386,0.297 2.424,0.766 3.113,1.421c0.954,0.908 1.432,2.016 1.432,3.326c0,0.997 -0.312,1.955 -0.943,2.867c-0.629,0.912 -1.491,1.578 -2.589,1.997c-1.094,0.417 -2.767,0.629 -5.02,0.629l-9.439,0l0,-0.544l0.747,0c0.831,0 1.425,-0.267 1.788,-0.796c0.227,-0.343 0.338,-1.078 0.338,-2.198l0,-12.971c0,-1.239 -0.142,-2.021 -0.423,-2.343c-0.383,-0.435 -0.948,-0.65 -1.703,-0.65l-0.747,0l0,-0.545l8.639,0c1.611,0 2.902,0.116 3.874,0.353c1.477,0.357 2.601,0.982 3.377,1.885c0.776,0.901 1.164,1.935 1.164,3.109c0,1.003 -0.302,1.9 -0.912,2.696c-0.611,0.791 -1.507,1.381 -2.696,1.764Zm-7.731,-0.821c0.363,0.07 0.782,0.12 1.245,0.156c0.469,0.035 0.982,0.049 1.543,0.049c1.436,0 2.519,-0.155 3.24,-0.462c0.72,-0.307 1.274,-0.781 1.658,-1.421c0.376,-0.635 0.569,-1.331 0.569,-2.087c0,-1.168 -0.479,-2.161 -1.432,-2.988c-0.953,-0.822 -2.343,-1.235 -4.167,-1.235c-0.982,0 -1.87,0.106 -2.656,0.323l0,7.665Zm0,9.605c1.144,0.266 2.277,0.397 3.391,0.397c1.79,0 3.156,-0.403 4.093,-1.204c0.938,-0.801 1.406,-1.794 1.406,-2.972c0,-0.778 -0.216,-1.527 -0.655,-2.243c-0.434,-0.721 -1.129,-1.286 -2.082,-1.698c-0.952,-0.415 -2.136,-0.621 -3.542,-0.621c-0.61,0 -1.129,0.011 -1.562,0.031c-0.434,0.02 -0.782,0.055 -1.049,0.101l0,8.209Zm20.168,-9.278l9.283,0l0,-5.775c0,-1.017 -0.066,-1.688 -0.193,-2.011c-0.1,-0.242 -0.307,-0.454 -0.624,-0.63c-0.423,-0.237 -0.871,-0.352 -1.345,-0.352l-0.711,0l0,-0.545l8.588,0l0,0.545l-0.71,0c-0.475,0 -0.923,0.11 -1.346,0.337c-0.318,0.156 -0.535,0.393 -0.645,0.711c-0.116,0.316 -0.172,0.967 -0.172,1.945l0,12.971c0,1.013 0.065,1.684 0.192,2.006c0.1,0.247 0.302,0.459 0.609,0.636c0.434,0.236 0.887,0.352 1.362,0.352l0.71,0l0,0.544l-8.588,0l0,-0.544l0.711,0c0.821,0 1.416,-0.242 1.794,-0.721c0.248,-0.318 0.368,-1.073 0.368,-2.273l0,-6.108l-9.283,0l0,6.108c0,1.013 0.065,1.684 0.192,2.006c0.095,0.247 0.302,0.459 0.619,0.636c0.424,0.236 0.867,0.352 1.341,0.352l0.721,0l0,0.544l-8.588,0l0,-0.544l0.711,0c0.832,0 1.431,-0.242 1.809,-0.721c0.237,-0.318 0.353,-1.073 0.353,-2.273l0,-12.971c0,-1.017 -0.066,-1.688 -0.192,-2.011c-0.101,-0.242 -0.301,-0.454 -0.61,-0.63c-0.432,-0.237 -0.886,-0.352 -1.36,-0.352l-0.711,0l0,-0.545l8.588,0l0,0.545l-0.721,0c-0.474,0 -0.917,0.11 -1.341,0.337c-0.307,0.156 -0.518,0.393 -0.634,0.711c-0.116,0.316 -0.177,0.967 -0.177,1.945l0,5.775Zm24.639,-0.383l7.396,7.333c1.215,1.224 2.248,2.056 3.105,2.493c0.857,0.439 1.714,0.686 2.571,0.747l0,0.544l-9.545,0l0,-0.544c0.574,0 0.982,-0.096 1.234,-0.287c0.253,-0.193 0.378,-0.409 0.378,-0.646c0,-0.237 -0.05,-0.448 -0.141,-0.634c-0.096,-0.187 -0.403,-0.54 -0.922,-1.049l-6.909,-6.848l0,6.47c0,1.013 0.065,1.684 0.196,2.006c0.097,0.247 0.307,0.459 0.625,0.636c0.429,0.236 0.883,0.352 1.361,0.352l0.69,0l0,0.544l-8.586,0l0,-0.544l0.71,0c0.831,0 1.432,-0.242 1.809,-0.721c0.236,-0.318 0.353,-1.073 0.353,-2.273l0,-12.971c0,-1.013 -0.066,-1.688 -0.191,-2.021c-0.101,-0.237 -0.303,-0.444 -0.61,-0.62c-0.433,-0.237 -0.887,-0.352 -1.361,-0.352l-0.71,0l0,-0.545l8.586,0l0,0.545l-0.69,0c-0.469,0 -0.923,0.11 -1.361,0.337c-0.307,0.156 -0.524,0.393 -0.64,0.711c-0.121,0.312 -0.181,0.963 -0.181,1.945l0,6.149c0.196,-0.193 0.871,-0.818 2.02,-1.881c2.924,-2.681 4.693,-4.47 5.302,-5.366c0.268,-0.399 0.398,-0.742 0.398,-1.039c0,-0.226 -0.105,-0.423 -0.312,-0.599c-0.206,-0.172 -0.554,-0.257 -1.048,-0.257l-0.454,0l0,-0.545l7.373,0l0,0.545c-0.434,0.01 -0.827,0.07 -1.179,0.181c-0.358,0.107 -0.792,0.317 -1.3,0.63c-0.516,0.317 -1.145,0.821 -1.891,1.517c-0.216,0.196 -1.219,1.204 -3.008,3.023l-3.068,3.034Zm26.562,-7.841l0,7.861l3.628,0c0.842,0 1.461,-0.182 1.849,-0.544c0.394,-0.368 0.651,-1.098 0.782,-2.207l0.544,0l0,6.803l-0.544,0c-0.011,-0.776 -0.111,-1.351 -0.302,-1.713c-0.197,-0.368 -0.465,-0.64 -0.807,-0.822c-0.342,-0.186 -0.846,-0.278 -1.522,-0.278l-3.628,0l0,6.32c0,1.013 0.065,1.684 0.191,2.006c0.097,0.247 0.303,0.459 0.614,0.636c0.43,0.236 0.877,0.352 1.351,0.352l0.716,0l0,0.544l-8.586,0l0,-0.544l0.71,0c0.831,0 1.431,-0.242 1.809,-0.721c0.236,-0.318 0.353,-1.073 0.353,-2.273l0,-12.971c0,-1.013 -0.066,-1.684 -0.191,-2.006c-0.101,-0.247 -0.303,-0.459 -0.61,-0.635c-0.425,-0.237 -0.877,-0.352 -1.361,-0.352l-0.71,0l0,-0.545l14.875,0l0.211,4.415l-0.513,0c-0.256,-0.943 -0.554,-1.633 -0.892,-2.072c-0.342,-0.438 -0.761,-0.761 -1.254,-0.958c-0.5,-0.195 -1.265,-0.296 -2.308,-0.296l-4.405,0Zm27.973,13.425l0.484,0.105l-1.723,5.428l-15.511,0l0,-0.544l0.749,0c0.848,0 1.452,-0.272 1.816,-0.822c0.206,-0.313 0.307,-1.038 0.307,-2.172l0,-12.971c0,-1.25 -0.136,-2.03 -0.413,-2.343c-0.384,-0.435 -0.953,-0.65 -1.71,-0.65l-0.749,0l0,-0.545l9.07,0l0,0.545c-1.063,-0.011 -1.81,0.085 -2.242,0.292c-0.429,0.201 -0.721,0.463 -0.877,0.771c-0.156,0.312 -0.237,1.058 -0.237,2.232l0,12.639c0,0.821 0.081,1.381 0.237,1.689c0.116,0.211 0.303,0.362 0.549,0.463c0.243,0.096 1.012,0.146 2.308,0.146l1.462,0c1.541,0 2.62,-0.111 3.24,-0.337c0.62,-0.228 1.19,-0.631 1.704,-1.205c0.508,-0.575 1.023,-1.482 1.536,-2.721Zm14.966,-1.149l-7.764,0l-1.341,3.14c-0.333,0.775 -0.504,1.36 -0.504,1.743c0,0.302 0.146,0.574 0.439,0.806c0.287,0.227 0.916,0.379 1.879,0.449l0,0.544l-6.32,0l0,-0.544c0.837,-0.147 1.377,-0.338 1.624,-0.574c0.503,-0.474 1.057,-1.438 1.667,-2.883l7.051,-16.5l0.498,0l6.969,16.676c0.561,1.341 1.07,2.207 1.528,2.61c0.459,0.399 1.094,0.621 1.916,0.671l0,0.544l-7.903,0l0,-0.544c0.796,-0.041 1.335,-0.171 1.618,-0.398c0.282,-0.227 0.418,-0.505 0.418,-0.831c0,-0.435 -0.197,-1.12 -0.589,-2.057l-1.186,-2.852Zm-0.452,-1.089l-3.377,-8.087l-3.467,8.087l6.844,0Zm22.591,-12.276l0.212,4.712l-0.559,0c-0.112,-0.826 -0.258,-1.421 -0.444,-1.774c-0.307,-0.569 -0.711,-0.992 -1.22,-1.259c-0.508,-0.272 -1.174,-0.408 -2.001,-0.408l-2.821,0l0,15.299c0,1.234 0.131,2.006 0.398,2.313c0.374,0.413 0.948,0.62 1.723,0.62l0.691,0l0,0.544l-8.527,0l0,-0.544l0.721,0c0.857,0 1.461,-0.258 1.824,-0.771c0.217,-0.318 0.327,-1.039 0.327,-2.162l0,-15.299l-2.403,0c-0.938,0 -1.603,0.07 -1.995,0.206c-0.515,0.186 -0.948,0.544 -1.315,1.079c-0.364,0.528 -0.581,1.249 -0.651,2.156l-0.559,0l0.21,-4.712l16.389,0Zm14.841,-0.454l0,6.925l-0.544,0c-0.177,-1.33 -0.494,-2.389 -0.953,-3.175c-0.458,-0.786 -1.113,-1.411 -1.965,-1.874c-0.847,-0.464 -1.724,-0.696 -2.63,-0.696c-1.028,0 -1.874,0.312 -2.545,0.937c-0.671,0.625 -1.008,1.34 -1.008,2.138c0,0.609 0.212,1.168 0.635,1.672c0.615,0.736 2.065,1.724 4.363,2.953c1.876,1.008 3.156,1.778 3.841,2.313c0.685,0.539 1.214,1.169 1.582,1.901c0.368,0.73 0.555,1.491 0.555,2.292c0,1.517 -0.59,2.822 -1.765,3.92c-1.179,1.099 -2.696,1.649 -4.544,1.649c-0.586,0 -1.129,-0.046 -1.644,-0.136c-0.307,-0.051 -0.937,-0.232 -1.899,-0.544c-0.958,-0.313 -1.568,-0.469 -1.826,-0.469c-0.246,0 -0.442,0.075 -0.583,0.222c-0.142,0.151 -0.247,0.458 -0.318,0.927l-0.544,0l0,-6.864l0.544,0c0.257,1.436 0.6,2.514 1.033,3.225c0.433,0.716 1.098,1.311 1.991,1.78c0.891,0.473 1.869,0.71 2.933,0.71c1.229,0 2.207,-0.329 2.917,-0.978c0.716,-0.655 1.074,-1.426 1.074,-2.313c0,-0.494 -0.136,-0.993 -0.403,-1.497c-0.272,-0.504 -0.691,-0.972 -1.261,-1.411c-0.381,-0.297 -1.436,-0.922 -3.154,-1.879c-1.719,-0.954 -2.942,-1.719 -3.668,-2.288c-0.726,-0.57 -1.28,-1.205 -1.653,-1.89c-0.379,-0.691 -0.565,-1.452 -0.565,-2.278c0,-1.436 0.554,-2.676 1.657,-3.714c1.105,-1.038 2.516,-1.558 4.22,-1.558c1.068,0 2.196,0.263 3.391,0.782c0.555,0.247 0.943,0.367 1.169,0.367c0.257,0 0.468,-0.075 0.629,-0.226c0.162,-0.156 0.293,-0.458 0.394,-0.923l0.544,0Z" style="fill:#845831;"/><rect x="80.613" y="320.725" width="39.594" height="1.113" style="fill:#845831;stroke:#845831;stroke-width:0.9px;"/><rect x="371.734" y="320.725" width="39.594" height="1.113" style="fill:#845831;stroke:#845831;stroke-width:0.9px;"/></g><text x="105.963px" y="34.886px" style="font-family:'MicrosoftJhengHeiRegular', 'Microsoft JhengHei', sans-serif;font-size:35.194px;">Newly Launched</text></g></g></svg>