<?xml version="1.0" encoding="UTF-8" standalone="no"?>
<!DOCTYPE svg PUBLIC "-//W3C//DTD SVG 1.1//EN" "http://www.w3.org/Graphics/SVG/1.1/DTD/svg11.dtd">
<svg width="100%" height="100%" viewBox="0 0 490 342" version="1.1" xmlns="http://www.w3.org/2000/svg" xmlns:xlink="http://www.w3.org/1999/xlink" xml:space="preserve" xmlns:serif="http://www.serif.com/" style="fill-rule:evenodd;clip-rule:evenodd;stroke-linejoin:round;stroke-miterlimit:2;">
    <path d="M490,17.08C490,7.653 482.347,0 472.92,0L17.08,0C7.653,0 0,7.653 0,17.08L0,324.52C0,333.947 7.653,341.6 17.08,341.6L472.92,341.6C482.347,341.6 490,333.947 490,324.52L490,17.08Z" style="fill:url(#_Radial1);"/>
    <g transform="matrix(1,0,0,1,99.963,34.886)">
        <g transform="matrix(1.47174,0,0,1.47174,-592.517,-2312.13)">
            <path d="M562.062,1766.23C562.062,1763.97 562.062,1763.56 562.091,1763.1C562.12,1762.59 562.236,1762.34 562.628,1762.27C562.802,1762.24 562.89,1762.23 562.991,1762.23C563.049,1762.23 563.107,1762.2 563.107,1762.14C563.107,1762.05 563.034,1762.03 562.875,1762.03C562.44,1762.03 561.525,1762.07 561.452,1762.07C561.38,1762.07 560.466,1762.03 559.987,1762.03C559.827,1762.03 559.754,1762.05 559.754,1762.14C559.754,1762.2 559.812,1762.23 559.87,1762.23C559.972,1762.23 560.161,1762.24 560.32,1762.29C560.64,1762.36 560.785,1762.61 560.814,1763.1C560.843,1763.56 560.843,1763.97 560.843,1766.23L560.843,1768.79C560.843,1770.18 560.843,1771.33 560.771,1771.94C560.713,1772.36 560.64,1772.68 560.35,1772.74C560.219,1772.77 560.045,1772.79 559.914,1772.79C559.827,1772.79 559.798,1772.84 559.798,1772.88C559.798,1772.97 559.87,1773 560.03,1773C560.466,1773 561.38,1772.95 561.452,1772.95C561.525,1772.95 562.44,1773 563.238,1773C563.397,1773 563.47,1772.95 563.47,1772.88C563.47,1772.84 563.441,1772.79 563.354,1772.79C563.223,1772.79 562.904,1772.77 562.701,1772.74C562.265,1772.68 562.178,1772.36 562.135,1771.94C562.062,1771.33 562.062,1770.18 562.062,1768.79L562.062,1766.23ZM551.768,1763.8C551.55,1763.23 551.376,1762.78 551.376,1762.59C551.376,1762.49 551.405,1762.37 551.565,1762.3C551.696,1762.24 551.956,1762.23 552.116,1762.23C552.218,1762.23 552.262,1762.2 552.262,1762.13C552.262,1762.05 552.131,1762.03 551.869,1762.03C551.318,1762.03 550.665,1762.07 550.52,1762.07C550.346,1762.07 549.519,1762.03 548.822,1762.03C548.59,1762.03 548.445,1762.04 548.445,1762.13C548.445,1762.18 548.474,1762.23 548.561,1762.23C548.648,1762.23 548.894,1762.23 549.112,1762.29C549.62,1762.43 549.838,1762.59 550.157,1763.4L553.713,1772.3C553.989,1773 554.061,1773.2 554.235,1773.2C554.381,1773.2 554.439,1772.97 554.845,1772.1C555.179,1771.39 555.832,1769.82 556.717,1767.7C557.457,1765.91 558.183,1764.17 558.343,1763.77C558.735,1762.78 558.952,1762.53 559.141,1762.4C559.417,1762.23 559.736,1762.23 559.837,1762.23C559.954,1762.23 560.012,1762.2 560.012,1762.13C560.012,1762.05 559.925,1762.03 559.765,1762.03C559.344,1762.03 558.72,1762.07 558.633,1762.07C558.459,1762.07 557.791,1762.03 557.211,1762.03C556.979,1762.03 556.891,1762.05 556.891,1762.14C556.891,1762.21 556.964,1762.23 557.051,1762.23C557.211,1762.23 557.428,1762.23 557.602,1762.29C557.748,1762.36 557.791,1762.5 557.791,1762.62C557.791,1762.75 557.733,1762.95 557.66,1763.17C557.341,1764.22 555.397,1769.28 554.555,1771.23L551.768,1763.8ZM567.117,1766.23C567.117,1763.97 567.117,1763.56 567.146,1763.1C567.175,1762.59 567.291,1762.34 567.712,1762.27C567.886,1762.24 568.089,1762.23 568.191,1762.23C568.249,1762.23 568.307,1762.2 568.307,1762.14C568.307,1762.05 568.235,1762.03 568.075,1762.03C567.64,1762.03 566.58,1762.07 566.507,1762.07C566.435,1762.07 565.521,1762.03 564.867,1762.03C564.708,1762.03 564.635,1762.05 564.635,1762.14C564.635,1762.2 564.693,1762.23 564.751,1762.23C564.882,1762.23 565.129,1762.24 565.245,1762.27C565.724,1762.37 565.84,1762.61 565.869,1763.1C565.898,1763.56 565.898,1763.97 565.898,1766.23L565.898,1768.79C565.898,1770.18 565.898,1771.33 565.825,1771.94C565.767,1772.36 565.695,1772.68 565.404,1772.74C565.274,1772.77 565.1,1772.79 564.969,1772.79C564.882,1772.79 564.853,1772.84 564.853,1772.88C564.853,1772.97 564.925,1773 565.085,1773C565.303,1773 565.622,1772.98 565.912,1772.97C566.202,1772.97 566.449,1772.95 566.507,1772.95C566.928,1772.95 567.378,1772.97 567.988,1773C568.598,1773.01 569.352,1773.04 570.397,1773.04C571.166,1773.04 571.21,1772.98 571.311,1772.65C571.428,1772.23 571.529,1771.36 571.529,1771.2C571.529,1771.04 571.515,1770.98 571.442,1770.98C571.355,1770.98 571.326,1771.05 571.311,1771.17C571.268,1771.44 571.123,1771.81 570.934,1772.04C570.586,1772.46 569.947,1772.48 569.178,1772.48C568.046,1772.48 567.668,1772.37 567.436,1772.14C567.175,1771.88 567.117,1770.95 567.117,1768.82L567.117,1766.23ZM574.378,1766.23C574.378,1763.97 574.378,1763.56 574.407,1763.1C574.436,1762.59 574.552,1762.34 574.973,1762.27C575.147,1762.24 575.35,1762.23 575.452,1762.23C575.51,1762.23 575.568,1762.2 575.568,1762.14C575.568,1762.05 575.496,1762.03 575.336,1762.03C574.9,1762.03 573.841,1762.07 573.768,1762.07C573.696,1762.07 572.781,1762.03 572.128,1762.03C571.969,1762.03 571.896,1762.05 571.896,1762.14C571.896,1762.2 571.954,1762.23 572.012,1762.23C572.143,1762.23 572.389,1762.24 572.505,1762.27C572.985,1762.37 573.1,1762.61 573.13,1763.1C573.159,1763.56 573.159,1763.97 573.159,1766.23L573.159,1768.79C573.159,1770.18 573.159,1771.33 573.086,1771.94C573.028,1772.36 572.955,1772.68 572.665,1772.74C572.534,1772.77 572.36,1772.79 572.23,1772.79C572.143,1772.79 572.114,1772.84 572.114,1772.88C572.114,1772.97 572.186,1773 572.346,1773C572.564,1773 572.883,1772.98 573.173,1772.97C573.463,1772.97 573.71,1772.95 573.768,1772.95C574.189,1772.95 574.639,1772.97 575.249,1773C575.858,1773.01 576.613,1773.04 577.658,1773.04C578.427,1773.04 578.471,1772.98 578.572,1772.65C578.688,1772.23 578.79,1771.36 578.79,1771.2C578.79,1771.04 578.775,1770.98 578.703,1770.98C578.616,1770.98 578.587,1771.05 578.572,1771.17C578.529,1771.44 578.384,1771.81 578.195,1772.04C577.846,1772.46 577.208,1772.48 576.439,1772.48C575.307,1772.48 574.929,1772.37 574.697,1772.14C574.436,1771.88 574.378,1770.95 574.378,1768.82L574.378,1766.23ZM579.36,1771.4C579.099,1772.13 578.809,1772.68 578.141,1772.77C578.025,1772.78 577.821,1772.79 577.72,1772.79C577.647,1772.79 577.589,1772.82 577.589,1772.88C577.589,1772.97 577.676,1773 577.865,1773C578.547,1773 579.346,1772.95 579.505,1772.95C579.665,1772.95 580.289,1773 580.637,1773C580.768,1773 580.855,1772.97 580.855,1772.88C580.855,1772.82 580.811,1772.79 580.71,1772.79L580.565,1772.79C580.318,1772.79 580.013,1772.66 580.013,1772.37C580.013,1772.11 580.086,1771.76 580.216,1771.4L581.087,1768.83C581.116,1768.76 581.16,1768.72 581.232,1768.72L584.353,1768.72C584.425,1768.72 584.454,1768.74 584.484,1768.8L585.833,1772.37C585.92,1772.61 585.833,1772.74 585.746,1772.77C585.688,1772.78 585.645,1772.81 585.645,1772.87C585.645,1772.95 585.804,1772.95 586.08,1772.97C587.081,1773 588.141,1773 588.358,1773C588.518,1773 588.649,1772.97 588.649,1772.88C588.649,1772.81 588.591,1772.79 588.504,1772.79C588.358,1772.79 588.141,1772.78 587.923,1772.71C587.618,1772.62 587.197,1772.39 586.675,1771.1C585.789,1768.89 583.511,1762.89 583.293,1762.34C583.119,1761.89 583.061,1761.82 582.974,1761.82C582.887,1761.82 582.829,1761.91 582.655,1762.39L579.36,1771.4ZM581.392,1768.19C581.348,1768.19 581.319,1768.16 581.348,1768.09L582.626,1764.17C582.698,1763.95 582.771,1763.95 582.843,1764.17L584.222,1768.09C584.237,1768.15 584.237,1768.19 584.164,1768.19L581.392,1768.19ZM590.554,1773.2C591.338,1773.2 592.122,1773.03 592.746,1772.59C593.747,1771.88 593.979,1770.78 593.979,1770.18C593.979,1769.02 593.573,1768.12 591.86,1766.77L591.454,1766.45C590.06,1765.36 589.683,1764.84 589.683,1764.01C589.683,1762.95 590.467,1762.33 591.468,1762.33C592.804,1762.33 593.196,1762.94 593.283,1763.1C593.37,1763.26 593.457,1763.65 593.471,1763.83C593.486,1763.94 593.5,1764.01 593.587,1764.01C593.66,1764.01 593.689,1763.91 593.689,1763.68C593.689,1762.69 593.747,1762.21 593.747,1762.14C593.747,1762.07 593.718,1762.04 593.602,1762.04C593.486,1762.04 593.37,1762.03 593.094,1761.97C592.731,1761.88 592.31,1761.82 591.744,1761.82C589.901,1761.82 588.74,1762.88 588.74,1764.43C588.74,1765.42 589.088,1766.32 590.626,1767.58L591.28,1768.12C592.528,1769.15 592.949,1769.73 592.949,1770.73C592.949,1771.66 592.266,1772.66 590.873,1772.66C589.901,1772.66 588.943,1772.26 588.725,1771.18C588.681,1770.98 588.681,1770.78 588.681,1770.65C588.681,1770.53 588.667,1770.49 588.58,1770.49C588.507,1770.49 588.479,1770.56 588.464,1770.72C588.449,1770.95 588.391,1771.53 588.391,1772.26C588.391,1772.65 588.406,1772.71 588.609,1772.81C589.204,1773.1 589.872,1773.2 590.554,1773.2" style="fill:rgb(88,87,85);fill-rule:nonzero;"/>
        </g>
        <g transform="matrix(1.47174,0,0,1.47174,-592.517,-2312.13)">
            <path d="M539.988,1766.23C539.988,1763.97 539.988,1763.56 540.016,1763.1C540.046,1762.59 540.162,1762.34 540.583,1762.27C540.757,1762.24 540.96,1762.23 541.062,1762.23C541.12,1762.23 541.178,1762.2 541.178,1762.14C541.178,1762.05 541.105,1762.02 540.946,1762.02C540.51,1762.02 539.451,1762.07 539.378,1762.07C539.305,1762.07 538.391,1762.02 537.738,1762.02C537.578,1762.02 537.506,1762.05 537.506,1762.14C537.506,1762.2 537.564,1762.23 537.622,1762.23C537.753,1762.23 537.999,1762.24 538.116,1762.27C538.594,1762.37 538.711,1762.61 538.739,1763.1C538.769,1763.56 538.769,1763.97 538.769,1766.23L538.769,1768.79C538.769,1770.18 538.769,1771.33 538.696,1771.94C538.638,1772.36 538.565,1772.68 538.275,1772.74C538.144,1772.77 537.97,1772.79 537.84,1772.79C537.753,1772.79 537.724,1772.84 537.724,1772.88C537.724,1772.97 537.796,1773 537.956,1773C538.173,1773 538.492,1772.98 538.783,1772.97C539.073,1772.97 539.32,1772.95 539.378,1772.95C539.799,1772.95 540.249,1772.97 540.859,1773C541.468,1773.01 542.223,1773.04 543.268,1773.04C544.037,1773.04 544.08,1772.98 544.182,1772.65C544.298,1772.23 544.4,1771.36 544.4,1771.2C544.4,1771.04 544.385,1770.98 544.313,1770.98C544.226,1770.98 544.196,1771.05 544.182,1771.17C544.138,1771.44 543.993,1771.81 543.805,1772.04C543.457,1772.46 542.818,1772.47 542.049,1772.47C540.917,1772.47 540.539,1772.37 540.307,1772.14C540.046,1771.88 539.988,1770.95 539.988,1768.82L539.988,1766.23ZM530.767,1768.19C530.724,1768.19 530.695,1768.16 530.724,1768.09L532.001,1764.17C532.074,1763.95 532.146,1763.95 532.219,1764.17L533.598,1768.09C533.612,1768.15 533.612,1768.19 533.54,1768.19L530.767,1768.19ZM528.735,1771.4C528.474,1772.13 528.184,1772.68 527.516,1772.77C527.4,1772.78 527.197,1772.79 527.096,1772.79C527.023,1772.79 526.965,1772.82 526.965,1772.88C526.965,1772.97 527.052,1773 527.241,1773C527.923,1773 528.721,1772.95 528.881,1772.95C529.04,1772.95 529.664,1773 530.013,1773C530.143,1773 530.23,1772.97 530.23,1772.88C530.23,1772.82 530.187,1772.79 530.085,1772.79L529.94,1772.79C529.694,1772.79 529.389,1772.66 529.389,1772.37C529.389,1772.11 529.461,1771.76 529.592,1771.4L530.463,1768.83C530.492,1768.76 530.535,1768.72 530.608,1768.72L533.728,1768.72C533.801,1768.72 533.829,1768.74 533.859,1768.8L535.209,1772.37C535.296,1772.61 535.209,1772.74 535.122,1772.77C535.064,1772.78 535.02,1772.81 535.02,1772.87C535.02,1772.95 535.18,1772.95 535.455,1772.97C536.457,1773 537.516,1773 537.734,1773C537.894,1773 538.025,1772.97 538.025,1772.88C538.025,1772.81 537.966,1772.79 537.879,1772.79C537.734,1772.79 537.516,1772.78 537.299,1772.71C536.994,1772.62 536.573,1772.39 536.05,1771.1C535.165,1768.89 532.887,1762.89 532.669,1762.34C532.494,1761.89 532.436,1761.82 532.349,1761.82C532.262,1761.82 532.204,1761.91 532.03,1762.39L528.735,1771.4ZM518.644,1768.35C518.644,1770.47 519.196,1771.49 519.907,1772.17C520.938,1773.14 522.403,1773.2 522.897,1773.2C523.754,1773.2 524.842,1773.06 525.887,1772.13C527.048,1771.1 527.222,1769.35 527.222,1767.79L527.222,1766.23C527.222,1763.97 527.222,1763.56 527.251,1763.1C527.28,1762.59 527.396,1762.36 527.788,1762.27C527.962,1762.24 528.049,1762.23 528.151,1762.23C528.209,1762.23 528.267,1762.2 528.267,1762.14C528.267,1762.05 528.194,1762.02 528.035,1762.02C527.599,1762.02 526.917,1762.07 526.816,1762.07C526.729,1762.07 525.93,1762.02 525.277,1762.02C525.117,1762.02 525.045,1762.05 525.045,1762.14C525.045,1762.2 525.103,1762.23 525.161,1762.23C525.292,1762.23 525.539,1762.24 525.654,1762.27C526.134,1762.37 526.249,1762.61 526.279,1763.1C526.307,1763.56 526.307,1763.97 526.307,1766.23L526.307,1768.05C526.307,1769.54 526.134,1770.78 525.466,1771.6C524.943,1772.23 524.072,1772.65 523.187,1772.65C522.36,1772.65 521.707,1772.52 520.996,1771.85C520.371,1771.26 519.907,1770.36 519.907,1768.27L519.907,1766.23C519.907,1763.97 519.907,1763.56 519.936,1763.1C519.965,1762.59 520.081,1762.33 520.473,1762.27C520.648,1762.24 520.734,1762.23 520.836,1762.23C520.894,1762.23 520.952,1762.2 520.952,1762.14C520.952,1762.05 520.88,1762.02 520.72,1762.02C520.285,1762.02 519.414,1762.07 519.283,1762.07C519.152,1762.07 518.267,1762.02 517.614,1762.02C517.454,1762.02 517.382,1762.05 517.382,1762.14C517.382,1762.2 517.44,1762.23 517.498,1762.23C517.628,1762.23 517.875,1762.24 517.991,1762.27C518.47,1762.37 518.587,1762.61 518.615,1763.1C518.644,1763.56 518.644,1763.97 518.644,1766.23L518.644,1768.35ZM508.728,1766C508.728,1764.88 508.728,1763.4 508.742,1762.91C508.742,1762.75 508.785,1762.68 508.916,1762.62C509.032,1762.56 509.57,1762.52 509.86,1762.52C511.587,1762.52 513.241,1762.72 514.606,1764.16C515.201,1764.78 515.999,1765.97 515.999,1767.82C515.999,1769.15 515.593,1770.54 514.838,1771.28C513.982,1772.14 512.733,1772.63 511.383,1772.63C509.671,1772.63 509.105,1772.33 508.916,1772.05C508.8,1771.89 508.771,1771.31 508.756,1770.95C508.742,1770.67 508.728,1769.34 508.728,1767.8L508.728,1766ZM507.508,1768.79C507.508,1770.18 507.508,1771.33 507.436,1771.94C507.378,1772.36 507.305,1772.68 507.015,1772.74C506.884,1772.77 506.71,1772.79 506.58,1772.79C506.492,1772.79 506.463,1772.84 506.463,1772.88C506.463,1772.97 506.536,1773 506.695,1773C506.913,1773 507.247,1772.97 507.537,1772.97C507.842,1772.95 508.089,1772.95 508.118,1772.95C508.191,1772.95 508.684,1773 509.323,1773.04C509.946,1773.08 510.716,1773.13 511.34,1773.13C513.807,1773.13 515.114,1772.11 515.738,1771.46C516.55,1770.6 517.305,1769.19 517.305,1767.37C517.305,1765.64 516.623,1764.43 515.897,1763.68C514.17,1761.89 511.514,1762.02 510.078,1762.02C509.207,1762.02 508.292,1762.07 508.118,1762.07C508.045,1762.07 507.131,1762.02 506.478,1762.02C506.318,1762.02 506.246,1762.05 506.246,1762.14C506.246,1762.2 506.304,1762.23 506.362,1762.23C506.492,1762.23 506.739,1762.24 506.855,1762.27C507.334,1762.37 507.45,1762.61 507.479,1763.1C507.508,1763.56 507.508,1763.97 507.508,1766.23L507.508,1768.79ZM503.673,1766.23C503.673,1763.97 503.673,1763.56 503.701,1763.1C503.731,1762.59 503.847,1762.34 504.239,1762.27C504.413,1762.24 504.5,1762.23 504.602,1762.23C504.66,1762.23 504.717,1762.2 504.717,1762.14C504.717,1762.05 504.645,1762.02 504.486,1762.02C504.05,1762.02 503.136,1762.07 503.063,1762.07C502.991,1762.07 502.076,1762.02 501.597,1762.02C501.438,1762.02 501.365,1762.05 501.365,1762.14C501.365,1762.2 501.423,1762.23 501.481,1762.23C501.583,1762.23 501.771,1762.24 501.931,1762.29C502.251,1762.36 502.396,1762.61 502.424,1763.1C502.454,1763.56 502.454,1763.97 502.454,1766.23L502.454,1768.79C502.454,1770.18 502.454,1771.33 502.381,1771.94C502.323,1772.36 502.251,1772.68 501.96,1772.74C501.829,1772.77 501.655,1772.79 501.525,1772.79C501.438,1772.79 501.409,1772.84 501.409,1772.88C501.409,1772.97 501.481,1773 501.641,1773C502.076,1773 502.991,1772.95 503.063,1772.95C503.136,1772.95 504.05,1773 504.848,1773C505.008,1773 505.081,1772.95 505.081,1772.88C505.081,1772.84 505.052,1772.79 504.965,1772.79C504.834,1772.79 504.515,1772.77 504.311,1772.74C503.876,1772.68 503.789,1772.36 503.745,1771.94C503.673,1771.33 503.673,1770.18 503.673,1768.79L503.673,1766.23ZM493.379,1763.8C493.161,1763.23 492.987,1762.78 492.987,1762.59C492.987,1762.49 493.016,1762.37 493.176,1762.3C493.306,1762.24 493.567,1762.23 493.727,1762.23C493.829,1762.23 493.872,1762.2 493.872,1762.13C493.872,1762.05 493.741,1762.02 493.48,1762.02C492.929,1762.02 492.275,1762.07 492.131,1762.07C491.956,1762.07 491.129,1762.02 490.432,1762.02C490.2,1762.02 490.055,1762.04 490.055,1762.13C490.055,1762.18 490.084,1762.23 490.171,1762.23C490.258,1762.23 490.505,1762.23 490.723,1762.29C491.231,1762.43 491.448,1762.59 491.768,1763.4L495.323,1772.3C495.599,1773 495.672,1773.2 495.846,1773.2C495.991,1773.2 496.049,1772.97 496.456,1772.1C496.789,1771.39 497.442,1769.82 498.328,1767.7C499.068,1765.91 499.794,1764.17 499.953,1763.77C500.345,1762.78 500.563,1762.53 500.752,1762.4C501.027,1762.23 501.347,1762.23 501.448,1762.23C501.564,1762.23 501.622,1762.2 501.622,1762.13C501.622,1762.05 501.535,1762.02 501.376,1762.02C500.955,1762.02 500.331,1762.07 500.244,1762.07C500.069,1762.07 499.402,1762.02 498.821,1762.02C498.589,1762.02 498.502,1762.05 498.502,1762.14C498.502,1762.21 498.575,1762.23 498.662,1762.23C498.821,1762.23 499.039,1762.23 499.213,1762.29C499.358,1762.36 499.402,1762.5 499.402,1762.62C499.402,1762.75 499.344,1762.95 499.271,1763.17C498.952,1764.22 497.007,1769.28 496.165,1771.23L493.379,1763.8ZM489.18,1766.23C489.18,1763.97 489.18,1763.56 489.209,1763.1C489.238,1762.59 489.354,1762.34 489.746,1762.27C489.92,1762.24 490.007,1762.23 490.109,1762.23C490.167,1762.23 490.225,1762.2 490.225,1762.14C490.225,1762.05 490.153,1762.02 489.993,1762.02C489.557,1762.02 488.643,1762.07 488.571,1762.07C488.498,1762.07 487.584,1762.02 487.104,1762.02C486.945,1762.02 486.873,1762.05 486.873,1762.14C486.873,1762.2 486.93,1762.23 486.988,1762.23C487.09,1762.23 487.279,1762.24 487.439,1762.29C487.758,1762.36 487.903,1762.61 487.932,1763.1C487.961,1763.56 487.961,1763.97 487.961,1766.23L487.961,1768.79C487.961,1770.18 487.961,1771.33 487.888,1771.94C487.83,1772.36 487.758,1772.68 487.467,1772.74C487.337,1772.77 487.163,1772.79 487.032,1772.79C486.945,1772.79 486.916,1772.84 486.916,1772.88C486.916,1772.97 486.988,1773 487.148,1773C487.584,1773 488.498,1772.95 488.571,1772.95C488.643,1772.95 489.557,1773 490.356,1773C490.515,1773 490.588,1772.95 490.588,1772.88C490.588,1772.84 490.559,1772.79 490.472,1772.79C490.341,1772.79 490.022,1772.77 489.819,1772.74C489.383,1772.68 489.296,1772.36 489.253,1771.94C489.18,1771.33 489.18,1770.18 489.18,1768.79L489.18,1766.23ZM477.348,1766C477.348,1764.88 477.348,1763.4 477.362,1762.91C477.362,1762.75 477.406,1762.68 477.536,1762.62C477.652,1762.56 478.189,1762.52 478.479,1762.52C480.207,1762.52 481.861,1762.72 483.225,1764.16C483.82,1764.78 484.619,1765.97 484.619,1767.82C484.619,1769.15 484.213,1770.54 483.458,1771.28C482.601,1772.14 481.353,1772.63 480.004,1772.63C478.291,1772.63 477.725,1772.33 477.536,1772.05C477.42,1771.89 477.391,1771.31 477.376,1770.95C477.362,1770.67 477.348,1769.34 477.348,1767.8L477.348,1766ZM476.128,1768.79C476.128,1770.18 476.128,1771.33 476.056,1771.94C475.998,1772.36 475.925,1772.68 475.635,1772.74C475.504,1772.77 475.33,1772.79 475.199,1772.79C475.112,1772.79 475.083,1772.84 475.083,1772.88C475.083,1772.97 475.156,1773 475.316,1773C475.533,1773 475.867,1772.97 476.158,1772.97C476.462,1772.95 476.709,1772.95 476.738,1772.95C476.811,1772.95 477.304,1773 477.943,1773.04C478.566,1773.08 479.336,1773.13 479.96,1773.13C482.427,1773.13 483.733,1772.11 484.358,1771.46C485.171,1770.6 485.925,1769.19 485.925,1767.37C485.925,1765.64 485.243,1764.43 484.518,1763.68C482.79,1761.89 480.134,1762.02 478.697,1762.02C477.826,1762.02 476.912,1762.07 476.738,1762.07C476.666,1762.07 475.751,1762.02 475.098,1762.02C474.938,1762.02 474.866,1762.05 474.866,1762.14C474.866,1762.2 474.924,1762.23 474.982,1762.23C475.112,1762.23 475.359,1762.24 475.475,1762.27C475.954,1762.37 476.071,1762.61 476.099,1763.1C476.128,1763.56 476.128,1763.97 476.128,1766.23L476.128,1768.79ZM463.923,1764.07C464.388,1764.59 466.025,1766.42 467.707,1768.24C469.242,1769.89 471.33,1772.02 471.49,1772.17C472.259,1772.94 472.435,1773.1 472.552,1773.1C472.653,1773.1 472.682,1773.03 472.682,1772.07L472.711,1763.56C472.711,1762.69 472.769,1762.37 473.248,1762.27C473.422,1762.23 473.524,1762.23 473.596,1762.23C473.698,1762.23 473.756,1762.18 473.756,1762.13C473.756,1762.04 473.655,1762.02 473.495,1762.02C472.9,1762.02 472.421,1762.07 472.259,1762.07C472.099,1762.07 471.403,1762.02 470.752,1762.02C470.578,1762.02 470.462,1762.04 470.462,1762.13C470.462,1762.18 470.476,1762.23 470.578,1762.23C470.694,1762.23 471.025,1762.24 471.286,1762.3C471.736,1762.42 471.838,1762.74 471.852,1763.68L472.012,1771.05C471.548,1770.57 469.968,1768.8 468.534,1767.26C466.301,1764.87 464.141,1762.53 463.923,1762.29C463.778,1762.14 463.529,1761.82 463.413,1761.82C463.297,1761.82 463.253,1761.98 463.253,1762.55L463.239,1770.86C463.239,1772.18 463.166,1772.61 462.803,1772.71C462.585,1772.78 462.324,1772.79 462.208,1772.79C462.136,1772.79 462.092,1772.82 462.092,1772.88C462.092,1772.98 462.179,1773 462.324,1773C462.977,1773 463.587,1772.95 463.72,1772.95C463.851,1772.95 464.431,1773 465.256,1773C465.43,1773 465.517,1772.97 465.517,1772.88C465.517,1772.82 465.474,1772.79 465.401,1772.79C465.27,1772.79 464.954,1772.78 464.678,1772.71C464.286,1772.59 464.141,1772.21 464.112,1771.02L463.923,1764.07ZM459.88,1766.23C459.88,1763.97 459.88,1763.56 459.908,1763.1C459.938,1762.59 460.054,1762.34 460.445,1762.27C460.62,1762.24 460.707,1762.23 460.809,1762.23C460.867,1762.23 460.924,1762.2 460.924,1762.14C460.924,1762.05 460.852,1762.02 460.693,1762.02C460.257,1762.02 459.343,1762.07 459.27,1762.07C459.197,1762.07 458.283,1762.02 457.804,1762.02C457.645,1762.02 457.572,1762.05 457.572,1762.14C457.572,1762.2 457.63,1762.23 457.688,1762.23C457.79,1762.23 457.978,1762.24 458.138,1762.29C458.457,1762.36 458.602,1762.61 458.631,1763.1C458.66,1763.56 458.66,1763.97 458.66,1766.23L458.66,1768.79C458.66,1770.18 458.66,1771.33 458.588,1771.94C458.53,1772.36 458.457,1772.68 458.167,1772.74C458.036,1772.77 457.862,1772.79 457.731,1772.79C457.645,1772.79 457.615,1772.84 457.615,1772.88C457.615,1772.97 457.688,1773 457.848,1773C458.283,1773 459.197,1772.95 459.27,1772.95C459.343,1772.95 460.257,1773 461.055,1773C461.215,1773 461.287,1772.95 461.287,1772.88C461.287,1772.84 461.258,1772.79 461.171,1772.79C461.041,1772.79 460.721,1772.77 460.518,1772.74C460.083,1772.68 459.996,1772.36 459.952,1771.94C459.88,1771.33 459.88,1770.18 459.88,1768.79L459.88,1766.23ZM445.696,1766.23C445.696,1764.03 445.696,1763.62 445.725,1763.16C445.754,1762.65 445.87,1762.4 446.262,1762.33C446.436,1762.3 446.523,1762.29 446.668,1762.29C446.784,1762.29 446.871,1762.26 446.871,1762.15C446.871,1762.05 446.77,1762.02 446.566,1762.02C446.073,1762.02 445.159,1762.07 444.811,1762.07C444.462,1762.07 443.548,1762.02 442.778,1762.02C442.561,1762.02 442.459,1762.05 442.459,1762.15C442.459,1762.26 442.546,1762.29 442.706,1762.29C442.909,1762.29 443.156,1762.3 443.272,1762.33C443.751,1762.43 443.867,1762.66 443.896,1763.16C443.925,1763.62 443.925,1764.03 443.925,1766.23L443.925,1768.79C443.925,1770.12 443.925,1771.27 443.853,1771.88C443.794,1772.3 443.722,1772.62 443.432,1772.68C443.301,1772.71 443.127,1772.74 442.909,1772.74C442.735,1772.74 442.677,1772.78 442.677,1772.85C442.677,1772.95 442.778,1773 442.967,1773C443.548,1773 444.462,1772.95 444.796,1772.95C445.159,1772.95 446.073,1773 446.886,1773C447.045,1773 447.162,1772.95 447.162,1772.85C447.162,1772.78 447.089,1772.74 446.973,1772.74C446.784,1772.74 446.465,1772.71 446.262,1772.68C445.899,1772.62 445.768,1772.3 445.739,1771.89C445.696,1771.27 445.696,1770.12 445.696,1768.79L445.696,1767.47L445.768,1767.47L445.928,1767.68C446.233,1768.11 449.092,1771.46 449.73,1772.02C450.355,1772.58 450.747,1772.89 451.53,1772.97C451.835,1773 452.096,1773 452.532,1773L453.794,1773C454.07,1773 454.143,1772.95 454.143,1772.85C454.143,1772.77 454.056,1772.74 453.954,1772.74C453.78,1772.74 453.489,1772.69 453.054,1772.52C452.271,1772.21 451.617,1771.56 450.979,1770.95C450.413,1770.41 447.568,1767.35 447.045,1766.67C447.539,1766.15 449.73,1763.97 450.181,1763.53C450.805,1762.92 451.298,1762.62 451.748,1762.44C452.024,1762.34 452.386,1762.29 452.59,1762.29C452.735,1762.29 452.807,1762.26 452.807,1762.15C452.807,1762.05 452.706,1762.02 452.561,1762.02C452.111,1762.02 451.312,1762.07 450.863,1762.07C450.471,1762.07 449.672,1762.02 449.368,1762.02C449.208,1762.02 449.135,1762.05 449.135,1762.15C449.135,1762.24 449.193,1762.27 449.324,1762.3C449.469,1762.33 449.527,1762.43 449.527,1762.59C449.527,1762.84 449.208,1763.2 448.802,1763.68C448.381,1764.17 446.262,1766.34 445.768,1766.87L445.696,1766.87L445.696,1766.23ZM432.948,1766.64C432.905,1766.64 432.861,1766.61 432.861,1766.54L432.861,1766.23C432.861,1764.03 432.861,1763.62 432.89,1763.16C432.919,1762.65 433.035,1762.4 433.427,1762.33C433.601,1762.3 433.732,1762.29 433.848,1762.29C434.022,1762.29 434.109,1762.26 434.109,1762.15C434.109,1762.05 434.008,1762.02 433.804,1762.02C433.238,1762.02 432.324,1762.07 431.975,1762.07C431.584,1762.07 430.669,1762.02 429.886,1762.02C429.682,1762.02 429.581,1762.05 429.581,1762.15C429.581,1762.26 429.668,1762.29 429.828,1762.29C430.031,1762.29 430.277,1762.3 430.394,1762.33C430.873,1762.43 430.989,1762.66 431.018,1763.16C431.047,1763.62 431.047,1764.03 431.047,1766.23L431.047,1768.79C431.047,1770.12 431.047,1771.27 430.974,1771.88C430.916,1772.3 430.844,1772.62 430.553,1772.68C430.423,1772.71 430.248,1772.74 430.031,1772.74C429.857,1772.74 429.798,1772.78 429.798,1772.85C429.798,1772.95 429.9,1773 430.089,1773C430.669,1773 431.584,1772.95 431.917,1772.95C432.324,1772.95 433.238,1773 434.182,1773C434.356,1773 434.472,1772.95 434.472,1772.85C434.472,1772.78 434.4,1772.74 434.24,1772.74C434.022,1772.74 433.703,1772.71 433.499,1772.68C433.064,1772.62 432.977,1772.3 432.934,1771.89C432.861,1771.27 432.861,1770.12 432.861,1768.79L432.861,1767.51C432.861,1767.44 432.905,1767.42 432.948,1767.42L438.492,1767.42C438.536,1767.42 438.58,1767.45 438.58,1767.51L438.58,1768.79C438.58,1770.12 438.58,1771.27 438.507,1771.88C438.448,1772.3 438.376,1772.62 438.086,1772.68C437.955,1772.71 437.781,1772.74 437.563,1772.74C437.389,1772.74 437.331,1772.78 437.331,1772.85C437.331,1772.95 437.433,1773 437.636,1773C438.202,1773 439.116,1772.95 439.45,1772.95C439.856,1772.95 440.771,1773 441.714,1773C441.888,1773 442.004,1772.95 442.004,1772.85C442.004,1772.78 441.932,1772.74 441.772,1772.74C441.555,1772.74 441.235,1772.71 441.032,1772.68C440.597,1772.62 440.51,1772.3 440.466,1771.89C440.394,1771.27 440.394,1770.12 440.394,1768.79L440.394,1766.23C440.394,1764.03 440.394,1763.62 440.422,1763.16C440.452,1762.65 440.568,1762.4 440.96,1762.33C441.133,1762.3 441.264,1762.29 441.38,1762.29C441.555,1762.29 441.642,1762.26 441.642,1762.15C441.642,1762.05 441.54,1762.02 441.337,1762.02C440.771,1762.02 439.856,1762.07 439.508,1762.07C439.116,1762.07 438.202,1762.02 437.418,1762.02C437.215,1762.02 437.113,1762.05 437.113,1762.15C437.113,1762.26 437.2,1762.29 437.36,1762.29C437.563,1762.29 437.81,1762.3 437.926,1762.33C438.405,1762.43 438.521,1762.66 438.55,1763.16C438.58,1763.62 438.58,1764.03 438.58,1766.23L438.58,1766.54C438.58,1766.61 438.536,1766.64 438.492,1766.64L432.948,1766.64ZM427.37,1770.53C427.37,1772.04 426.267,1772.39 425.614,1772.39C425.28,1772.39 424.946,1772.37 424.555,1772.21C424.09,1772.02 424.046,1771.78 424.046,1770.82L424.046,1767.38C424.046,1767.31 424.075,1767.28 424.133,1767.28C424.351,1767.28 424.496,1767.28 424.758,1767.29C425.324,1767.32 425.658,1767.42 425.962,1767.64C427.065,1768.41 427.37,1769.63 427.37,1770.53ZM424.046,1762.89C424.046,1762.74 424.075,1762.68 424.177,1762.65C424.322,1762.62 424.453,1762.62 424.656,1762.62C425.904,1762.62 426.47,1763.9 426.47,1764.87C426.47,1765.58 426.253,1766.1 425.875,1766.41C425.628,1766.62 425.309,1766.68 424.83,1766.68C424.496,1766.68 424.278,1766.67 424.148,1766.64C424.09,1766.62 424.046,1766.6 424.046,1766.48L424.046,1762.89ZM422.305,1768.79C422.305,1770.12 422.305,1771.27 422.232,1771.88C422.174,1772.3 422.101,1772.62 421.811,1772.68C421.681,1772.71 421.506,1772.74 421.289,1772.74C421.114,1772.74 421.057,1772.78 421.057,1772.85C421.057,1772.95 421.158,1773 421.347,1773C421.637,1773 422.015,1772.97 422.348,1772.97C422.696,1772.95 423.016,1772.95 423.176,1772.95C423.393,1772.95 423.829,1772.97 424.264,1773C424.685,1773.01 425.106,1773.04 425.28,1773.04C427.95,1773.04 429.155,1771.43 429.155,1769.88C429.155,1768.18 427.704,1767.15 426.513,1766.74C427.312,1766.1 427.994,1765.39 427.994,1764.2C427.994,1763.43 427.53,1762.02 424.903,1762.02C424.409,1762.02 423.843,1762.07 423.132,1762.07C422.842,1762.07 421.927,1762.02 421.158,1762.02C420.94,1762.02 420.839,1762.05 420.839,1762.15C420.839,1762.26 420.926,1762.29 421.085,1762.29C421.289,1762.29 421.535,1762.3 421.652,1762.33C422.131,1762.43 422.247,1762.66 422.276,1763.16C422.305,1763.62 422.305,1764.03 422.305,1766.23L422.305,1768.79ZM413.128,1768.96L409.848,1768.96C410.341,1768.31 412.75,1764.96 413.084,1764.48L413.128,1764.48L413.128,1768.96ZM413.128,1770.09C413.128,1770.56 413.142,1771.21 413.084,1771.85C413.055,1772.3 412.953,1772.62 412.401,1772.68C412.169,1772.71 411.85,1772.72 411.72,1772.72C411.647,1772.72 411.603,1772.77 411.603,1772.87C411.603,1772.97 411.676,1773 411.836,1773C412.634,1773 413.418,1772.95 413.824,1772.95C414.129,1772.95 415.058,1773 415.87,1773C416.03,1773 416.103,1772.97 416.103,1772.87C416.103,1772.77 416.045,1772.72 415.972,1772.72C415.827,1772.72 415.522,1772.71 415.319,1772.66C414.84,1772.56 414.753,1772.3 414.709,1771.85C414.651,1771.21 414.666,1770.56 414.666,1770.09L415.943,1770.09C416.19,1770.09 416.262,1770.04 416.335,1769.9C416.436,1769.72 416.581,1769.12 416.581,1768.99C416.581,1768.88 416.524,1768.82 416.451,1768.82C416.364,1768.82 416.175,1768.96 415.783,1768.96L414.666,1768.96L414.666,1764.25C414.666,1763.3 414.68,1762.29 414.68,1762.07C414.68,1761.92 414.637,1761.82 414.506,1761.82C414.361,1761.82 414.245,1761.95 414.129,1762.08C414.013,1762.23 408.599,1769.38 408.497,1769.5C408.44,1769.57 408.309,1769.7 408.309,1769.88C408.309,1770.04 408.497,1770.09 408.672,1770.09L413.128,1770.09Z" style="fill:rgb(88,87,85);fill-rule:nonzero;"/>
        </g>
        <g transform="matrix(1.47174,0,0,1.47174,-592.517,-2459.97)">
            <path d="M414.551,1848.03C415.883,1851.32 416.304,1852.31 417.216,1852.31C418.198,1852.31 418.618,1851.18 420.442,1847.12C421.985,1843.61 425.281,1835.96 429.77,1825.73C433.558,1817.1 435.451,1813.31 438.186,1806.72C440.08,1802.23 441.132,1801.04 442.044,1800.4C443.307,1799.56 444.779,1799.56 445.48,1799.56C446.182,1799.56 446.603,1799.42 446.603,1798.93C446.603,1798.44 446.042,1798.3 445.13,1798.3C443.026,1798.3 439.729,1798.51 438.537,1798.51C437.625,1798.51 434.68,1798.3 431.173,1798.3C429.84,1798.3 429.209,1798.44 429.209,1799C429.209,1799.49 429.77,1799.56 430.401,1799.56C431.313,1799.56 432.365,1799.63 433.207,1799.91C433.838,1800.12 434.119,1800.69 434.119,1801.25C434.119,1801.88 433.838,1802.93 433.487,1803.84C431.804,1808.47 422.686,1831.06 419.67,1838.77L419.39,1838.77L407.326,1806.93C406.345,1804.4 405.713,1802.44 405.713,1801.53C405.713,1800.9 405.923,1800.4 406.414,1800.06C406.976,1799.63 408.027,1799.56 409.15,1799.56C409.781,1799.56 410.202,1799.42 410.202,1798.93C410.202,1798.44 409.431,1798.3 408.589,1798.3C405.082,1798.3 401.715,1798.51 399.962,1798.51C397.507,1798.51 393.509,1798.3 389.792,1798.3C388.74,1798.3 387.969,1798.37 387.969,1798.93C387.969,1799.35 388.179,1799.56 388.81,1799.56C389.371,1799.56 390.493,1799.56 391.546,1799.84C394.071,1800.55 395.263,1801.32 396.876,1805.17L414.551,1848.03ZM454.234,1830.98C454.234,1837.79 454.234,1843.33 453.884,1846.28C453.673,1848.31 453.253,1849.5 451.85,1849.78C451.219,1849.92 450.377,1850.06 449.325,1850.06C448.483,1850.06 448.203,1850.27 448.203,1850.62C448.203,1851.11 448.693,1851.32 449.605,1851.32C452.411,1851.32 456.83,1851.11 458.443,1851.11C460.336,1851.11 464.756,1851.32 469.384,1851.32C470.156,1851.32 470.717,1851.11 470.717,1850.62C470.717,1850.27 470.366,1850.06 469.595,1850.06C468.543,1850.06 467,1849.92 466.018,1849.78C463.914,1849.5 463.423,1848.24 463.212,1846.35C462.932,1843.33 462.932,1837.79 462.932,1830.98L462.932,1818.64C462.932,1807.98 462.932,1806.02 463.072,1803.77C463.212,1801.32 463.773,1800.12 465.667,1799.77C466.509,1799.63 467.07,1799.56 467.771,1799.56C468.472,1799.56 468.893,1799.42 468.893,1798.86C468.893,1798.44 468.333,1798.3 467.421,1798.3C464.756,1798.3 460.617,1798.51 458.864,1798.51C456.83,1798.51 452.411,1798.3 449.746,1798.3C448.623,1798.3 448.063,1798.44 448.063,1798.86C448.063,1799.42 448.483,1799.56 449.185,1799.56C450.026,1799.56 450.938,1799.63 451.71,1799.84C453.253,1800.19 453.954,1801.39 454.094,1803.77C454.234,1806.02 454.234,1807.98 454.234,1818.64L454.234,1830.98ZM494.831,1818.64C494.831,1807.98 494.831,1806.02 494.971,1803.77C495.111,1801.32 495.673,1800.12 497.566,1799.77C498.408,1799.63 499.53,1799.56 500.302,1799.56C501.144,1799.56 501.564,1799.42 501.564,1798.93C501.564,1798.44 501.073,1798.3 500.092,1798.3C497.356,1798.3 492.236,1798.51 490.552,1798.51C488.659,1798.51 484.24,1798.3 480.944,1798.3C479.892,1798.3 479.4,1798.44 479.4,1798.93C479.4,1799.42 479.822,1799.56 480.593,1799.56C481.505,1799.56 482.346,1799.63 482.907,1799.77C485.222,1800.26 485.783,1801.39 485.923,1803.77C486.064,1806.02 486.064,1807.98 486.064,1818.64L486.064,1830.98C486.064,1837.44 486.064,1842.98 485.713,1845.92C485.432,1847.96 485.082,1849.5 483.679,1849.78C483.048,1849.92 482.206,1850.06 481.154,1850.06C480.312,1850.06 480.032,1850.27 480.032,1850.62C480.032,1851.11 480.523,1851.32 481.434,1851.32C482.837,1851.32 484.661,1851.18 486.274,1851.18C487.958,1851.11 489.501,1851.11 490.272,1851.11C493.148,1851.11 495.673,1851.18 498.829,1851.32C501.985,1851.39 505.633,1851.54 510.682,1851.54C514.33,1851.54 514.68,1851.18 515.101,1849.64C515.662,1847.61 516.153,1842.35 516.153,1841.58C516.153,1840.73 516.083,1840.38 515.592,1840.38C515.031,1840.38 514.891,1840.8 514.82,1841.43C514.68,1842.77 513.838,1844.73 512.997,1845.64C511.243,1847.54 508.508,1847.61 504.791,1847.61C499.32,1847.61 497.496,1847.12 496.304,1846.06C494.831,1844.8 494.831,1839.96 494.831,1830.98L494.831,1818.64ZM537.392,1818.64C537.392,1807.98 537.392,1806.02 537.532,1803.77C537.672,1801.32 538.233,1800.12 540.127,1799.77C540.969,1799.63 542.091,1799.56 542.862,1799.56C543.704,1799.56 544.125,1799.42 544.125,1798.93C544.125,1798.44 543.634,1798.3 542.652,1798.3C539.916,1798.3 534.796,1798.51 533.113,1798.51C531.219,1798.51 526.801,1798.3 523.504,1798.3C522.452,1798.3 521.961,1798.44 521.961,1798.93C521.961,1799.42 522.382,1799.56 523.153,1799.56C524.065,1799.56 524.907,1799.63 525.468,1799.77C527.783,1800.26 528.344,1801.39 528.484,1803.77C528.624,1806.02 528.624,1807.98 528.624,1818.64L528.624,1830.98C528.624,1837.44 528.624,1842.98 528.274,1845.92C527.993,1847.96 527.642,1849.5 526.24,1849.78C525.609,1849.92 524.767,1850.06 523.715,1850.06C522.873,1850.06 522.592,1850.27 522.592,1850.62C522.592,1851.11 523.083,1851.32 523.995,1851.32C525.398,1851.32 527.221,1851.18 528.835,1851.18C530.518,1851.11 532.061,1851.11 532.833,1851.11C535.708,1851.11 538.233,1851.18 541.39,1851.32C544.546,1851.39 548.193,1851.54 553.243,1851.54C556.89,1851.54 557.241,1851.18 557.661,1849.64C558.223,1847.61 558.714,1842.35 558.714,1841.58C558.714,1840.73 558.644,1840.38 558.152,1840.38C557.591,1840.38 557.451,1840.8 557.381,1841.43C557.241,1842.77 556.399,1844.73 555.558,1845.64C553.804,1847.54 551.068,1847.61 547.351,1847.61C541.881,1847.61 540.057,1847.12 538.865,1846.06C537.392,1844.8 537.392,1839.96 537.392,1830.98L537.392,1818.64ZM591.034,1833.02C591.385,1833.02 591.595,1833.16 591.735,1833.51L597.347,1848.38C597.697,1849.22 597.206,1849.85 596.715,1849.99C596.014,1850.06 595.733,1850.2 595.733,1850.62C595.733,1851.11 596.575,1851.11 597.837,1851.18C603.448,1851.32 608.569,1851.32 611.094,1851.32C613.689,1851.32 614.32,1851.18 614.32,1850.62C614.32,1850.13 613.969,1850.06 613.408,1850.06C612.566,1850.06 611.514,1849.99 610.462,1849.78C608.989,1849.36 606.955,1848.39 604.29,1842.1C599.801,1831.48 588.579,1802.86 586.896,1799C586.195,1797.39 585.774,1796.76 585.142,1796.76C584.441,1796.76 584.02,1797.53 583.179,1799.56L565.574,1843.61C564.171,1847.12 562.839,1849.5 559.612,1849.92C559.051,1849.99 558.069,1850.06 557.438,1850.06C556.876,1850.06 556.596,1850.2 556.596,1850.62C556.596,1851.18 557.017,1851.32 557.929,1851.32C561.576,1851.32 565.433,1851.11 566.205,1851.11C568.379,1851.11 571.395,1851.32 573.64,1851.32C574.411,1851.32 574.832,1851.18 574.832,1850.62C574.832,1850.2 574.622,1850.06 573.78,1850.06L572.728,1850.06C570.554,1850.06 569.922,1849.15 569.922,1847.89C569.922,1847.05 570.273,1845.36 570.975,1843.61L574.762,1833.58C574.902,1833.16 575.042,1833.02 575.393,1833.02L591.034,1833.02ZM576.796,1829.51C576.515,1829.51 576.445,1829.3 576.515,1829.02L582.968,1811.77C583.038,1811.49 583.179,1811.13 583.389,1811.13C583.599,1811.13 583.669,1811.49 583.739,1811.77L590.052,1829.09C590.122,1829.3 590.052,1829.51 589.701,1829.51L576.796,1829.51Z" style="fill:rgb(190,129,67);fill-rule:nonzero;"/>
        </g>
        <g transform="matrix(1.47174,0,0,1.47174,-592.517,-2588.6)">
            <path d="M443.045,1870.24L447.467,1870.24L445.37,1864.54L443.045,1870.24ZM436.774,1875.72L443.305,1860.74L447.628,1860.74L453.461,1875.72L449.488,1875.72L448.417,1872.8L441.963,1872.8L440.764,1875.72L436.774,1875.72ZM455.651,1875.72L455.651,1860.74L458.959,1860.74L463.765,1866.77L468.592,1860.74L471.9,1860.74L471.9,1875.72L468.216,1875.72L468.216,1866.45L463.765,1871.93L459.357,1866.45L459.357,1875.72L455.651,1875.72ZM480.359,1870.24L484.781,1870.24L482.683,1864.54L480.359,1870.24ZM474.087,1875.72L480.618,1860.74L484.941,1860.74L490.774,1875.72L486.802,1875.72L485.731,1872.8L479.277,1872.8L478.078,1875.72L474.087,1875.72ZM498.604,1866.88C499.298,1866.88 499.814,1866.74 500.154,1866.45C500.493,1866.16 500.661,1865.72 500.661,1865.13C500.661,1864.57 500.486,1864.13 500.132,1863.84C499.777,1863.54 499.269,1863.4 498.604,1863.4L496.802,1863.4L496.802,1866.88L498.604,1866.88ZM493.053,1875.72L493.053,1860.74L498.582,1860.74C500.614,1860.74 502.116,1861.1 503.088,1861.8C504.057,1862.51 504.543,1863.61 504.543,1865.09C504.543,1865.91 504.327,1866.62 503.9,1867.21C503.472,1867.8 502.818,1868.3 501.933,1868.7C502.306,1868.84 502.639,1869.06 502.935,1869.38C503.231,1869.7 503.487,1870.1 503.71,1870.59L506.1,1875.72L501.871,1875.72L499.964,1871.4C499.657,1870.72 499.306,1870.25 498.915,1869.99C498.52,1869.73 497.965,1869.6 497.241,1869.6C497.186,1869.6 497.109,1869.61 497.018,1869.61C496.923,1869.62 496.854,1869.62 496.802,1869.62L496.802,1875.72L493.053,1875.72ZM512.187,1863.77L512.187,1872.69L514.979,1872.69C516.25,1872.69 517.285,1872.28 518.089,1871.44C518.889,1870.61 519.291,1869.54 519.291,1868.22C519.291,1866.91 518.889,1865.84 518.089,1865.01C517.285,1864.18 516.25,1863.77 514.979,1863.77L512.187,1863.77ZM508.437,1875.72L508.437,1860.74L514.058,1860.74C515.666,1860.74 516.912,1860.86 517.796,1861.11C518.681,1861.35 519.496,1861.75 520.238,1862.31C521.195,1863.03 521.919,1863.89 522.412,1864.89C522.905,1865.89 523.15,1867.01 523.15,1868.22C523.15,1869.56 522.85,1870.77 522.251,1871.86C521.652,1872.95 520.782,1873.86 519.649,1874.58C519.006,1874.99 518.297,1875.28 517.518,1875.46C516.74,1875.63 515.585,1875.72 514.058,1875.72L508.437,1875.72ZM526.521,1875.72L526.521,1860.74L536.543,1860.74L536.543,1863.51L530.272,1863.51L530.272,1866.55L536.258,1866.55L536.258,1869.34L530.272,1869.34L530.272,1872.91L536.718,1872.91L536.718,1875.72L526.521,1875.72ZM540.269,1875.72L540.269,1860.74L550.29,1860.74L550.29,1863.51L544.018,1863.51L544.018,1866.55L550.005,1866.55L550.005,1869.34L544.018,1869.34L544.018,1872.91L550.465,1872.91L550.465,1875.72L540.269,1875.72ZM559.563,1866.95C560.269,1866.95 560.791,1866.81 561.135,1866.52C561.475,1866.24 561.646,1865.82 561.646,1865.24C561.646,1864.69 561.468,1864.27 561.113,1863.97C560.755,1863.67 560.247,1863.53 559.582,1863.53L557.787,1863.53L557.787,1866.95L559.563,1866.95ZM554.016,1875.72L554.016,1860.74L559.541,1860.74C561.57,1860.74 563.068,1861.11 564.044,1861.85C565.02,1862.58 565.506,1863.7 565.506,1865.22C565.506,1866.77 564.983,1867.94 563.941,1868.71C562.9,1869.48 561.332,1869.87 559.242,1869.87L557.787,1869.87L557.787,1875.72L554.016,1875.72Z" style="fill:rgb(206,108,49);"/>
        </g>
        <g transform="matrix(1.47174,0,0,1.47174,-592.517,-2794.4)">
            <path d="M502.204,1905.68L492.44,1921.58L517.813,1970.62L538.583,1970.46C538.072,1969.59 533.042,1968.33 531.388,1965.62C527.221,1958.77 521.804,1947.92 516.066,1936.59C508.642,1921.92 501.326,1907.07 502.204,1905.68" style="fill:rgb(188,104,40);fill-rule:nonzero;"/>
        </g>
        <g transform="matrix(1.47174,0,0,1.47174,-592.517,-2821.78)">
            <path d="M536.765,1940.68C536.765,1940.68 527.975,1944.52 525.652,1954.22L518.579,1940.68L536.765,1940.68Z" style="fill:rgb(190,129,67);fill-rule:nonzero;"/>
        </g>
        <g transform="matrix(1.47174,0,0,1.47174,-592.517,-2745.85)">
            <path d="M463.711,1889.07L483.69,1889.07L508.443,1937.47L500.158,1954.24L474.929,1902.68C473.217,1899.19 466.75,1889.07 463.711,1889.07" style="fill:rgb(190,129,67);fill-rule:nonzero;"/>
        </g>
        <g transform="matrix(1.47174,0,0,1.47174,-592.517,-2719.24)">
            <path d="M464.443,1919.38C464.443,1919.38 473.234,1915.54 475.557,1905.85L482.629,1919.38L464.443,1919.38Z" style="fill:rgb(188,104,40);fill-rule:nonzero;"/>
        </g>
    </g>
    <g transform="matrix(1,0,0,1,105.963,34.886)">
        <text x="0px" y="0px" style="font-family:'MicrosoftJhengHeiRegular', 'Microsoft JhengHei', sans-serif;font-size:35.194px;fill:rgb(206,108,49);">Newly Launched</text>
    </g>
    <defs>
        <radialGradient id="_Radial1" cx="0" cy="0" r="1" gradientUnits="userSpaceOnUse" gradientTransform="matrix(338.525,-5.7377,4,236,240,183)"><stop offset="0" style="stop-color:white;stop-opacity:1"/><stop offset="0.52" style="stop-color:rgb(248,248,248);stop-opacity:1"/><stop offset="1" style="stop-color:rgb(225,225,225);stop-opacity:1"/></radialGradient>
    </defs>
</svg>
