<?xml version="1.0" encoding="UTF-8" standalone="no"?>
<!DOCTYPE svg PUBLIC "-//W3C//DTD SVG 1.1//EN" "http://www.w3.org/Graphics/SVG/1.1/DTD/svg11.dtd">
<svg width="100%" height="100%" viewBox="0 0 490 342" version="1.1" xmlns="http://www.w3.org/2000/svg" xmlns:xlink="http://www.w3.org/1999/xlink" xml:space="preserve" xmlns:serif="http://www.serif.com/" style="fill-rule:evenodd;clip-rule:evenodd;stroke-linejoin:round;stroke-miterlimit:2;">
    <path d="M490,17.08C490,7.653 482.347,0 472.92,0L17.08,0C7.653,0 0,7.653 0,17.08L0,324.52C0,333.947 7.653,341.6 17.08,341.6L472.92,341.6C482.347,341.6 490,333.947 490,324.52L490,17.08Z" style="fill:rgb(253,180,180);"/>
    <g transform="matrix(1.99619,0,0,2.10153,-18.6995,-1682.58)">
        <path d="M89.456,860.118L93.793,860.118L95.561,855.781L103.738,855.781L105.506,860.118L109.954,860.118L101.666,840.642L97.743,840.642L89.456,860.118ZM97.08,852.024L99.649,845.753L102.219,852.024L97.08,852.024ZM112.937,860.118L117.109,860.118L117.109,847.576L122.496,855.753L122.606,855.753L128.048,847.494L128.048,860.118L132.274,860.118L132.274,840.781L127.689,840.781L122.606,848.958L117.523,840.781L112.937,840.781L112.937,860.118ZM135.258,860.118L139.595,860.118L141.363,855.781L149.54,855.781L151.308,860.118L155.756,860.118L147.468,840.642L143.545,840.642L135.258,860.118ZM142.882,852.024L145.451,845.753L148.02,852.024L142.882,852.024ZM158.739,860.118L162.993,860.118L162.993,853.93L166.336,853.93L170.48,860.118L175.452,860.118L170.728,853.212C173.187,852.3 174.872,850.339 174.872,847.217L174.872,847.162C174.872,845.339 174.292,843.819 173.214,842.742C171.944,841.471 170.037,840.781 167.579,840.781L158.739,840.781L158.739,860.118ZM162.993,850.173L162.993,844.62L167.22,844.62C169.292,844.62 170.562,845.56 170.562,847.383L170.562,847.438C170.562,849.068 169.374,850.173 167.303,850.173L162.993,850.173ZM178.712,860.118L186.253,860.118C192.331,860.118 196.53,855.891 196.53,850.449L196.53,850.394C196.53,844.952 192.331,840.781 186.253,840.781L178.712,840.781L178.712,860.118ZM182.966,856.278L182.966,844.62L186.253,844.62C189.734,844.62 192.082,847.024 192.082,850.449L192.082,850.505C192.082,853.93 189.734,856.278 186.253,856.278L182.966,856.278ZM200.314,860.118L215.038,860.118L215.038,856.333L204.541,856.333L204.541,852.273L213.657,852.273L213.657,848.488L204.541,848.488L204.541,844.565L214.9,844.565L214.9,840.781L200.314,840.781L200.314,860.118ZM218.823,860.118L233.547,860.118L233.547,856.333L223.049,856.333L223.049,852.273L232.166,852.273L232.166,848.488L223.049,848.488L223.049,844.565L233.409,844.565L233.409,840.781L218.823,840.781L218.823,860.118ZM237.332,860.118L241.586,860.118L241.586,854.317L244.818,854.317C249.155,854.317 252.636,851.996 252.636,847.521L252.636,847.466C252.636,843.516 249.846,840.781 245.233,840.781L237.332,840.781L237.332,860.118ZM241.586,850.532L241.586,844.62L244.873,844.62C247,844.62 248.327,845.643 248.327,847.549L248.327,847.604C248.327,849.262 247.084,850.532 244.957,850.532L241.586,850.532Z" style="fill:rgb(206,108,49);"/>
    </g>
    <g transform="matrix(1.99619,0,0,2.10153,-18.6995,-1530.6)">
        <path d="M13.683,833.319L22.086,833.319L22.086,817.986L37.583,817.986L37.583,833.319L45.987,833.319L45.987,795.121L37.583,795.121L37.583,810.237L22.086,810.237L22.086,795.121L13.683,795.121L13.683,833.319ZM88.277,833.319L96.681,833.319L96.681,795.121L88.277,795.121L88.277,833.319ZM124.619,833.974C131.604,833.974 137.007,831.245 140.936,827.917L140.936,811.328L124.347,811.328L124.347,818.586L132.805,818.586L132.805,824.043C130.676,825.57 127.948,826.334 124.892,826.334C118.126,826.334 113.324,821.205 113.324,814.22L113.324,814.111C113.324,807.618 118.18,802.215 124.292,802.215C128.712,802.215 131.331,803.634 134.278,806.09L139.571,799.705C135.587,796.322 131.44,794.467 124.565,794.467C112.996,794.467 104.538,803.361 104.538,814.22L104.538,814.329C104.538,825.625 112.724,833.974 124.619,833.974ZM149.011,833.319L157.415,833.319L157.415,817.986L172.912,817.986L172.912,833.319L181.316,833.319L181.316,795.121L172.912,795.121L172.912,810.237L157.415,810.237L157.415,795.121L149.011,795.121L149.011,833.319ZM199.378,833.319L207.781,833.319L207.781,802.87L219.404,802.87L219.404,795.121L187.755,795.121L187.755,802.87L199.378,802.87L199.378,833.319ZM238.612,833.865C246.852,833.865 252.636,829.609 252.636,822.023L252.636,821.914C252.636,815.257 248.271,812.474 240.522,810.455C233.919,808.764 232.283,807.945 232.283,805.435L232.283,805.326C232.283,803.47 233.974,801.997 237.193,801.997C240.413,801.997 243.741,803.416 247.125,805.762L251.49,799.432C247.616,796.322 242.869,794.576 237.303,794.576C229.499,794.576 223.934,799.159 223.934,806.09L223.934,806.199C223.934,813.784 228.899,815.912 236.593,817.876C242.978,819.513 244.287,820.605 244.287,822.733L244.287,822.842C244.287,825.079 242.214,826.444 238.776,826.444C234.411,826.444 230.809,824.643 227.371,821.805L222.405,827.753C226.989,831.846 232.828,833.865 238.612,833.865" style="fill:rgb(18,12,10);fill-rule:nonzero;"/>
    </g>
    <g transform="matrix(-0.467875,2.04299,1.94058,0.492566,-1458.74,-394.314)">
        <path d="M65.993,814.511C67.348,823.529 64.958,831.644 60.052,839.15C62.032,839.627 64.013,840.105 65.993,840.582C70.773,833.045 73.231,824.947 71.933,815.944C69.953,815.466 67.973,814.989 65.993,814.511" style="fill:rgb(0,152,77);"/>
    </g>
    <g transform="matrix(-0.467861,2.04299,1.94058,0.492551,-1432.82,-359.65)">
        <path d="M65.993,801.153C67.348,810.171 64.958,818.286 60.053,825.792C62.032,826.269 64.013,826.747 65.993,827.224C70.774,819.687 73.23,811.589 71.933,802.586C69.953,802.108 67.973,801.631 65.993,801.153" style="fill:rgb(0,139,206);"/>
    </g>
    <g transform="matrix(-0.467882,2.04299,1.94058,0.492574,-1406.89,-325.016)">
        <path d="M65.993,787.795C67.348,796.813 64.958,804.928 60.052,812.434C62.032,812.911 64.013,813.389 65.993,813.866C70.774,806.329 73.23,798.231 71.933,789.228C69.953,788.75 67.973,788.273 65.993,787.795" style="fill:rgb(182,144,58);"/>
    </g>
    <g transform="matrix(1.99619,0,0,2.10153,-18.6995,-1389.14)">
        <path d="M15.066,786.26L15.528,783.205L13.683,783.205L13.953,781.583L15.766,781.583L16.005,779.912L14.16,779.912L14.414,778.29L16.244,778.29L16.689,775.378L18.455,775.378L18.009,778.29L19.791,778.29L20.237,775.378L21.986,775.378L21.557,778.29L23.386,778.29L23.132,779.912L21.318,779.912L21.064,781.583L22.925,781.583L22.671,783.205L20.825,783.205L20.364,786.26L18.614,786.26L19.059,783.205L17.278,783.205L16.832,786.26L15.066,786.26ZM17.484,781.614L19.33,781.614L19.6,779.88L17.755,779.88L17.484,781.614ZM28.238,786.514C27.793,786.514 27.366,786.456 26.958,786.339C26.55,786.222 26.176,786.045 25.836,785.806C25.497,785.568 25.197,785.268 24.938,784.907C24.678,784.547 24.479,784.128 24.341,783.651L26.298,782.871C26.435,783.401 26.669,783.802 26.997,784.072C27.326,784.343 27.74,784.478 28.238,784.478C28.461,784.478 28.673,784.443 28.875,784.375C29.076,784.306 29.251,784.208 29.4,784.08C29.548,783.953 29.667,783.802 29.758,783.627C29.848,783.452 29.893,783.253 29.893,783.03C29.893,782.563 29.72,782.198 29.376,781.932C29.031,781.667 28.557,781.535 27.952,781.535L27.013,781.535L27.013,779.642L27.872,779.642C28.084,779.642 28.292,779.615 28.493,779.562C28.694,779.509 28.872,779.427 29.026,779.316C29.18,779.204 29.301,779.061 29.392,778.886C29.482,778.711 29.527,778.507 29.527,778.274C29.527,777.913 29.4,777.619 29.145,777.391C28.891,777.163 28.546,777.049 28.111,777.049C27.645,777.049 27.287,777.173 27.037,777.423C26.788,777.672 26.616,777.95 26.52,778.258L24.611,777.478C24.707,777.213 24.85,776.94 25.041,776.659C25.232,776.378 25.473,776.123 25.765,775.896C26.056,775.667 26.398,775.482 26.791,775.339C27.183,775.196 27.634,775.124 28.143,775.124C28.662,775.124 29.137,775.198 29.567,775.347C29.996,775.495 30.365,775.699 30.672,775.959C30.98,776.219 31.218,776.527 31.388,776.882C31.558,777.237 31.643,777.622 31.643,778.035C31.643,778.353 31.603,778.64 31.523,778.894C31.444,779.149 31.34,779.377 31.213,779.578C31.086,779.78 30.94,779.952 30.776,780.095C30.611,780.238 30.444,780.352 30.275,780.437L30.275,780.564C30.784,780.766 31.205,781.089 31.539,781.535C31.873,781.98 32.04,782.542 32.04,783.221C32.04,783.698 31.95,784.136 31.77,784.534C31.59,784.931 31.333,785.278 30.999,785.576C30.664,785.872 30.264,786.103 29.797,786.268C29.331,786.432 28.811,786.514 28.238,786.514ZM33.822,774.869L38.276,774.869C38.764,774.869 39.22,774.946 39.645,775.1C40.069,775.254 40.437,775.466 40.75,775.737C41.063,776.007 41.309,776.322 41.49,776.683C41.67,777.044 41.76,777.43 41.76,777.844C41.76,778.449 41.614,778.955 41.323,779.363C41.031,779.772 40.668,780.082 40.233,780.294L40.233,780.421C40.816,780.633 41.286,780.965 41.641,781.415C41.996,781.866 42.174,782.426 42.174,783.094C42.174,783.582 42.076,784.019 41.879,784.406C41.683,784.793 41.416,785.125 41.076,785.401C40.737,785.676 40.341,785.889 39.891,786.037C39.44,786.185 38.955,786.26 38.435,786.26L33.822,786.26L33.822,774.869ZM38.117,779.515C38.616,779.515 39,779.379 39.271,779.109C39.541,778.838 39.676,778.518 39.676,778.147C39.676,777.775 39.544,777.457 39.279,777.192C39.013,776.927 38.648,776.794 38.181,776.794L35.97,776.794L35.97,779.515L38.117,779.515ZM38.356,784.287C38.897,784.287 39.31,784.152 39.597,783.881C39.883,783.611 40.026,783.264 40.026,782.839C40.026,782.415 39.88,782.063 39.589,781.781C39.297,781.5 38.865,781.36 38.292,781.36L35.97,781.36L35.97,784.287L38.356,784.287ZM43.828,774.869L45.976,774.869L45.976,779.419L50.764,779.419L50.764,774.869L52.911,774.869L52.911,786.26L50.764,786.26L50.764,781.455L45.976,781.455L45.976,786.26L43.828,786.26L43.828,774.869ZM55.203,774.869L57.35,774.869L57.35,779.753L57.477,779.753L61.645,774.869L64.238,774.869L64.238,774.997L60.118,779.706L64.668,786.132L64.668,786.26L62.043,786.26L58.655,781.408L57.35,782.919L57.35,786.26L55.203,786.26L55.203,774.869ZM69.345,774.869L71.492,774.869L71.492,779.419L76.28,779.419L76.28,774.869L78.428,774.869L78.428,786.26L76.28,786.26L76.28,781.455L71.492,781.455L71.492,786.26L69.345,786.26L69.345,774.869ZM80.719,774.869L82.866,774.869L82.866,786.26L80.719,786.26L80.719,774.869ZM90.407,780.008L95.991,780.008C96.022,780.135 96.049,780.289 96.07,780.469C96.091,780.649 96.102,780.83 96.102,781.01C96.102,781.742 95.991,782.431 95.768,783.078C95.545,783.725 95.195,784.303 94.718,784.812C94.209,785.353 93.599,785.772 92.888,786.069C92.178,786.366 91.366,786.514 90.454,786.514C89.627,786.514 88.848,786.366 88.116,786.069C87.384,785.772 86.748,785.358 86.207,784.828C85.666,784.298 85.236,783.669 84.918,782.943C84.6,782.216 84.441,781.424 84.441,780.564C84.441,779.706 84.6,778.913 84.918,778.186C85.236,777.46 85.666,776.832 86.207,776.301C86.748,775.771 87.384,775.357 88.116,775.06C88.848,774.763 89.627,774.615 90.454,774.615C91.377,774.615 92.202,774.774 92.928,775.092C93.654,775.41 94.278,775.85 94.797,776.413L93.318,777.86C92.947,777.468 92.533,777.168 92.077,776.961C91.621,776.754 91.075,776.651 90.439,776.651C89.919,776.651 89.426,776.744 88.959,776.93C88.492,777.115 88.084,777.377 87.734,777.717C87.384,778.056 87.106,778.467 86.899,778.95C86.692,779.432 86.589,779.971 86.589,780.564C86.589,781.158 86.692,781.697 86.899,782.179C87.106,782.662 87.387,783.073 87.742,783.412C88.097,783.751 88.508,784.014 88.975,784.199C89.442,784.385 89.94,784.478 90.47,784.478C91.075,784.478 91.587,784.39 92.006,784.216C92.424,784.04 92.782,783.815 93.079,783.539C93.291,783.348 93.474,783.107 93.628,782.815C93.782,782.524 93.901,782.198 93.986,781.837L90.407,781.837L90.407,780.008ZM97.883,774.869L100.031,774.869L100.031,779.419L104.819,779.419L104.819,774.869L106.967,774.869L106.967,786.26L104.819,786.26L104.819,781.455L100.031,781.455L100.031,786.26L97.883,786.26L97.883,774.869ZM109.003,780.405L114.396,780.405L114.396,782.251L109.003,782.251L109.003,780.405ZM118.58,776.906L118.58,779.546L123.145,779.546L123.145,781.583L118.58,781.583L118.58,784.223L123.654,784.223L123.654,786.26L116.432,786.26L116.432,774.869L123.654,774.869L123.654,776.906L118.58,776.906ZM125.627,774.869L128.124,774.869L132.706,782.505L132.833,782.505L132.706,780.31L132.706,774.869L134.838,774.869L134.838,786.26L132.579,786.26L127.743,778.194L127.616,778.194L127.743,780.39L127.743,786.26L125.627,786.26L125.627,774.869ZM137.129,774.869L140.978,774.869C141.88,774.869 142.691,775.007 143.412,775.283C144.133,775.559 144.748,775.949 145.257,776.452C145.767,776.956 146.156,777.558 146.427,778.258C146.697,778.958 146.832,779.727 146.832,780.564C146.832,781.413 146.697,782.187 146.427,782.887C146.156,783.587 145.767,784.186 145.257,784.685C144.748,785.183 144.133,785.57 143.412,785.846C142.691,786.122 141.88,786.26 140.978,786.26L137.129,786.26L137.129,774.869ZM140.883,784.223C141.508,784.223 142.06,784.136 142.537,783.961C143.014,783.786 143.412,783.539 143.73,783.221C144.049,782.903 144.287,782.518 144.446,782.068C144.605,781.617 144.685,781.116 144.685,780.564C144.685,780.013 144.605,779.512 144.446,779.061C144.287,778.611 144.049,778.226 143.73,777.908C143.412,777.59 143.014,777.343 142.537,777.168C142.06,776.993 141.508,776.906 140.883,776.906L139.276,776.906L139.276,784.223L140.883,784.223ZM154.914,774.869L157.363,774.869L161.643,786.26L159.272,786.26L158.334,783.539L153.943,783.539L153.004,786.26L150.634,786.26L154.914,774.869ZM157.634,781.567L156.616,778.719L156.202,777.335L156.075,777.335L155.661,778.719L154.643,781.567L157.634,781.567ZM162.979,786.26L162.979,774.869L166.988,774.869C167.529,774.869 168.035,774.957 168.507,775.132C168.979,775.307 169.39,775.553 169.74,775.872C170.09,776.19 170.366,776.569 170.567,777.009C170.769,777.449 170.869,777.934 170.869,778.465C170.869,779.005 170.769,779.496 170.567,779.936C170.366,780.376 170.09,780.755 169.74,781.074C169.39,781.392 168.979,781.638 168.507,781.813C168.035,781.988 167.529,782.076 166.988,782.076L165.127,782.076L165.127,786.26L162.979,786.26ZM167.02,780.04C167.582,780.04 168.006,779.88 168.292,779.562C168.579,779.244 168.722,778.878 168.722,778.465C168.722,778.263 168.687,778.067 168.618,777.876C168.549,777.685 168.443,777.518 168.3,777.375C168.157,777.232 167.979,777.118 167.767,777.033C167.555,776.948 167.306,776.906 167.02,776.906L165.127,776.906L165.127,780.04L167.02,780.04ZM174.608,774.869L177.058,774.869L181.337,786.26L178.967,786.26L178.028,783.539L173.637,783.539L172.699,786.26L170.329,786.26L174.608,774.869ZM177.328,781.567L176.31,778.719L175.896,777.335L175.769,777.335L175.355,778.719L174.338,781.567L177.328,781.567ZM182.673,774.869L186.825,774.869C187.398,774.869 187.918,774.96 188.384,775.14C188.851,775.32 189.251,775.569 189.585,775.888C189.919,776.206 190.177,776.585 190.357,777.025C190.537,777.465 190.627,777.945 190.627,778.465C190.627,778.846 190.564,779.204 190.436,779.538C190.309,779.873 190.134,780.175 189.911,780.445C189.689,780.716 189.429,780.954 189.132,781.161C188.835,781.368 188.522,781.53 188.193,781.646L188.177,781.758L191.232,786.132L191.232,786.26L188.766,786.26L185.823,781.98L184.821,781.98L184.821,786.26L182.673,786.26L182.673,774.869ZM186.809,780.008C187.297,780.008 187.698,779.859 188.01,779.562C188.323,779.265 188.48,778.889 188.48,778.433C188.48,778.231 188.445,778.035 188.376,777.844C188.307,777.653 188.204,777.484 188.066,777.335C187.928,777.187 187.756,777.067 187.549,776.977C187.342,776.887 187.106,776.842 186.841,776.842L184.821,776.842L184.821,780.008L186.809,780.008ZM194.954,786.26L194.954,776.906L191.773,776.906L191.773,774.869L200.283,774.869L200.283,776.906L197.102,776.906L197.102,786.26L194.954,786.26ZM201.811,774.869L203.926,774.869L207.41,780.899L207.537,780.899L211.021,774.869L213.153,774.869L213.153,786.26L211.021,786.26L211.021,780.644L211.148,778.735L211.021,778.735L208.126,783.842L206.838,783.842L203.926,778.735L203.799,778.735L203.926,780.644L203.926,786.26L201.811,786.26L201.811,774.869ZM217.591,776.906L217.591,779.546L222.157,779.546L222.157,781.583L217.591,781.583L217.591,784.223L222.666,784.223L222.666,786.26L215.444,786.26L215.444,774.869L222.666,774.869L222.666,776.906L217.591,776.906ZM224.639,774.869L227.136,774.869L231.717,782.505L231.845,782.505L231.717,780.31L231.717,774.869L233.849,774.869L233.849,786.26L231.59,786.26L226.754,778.194L226.627,778.194L226.754,780.39L226.754,786.26L224.639,786.26L224.639,774.869ZM238.558,786.26L238.558,776.906L235.377,776.906L235.377,774.869L243.887,774.869L243.887,776.906L240.706,776.906L240.706,786.26L238.558,786.26ZM248.739,786.514C248.252,786.514 247.785,786.445 247.339,786.307C246.894,786.169 246.486,785.962 246.114,785.687C245.743,785.411 245.42,785.074 245.144,784.677C244.868,784.279 244.651,783.815 244.492,783.285L246.512,782.489C246.661,783.062 246.921,783.537 247.292,783.913C247.663,784.289 248.151,784.478 248.755,784.478C248.978,784.478 249.193,784.449 249.399,784.39C249.606,784.332 249.792,784.247 249.956,784.136C250.121,784.024 250.25,783.884 250.346,783.714C250.442,783.545 250.489,783.348 250.489,783.126C250.489,782.914 250.452,782.723 250.378,782.553C250.303,782.383 250.179,782.224 250.004,782.076C249.829,781.927 249.601,781.784 249.32,781.646C249.039,781.508 248.692,781.365 248.278,781.217L247.578,780.962C247.27,780.856 246.96,780.713 246.647,780.533C246.334,780.352 246.051,780.135 245.796,779.88C245.542,779.626 245.332,779.326 245.168,778.982C245.003,778.637 244.921,778.247 244.921,777.812C244.921,777.367 245.009,776.951 245.184,776.564C245.359,776.176 245.608,775.837 245.932,775.545C246.255,775.254 246.642,775.026 247.093,774.861C247.544,774.697 248.044,774.615 248.596,774.615C249.169,774.615 249.664,774.692 250.083,774.846C250.503,774.999 250.858,775.196 251.149,775.434C251.441,775.673 251.677,775.935 251.857,776.222C252.037,776.508 252.17,776.778 252.255,777.033L250.362,777.828C250.256,777.51 250.062,777.224 249.781,776.969C249.5,776.715 249.116,776.587 248.628,776.587C248.161,776.587 247.774,776.696 247.467,776.913C247.159,777.131 247.005,777.415 247.005,777.765C247.005,778.104 247.154,778.393 247.451,778.632C247.748,778.87 248.22,779.101 248.867,779.324L249.582,779.562C250.038,779.721 250.455,779.904 250.831,780.111C251.208,780.318 251.531,780.564 251.802,780.851C252.072,781.137 252.279,781.463 252.422,781.829C252.565,782.195 252.637,782.617 252.637,783.094C252.637,783.688 252.517,784.199 252.279,784.629C252.04,785.059 251.735,785.411 251.364,785.687C250.993,785.962 250.574,786.169 250.107,786.307C249.641,786.445 249.185,786.514 248.739,786.514" style="fill:rgb(60,58,57);fill-rule:nonzero;"/>
    </g>
    <g transform="matrix(1,0,0,1,105.963,34.886)">
        <text x="0px" y="0px" style="font-family:'MicrosoftJhengHeiRegular', 'Microsoft JhengHei', sans-serif;font-size:35.194px;fill:rgb(206,108,49);">Newly Launched</text>
    </g>
</svg>
