<?xml version="1.0" encoding="UTF-8" standalone="no"?><!DOCTYPE svg PUBLIC "-//W3C//DTD SVG 1.1//EN" "http://www.w3.org/Graphics/SVG/1.1/DTD/svg11.dtd"><svg width="100%" height="100%" viewBox="0 0 490 342" version="1.1" xmlns="http://www.w3.org/2000/svg" xmlns:xlink="http://www.w3.org/1999/xlink" xml:space="preserve" xmlns:serif="http://www.serif.com/" style="fill-rule:evenodd;clip-rule:evenodd;stroke-linejoin:round;stroke-miterlimit:2;"><path d="M490,17.08c0,-9.427 -7.653,-17.08 -17.08,-17.08l-455.84,0c-9.427,0 -17.08,7.653 -17.08,17.08l0,307.44c0,9.427 7.653,17.08 17.08,17.08l455.84,0c9.427,0 17.08,-7.653 17.08,-17.08l0,-307.44Z" style="fill:url(#_Radial1);"/><g><g><path d="M129.728,91.532l10.495,-0l-3.861,-8.583c-0.22,-0.544 -0.457,-1.176 -0.693,-1.886c-0.237,-0.711 -0.483,-1.501 -0.72,-2.378c-0.202,0.825 -0.421,1.588 -0.658,2.299c-0.228,0.71 -0.465,1.369 -0.702,1.965l-3.861,8.583Zm16.918,14.794l-4.265,-9.688l-14.917,-0l-4.37,9.688l-6.423,-0l18.225,-39.118l18.208,39.118l-6.458,-0Zm40.689,-18.585c-0.07,-0.29 -0.185,-1.098 -0.334,-2.414c-0.14,-1.096 -0.263,-2.009 -0.359,-2.728c-0.159,0.86 -0.378,1.719 -0.658,2.571c-0.281,0.86 -0.641,1.728 -1.071,2.623l-9.845,20.059l-9.846,-20.471c-0.412,-0.843 -0.772,-1.65 -1.07,-2.44c-0.299,-0.789 -0.562,-1.571 -0.781,-2.342c-0.018,0.789 -0.079,1.614 -0.193,2.483c-0.114,0.868 -0.281,1.772 -0.5,2.711l-4.037,18.533l-5.633,-0l8.897,-39.224l11.109,23.754c0.167,0.368 0.43,1 0.781,1.869c0.351,0.877 0.773,1.956 1.273,3.238c0.359,-1.08 0.93,-2.449 1.702,-4.107c0.202,-0.448 0.36,-0.79 0.456,-1.027l10.855,-23.727l9.099,39.224l-5.685,-0l-4.16,-18.585Zm22.683,3.791l10.495,-0l-3.861,-8.583c-0.219,-0.544 -0.456,-1.176 -0.694,-1.886c-0.236,-0.711 -0.482,-1.501 -0.719,-2.378c-0.202,0.825 -0.421,1.588 -0.658,2.299c-0.229,0.71 -0.465,1.369 -0.702,1.965l-3.861,8.583Zm16.918,14.794l-4.264,-9.688l-14.918,-0l-4.37,9.688l-6.423,-0l18.225,-39.118l18.208,39.118l-6.458,-0Zm16.102,-21.587l1.115,0c3.237,0 5.387,-0.377 6.448,-1.131c1.063,-0.755 1.598,-2.089 1.598,-4.011c-0,-2.07 -0.571,-3.527 -1.711,-4.378c-1.141,-0.852 -3.256,-1.273 -6.335,-1.273l-1.115,0l0,10.793Zm-0.369,4.739l0,16.848l-5.738,-0l-0,-37.644l8.528,-0c2.502,-0 4.441,0.166 5.827,0.491c1.378,0.324 2.553,0.86 3.527,1.614c1.168,0.913 2.063,2.089 2.704,3.528c0.631,1.439 0.947,3.01 0.947,4.73c-0,3.009 -0.728,5.37 -2.185,7.081c-1.457,1.702 -3.606,2.729 -6.449,3.071l12.951,17.129l-6.897,-0l-12.53,-16.848l-0.685,0Zm29.853,11.32l5.15,-0c2.826,-0 4.949,-0.185 6.362,-0.562c1.422,-0.378 2.65,-1.018 3.694,-1.904c1.422,-1.22 2.492,-2.729 3.203,-4.545c0.711,-1.808 1.071,-3.914 1.071,-6.31c-0,-2.404 -0.36,-4.501 -1.071,-6.309c-0.711,-1.816 -1.781,-3.325 -3.203,-4.546c-1.061,-0.886 -2.334,-1.526 -3.817,-1.904c-1.483,-0.377 -3.808,-0.561 -6.967,-0.561l-4.422,0l-0,26.641Zm-6.108,5.528l-0,-37.644l8.239,-0c5.371,-0 9.144,0.271 11.338,0.807c2.185,0.544 4.098,1.447 5.747,2.711c2.176,1.668 3.826,3.799 4.95,6.406c1.123,2.606 1.684,5.581 1.684,8.924c0,3.343 -0.561,6.301 -1.684,8.88c-1.124,2.58 -2.774,4.712 -4.95,6.397c-1.649,1.264 -3.518,2.168 -5.625,2.711c-2.097,0.536 -5.37,0.808 -9.81,0.808l-9.889,-0Zm38.969,-0l0,-37.644l21.008,-0l-0,5.212l-14.9,-0l-0,9.424l14.9,-0l-0,5.37l-14.9,0l-0,12.162l14.9,0l-0,5.476l-21.008,-0Zm28.018,-0l0,-37.644l21.007,-0l0,5.212l-14.899,-0l-0,9.424l14.899,-0l0,5.37l-14.899,0l-0,12.162l14.899,0l0,5.476l-21.007,-0Zm34.125,-21.902l1.571,-0c3.396,-0 5.66,-0.369 6.792,-1.106c1.132,-0.737 1.694,-2.036 1.694,-3.905c-0,-2 -0.606,-3.414 -1.817,-4.238c-1.202,-0.816 -3.431,-1.229 -6.669,-1.229l-1.571,0l0,10.478Zm-0.368,5.001l0,16.901l-5.739,-0l0,-37.644l9.249,-0c2.746,-0 4.765,0.148 6.063,0.447c1.29,0.298 2.422,0.799 3.387,1.483c1.185,0.868 2.106,2.053 2.782,3.527c0.667,1.483 1,3.116 1,4.897c0,1.79 -0.333,3.431 -1,4.94c-0.676,1.509 -1.597,2.694 -2.782,3.545c-0.965,0.684 -2.097,1.176 -3.387,1.466c-1.298,0.289 -3.317,0.438 -6.063,0.438l-3.51,0Z" style="fill:#3c3a39;fill-rule:nonzero;"/><path d="M86.594,116.457l327.383,-0c8.708,-0 16.569,4.567 22.217,11.923c5.459,7.11 8.849,16.872 8.849,27.569l-0,58.987c-0,10.696 -3.39,20.458 -8.849,27.568c-5.649,7.356 -13.51,11.923 -22.217,11.923l-327.383,-0c-8.707,-0 -16.568,-4.566 -22.216,-11.923c-5.46,-7.11 -8.849,-16.872 -8.849,-27.568l-0,-58.987c-0,-10.697 3.389,-20.46 8.849,-27.57c5.648,-7.356 13.508,-11.922 22.216,-11.922Zm327.383,6.385l-327.383,-0c-6.622,-0 -12.699,3.602 -17.153,9.403c-4.644,6.048 -7.527,14.436 -7.527,23.704l0,58.987c0,9.266 2.883,17.654 7.527,23.702c4.455,5.802 10.532,9.404 17.153,9.404l327.383,-0c6.622,-0 12.698,-3.602 17.153,-9.404c4.644,-6.048 7.527,-14.436 7.527,-23.702l0,-58.987c0,-9.267 -2.883,-17.656 -7.527,-23.703c-4.454,-5.802 -10.531,-9.404 -17.153,-9.404" style="fill:#297cb7;fill-rule:nonzero;"/><path d="M214.343,136.985l-0,96.914l-16.931,0l0,-96.914l16.931,0Z" style="fill:#aeca36;"/><path d="M87.019,233.899l-0,-16.93l72.651,0c4.533,0 8.021,-1.155 10.465,-3.466c2.444,-2.311 3.666,-5.376 3.666,-9.198c-0,-4.177 -1.222,-7.309 -3.666,-9.398c-2.444,-2.088 -5.932,-3.133 -10.465,-3.133l-44.524,0c-4.532,0 -8.642,-0.688 -12.33,-2.066c-3.688,-1.377 -6.799,-3.288 -9.332,-5.732c-2.532,-2.444 -4.488,-5.354 -5.865,-8.731c-1.378,-3.378 -2.066,-7.065 -2.066,-11.065c-0,-3.91 0.644,-7.531 1.933,-10.864c1.288,-3.333 3.199,-6.199 5.732,-8.599c2.533,-2.399 5.665,-4.287 9.398,-5.665c3.732,-1.377 7.998,-2.066 12.797,-2.066l69.586,-0l-0,16.93l-69.586,-0c-3.91,-0 -6.932,1.044 -9.065,3.133c-2.133,2.088 -3.199,4.999 -3.199,8.731c-0,3.733 1.089,6.621 3.266,8.665c2.177,2.044 5.132,3.066 8.864,3.066l44.391,0c9.865,0 17.352,2.31 22.462,6.931c5.111,4.622 7.665,11.643 7.665,21.063c0,4.088 -0.621,7.865 -1.866,11.331c-1.245,3.466 -3.11,6.465 -5.599,8.998c-2.488,2.533 -5.62,4.51 -9.398,5.932c-3.777,1.422 -8.198,2.133 -13.264,2.133l-72.651,0Zm214.106,-96.913l22.144,-0l37.725,44.657l37.859,-44.657l21.595,-0l-51.589,60.12l0,36.793l-16.93,0l0,-36.793l-51.202,-59.824l-63.056,47.027l65.454,49.59l-25.862,0l-54.256,-42.658c-1.511,-1.156 -2.466,-2.288 -2.866,-3.4c-0.399,-1.11 -0.599,-2.332 -0.599,-3.665c-0,-1.511 0.266,-2.844 0.799,-3.999c0.533,-1.156 1.689,-2.399 3.466,-3.733l51.323,-39.459l25.995,0l-0,0.001Z" style="fill:#297cb7;fill-rule:nonzero;"/></g></g><g><path d="M354.329,330.599l-5.404,-0c1.853,-2.093 3.236,-4.361 4.147,-6.803c0.911,-2.442 1.367,-5.241 1.367,-8.396c-0,-3.405 -0.505,-6.394 -1.516,-8.966c-0.791,-1.99 -2.124,-4.15 -3.998,-6.483l5.404,-0c1.667,2.645 2.83,5.121 3.492,7.428c0.661,2.306 0.991,5.022 0.991,8.146c0,3.062 -0.348,5.743 -1.046,8.045c-0.698,2.301 -1.843,4.644 -3.437,7.029Zm-206.929,-30.648l5.405,-0c-1.853,2.093 -3.236,4.363 -4.147,6.811c-0.911,2.447 -1.367,5.243 -1.367,8.388c0,3.405 0.505,6.399 1.515,8.982c0.792,1.989 2.125,4.145 3.999,6.467l-5.405,-0c-1.666,-2.645 -2.83,-5.121 -3.491,-7.428c-0.661,-2.306 -0.992,-5.022 -0.992,-8.146c0,-3.062 0.349,-5.743 1.047,-8.045c0.698,-2.301 1.843,-4.644 3.436,-7.029Zm120.132,0.437c3.252,0 6.047,1.177 8.386,3.531c2.34,2.353 3.51,5.222 3.51,8.607c-0,3.353 -1.155,6.191 -3.463,8.513c-2.308,2.322 -5.109,3.483 -8.401,3.483c-3.45,0 -6.315,-1.192 -8.598,-3.577c-2.282,-2.385 -3.423,-5.217 -3.423,-8.497c0,-2.198 0.532,-4.218 1.595,-6.061c1.063,-1.844 2.524,-3.304 4.384,-4.382c1.86,-1.078 3.864,-1.617 6.01,-1.617Zm-72.363,3.702l-3.24,2.859c-1.137,-1.583 -2.295,-2.374 -3.474,-2.374c-0.573,-0 -1.043,0.153 -1.408,0.46c-0.365,0.308 -0.548,0.654 -0.548,1.039c0,0.386 0.131,0.75 0.392,1.094c0.354,0.458 1.423,1.442 3.207,2.952c1.669,1.395 2.681,2.275 3.036,2.64c0.887,0.896 1.515,1.752 1.885,2.57c0.371,0.817 0.556,1.71 0.556,2.679c-0,1.884 -0.652,3.441 -1.955,4.67c-1.303,1.229 -3.002,1.843 -5.098,1.843c-1.636,0 -3.062,-0.401 -4.277,-1.202c-1.214,-0.802 -2.254,-2.062 -3.119,-3.781l3.676,-2.218c1.106,2.031 2.378,3.046 3.818,3.046c0.751,0 1.382,-0.218 1.893,-0.656c0.511,-0.437 0.766,-0.942 0.766,-1.515c0,-0.521 -0.193,-1.041 -0.579,-1.562c-0.386,-0.521 -1.236,-1.317 -2.55,-2.39c-2.504,-2.041 -4.121,-3.616 -4.851,-4.725c-0.73,-1.109 -1.095,-2.216 -1.095,-3.32c-0,-1.593 0.607,-2.96 1.822,-4.1c1.214,-1.141 2.713,-1.711 4.496,-1.711c1.147,0 2.239,0.266 3.277,0.797c1.037,0.531 2.16,1.5 3.37,2.905Zm35.943,-3.124l12.544,0l-0,4.28l-8.201,0l-0,4.155l8.201,0l-0,4.202l-8.201,0l-0,6.046l8.201,-0l-0,4.295l-12.544,0l0,-22.978Zm87.008,0l4.196,0l9.832,15.121l-0,-15.121l4.374,0l-0,22.978l-4.208,0l-9.82,-15.074l0,15.074l-4.374,0l0,-22.978Zm-118.687,0l4.343,0l-0,22.978l-4.343,0l0,-22.978Zm102.051,0l12.544,0l-0,4.28l-8.201,0l-0,4.155l8.201,0l-0,4.202l-8.201,0l-0,6.046l8.201,-0l-0,4.295l-12.544,0l0,-22.978Zm-17.948,0l4.639,0c2.51,0 4.319,0.232 5.428,0.695c1.109,0.464 1.984,1.214 2.625,2.25c0.64,1.036 0.96,2.278 0.96,3.725c0,1.604 -0.419,2.937 -1.257,3.999c-0.838,1.062 -1.976,1.802 -3.413,2.218c-0.844,0.24 -2.38,0.36 -4.608,0.36l-0,9.731l-4.374,0l-0,-22.978Zm-74.824,0l5.182,0c3.34,0 5.821,0.414 7.444,1.242c1.624,0.828 2.961,2.174 4.012,4.038c1.051,1.864 1.576,4.041 1.576,6.53c-0,1.77 -0.294,3.397 -0.882,4.881c-0.588,1.484 -1.399,2.715 -2.435,3.694c-1.035,0.979 -2.156,1.656 -3.363,2.031c-1.207,0.375 -3.298,0.562 -6.274,0.562l-5.26,0l0,-22.978Zm-44.489,-0.578l4.359,0l0,14.793l2.047,0l-0,4.046l-2.047,-0l0,4.717l-4.28,0l0,-4.717l-10.028,-0l-0,-4.046l9.949,-14.793Zm103.262,4.28c-2.126,0 -3.914,0.74 -5.363,2.219c-1.449,1.478 -2.174,3.358 -2.174,5.639c0,2.541 0.913,4.55 2.737,6.029c1.418,1.156 3.044,1.734 4.879,1.734c2.074,0 3.841,-0.75 5.3,-2.249c1.46,-1.5 2.19,-3.348 2.19,-5.546c-0,-2.187 -0.735,-4.038 -2.205,-5.553c-1.47,-1.515 -3.258,-2.273 -5.364,-2.273Zm-54.43,0.516l-0,14.496l2.03,-0c2,-0 3.45,-0.229 4.351,-0.688c0.901,-0.459 1.637,-1.23 2.21,-2.314c0.573,-1.085 0.859,-2.419 0.859,-4.004c0,-2.439 -0.682,-4.331 -2.046,-5.676c-1.229,-1.209 -3.202,-1.814 -5.92,-1.814l-1.484,-0Zm-48.753,9.997l0,-7.701l-5.248,7.701l5.248,0Zm123.608,-5.233l1.39,0c1.093,0 1.854,-0.078 2.281,-0.235c0.426,-0.157 0.762,-0.415 1.007,-0.776c0.245,-0.36 0.367,-0.796 0.367,-1.308c0,-0.889 -0.344,-1.536 -1.031,-1.944c-0.5,-0.303 -1.427,-0.454 -2.78,-0.454l-1.234,-0l-0,4.717Zm-223.87,-35.303l-4.202,0c0.219,-1.697 0.828,-3.062 1.828,-4.092c1.395,-1.438 3.15,-2.156 5.264,-2.156c1.885,-0 3.465,0.599 4.741,1.796c1.275,1.198 1.913,2.619 1.913,4.265c0,1.02 -0.278,1.952 -0.835,2.796c-0.558,0.843 -1.367,1.525 -2.43,2.046c1.396,0.417 2.487,1.143 3.273,2.179c0.786,1.036 1.179,2.257 1.179,3.663c0,2.062 -0.76,3.809 -2.28,5.241c-1.521,1.432 -3.458,2.148 -5.811,2.148c-2.229,-0 -4.046,-0.674 -5.452,-2.023c-1.406,-1.349 -2.176,-3.184 -2.312,-5.506l4.327,-0c0.188,1.187 0.602,2.07 1.242,2.647c0.641,0.578 1.45,0.867 2.429,0.867c1.021,0 1.867,-0.328 2.539,-0.984c0.671,-0.656 1.007,-1.458 1.007,-2.405c0,-1.042 -0.453,-1.922 -1.359,-2.64c-0.906,-0.719 -2.213,-1.088 -3.921,-1.109l0,-3.749c1.052,-0.084 1.836,-0.248 2.351,-0.492c0.516,-0.245 0.917,-0.581 1.203,-1.008c0.286,-0.427 0.43,-0.88 0.43,-1.359c-0,-0.625 -0.219,-1.143 -0.657,-1.554c-0.437,-0.411 -1.01,-0.617 -1.718,-0.617c-0.625,-0 -1.192,0.19 -1.702,0.57c-0.511,0.38 -0.86,0.872 -1.047,1.476Zm377.758,-2.546l-3.239,2.859c-1.138,-1.583 -2.296,-2.375 -3.474,-2.375c-0.574,0 -1.044,0.154 -1.409,0.461c-0.365,0.307 -0.547,0.653 -0.547,1.039c-0,0.385 0.13,0.75 0.391,1.093c0.354,0.458 1.424,1.443 3.207,2.953c1.67,1.395 2.681,2.275 3.036,2.64c0.887,0.895 1.515,1.752 1.886,2.569c0.37,0.818 0.555,1.711 0.555,2.679c0,1.885 -0.651,3.442 -1.954,4.671c-1.304,1.229 -3.003,1.843 -5.098,1.843c-1.637,-0 -3.063,-0.401 -4.277,-1.203c-1.215,-0.802 -2.255,-2.062 -3.12,-3.78l3.676,-2.218c1.106,2.03 2.379,3.046 3.818,3.046c0.751,-0 1.382,-0.219 1.893,-0.656c0.511,-0.438 0.766,-0.943 0.766,-1.515c0,-0.521 -0.192,-1.042 -0.578,-1.563c-0.386,-0.52 -1.237,-1.317 -2.551,-2.39c-2.504,-2.041 -4.121,-3.616 -4.851,-4.725c-0.73,-1.109 -1.095,-2.215 -1.095,-3.319c-0,-1.594 0.607,-2.96 1.822,-4.101c1.214,-1.14 2.713,-1.71 4.496,-1.71c1.147,-0 2.239,0.265 3.277,0.796c1.037,0.532 2.161,1.5 3.37,2.906Zm-339.937,10.825l2.606,2.984l-2.354,2.138l3.689,3.907l-5.302,0l-1.515,-1.562c-2.417,1.427 -4.661,2.14 -6.733,2.14c-1.761,-0 -3.185,-0.516 -4.273,-1.546c-1.088,-1.031 -1.633,-2.354 -1.633,-3.968c0,-1.219 0.309,-2.369 0.926,-3.452c0.616,-1.083 1.672,-2.203 3.167,-3.359c-1.479,-1.989 -2.218,-3.749 -2.218,-5.28c-0,-1.135 0.489,-2.254 1.468,-3.358c0.979,-1.104 2.359,-1.656 4.14,-1.656c1.801,0 3.184,0.547 4.147,1.64c0.963,1.094 1.445,2.198 1.445,3.312c0,0.875 -0.221,1.713 -0.664,2.515c-0.442,0.802 -1.46,1.989 -3.054,3.561c1.865,2.198 3.069,3.567 3.61,4.109c0.334,-0.25 1.183,-0.958 2.548,-2.125Zm202.974,-13.949l4.389,-0l0,14.859c0,1.28 0.112,2.185 0.336,2.716c0.224,0.53 0.594,0.954 1.109,1.272c0.516,0.317 1.138,0.476 1.867,0.476c0.77,-0 1.434,-0.177 1.991,-0.531c0.558,-0.354 0.943,-0.804 1.156,-1.35c0.214,-0.546 0.321,-1.589 0.321,-3.129l-0,-14.313l4.389,-0l0,13.699c0,2.312 -0.13,3.916 -0.39,4.811c-0.261,0.896 -0.758,1.76 -1.492,2.594c-0.734,0.833 -1.581,1.45 -2.539,1.851c-0.958,0.401 -2.072,0.601 -3.342,0.601c-1.667,-0 -3.117,-0.383 -4.351,-1.148c-1.234,-0.766 -2.116,-1.724 -2.648,-2.874c-0.531,-1.151 -0.796,-3.096 -0.796,-5.835l-0,-13.699Zm22.864,-0l4.261,-0l5.327,16.027l5.375,-16.027l4.259,-0l3.855,22.978l-4.23,0l-2.464,-14.512l-4.881,14.512l-3.855,0l-4.838,-14.512l-2.523,14.512l-4.265,0l3.979,-22.978Zm-31.971,-0l4.342,-0l0,22.978l-4.342,0l-0,-22.978Zm82.837,-0l4.374,-0l-0,18.807l6.373,0l0,4.171l-10.747,0l0,-22.978Zm-15.293,-0l11.403,-0l0,4.264l-7.06,0l-0,4.171l7.06,0l0,4.202l-7.06,0l-0,10.341l-4.343,0l0,-22.978Zm-112.641,-0l12.543,-0l0,4.28l-8.201,-0l0,4.155l8.201,0l0,4.202l-8.201,0l0,6.045l8.201,0l0,4.296l-12.543,0l-0,-22.978Zm163.409,-0l12.7,-0l-0,4.311l-4.187,0l0,18.667l-4.436,0l-0,-18.667l-4.077,0l-0,-4.311Zm-199.915,-0l4.639,-0c2.51,-0 4.319,0.232 5.428,0.695c1.109,0.463 1.984,1.213 2.625,2.249c0.64,1.037 0.96,2.278 0.96,3.726c0,1.604 -0.419,2.937 -1.257,3.999c-0.839,1.062 -1.976,1.801 -3.413,2.218c-0.844,0.239 -2.38,0.359 -4.608,0.359l-0,9.732l-4.374,0l-0,-22.978Zm55.355,-0l4.262,-0l5.326,16.027l5.375,-16.027l4.259,-0l3.855,22.978l-4.23,0l-2.464,-14.512l-4.881,14.512l-3.855,0l-4.838,-14.512l-2.523,14.512l-4.264,0l3.978,-22.978Zm-105.904,-0l4.436,-0l0,8.669l7.67,0l-0,-8.669l4.421,-0l-0,22.978l-4.421,0l-0,-10.075l-7.67,-0l0,10.075l-4.436,0l-0,-22.978Zm-18.542,22.978l-0,-22.978l3.613,-0c2.095,-0 3.628,0.135 4.598,0.406c1.376,0.364 2.471,1.041 3.284,2.031c0.814,0.989 1.22,2.155 1.22,3.499c0,0.874 -0.185,1.669 -0.554,2.382c-0.37,0.713 -0.971,1.382 -1.805,2.007c1.396,0.656 2.416,1.476 3.062,2.46c0.646,0.985 0.969,2.148 0.969,3.492c-0,1.291 -0.334,2.468 -1.001,3.53c-0.667,1.062 -1.528,1.856 -2.58,2.382c-1.053,0.526 -2.508,0.789 -4.363,0.789l-6.443,0Zm254.615,-22.978l4.436,-0l8.838,22.978l-4.546,0l-1.798,-4.733l-9.376,-0l-1.869,4.733l-4.546,0l8.861,-22.978Zm-214.267,-0l4.421,-0l0,7.922l6.238,-7.922l5.252,-0l-8.024,10.255l8.804,12.723l-5.186,0l-7.084,-10.209l0,10.209l-4.421,0l0,-22.978Zm-59.235,-0.578l4.359,-0l0,14.793l2.047,-0l-0,4.046l-2.047,-0l0,4.717l-4.28,0l0,-4.717l-10.028,-0l-0,-4.046l9.949,-14.793Zm106.207,0.578l4.634,-0c2.538,-0 4.346,0.226 5.422,0.679c1.077,0.453 1.943,1.206 2.598,2.258c0.655,1.051 0.983,2.296 0.983,3.733c0,1.51 -0.362,2.773 -1.085,3.788c-0.724,1.015 -1.815,1.783 -3.273,2.304l5.444,10.216l-4.782,0l-5.167,-9.732l-0.4,0l0,9.732l-4.374,0l0,-22.978Zm-136.203,18.376c-0.805,-0.789 -1.938,-2.098 -3.4,-3.927c-1.541,1.281 -2.312,2.4 -2.312,3.359c0,0.447 0.211,0.859 0.632,1.234c0.421,0.374 0.955,0.562 1.6,0.562c0.926,-0 2.086,-0.409 3.48,-1.228Zm53.257,-5.458l-0,5.889l1.096,0c1.817,0 3.042,-0.229 3.673,-0.687c0.632,-0.458 0.948,-1.125 0.948,-2c-0,-0.989 -0.371,-1.77 -1.112,-2.343c-0.742,-0.572 -1.974,-0.859 -3.697,-0.859l-0.908,0Zm-23.182,1.297l0,-7.701l-5.248,7.701l5.248,-0Zm275.669,-8.123l-3.083,7.888l6.147,0l-3.064,-7.888Zm-252.487,-1.921l-0,4.842l0.956,0c1.066,0 1.858,-0.224 2.376,-0.672c0.517,-0.447 0.776,-1.057 0.776,-1.827c-0,-0.719 -0.246,-1.289 -0.737,-1.711c-0.491,-0.422 -1.239,-0.632 -2.242,-0.632l-1.129,-0Zm69.091,4.811l1.39,-0c1.093,-0 1.853,-0.079 2.28,-0.235c0.427,-0.157 0.763,-0.416 1.008,-0.776c0.245,-0.361 0.367,-0.797 0.367,-1.309c0,-0.888 -0.344,-1.536 -1.031,-1.943c-0.5,-0.303 -1.427,-0.455 -2.78,-0.455l-1.234,0l-0,4.718Zm18.229,-0l1.37,-0c1.392,-0 2.349,-0.183 2.874,-0.549c0.524,-0.365 0.786,-0.971 0.786,-1.818c-0,-0.501 -0.13,-0.937 -0.389,-1.308c-0.26,-0.371 -0.608,-0.638 -1.044,-0.8c-0.436,-0.162 -1.235,-0.243 -2.398,-0.243l-1.199,0l0,4.718Zm-143.18,-0.094c1.156,-0.989 1.734,-1.864 1.734,-2.624c-0,-0.396 -0.131,-0.719 -0.391,-0.969c-0.26,-0.25 -0.604,-0.375 -1.031,-0.375c-0.396,0 -0.732,0.141 -1.007,0.422c-0.276,0.281 -0.414,0.609 -0.414,0.984c-0,0.75 0.369,1.604 1.109,2.562Z" style="fill:#3c3a39;fill-rule:nonzero;"/></g><g><text x="108.52px" y="34.886px" style="font-family:'MicrosoftJhengHeiRegular', 'Microsoft JhengHei', sans-serif;font-size:35.194px;fill:#ce6c31;">Newly Launched</text></g><defs><radialGradient id="_Radial1" cx="0" cy="0" r="1" gradientUnits="userSpaceOnUse" gradientTransform="matrix(338.525,-5.7377,4,236,240,183)"><stop offset="0" style="stop-color:#fff;stop-opacity:1"/><stop offset="0.52" style="stop-color:#f8f8f8;stop-opacity:1"/><stop offset="1" style="stop-color:#e1e1e1;stop-opacity:1"/></radialGradient></defs></svg>