<?xml version="1.0" encoding="UTF-8" standalone="no"?><!DOCTYPE svg PUBLIC "-//W3C//DTD SVG 1.1//EN" "http://www.w3.org/Graphics/SVG/1.1/DTD/svg11.dtd"><svg width="100%" height="100%" viewBox="0 0 490 342" version="1.1" xmlns="http://www.w3.org/2000/svg" xmlns:xlink="http://www.w3.org/1999/xlink" xml:space="preserve" xmlns:serif="http://www.serif.com/" style="fill-rule:evenodd;clip-rule:evenodd;stroke-linejoin:round;stroke-miterlimit:1.41421;"><g><path d="M490,17.08c0,-9.427 -7.653,-17.08 -17.08,-17.08l-455.84,0c-9.427,0 -17.08,7.653 -17.08,17.08l0,307.44c0,9.427 7.653,17.08 17.08,17.08l455.84,0c9.427,0 17.08,-7.653 17.08,-17.08l0,-307.44Z" style="fill:#493928;"/><g><path d="M208.726,202.542l12.071,-4.959l5,11.971l-12.071,4.958l-5,-11.97Zm21.156,-110.696l2.802,-4.814l6.948,3.979l-0.485,0.835l-9.265,0Zm22.79,90.9l0.486,-0.834l9.265,0l-2.803,4.813l-6.948,-3.979Zm-12.193,-91.846l5.673,-5.626l5.674,5.626l-0.952,0.946l-9.442,0l-0.953,-0.946Zm0,91.956l0.953,-0.944l9.442,0l0.952,0.944l-5.674,5.628l-5.673,-5.628Zm12.193,-91.845l6.948,-3.979l2.803,4.814l-9.265,0l-0.486,-0.835Zm-13.525,90.901l0.485,0.834l-6.948,3.979l-2.802,-4.813l9.265,0Zm-6.733,-97.799l5.747,-7.427l7.49,5.699l-5.747,7.427l-7.49,-5.699Zm14.241,107.26l5.745,-7.427l7.49,5.698l-5.746,7.427l-7.489,-5.698Zm0,-108.988l7.489,-5.699l5.746,7.427l-7.49,5.699l-5.745,-7.427Zm-14.241,107.259l7.489,-5.698l5.747,7.427l-7.489,5.698l-5.747,-7.427Zm28.445,-105.274l8.722,-3.581l3.612,8.648l-5.862,2.409l-3.35,0l-3.122,-7.476Zm-41.747,99.95l5.863,-2.408l3.348,0l3.121,7.474l-8.719,3.583l-3.613,-8.649Zm54.95,-94.385l9.359,-1.222l0.416,3.133l-9.521,0l-0.254,-1.911Zm-56.073,91.977l0.254,1.911l-9.36,1.221l-0.416,-3.132l9.522,0Zm65.848,0l-0.416,3.132l-9.359,-1.221l0.254,-1.911l9.521,0Zm-65.594,-91.977l-0.254,1.911l-9.522,0l0.416,-3.133l9.36,1.222Zm54.95,94.385l-3.612,8.649l-8.722,-3.583l3.123,-7.474l3.346,0l5.865,2.408Zm-41.749,-99.95l-3.121,7.476l-3.349,0l-5.862,-2.409l3.613,-8.648l8.719,3.581Zm6.855,-11.129l7.853,-7.787l7.853,7.787l-7.853,7.788l-7.853,-7.788Zm0,127.275l7.853,-7.788l7.853,7.788l-7.853,7.788l-7.853,-7.788Zm16.878,-127.122l9.616,-5.508l5.554,9.539l-9.618,5.507l-5.552,-9.538Zm-33.219,122.938l9.618,-5.506l5.552,9.539l-9.617,5.505l-5.553,-9.538Zm49.479,-118.459l10.727,-2.851l2.875,10.638l-10.728,2.851l-2.874,-10.638Zm-64.171,110.224l10.727,-2.851l2.875,10.639l-10.728,2.85l-2.874,-10.638Zm78.709,-101.723l11.106,0l0,5.472l-11.106,0l0,-5.472Zm-79.646,95.538l0,5.472l-11.106,0l0,-5.472l11.106,0Zm90.752,0l0,5.472l-11.106,0l0,-5.472l11.106,0Zm-90.752,-95.538l0,5.472l-11.106,0l0,-5.472l11.106,0Zm78.71,101.723l-2.875,10.638l-10.727,-2.85l2.874,-10.639l10.728,2.851Zm-64.171,-110.224l-2.875,10.638l-10.727,-2.851l2.874,-10.638l10.728,2.851Zm49.479,118.459l-5.554,9.538l-9.616,-5.505l5.552,-9.539l9.618,5.506Zm-33.219,-122.938l-5.552,9.538l-9.618,-5.507l5.553,-9.539l9.617,5.508Zm9.719,-11.939l10.365,-7.887l7.953,10.28l-10.365,7.887l-7.953,-10.28Zm-19.709,148.456l10.366,-7.888l7.954,10.28l-10.366,7.888l-7.954,-10.28Zm39.37,-145.707l12.07,-4.959l5,11.971l-12.07,4.959l-5,-11.971Zm18.273,7.7l12.955,-1.691l1.705,12.846l-12.954,1.691l-1.706,-12.846Zm-91.917,118.794l12.954,-1.69l1.705,12.845l-12.954,1.692l-1.705,-12.847Zm107.559,-106.665l12.954,1.691l-0.813,6.122l-13.178,0l1.037,-7.813Zm-107.504,97.879l-1.038,7.813l-12.953,-1.692l0.813,-6.121l13.178,0Zm119.645,0l0.813,6.121l-12.954,1.692l-1.037,-7.813l13.178,0Zm-120.683,-97.879l1.038,7.813l-13.178,0l-0.813,-6.122l12.953,-1.691Zm107.56,106.665l-1.705,12.847l-12.955,-1.692l1.706,-12.845l12.954,1.69Zm-91.918,-118.794l-1.705,12.846l-12.954,-1.691l1.705,-12.846l12.954,1.691Zm76.055,130.638l-5,11.97l-12.07,-4.958l5,-11.971l12.07,4.959Zm-57.781,-138.338l-5,11.971l-12.071,-4.959l5,-11.971l12.071,4.959Zm39.368,145.707l-7.953,10.28l-10.365,-7.888l7.953,-10.28l10.365,7.888Zm-19.707,-148.456l-7.954,10.28l-10.366,-7.887l7.954,-10.28l10.366,7.887Zm13.183,-12.445l13.312,-7.621l7.685,13.2l-13.31,7.622l-7.687,-13.201Zm-45.975,170.158l13.311,-7.622l7.685,13.202l-13.31,7.621l-7.686,-13.201Zm68.482,-163.958l14.847,-3.946l3.98,14.725l-14.847,3.946l-3.98,-14.725Zm-88.818,152.559l14.847,-3.946l3.979,14.725l-14.848,3.945l-3.978,-14.724Zm108.941,-140.794l15.371,0l0,15.243l-15.371,0l0,-15.243Zm-125.609,124.564l15.371,0l0,15.243l-15.371,0.001l0,-15.244Zm141.975,-108.035l14.847,3.945l-1.188,4.397l-15.913,0l2.254,-8.342Zm-140.716,98.408l-2.253,8.342l-14.848,-3.945l1.188,-4.397l15.913,0Zm154.375,0l1.188,4.397l-14.847,3.945l-2.254,-8.342l15.913,0Zm-156.628,-98.408l2.253,8.342l-15.913,0l-1.188,-4.397l14.848,-3.945Zm141.974,108.035l0,15.244l-15.371,0l0,-15.244l15.371,0Zm-125.609,-124.564l0,15.243l-15.371,0l0,-15.243l15.371,0Zm108.942,140.794l-3.98,14.724l-14.847,-3.945l3.978,-14.725l14.849,3.946Zm-88.819,-152.559l-3.979,14.725l-14.847,-3.946l3.978,-14.725l14.848,3.946Zm68.482,163.958l-7.685,13.201l-13.312,-7.621l7.687,-13.202l13.31,7.622Zm-45.976,-170.158l-7.685,13.201l-13.311,-7.622l7.686,-13.2l13.31,7.621Zm23.359,175.949l-10.869,10.778l-10.869,-10.778l10.869,-10.779l10.869,10.779Zm0,-176.161l-10.869,10.779l-10.869,-10.779l10.869,-10.778l10.869,10.778Z" style="fill:url(#_Linear1);"/><path d="M88.092,108.514l0,28.269l4.035,0l0,-21.939l19.244,21.939l3.672,0l0,-28.269l-4.036,0l0,21.807c-1.515,-1.723 -4.709,-5.296 -9.587,-10.716c-4.036,-4.503 -7.274,-8.201 -9.712,-11.091l-3.616,0Zm266.001,0.005l0,-0.005l-9.065,0c-2.169,0 -6.028,0.132 -6.028,5.376c0,8.214 0,14.68 0,22.893l4.035,0l0,-20.629c0,-2.829 1.42,-4.05 3.89,-4.012l2.128,0l0,0.015l4.755,0c2.864,0 4.717,0.341 5.552,1.012c0.838,0.675 1.259,1.915 1.259,3.721l0,0.85c0,1.775 -0.432,3.013 -1.298,3.698c-0.87,0.69 -2.711,1.034 -5.513,1.034l-6.798,0l0,3.476l7.995,0c2.214,0 3.706,0.425 4.47,1.272c0.761,0.843 1.144,2.458 1.144,4.855l0,4.729l3.891,0l0,-5.878c0,-2.119 -0.325,-3.677 -0.972,-4.664c-0.648,-0.986 -1.777,-1.668 -3.376,-2.044c1.468,-0.253 2.556,-0.873 3.275,-1.868c0.717,-0.996 1.073,-2.368 1.073,-4.12l0,-1.991c0,-2.854 -0.71,-4.843 -2.139,-5.957c-1.071,-0.836 -2.81,-1.359 -5.213,-1.567c-0.966,-0.083 -2.099,-0.174 -3.065,-0.196Zm40.744,18.292l4.954,10.152l4.422,0l-13.792,-28.269l-3.153,0l-14.295,28.269l4.54,0l5.06,-10.152l6.229,-12.273l6.035,12.273Zm-102.141,-0.181l4.954,10.153l4.422,0l-13.79,-28.269l-3.154,0l-14.296,28.269l4.542,0l5.059,-10.153l6.23,-12.272l6.033,12.272Zm25.95,-14.488l0,24.641l-4.035,0l0,-24.641l-10.932,0l0,-3.628l25.858,0l0,3.628l-10.891,0Zm-59.737,24.641l0,-12.883l-15.012,0l0,-3.629l15.012,0l0,-11.757l4.036,0l0,28.269l-4.036,0Zm-18.879,0l-4.035,0l0,-28.269l4.035,0c0,9.423 0,18.846 0,28.269Zm-27.339,0.293c-3.813,0 -6.924,-0.64 -9.335,-1.918c-2.388,-1.293 -3.851,-3.151 -4.39,-5.577l4.297,0c1.112,2.578 4.268,3.867 9.469,3.867c2.412,0 4.373,-0.334 5.887,-1c1.793,-0.751 2.69,-1.878 2.69,-3.378c0,-1.084 -0.281,-1.876 -0.841,-2.377c-0.559,-0.499 -1.555,-0.945 -2.984,-1.334c-0.841,-0.222 -2.817,-0.639 -5.929,-1.251c-3.672,-0.723 -6.18,-1.404 -7.526,-2.044c-2.887,-1.361 -4.331,-3.418 -4.331,-6.17c0,-5.115 4.064,-7.672 12.193,-7.672c6.521,0 10.564,2.038 12.127,6.113l-4.326,0c-0.396,-0.632 -0.894,-1.098 -1.493,-1.401c-1.374,-0.723 -3.477,-1.085 -6.308,-1.085c-5.438,0 -8.156,1.348 -8.156,4.045c0,1.279 0.644,2.238 1.934,2.878c1.065,0.499 2.929,0.972 5.592,1.417c5.214,0.861 8.717,1.793 10.511,2.794c2.383,1.334 3.574,3.391 3.574,6.17c0,2.808 -1.5,4.907 -4.499,6.296c-2.27,1.085 -4.99,1.627 -8.156,1.627Zm-25.883,-0.293l-15.606,-13.682l-5.038,3.586l0,10.096l-4.037,0l0,-28.269l4.037,0l0,13.635l19.719,-13.635l6.642,0l-18.072,12.39l18.108,15.879l-5.753,0Zm-42.015,-10.153l4.955,10.153l4.421,0l-13.79,-28.269l-3.153,0l-14.297,28.269l4.541,0l5.06,-10.153l6.23,-12.272l6.033,12.272Z" style="fill:url(#_Linear2);"/><path d="M186.499,156.976c-15.307,0.251 -24.033,0.723 -24.033,1.267c0,0.544 8.726,1.023 24.033,1.27l0,-2.537Zm119.307,0c15.307,0.251 24.032,0.723 24.032,1.267c0,0.544 -8.725,1.023 -24.032,1.27l0,-2.537Z" style="fill:#f1ce99;"/><path d="M198.63,146.921l6.897,0l0,1.065l-0.472,0c-0.551,0 -0.945,0.053 -1.181,0.157c-0.236,0.104 -0.392,0.286 -0.498,0.52c-0.051,0.208 -0.104,0.598 -0.104,1.196l0,4.941l9.282,0l0,-4.81c0,-0.651 -0.026,-1.041 -0.052,-1.198c-0.079,-0.259 -0.236,-0.467 -0.446,-0.598c-0.236,-0.129 -0.577,-0.208 -1.023,-0.208l-0.707,0l0,-1.065l6.816,0l0,1.065l-0.602,0c-0.498,0 -0.839,0.053 -1.023,0.157c-0.209,0.104 -0.341,0.26 -0.419,0.441c-0.079,0.183 -0.132,0.573 -0.132,1.171l0,12.066c0,0.675 0.053,1.091 0.132,1.274c0.078,0.182 0.261,0.312 0.497,0.39c0.158,0.051 0.683,0.077 1.547,0.077l0,1.067l-6.816,0l0,-1.067l0.498,0c0.629,0 1.048,-0.052 1.259,-0.129c0.209,-0.079 0.34,-0.208 0.392,-0.39c0.053,-0.156 0.079,-0.598 0.079,-1.353l0,-5.512l-9.282,0l0,5.643c0,0.675 0.053,1.091 0.131,1.274c0.105,0.182 0.262,0.312 0.524,0.39c0.183,0.051 0.734,0.077 1.6,0.077l0,1.067l-6.897,0l0,-1.067l0.447,0c0.655,0 1.074,-0.026 1.232,-0.103c0.183,-0.078 0.314,-0.208 0.393,-0.416c0.105,-0.208 0.157,-0.572 0.157,-1.093l0,-12.195c0,-0.546 -0.052,-0.936 -0.131,-1.144c-0.079,-0.208 -0.236,-0.364 -0.419,-0.468c-0.184,-0.104 -0.524,-0.157 -0.971,-0.157l-0.708,0l0,-1.065Z" style="fill:#e2caa0;fill-rule:nonzero;"/><path d="M230.254,161.326l0.813,0.65c-0.63,0.728 -1.233,1.326 -1.81,1.768c-0.577,0.417 -1.128,0.729 -1.652,0.911c-0.525,0.182 -1.127,0.259 -1.835,0.259c-1.259,0 -2.308,-0.259 -3.199,-0.753c-0.996,-0.599 -1.783,-1.352 -2.308,-2.288c-0.551,-0.937 -0.813,-2.028 -0.813,-3.303c0,-1.352 0.262,-2.47 0.787,-3.432c0.525,-0.936 1.232,-1.691 2.176,-2.237c0.944,-0.545 2.019,-0.806 3.252,-0.806c0.918,0 1.704,0.13 2.386,0.416c0.655,0.287 1.233,0.703 1.704,1.275c0.472,0.572 0.814,1.222 1.023,1.95c0.131,0.416 0.183,0.988 0.21,1.664l-9.02,0c-0.027,0.416 -0.053,0.728 -0.053,0.936c0,1.066 0.183,2.002 0.577,2.834c0.367,0.833 0.865,1.457 1.468,1.847c0.63,0.39 1.312,0.598 2.098,0.598c0.682,0 1.311,-0.156 1.941,-0.469c0.628,-0.311 1.363,-0.909 2.255,-1.82Zm-1.627,-5.096c-0.13,-0.781 -0.314,-1.353 -0.549,-1.716c-0.236,-0.39 -0.551,-0.677 -0.998,-0.885c-0.419,-0.233 -0.917,-0.338 -1.442,-0.338c-0.523,0 -1.048,0.105 -1.521,0.338c-0.445,0.208 -0.838,0.521 -1.153,0.911c-0.315,0.39 -0.577,0.935 -0.813,1.69l6.476,0Z" style="fill:#e2caa0;fill-rule:nonzero;"/><path d="M236.127,146.349c0.394,0 0.734,0.13 1.049,0.415c0.288,0.287 0.419,0.65 0.419,1.04c0,0.417 -0.131,0.755 -0.419,1.041c-0.315,0.286 -0.655,0.442 -1.049,0.442c-0.42,0 -0.761,-0.156 -1.048,-0.442c-0.289,-0.286 -0.447,-0.624 -0.447,-1.041c0,-0.39 0.158,-0.753 0.447,-1.04c0.287,-0.285 0.628,-0.415 1.048,-0.415Zm-3.252,7.879l0,-1.066c0.709,-0.079 1.312,-0.208 1.783,-0.364c0.472,-0.131 1.023,-0.39 1.653,-0.703l0.917,0l0,10.168c0,0.364 0.053,0.624 0.157,0.806c0.106,0.156 0.236,0.285 0.421,0.364c0.183,0.077 0.524,0.129 1.022,0.129l0.603,0l0,1.067l-6.556,0l0,-1.067l0.525,0c0.577,0 0.943,-0.052 1.154,-0.155c0.183,-0.105 0.314,-0.234 0.393,-0.443c0.105,-0.181 0.132,-0.624 0.132,-1.299l0,-7.437l-2.204,0Z" style="fill:#e2caa0;fill-rule:nonzero;"/><path d="M250.732,153.396c0.393,-0.442 0.787,-0.78 1.18,-0.988c0.394,-0.208 0.761,-0.313 1.102,-0.313c0.288,0 0.551,0.079 0.76,0.261c0.21,0.182 0.314,0.416 0.314,0.65c0,0.285 -0.104,0.493 -0.287,0.675c-0.185,0.182 -0.421,0.287 -0.708,0.287c-0.132,0 -0.289,-0.026 -0.498,-0.052c-0.236,-0.053 -0.421,-0.079 -0.604,-0.079c-0.21,0 -0.419,0.105 -0.655,0.287c0.523,0.65 0.786,1.378 0.786,2.236c0,1.17 -0.499,2.184 -1.495,3.042c-0.97,0.859 -2.229,1.3 -3.75,1.3c-0.838,0 -1.677,-0.182 -2.517,-0.52c-0.55,0.39 -0.865,0.624 -0.944,0.728c-0.13,0.131 -0.183,0.286 -0.183,0.442c0,0.261 0.131,0.443 0.393,0.598c0.315,0.234 0.97,0.39 1.915,0.546l3.697,0.547c0.813,0.13 1.651,0.338 2.464,0.624c0.84,0.312 1.442,0.675 1.81,1.17c0.367,0.468 0.551,1.04 0.551,1.691c0,1.117 -0.525,2.002 -1.574,2.677c-1.311,0.859 -3.278,1.275 -5.874,1.275c-1.389,0 -2.491,-0.13 -3.356,-0.416c-0.839,-0.312 -1.494,-0.703 -1.966,-1.223c-0.341,-0.39 -0.525,-0.78 -0.525,-1.196c0,-0.519 0.184,-1.014 0.525,-1.534c0.34,-0.494 1.153,-1.197 2.412,-2.132c-0.813,-0.182 -1.389,-0.443 -1.757,-0.702c-0.419,-0.339 -0.655,-0.729 -0.655,-1.171c0,-0.233 0.053,-0.416 0.131,-0.623c0.079,-0.183 0.209,-0.365 0.393,-0.573c0.184,-0.182 0.525,-0.441 0.997,-0.78c0.314,-0.208 0.523,-0.364 0.655,-0.467c-0.63,-0.443 -1.102,-0.937 -1.416,-1.483c-0.315,-0.546 -0.471,-1.144 -0.471,-1.794c0,-1.066 0.419,-2.028 1.257,-2.808c1.023,-0.988 2.387,-1.483 4.117,-1.483c0.761,0 1.442,0.105 2.02,0.287c0.577,0.182 1.153,0.519 1.756,1.014Zm-3.881,-0.131c-0.838,0 -1.546,0.287 -2.15,0.911c-0.577,0.598 -0.864,1.326 -0.864,2.236c0,0.572 0.13,1.118 0.392,1.612c0.263,0.468 0.656,0.833 1.128,1.118c0.472,0.286 0.971,0.416 1.52,0.416c0.525,0 1.023,-0.13 1.521,-0.416c0.472,-0.285 0.84,-0.65 1.102,-1.144c0.262,-0.468 0.393,-1.014 0.393,-1.586c0,-0.937 -0.289,-1.69 -0.838,-2.288c-0.578,-0.572 -1.312,-0.859 -2.204,-0.859Zm-2.044,11.026c-0.813,0.676 -1.364,1.248 -1.653,1.69c-0.262,0.416 -0.393,0.832 -0.393,1.248c0,0.338 0.131,0.65 0.393,0.962c0.289,0.339 0.734,0.598 1.39,0.78c0.656,0.208 1.469,0.313 2.439,0.313c1.179,0 2.176,-0.131 3.015,-0.364c0.813,-0.261 1.416,-0.573 1.783,-0.963c0.263,-0.312 0.393,-0.676 0.393,-1.092c0,-0.337 -0.104,-0.65 -0.315,-0.884c-0.236,-0.261 -0.628,-0.468 -1.232,-0.651c-0.602,-0.181 -1.18,-0.311 -1.704,-0.39l-4.116,-0.649Z" style="fill:#e2caa0;fill-rule:nonzero;"/><path d="M254.98,148.169l0,-1.092c0.84,-0.105 1.495,-0.234 1.94,-0.39c0.472,-0.156 0.944,-0.364 1.469,-0.677l0.996,0l0,8.4c0.97,-0.806 1.888,-1.379 2.727,-1.769c0.866,-0.364 1.705,-0.546 2.466,-0.546c1.153,0 2.097,0.338 2.831,1.014c0.734,0.677 1.102,1.483 1.102,2.471l0,6.215c0,0.624 0.052,1.014 0.156,1.222c0.079,0.182 0.263,0.311 0.499,0.416c0.209,0.077 0.734,0.129 1.547,0.129l0,1.067l-6.634,0l0,-1.067l0.499,0c0.602,0 1.021,-0.052 1.232,-0.155c0.183,-0.079 0.34,-0.261 0.419,-0.469c0.079,-0.234 0.131,-0.701 0.131,-1.404l0,-4.316c0,-0.963 -0.026,-1.587 -0.105,-1.872c-0.131,-0.495 -0.393,-0.885 -0.786,-1.17c-0.393,-0.287 -0.918,-0.442 -1.521,-0.442c-0.708,0 -1.442,0.155 -2.203,0.519c-0.76,0.339 -1.547,0.859 -2.36,1.535l0,6.344c0,0.469 0.053,0.806 0.132,0.963c0.079,0.156 0.236,0.286 0.419,0.338c0.209,0.077 0.603,0.129 1.181,0.129l0.523,0l0,1.067l-6.66,0l0,-1.067l0.393,0c0.63,0 1.102,-0.077 1.364,-0.234c0.157,-0.077 0.289,-0.208 0.341,-0.441c0.078,-0.208 0.105,-0.832 0.105,-1.82l0,-12.898l-2.203,0Z" style="fill:#e2caa0;fill-rule:nonzero;"/><path d="M275.669,148.065l0.918,0l0,4.317l3.801,0l0,1.273l-3.801,0l0,7.645c0,0.65 0.052,1.119 0.183,1.379c0.105,0.285 0.315,0.52 0.578,0.702c0.287,0.181 0.602,0.26 0.943,0.26c0.787,0 1.704,-0.364 2.675,-1.093l0,1.223c-1.127,0.753 -2.256,1.143 -3.409,1.143c-0.63,0 -1.232,-0.129 -1.757,-0.441c-0.524,-0.286 -0.892,-0.624 -1.075,-1.014c-0.183,-0.39 -0.289,-1.066 -0.289,-2.028l0,-7.776l-2.202,0l0,-1.065c0.708,-0.157 1.285,-0.416 1.73,-0.755c0.42,-0.338 0.787,-0.78 1.049,-1.326c0.263,-0.546 0.499,-1.352 0.656,-2.444Z" style="fill:#e2caa0;fill-rule:nonzero;"/><path d="M290.903,152.382l0.892,0l1.154,3.873l-1.154,0.39c-0.445,-1.039 -1.101,-1.845 -1.941,-2.443c-0.812,-0.598 -1.651,-0.885 -2.516,-0.885c-0.656,0 -1.181,0.156 -1.6,0.469c-0.393,0.311 -0.604,0.675 -0.604,1.091c0,0.39 0.158,0.729 0.447,1.015c0.289,0.286 0.944,0.598 1.966,0.961l2.491,0.885c1.416,0.494 2.386,1.014 2.884,1.586c0.499,0.572 0.761,1.222 0.761,1.951c0,0.623 -0.183,1.196 -0.551,1.768c-0.393,0.572 -0.917,1.014 -1.652,1.352c-0.707,0.364 -1.521,0.519 -2.438,0.519c-1.443,0 -2.674,-0.415 -3.697,-1.221l-0.262,0.936l-0.919,0l-1.599,-4.16l1.154,-0.442c0.787,1.196 1.521,2.054 2.202,2.574c0.97,0.701 2.019,1.066 3.147,1.066c0.735,0 1.337,-0.208 1.835,-0.598c0.472,-0.39 0.708,-0.806 0.708,-1.301c0,-0.39 -0.157,-0.753 -0.446,-1.091c-0.313,-0.313 -0.891,-0.624 -1.756,-0.937l-2.963,-1.04c-1.285,-0.468 -2.176,-0.962 -2.675,-1.508c-0.471,-0.547 -0.734,-1.145 -0.734,-1.846c0,-0.859 0.393,-1.612 1.206,-2.263c0.813,-0.675 1.836,-0.988 3.069,-0.988c0.655,0 1.232,0.079 1.756,0.261c0.499,0.155 0.997,0.416 1.495,0.806l0.34,-0.78Z" style="fill:#e2caa0;fill-rule:nonzero;"/><path d="M113.483,249.749l0.874,0l0.129,0.586l10.705,0l0.103,-0.586l0.926,0l1.852,5.104l-1.132,0.408c-0.539,-1.352 -1.182,-2.322 -1.93,-2.884c-0.747,-0.536 -1.698,-0.817 -2.857,-0.817c-0.487,0 -0.797,0.025 -0.875,0.051c-0.101,0.052 -0.154,0.103 -0.204,0.204c-0.026,0.077 -0.053,0.383 -0.053,0.868l0,12.045c0,0.562 0.027,0.97 0.103,1.175c0.053,0.177 0.154,0.331 0.258,0.458c0.128,0.102 0.284,0.18 0.489,0.23c0.206,0.051 0.67,0.077 1.363,0.077l0,1.045l-6.716,0l0,-1.045c0.747,0 1.21,-0.026 1.364,-0.077c0.31,-0.076 0.514,-0.23 0.643,-0.485c0.129,-0.229 0.181,-0.664 0.181,-1.276l0,-12.326c0,-0.357 -0.027,-0.612 -0.052,-0.689c-0.051,-0.076 -0.103,-0.152 -0.205,-0.177c-0.103,-0.053 -0.335,-0.078 -0.645,-0.078c-0.925,0 -1.646,0.103 -2.211,0.357c-0.542,0.23 -1.056,0.612 -1.545,1.174c-0.489,0.562 -0.901,1.276 -1.236,2.17l-1.132,-0.408l1.803,-5.104Z" style="fill:#e2caa0;fill-rule:nonzero;"/><path d="M128.768,251.56l0,-1.071c0.822,-0.102 1.467,-0.23 1.904,-0.383c0.463,-0.154 0.927,-0.357 1.441,-0.663l0.979,0l0,8.243c0.951,-0.792 1.852,-1.354 2.675,-1.737c0.849,-0.357 1.673,-0.536 2.42,-0.536c1.132,0 2.057,0.333 2.778,0.997c0.721,0.663 1.081,1.453 1.081,2.423l0,6.1c0,0.611 0.051,0.995 0.154,1.198c0.078,0.18 0.258,0.307 0.49,0.41c0.206,0.076 0.72,0.127 1.517,0.127l0,1.045l-6.51,0l0,-1.045l0.49,0c0.59,0 1.003,-0.051 1.208,-0.153c0.181,-0.077 0.335,-0.255 0.413,-0.46c0.076,-0.23 0.128,-0.689 0.128,-1.377l0,-4.238c0,-0.944 -0.025,-1.556 -0.103,-1.836c-0.129,-0.485 -0.386,-0.868 -0.772,-1.149c-0.385,-0.281 -0.901,-0.433 -1.492,-0.433c-0.696,0 -1.416,0.152 -2.163,0.51c-0.746,0.331 -1.518,0.842 -2.314,1.506l0,6.227c0,0.458 0.05,0.79 0.128,0.944c0.076,0.152 0.23,0.279 0.411,0.332c0.207,0.076 0.592,0.127 1.158,0.127l0.514,0l0,1.045l-6.535,0l0,-1.045l0.386,0c0.617,0 1.081,-0.077 1.338,-0.23c0.154,-0.077 0.283,-0.204 0.334,-0.434c0.077,-0.204 0.103,-0.817 0.103,-1.787l0,-12.657l-2.161,0Z" style="fill:#e2caa0;fill-rule:nonzero;"/><path d="M156.482,264.473l0.797,0.638c-0.617,0.714 -1.208,1.301 -1.775,1.736c-0.565,0.408 -1.106,0.714 -1.621,0.892c-0.514,0.179 -1.107,0.255 -1.8,0.255c-1.236,0 -2.266,-0.255 -3.141,-0.739c-0.978,-0.587 -1.75,-1.327 -2.264,-2.246c-0.54,-0.919 -0.797,-1.991 -0.797,-3.24c0,-1.329 0.257,-2.425 0.771,-3.369c0.515,-0.919 1.211,-1.659 2.136,-2.195c0.926,-0.537 1.982,-0.792 3.192,-0.792c0.9,0 1.671,0.129 2.342,0.409c0.643,0.281 1.208,0.689 1.671,1.251c0.464,0.56 0.797,1.198 1.004,1.914c0.128,0.408 0.181,0.969 0.206,1.633l-8.853,0c-0.026,0.408 -0.051,0.714 -0.051,0.919c0,1.045 0.179,1.964 0.567,2.782c0.36,0.815 0.848,1.428 1.44,1.81c0.618,0.384 1.288,0.587 2.059,0.587c0.669,0 1.286,-0.152 1.904,-0.458c0.618,-0.306 1.338,-0.894 2.213,-1.787Zm-1.595,-5.002c-0.129,-0.765 -0.308,-1.327 -0.54,-1.684c-0.232,-0.382 -0.542,-0.663 -0.978,-0.868c-0.411,-0.23 -0.901,-0.332 -1.417,-0.332c-0.514,0 -1.028,0.102 -1.492,0.332c-0.437,0.205 -0.822,0.511 -1.132,0.893c-0.308,0.383 -0.565,0.919 -0.797,1.659l6.356,0Z" style="fill:#e2caa0;fill-rule:nonzero;"/><path d="M183.867,249.775c0.386,0 0.721,0.127 1.029,0.407c0.284,0.281 0.413,0.638 0.413,1.021c0,0.408 -0.129,0.739 -0.413,1.02c-0.308,0.281 -0.643,0.435 -1.029,0.435c-0.411,0 -0.746,-0.154 -1.029,-0.435c-0.284,-0.281 -0.438,-0.612 -0.438,-1.02c0,-0.383 0.154,-0.74 0.438,-1.021c0.283,-0.28 0.618,-0.407 1.029,-0.407Zm-3.191,7.731l0,-1.046c0.695,-0.076 1.287,-0.204 1.749,-0.357c0.464,-0.128 1.004,-0.384 1.621,-0.69l0.902,0l0,9.979c0,0.357 0.051,0.612 0.154,0.79c0.103,0.154 0.232,0.281 0.411,0.359c0.181,0.076 0.515,0.127 1.004,0.127l0.592,0l0,1.045l-6.433,0l0,-1.045l0.514,0c0.567,0 0.927,-0.051 1.134,-0.153c0.179,-0.103 0.308,-0.23 0.386,-0.435c0.101,-0.177 0.128,-0.612 0.128,-1.275l0,-7.299l-2.162,0Z" style="fill:#e2caa0;fill-rule:nonzero;"/><path d="M198.2,256.689c0.385,-0.433 0.773,-0.765 1.159,-0.97c0.386,-0.203 0.746,-0.306 1.079,-0.306c0.285,0 0.542,0.078 0.747,0.255c0.206,0.18 0.309,0.41 0.309,0.638c0,0.281 -0.103,0.486 -0.282,0.664c-0.181,0.179 -0.413,0.281 -0.696,0.281c-0.128,0 -0.282,-0.026 -0.489,-0.051c-0.232,-0.051 -0.411,-0.076 -0.592,-0.076c-0.205,0 -0.411,0.101 -0.643,0.281c0.514,0.638 0.772,1.352 0.772,2.194c0,1.148 -0.49,2.143 -1.466,2.985c-0.952,0.843 -2.188,1.276 -3.68,1.276c-0.825,0 -1.647,-0.177 -2.471,-0.509c-0.54,0.382 -0.849,0.611 -0.926,0.714c-0.128,0.127 -0.181,0.281 -0.181,0.433c0,0.256 0.129,0.435 0.386,0.587c0.31,0.231 0.953,0.383 1.878,0.537l3.63,0.535c0.797,0.128 1.621,0.331 2.418,0.612c0.824,0.306 1.415,0.663 1.776,1.149c0.36,0.459 0.541,1.021 0.541,1.658c0,1.099 -0.514,1.965 -1.545,2.63c-1.286,0.841 -3.217,1.249 -5.764,1.249c-1.363,0 -2.445,-0.127 -3.294,-0.408c-0.823,-0.306 -1.467,-0.689 -1.929,-1.2c-0.335,-0.382 -0.515,-0.764 -0.515,-1.172c0,-0.511 0.18,-0.995 0.515,-1.506c0.333,-0.486 1.132,-1.175 2.367,-2.094c-0.799,-0.177 -1.364,-0.433 -1.724,-0.688c-0.412,-0.332 -0.643,-0.714 -0.643,-1.148c0,-0.23 0.05,-0.409 0.128,-0.612c0.076,-0.18 0.205,-0.359 0.386,-0.562c0.179,-0.179 0.515,-0.435 0.978,-0.767c0.308,-0.203 0.515,-0.357 0.643,-0.458c-0.618,-0.433 -1.081,-0.919 -1.389,-1.455c-0.31,-0.535 -0.464,-1.122 -0.464,-1.76c0,-1.048 0.411,-1.992 1.235,-2.757c1.004,-0.969 2.343,-1.455 4.042,-1.455c0.746,0 1.414,0.103 1.979,0.281c0.567,0.179 1.134,0.511 1.725,0.995Zm-3.808,-0.127c-0.824,0 -1.519,0.281 -2.11,0.893c-0.567,0.588 -0.849,1.302 -0.849,2.195c0,0.562 0.128,1.097 0.385,1.582c0.258,0.459 0.643,0.816 1.107,1.097c0.464,0.281 0.953,0.409 1.493,0.409c0.514,0 1.003,-0.128 1.492,-0.409c0.464,-0.281 0.824,-0.638 1.081,-1.122c0.258,-0.46 0.386,-0.995 0.386,-1.557c0,-0.919 -0.284,-1.658 -0.824,-2.245c-0.565,-0.562 -1.286,-0.843 -2.161,-0.843Zm-2.007,10.82c-0.798,0.663 -1.338,1.225 -1.623,1.66c-0.257,0.408 -0.385,0.815 -0.385,1.223c0,0.332 0.128,0.638 0.385,0.944c0.285,0.332 0.721,0.588 1.364,0.767c0.645,0.203 1.442,0.306 2.395,0.306c1.157,0 2.135,-0.128 2.96,-0.357c0.796,-0.255 1.389,-0.562 1.749,-0.944c0.257,-0.306 0.386,-0.663 0.386,-1.073c0,-0.332 -0.103,-0.638 -0.31,-0.866c-0.232,-0.256 -0.617,-0.461 -1.208,-0.638c-0.592,-0.18 -1.159,-0.306 -1.673,-0.384l-4.04,-0.638Z" style="fill:#e2caa0;fill-rule:nonzero;"/><path d="M202.395,257.506l0,-1.046c0.746,-0.076 1.313,-0.179 1.699,-0.306c0.36,-0.103 0.9,-0.357 1.621,-0.741l0.9,0l0,2.374c1.107,-0.919 2.032,-1.557 2.831,-1.888c0.772,-0.332 1.543,-0.486 2.367,-0.486c0.669,0 1.286,0.103 1.801,0.333c0.516,0.229 0.952,0.535 1.287,0.943c0.335,0.384 0.54,0.817 0.643,1.328c0.078,0.306 0.104,0.765 0.104,1.378l0,5.486c0,0.663 0.051,1.073 0.154,1.25c0.077,0.205 0.232,0.332 0.463,0.41c0.205,0.076 0.721,0.127 1.544,0.127l0,1.045l-6.459,0l0,-1.045l0.36,0c0.592,0 1.003,-0.051 1.21,-0.153c0.232,-0.128 0.386,-0.281 0.464,-0.485c0.101,-0.205 0.153,-0.638 0.153,-1.276l0,-4.567c0,-0.945 -0.077,-1.61 -0.231,-1.967c-0.154,-0.357 -0.412,-0.663 -0.797,-0.892c-0.361,-0.23 -0.824,-0.333 -1.417,-0.333c-0.668,0 -1.389,0.179 -2.161,0.511c-0.771,0.357 -1.517,0.868 -2.238,1.532l0,5.716c0,0.638 0.051,1.071 0.154,1.301c0.077,0.205 0.257,0.383 0.463,0.486c0.154,0.076 0.566,0.127 1.209,0.127l0.36,0l0,1.045l-6.51,0l0,-1.045l0.308,0c0.645,0 1.056,-0.051 1.288,-0.153c0.232,-0.103 0.386,-0.306 0.489,-0.561c0.051,-0.129 0.076,-0.588 0.076,-1.38l0,-7.068l-2.135,0Z" style="fill:#e2caa0;fill-rule:nonzero;"/><path d="M241.917,255.694l2.161,0l0,-1.863c0,-1.302 0.438,-2.347 1.288,-3.165c0.849,-0.815 1.981,-1.223 3.345,-1.223c0.926,0 1.647,0.178 2.161,0.56c0.514,0.384 0.772,0.817 0.772,1.251c0,0.306 -0.102,0.561 -0.308,0.766c-0.207,0.203 -0.464,0.306 -0.772,0.306c-0.284,0 -0.514,-0.05 -0.721,-0.154c-0.206,-0.101 -0.514,-0.357 -0.927,-0.739c-0.437,-0.433 -0.875,-0.638 -1.286,-0.638c-0.257,0 -0.515,0.076 -0.746,0.256c-0.207,0.177 -0.386,0.407 -0.515,0.739c-0.128,0.332 -0.181,0.843 -0.181,1.531l0,2.373l2.369,0l0,1.276l-2.369,0l0,8.065c0,0.561 0.053,0.944 0.129,1.122c0.077,0.179 0.206,0.331 0.387,0.384c0.154,0.076 0.54,0.127 1.158,0.127l0.514,0l0,1.045l-6.459,0l0,-1.045l0.386,0c0.67,0 1.107,-0.051 1.286,-0.127c0.181,-0.078 0.31,-0.23 0.387,-0.41c0.077,-0.177 0.102,-0.612 0.102,-1.276l0,-7.885l-2.161,0l0,-1.276Z" style="fill:#e2caa0;fill-rule:nonzero;"/><path d="M356.259,249.775c0.386,0 0.721,0.127 1.031,0.407c0.282,0.281 0.411,0.638 0.411,1.021c0,0.408 -0.129,0.739 -0.411,1.02c-0.31,0.281 -0.645,0.435 -1.031,0.435c-0.411,0 -0.746,-0.154 -1.029,-0.435c-0.282,-0.281 -0.438,-0.612 -0.438,-1.02c0,-0.383 0.156,-0.74 0.438,-1.021c0.283,-0.28 0.618,-0.407 1.029,-0.407Zm-3.19,7.731l0,-1.046c0.694,-0.076 1.286,-0.204 1.75,-0.357c0.462,-0.128 1.004,-0.384 1.621,-0.69l0.9,0l0,9.979c0,0.357 0.051,0.612 0.154,0.79c0.104,0.154 0.232,0.281 0.412,0.359c0.181,0.076 0.516,0.127 1.005,0.127l0.59,0l0,1.045l-6.432,0l0,-1.045l0.515,0c0.565,0 0.925,-0.051 1.132,-0.153c0.179,-0.103 0.308,-0.23 0.386,-0.435c0.103,-0.177 0.128,-0.612 0.128,-1.275l0,-7.299l-2.161,0Z" style="fill:#e2caa0;fill-rule:nonzero;"/><path d="M360.789,255.694l2.161,0l0,-1.863c0,-1.302 0.438,-2.347 1.286,-3.165c0.85,-0.815 1.982,-1.223 3.346,-1.223c0.927,0 1.648,0.178 2.162,0.56c0.514,0.384 0.772,0.817 0.772,1.251c0,0.306 -0.104,0.561 -0.308,0.766c-0.207,0.203 -0.464,0.306 -0.774,0.306c-0.282,0 -0.514,-0.05 -0.721,-0.154c-0.204,-0.101 -0.514,-0.357 -0.925,-0.739c-0.437,-0.433 -0.875,-0.638 -1.286,-0.638c-0.257,0 -0.515,0.076 -0.746,0.256c-0.207,0.177 -0.386,0.407 -0.515,0.739c-0.13,0.332 -0.181,0.843 -0.181,1.531l0,2.373l2.367,0l0,1.276l-2.367,0l0,8.065c0,0.561 0.051,0.944 0.129,1.122c0.078,0.179 0.206,0.331 0.386,0.384c0.154,0.076 0.541,0.127 1.159,0.127l0.514,0l0,1.045l-6.459,0l0,-1.045l0.386,0c0.668,0 1.106,-0.051 1.286,-0.127c0.181,-0.078 0.31,-0.23 0.386,-0.41c0.078,-0.177 0.103,-0.612 0.103,-1.276l0,-7.885l-2.161,0l0,-1.276Z" style="fill:#e2caa0;fill-rule:nonzero;"/><path d="M379.831,264.473l0.799,0.638c-0.618,0.714 -1.21,1.301 -1.777,1.736c-0.565,0.408 -1.107,0.714 -1.621,0.892c-0.515,0.179 -1.107,0.255 -1.801,0.255c-1.235,0 -2.265,-0.255 -3.14,-0.739c-0.978,-0.587 -1.75,-1.327 -2.264,-2.246c-0.54,-0.919 -0.797,-1.991 -0.797,-3.24c0,-1.329 0.257,-2.425 0.771,-3.369c0.515,-0.919 1.21,-1.659 2.136,-2.195c0.927,-0.537 1.981,-0.792 3.191,-0.792c0.901,0 1.672,0.129 2.342,0.409c0.643,0.281 1.209,0.689 1.672,1.251c0.464,0.56 0.799,1.198 1.004,1.914c0.128,0.408 0.181,0.969 0.206,1.633l-8.852,0c-0.027,0.408 -0.052,0.714 -0.052,0.919c0,1.045 0.181,1.964 0.567,2.782c0.36,0.815 0.849,1.428 1.44,1.81c0.617,0.384 1.287,0.587 2.059,0.587c0.668,0 1.286,-0.152 1.904,-0.458c0.617,-0.306 1.338,-0.894 2.213,-1.787Zm-1.596,-5.002c-0.128,-0.765 -0.307,-1.327 -0.539,-1.684c-0.232,-0.382 -0.54,-0.663 -0.979,-0.868c-0.411,-0.23 -0.9,-0.332 -1.414,-0.332c-0.516,0 -1.031,0.102 -1.493,0.332c-0.438,0.205 -0.824,0.511 -1.133,0.893c-0.308,0.383 -0.566,0.919 -0.797,1.659l6.355,0Z" style="fill:#e2caa0;fill-rule:nonzero;"/><path d="M175.865,255.694l0.874,0l1.133,3.802l-1.133,0.384c-0.438,-1.022 -1.081,-1.812 -1.905,-2.399c-0.797,-0.587 -1.621,-0.868 -2.47,-0.868c-0.643,0 -1.158,0.154 -1.569,0.46c-0.386,0.306 -0.593,0.663 -0.593,1.071c0,0.383 0.155,0.714 0.437,0.995c0.284,0.281 0.927,0.587 1.931,0.944l2.445,0.868c1.389,0.484 2.342,0.995 2.831,1.557c0.487,0.562 0.746,1.2 0.746,1.914c0,0.613 -0.181,1.174 -0.541,1.735c-0.386,0.561 -0.9,0.996 -1.621,1.328c-0.694,0.357 -1.493,0.509 -2.393,0.509c-1.416,0 -2.624,-0.408 -3.628,-1.199l-0.257,0.918l-0.902,0l-1.569,-4.083l1.132,-0.433c0.772,1.174 1.493,2.015 2.161,2.526c0.953,0.689 1.982,1.046 3.088,1.046c0.721,0 1.313,-0.203 1.803,-0.587c0.461,-0.382 0.693,-0.79 0.693,-1.276c0,-0.382 -0.154,-0.739 -0.436,-1.071c-0.31,-0.306 -0.875,-0.613 -1.725,-0.919l-2.908,-1.02c-1.261,-0.461 -2.136,-0.945 -2.625,-1.481c-0.464,-0.535 -0.721,-1.122 -0.721,-1.811c0,-0.842 0.386,-1.582 1.185,-2.22c0.797,-0.665 1.8,-0.971 3.01,-0.971c0.643,0 1.21,0.078 1.724,0.255c0.489,0.154 0.978,0.41 1.468,0.792l0.335,-0.766Z" style="fill:#e2caa0;fill-rule:nonzero;"/><path d="M233.94,255.413c1.21,0 2.29,0.255 3.191,0.767c0.875,0.483 1.595,1.225 2.111,2.194c0.514,0.97 0.771,2.066 0.771,3.317c0,1.25 -0.257,2.349 -0.798,3.318c-0.515,0.97 -1.236,1.709 -2.161,2.22c-0.901,0.51 -2.007,0.765 -3.268,0.765c-2.034,0 -3.526,-0.638 -4.555,-1.888c-1.004,-1.251 -1.518,-2.704 -1.518,-4.39c0,-1.25 0.257,-2.347 0.797,-3.291c0.514,-0.97 1.261,-1.709 2.213,-2.22c0.926,-0.537 2.007,-0.792 3.217,-0.792Zm-0.103,1.2c-0.953,0 -1.75,0.382 -2.393,1.123c-0.849,0.919 -1.261,2.271 -1.261,4.033c0,1.709 0.359,3.01 1.055,3.904c0.643,0.79 1.518,1.199 2.624,1.199c0.696,0 1.339,-0.179 1.879,-0.561c0.566,-0.383 1.003,-0.97 1.338,-1.787c0.335,-0.816 0.515,-1.76 0.515,-2.858c0,-1.097 -0.18,-2.041 -0.54,-2.909c-0.283,-0.664 -0.721,-1.2 -1.286,-1.583c-0.567,-0.382 -1.21,-0.561 -1.931,-0.561Z" style="fill:#e2caa0;fill-rule:nonzero;"/><path d="M267.549,260.518l-0.028,-1.353c0,-0.945 -0.257,-1.583 -0.771,-1.991c-0.515,-0.382 -1.261,-0.587 -2.214,-0.587c-0.462,0 -0.874,0.051 -1.235,0.154c-0.359,0.127 -0.643,0.281 -0.848,0.484c-0.206,0.18 -0.36,0.408 -0.463,0.664c-0.051,0.077 -0.154,0.434 -0.31,1.047c-0.18,0.74 -0.591,1.122 -1.158,1.122c-0.335,0 -0.617,-0.102 -0.824,-0.332c-0.204,-0.23 -0.308,-0.511 -0.308,-0.893c0,-0.535 0.207,-1.071 0.618,-1.608c0.411,-0.509 1.029,-0.944 1.878,-1.301c0.85,-0.332 1.828,-0.511 2.985,-0.511c1.082,0 1.982,0.154 2.754,0.486c0.773,0.331 1.313,0.79 1.673,1.402c0.257,0.435 0.386,1.2 0.386,2.324l0,4.772c0,0.688 0.025,1.122 0.078,1.326c0.076,0.357 0.23,0.613 0.462,0.792c0.232,0.178 0.541,0.28 0.9,0.28c0.387,0 0.85,-0.077 1.391,-0.254l0,1.071c-0.696,0.205 -1.313,0.306 -1.878,0.306c-0.593,0 -1.107,-0.076 -1.493,-0.255c-0.413,-0.153 -0.746,-0.408 -1.005,-0.715c-0.257,-0.331 -0.437,-0.714 -0.514,-1.148c-1.004,0.791 -1.904,1.326 -2.728,1.632c-0.797,0.332 -1.621,0.486 -2.471,0.486c-1.132,0 -2.083,-0.306 -2.804,-0.944c-0.72,-0.613 -1.081,-1.327 -1.081,-2.169c0,-0.51 0.129,-0.995 0.411,-1.454c0.259,-0.435 0.67,-0.843 1.21,-1.2c0.542,-0.331 1.389,-0.638 2.549,-0.919c1.157,-0.255 2.778,-0.511 4.838,-0.714Zm0,1.071c-1.957,0.281 -3.167,0.486 -3.63,0.588c-0.926,0.203 -1.594,0.433 -1.98,0.688c-0.413,0.23 -0.696,0.511 -0.85,0.792c-0.181,0.279 -0.257,0.586 -0.257,0.917c0,0.332 0.102,0.638 0.283,0.945c0.179,0.306 0.463,0.536 0.797,0.715c0.36,0.178 0.721,0.254 1.107,0.254c0.541,0 1.159,-0.127 1.852,-0.382c0.696,-0.256 1.571,-0.765 2.65,-1.506l0.028,-3.011Z" style="fill:#e2caa0;fill-rule:nonzero;"/><path d="M281.624,251.56l0,-1.071c0.824,-0.102 1.467,-0.23 1.904,-0.383c0.463,-0.154 0.927,-0.357 1.441,-0.663l0.978,0l0,8.243c0.953,-0.792 1.854,-1.354 2.677,-1.737c0.848,-0.357 1.672,-0.536 2.419,-0.536c1.132,0 2.059,0.333 2.778,0.997c0.721,0.663 1.081,1.453 1.081,2.423l0,6.1c0,0.611 0.053,0.995 0.154,1.198c0.078,0.18 0.258,0.307 0.489,0.41c0.207,0.076 0.721,0.127 1.52,0.127l0,1.045l-6.511,0l0,-1.045l0.489,0c0.592,0 1.003,-0.051 1.21,-0.153c0.179,-0.077 0.333,-0.255 0.411,-0.46c0.078,-0.23 0.128,-0.689 0.128,-1.377l0,-4.238c0,-0.944 -0.025,-1.556 -0.103,-1.836c-0.128,-0.485 -0.386,-0.868 -0.771,-1.149c-0.386,-0.281 -0.901,-0.433 -1.493,-0.433c-0.696,0 -1.415,0.152 -2.161,0.51c-0.746,0.331 -1.519,0.842 -2.317,1.506l0,6.227c0,0.458 0.051,0.79 0.129,0.944c0.078,0.152 0.232,0.279 0.411,0.332c0.207,0.076 0.593,0.127 1.159,0.127l0.515,0l0,1.045l-6.537,0l0,-1.045l0.386,0c0.618,0 1.081,-0.077 1.338,-0.23c0.154,-0.077 0.283,-0.204 0.335,-0.434c0.076,-0.204 0.104,-0.817 0.104,-1.787l0,-12.657l-2.163,0Z" style="fill:#e2caa0;fill-rule:nonzero;"/><path d="M301.722,249.775c0.386,0 0.721,0.127 1.029,0.407c0.284,0.281 0.413,0.638 0.413,1.021c0,0.408 -0.129,0.739 -0.413,1.02c-0.308,0.281 -0.643,0.435 -1.029,0.435c-0.411,0 -0.746,-0.154 -1.029,-0.435c-0.284,-0.281 -0.438,-0.612 -0.438,-1.02c0,-0.383 0.154,-0.74 0.438,-1.021c0.283,-0.28 0.618,-0.407 1.029,-0.407Zm-3.192,7.731l0,-1.046c0.696,-0.076 1.288,-0.204 1.75,-0.357c0.464,-0.128 1.004,-0.384 1.621,-0.69l0.902,0l0,9.979c0,0.357 0.051,0.612 0.154,0.79c0.103,0.154 0.232,0.281 0.411,0.359c0.181,0.076 0.515,0.127 1.004,0.127l0.592,0l0,1.045l-6.434,0l0,-1.045l0.515,0c0.567,0 0.927,-0.051 1.134,-0.153c0.179,-0.103 0.308,-0.23 0.386,-0.435c0.101,-0.177 0.128,-0.612 0.128,-1.275l0,-7.299l-2.163,0Z" style="fill:#e2caa0;fill-rule:nonzero;"/><path d="M316.055,256.689c0.385,-0.433 0.773,-0.765 1.159,-0.97c0.386,-0.203 0.746,-0.306 1.079,-0.306c0.285,0 0.542,0.078 0.747,0.255c0.206,0.18 0.309,0.41 0.309,0.638c0,0.281 -0.103,0.486 -0.282,0.664c-0.181,0.179 -0.413,0.281 -0.696,0.281c-0.128,0 -0.282,-0.026 -0.489,-0.051c-0.232,-0.051 -0.411,-0.076 -0.592,-0.076c-0.205,0 -0.411,0.101 -0.643,0.281c0.514,0.638 0.772,1.352 0.772,2.194c0,1.148 -0.489,2.143 -1.466,2.985c-0.952,0.843 -2.188,1.276 -3.68,1.276c-0.824,0 -1.647,-0.177 -2.471,-0.509c-0.54,0.382 -0.849,0.611 -0.926,0.714c-0.128,0.127 -0.181,0.281 -0.181,0.433c0,0.256 0.129,0.435 0.386,0.587c0.31,0.231 0.953,0.383 1.878,0.537l3.63,0.535c0.797,0.128 1.621,0.331 2.418,0.612c0.824,0.306 1.415,0.663 1.776,1.149c0.36,0.459 0.541,1.021 0.541,1.658c0,1.099 -0.514,1.965 -1.545,2.63c-1.286,0.841 -3.217,1.249 -5.764,1.249c-1.363,0 -2.445,-0.127 -3.294,-0.408c-0.823,-0.306 -1.467,-0.689 -1.929,-1.2c-0.335,-0.382 -0.515,-0.764 -0.515,-1.172c0,-0.511 0.18,-0.995 0.515,-1.506c0.333,-0.486 1.132,-1.175 2.367,-2.094c-0.799,-0.177 -1.364,-0.433 -1.724,-0.688c-0.411,-0.332 -0.643,-0.714 -0.643,-1.148c0,-0.23 0.05,-0.409 0.128,-0.612c0.077,-0.18 0.205,-0.359 0.386,-0.562c0.179,-0.179 0.515,-0.435 0.978,-0.767c0.308,-0.203 0.515,-0.357 0.643,-0.458c-0.617,-0.433 -1.081,-0.919 -1.389,-1.455c-0.31,-0.535 -0.464,-1.122 -0.464,-1.76c0,-1.048 0.411,-1.992 1.236,-2.757c1.003,-0.969 2.342,-1.455 4.04,-1.455c0.747,0 1.415,0.103 1.98,0.281c0.567,0.179 1.134,0.511 1.725,0.995Zm-3.808,-0.127c-0.824,0 -1.519,0.281 -2.11,0.893c-0.567,0.588 -0.849,1.302 -0.849,2.195c0,0.562 0.128,1.097 0.385,1.582c0.258,0.459 0.643,0.816 1.107,1.097c0.464,0.281 0.953,0.409 1.493,0.409c0.514,0 1.003,-0.128 1.492,-0.409c0.464,-0.281 0.824,-0.638 1.081,-1.122c0.258,-0.46 0.386,-0.995 0.386,-1.557c0,-0.919 -0.284,-1.658 -0.824,-2.245c-0.565,-0.562 -1.286,-0.843 -2.161,-0.843Zm-2.007,10.82c-0.798,0.663 -1.338,1.225 -1.622,1.66c-0.258,0.408 -0.386,0.815 -0.386,1.223c0,0.332 0.128,0.638 0.386,0.944c0.284,0.332 0.72,0.588 1.363,0.767c0.645,0.203 1.442,0.306 2.395,0.306c1.157,0 2.135,-0.128 2.96,-0.357c0.796,-0.255 1.389,-0.562 1.749,-0.944c0.257,-0.306 0.386,-0.663 0.386,-1.073c0,-0.332 -0.103,-0.638 -0.31,-0.866c-0.231,-0.256 -0.617,-0.461 -1.208,-0.638c-0.592,-0.18 -1.159,-0.306 -1.673,-0.384l-4.04,-0.638Z" style="fill:#e2caa0;fill-rule:nonzero;"/><path d="M320.224,251.56l0,-1.071c0.824,-0.102 1.467,-0.23 1.904,-0.383c0.464,-0.154 0.927,-0.357 1.442,-0.663l0.978,0l0,8.243c0.951,-0.792 1.853,-1.354 2.675,-1.737c0.85,-0.357 1.674,-0.536 2.42,-0.536c1.132,0 2.058,0.333 2.778,0.997c0.721,0.663 1.082,1.453 1.082,2.423l0,6.1c0,0.611 0.051,0.995 0.154,1.198c0.077,0.18 0.257,0.307 0.489,0.41c0.206,0.076 0.721,0.127 1.518,0.127l0,1.045l-6.51,0l0,-1.045l0.489,0c0.592,0 1.003,-0.051 1.208,-0.153c0.181,-0.077 0.335,-0.255 0.413,-0.46c0.076,-0.23 0.129,-0.689 0.129,-1.377l0,-4.238c0,-0.944 -0.026,-1.556 -0.104,-1.836c-0.128,-0.485 -0.385,-0.868 -0.771,-1.149c-0.386,-0.281 -0.901,-0.433 -1.493,-0.433c-0.695,0 -1.416,0.152 -2.162,0.51c-0.747,0.331 -1.518,0.842 -2.315,1.506l0,6.227c0,0.458 0.051,0.79 0.128,0.944c0.076,0.152 0.232,0.279 0.411,0.332c0.207,0.076 0.593,0.127 1.158,0.127l0.516,0l0,1.045l-6.537,0l0,-1.045l0.386,0c0.618,0 1.081,-0.077 1.339,-0.23c0.154,-0.077 0.282,-0.204 0.333,-0.434c0.078,-0.204 0.103,-0.817 0.103,-1.787l0,-12.657l-2.161,0Z" style="fill:#e2caa0;fill-rule:nonzero;"/><path d="M345.263,251.534l0,-1.045c1.132,-0.076 2.264,-0.433 3.346,-1.046l0.925,0l0,15.336c0,0.638 0.051,1.046 0.129,1.225c0.103,0.23 0.257,0.383 0.489,0.511c0.207,0.102 0.592,0.153 1.183,0.153l0.413,0l0,1.045l-6.485,0l0,-1.045l0.669,0c0.411,0 0.721,-0.077 0.925,-0.18c0.207,-0.127 0.335,-0.306 0.439,-0.509c0.078,-0.23 0.128,-0.663 0.128,-1.301l0,-13.144l-2.161,0Z" style="fill:#e2caa0;fill-rule:nonzero;"/><path d="M55.08,291.018l-1.311,0.161c-0.082,-0.622 -0.109,-1.138 -0.109,-1.543c0,-1.031 0.301,-2.006 0.848,-2.928c0.572,-0.921 1.365,-1.652 2.377,-2.169c1.038,-0.514 2.186,-0.785 3.526,-0.785c1.255,0 2.376,0.244 3.332,0.732c0.958,0.487 1.695,1.165 2.213,2.006c0.521,0.867 0.766,1.815 0.766,2.927c0,0.921 -0.163,1.76 -0.491,2.574c-0.328,0.785 -0.875,1.572 -1.612,2.384c-0.547,0.597 -1.668,1.518 -3.361,2.737c-2.104,1.572 -3.745,2.711 -4.865,3.415l6.915,0c0.819,0 1.364,-0.082 1.61,-0.217c0.357,-0.217 0.574,-0.65 0.712,-1.355l0.11,-0.758l1.146,0l-0.901,4.958l-0.848,0l-0.136,-0.651l-11.669,0l0,-1.138l2.132,-1.599c1.64,-1.192 2.814,-2.087 3.58,-2.735c1.421,-1.194 2.513,-2.223 3.225,-3.064c0.737,-0.839 1.229,-1.626 1.503,-2.303c0.273,-0.678 0.409,-1.382 0.409,-2.141c0,-1.245 -0.409,-2.249 -1.202,-3.034c-0.819,-0.788 -1.858,-1.193 -3.142,-1.193c-0.929,0 -1.777,0.19 -2.488,0.596c-0.737,0.38 -1.311,0.948 -1.721,1.652c-0.409,0.734 -0.628,1.492 -0.628,2.333c0,0.297 0.027,0.677 0.08,1.138Z" style="fill:#d2ac67;fill-rule:nonzero;"/><path d="M91.262,290.855l6.231,0l0,1.138l-0.739,0c-0.545,0 -0.9,0.027 -1.092,0.107c-0.193,0.083 -0.356,0.217 -0.492,0.38c-0.165,0.191 -0.246,0.488 -0.328,0.868c-0.328,1.87 -0.985,3.576 -1.995,5.175c0.164,0.488 0.465,0.975 0.874,1.49c0.437,0.543 0.793,0.894 1.094,1.057c0.326,0.19 0.654,0.271 1.01,0.271c0.464,0 0.819,-0.134 1.121,-0.407c0.328,-0.297 0.464,-0.622 0.464,-0.975c0,-0.324 -0.054,-0.568 -0.163,-0.731c-0.138,-0.163 -0.384,-0.352 -0.793,-0.542c-0.328,-0.163 -0.547,-0.353 -0.683,-0.543c-0.109,-0.217 -0.192,-0.432 -0.192,-0.677c0,-0.352 0.109,-0.649 0.355,-0.866c0.219,-0.217 0.52,-0.326 0.875,-0.326c0.628,0 1.175,0.27 1.667,0.813c0.464,0.542 0.683,1.219 0.683,2.06c0,0.975 -0.382,1.843 -1.121,2.574c-0.764,0.705 -1.666,1.085 -2.732,1.085c-0.739,0 -1.42,-0.19 -2.077,-0.544c-0.656,-0.351 -1.311,-0.975 -1.94,-1.842c-0.929,0.787 -1.722,1.355 -2.405,1.681c-1.01,0.461 -2.104,0.705 -3.252,0.705c-1.311,0 -2.459,-0.244 -3.471,-0.787c-1.038,-0.515 -1.829,-1.192 -2.376,-2.06c-0.574,-0.868 -0.848,-1.843 -0.848,-2.872c0,-0.948 0.247,-1.842 0.712,-2.629c0.464,-0.785 1.148,-1.49 2.077,-2.114c0.681,-0.434 1.53,-0.839 2.541,-1.138c-0.739,-0.298 -1.286,-0.622 -1.668,-0.948c-0.382,-0.352 -0.683,-0.732 -0.902,-1.165c-0.19,-0.434 -0.3,-0.922 -0.3,-1.436c0,-1.058 0.409,-1.953 1.258,-2.684c0.929,-0.812 2.048,-1.219 3.361,-1.219c1.284,0 2.376,0.38 3.223,1.112c0.848,0.758 1.257,1.652 1.257,2.654c0,0.705 -0.163,1.329 -0.518,1.926c-0.355,0.568 -0.82,1.055 -1.45,1.436c-0.408,0.27 -0.929,0.46 -1.556,0.623c0.764,0.244 1.42,0.569 1.967,0.949c0.547,0.405 1.092,1.002 1.64,1.76c0.574,0.76 1.12,1.735 1.666,2.927c0.848,-1.896 1.286,-3.305 1.286,-4.254c0,-0.326 -0.083,-0.543 -0.302,-0.677c-0.192,-0.136 -0.573,-0.217 -1.174,-0.217l-0.793,0l0,-1.138Zm-5.246,-5.855c-0.712,0 -1.34,0.244 -1.831,0.76c-0.492,0.515 -0.739,1.165 -0.739,1.977c0,0.814 0.247,1.465 0.739,1.979c0.518,0.515 1.119,0.785 1.831,0.785c0.71,0 1.311,-0.27 1.802,-0.785c0.52,-0.514 0.766,-1.165 0.766,-1.923c0,-0.841 -0.246,-1.492 -0.739,-2.006c-0.491,-0.543 -1.119,-0.787 -1.829,-0.787Zm-0.547,6.857c-1.094,0.541 -1.776,0.894 -2.023,1.084c-0.409,0.298 -0.791,0.651 -1.12,1.085c-0.301,0.405 -0.547,0.839 -0.71,1.272c-0.138,0.434 -0.219,0.895 -0.219,1.382c0,1.085 0.382,2.087 1.12,2.982c0.957,1.138 2.186,1.706 3.635,1.706c0.737,0 1.447,-0.161 2.104,-0.461c0.956,-0.434 1.722,-0.948 2.323,-1.57c-0.083,-0.109 -0.192,-0.299 -0.329,-0.597l-2.103,-4.065c-0.192,-0.352 -0.438,-0.759 -0.738,-1.246c-0.219,-0.271 -0.464,-0.57 -0.765,-0.814c-0.302,-0.271 -0.711,-0.515 -1.175,-0.758Z" style="fill:#d2ac67;fill-rule:nonzero;"/><path d="M111.866,289.012l-1.284,-0.19c0.11,-0.948 0.355,-1.762 0.737,-2.384c0.52,-0.841 1.231,-1.492 2.16,-1.979c0.929,-0.461 1.994,-0.705 3.196,-0.705c1.176,0 2.213,0.217 3.115,0.624c0.902,0.405 1.586,0.975 2.05,1.653c0.465,0.704 0.683,1.436 0.683,2.25c0,0.704 -0.164,1.326 -0.52,1.896c-0.355,0.541 -0.846,1.029 -1.53,1.49c-0.491,0.299 -1.121,0.57 -1.884,0.787c0.819,0.134 1.502,0.324 2.021,0.568c0.848,0.434 1.532,1.031 1.996,1.789c0.492,0.758 0.737,1.599 0.737,2.493c0,1.463 -0.656,2.738 -1.94,3.847c-1.285,1.111 -2.951,1.655 -5.001,1.655c-2.021,0 -3.716,-0.544 -5.083,-1.599c-1.175,-0.922 -1.748,-1.816 -1.748,-2.738c0,-0.38 0.109,-0.677 0.355,-0.921c0.245,-0.244 0.52,-0.353 0.875,-0.353c0.409,0 0.737,0.136 1.01,0.461c0.165,0.163 0.328,0.543 0.52,1.192c0.272,0.894 0.737,1.572 1.42,2.032c0.657,0.461 1.476,0.705 2.459,0.705c0.876,0 1.668,-0.19 2.352,-0.568c0.683,-0.38 1.228,-0.922 1.639,-1.626c0.409,-0.678 0.601,-1.436 0.601,-2.277c0,-0.677 -0.136,-1.274 -0.438,-1.789c-0.299,-0.541 -0.71,-1.002 -1.228,-1.355c-0.411,-0.297 -0.958,-0.514 -1.586,-0.622c-0.656,-0.109 -1.23,-0.163 -1.722,-0.163l-1.257,0l0,-1.275l0.793,0c0.793,0 1.53,-0.08 2.269,-0.27c0.71,-0.19 1.284,-0.542 1.693,-1.112c0.437,-0.568 0.656,-1.192 0.656,-1.923c0,-0.597 -0.136,-1.165 -0.438,-1.653c-0.299,-0.487 -0.737,-0.867 -1.337,-1.165c-0.574,-0.298 -1.231,-0.434 -1.997,-0.434c-0.737,0 -1.42,0.136 -2.048,0.434c-0.63,0.324 -1.121,0.705 -1.503,1.219c-0.355,0.488 -0.629,1.165 -0.793,2.006Z" style="fill:#d2ac67;fill-rule:nonzero;"/><path d="M135.039,284.052l8.853,0c2.186,0 3.662,0.082 4.455,0.299c1.202,0.271 2.131,0.785 2.814,1.517c0.684,0.758 1.039,1.626 1.039,2.683c0,0.732 -0.192,1.409 -0.547,2.006c-0.355,0.595 -0.901,1.11 -1.584,1.543c-0.438,0.271 -1.067,0.488 -1.831,0.678c0.983,0.19 1.722,0.407 2.213,0.651c0.766,0.38 1.367,0.894 1.831,1.572c0.438,0.704 0.655,1.489 0.655,2.33c0,0.841 -0.217,1.626 -0.655,2.331c-0.437,0.731 -1.038,1.301 -1.858,1.762c-0.793,0.46 -1.722,0.758 -2.76,0.892c-1.065,0.137 -2.16,0.19 -3.279,0.19l-9.346,0l0,-1.111l0.628,0c0.6,0 1.011,-0.081 1.23,-0.271c0.328,-0.27 0.491,-0.677 0.491,-1.272l0,-12.819c0,-0.595 -0.053,-1.029 -0.136,-1.246c-0.109,-0.217 -0.245,-0.38 -0.437,-0.488c-0.219,-0.082 -0.574,-0.136 -1.148,-0.136l-0.628,0l0,-1.111Zm4.808,1.464l0,6.748l3.417,0c1.613,0 2.705,-0.081 3.306,-0.217c0.929,-0.244 1.612,-0.651 2.105,-1.219c0.492,-0.57 0.738,-1.302 0.738,-2.223c0,-0.758 -0.219,-1.382 -0.657,-1.87c-0.436,-0.514 -1.039,-0.867 -1.775,-1.057c-0.492,-0.108 -1.504,-0.162 -3.007,-0.162l-4.127,0Zm0,8.02l0,6.045c0,0.622 0.029,0.975 0.083,1.082c0.083,0.164 0.219,0.271 0.438,0.327c0.136,0.054 0.574,0.08 1.284,0.08l1.804,0c1.803,0 3.114,-0.107 3.88,-0.297c0.766,-0.19 1.42,-0.624 1.967,-1.248c0.547,-0.649 0.82,-1.409 0.82,-2.303c0,-0.758 -0.219,-1.436 -0.657,-2.031c-0.435,-0.57 -1.065,-1.004 -1.829,-1.275c-0.793,-0.243 -2.186,-0.38 -4.181,-0.38l-3.609,0Z" style="fill:#d2ac67;fill-rule:nonzero;"/><path d="M155.451,284.052l7.187,0l0,1.111l-0.491,0c-0.574,0 -0.985,0.054 -1.231,0.163c-0.245,0.108 -0.408,0.298 -0.518,0.542c-0.056,0.217 -0.109,0.624 -0.109,1.247l0,5.149l9.672,0l0,-5.014c0,-0.678 -0.027,-1.085 -0.053,-1.246c-0.083,-0.271 -0.246,-0.488 -0.465,-0.624c-0.246,-0.136 -0.601,-0.217 -1.065,-0.217l-0.739,0l0,-1.111l7.106,0l0,1.111l-0.63,0c-0.518,0 -0.873,0.054 -1.065,0.163c-0.219,0.108 -0.355,0.271 -0.438,0.461c-0.081,0.19 -0.136,0.595 -0.136,1.219l0,12.575c0,0.704 0.055,1.138 0.136,1.326c0.083,0.19 0.275,0.327 0.52,0.407c0.164,0.054 0.711,0.081 1.613,0.081l0,1.111l-7.106,0l0,-1.111l0.52,0c0.656,0 1.092,-0.054 1.311,-0.135c0.219,-0.08 0.355,-0.216 0.411,-0.406c0.053,-0.164 0.08,-0.624 0.08,-1.409l0,-5.746l-9.672,0l0,5.882c0,0.704 0.053,1.138 0.136,1.326c0.109,0.19 0.273,0.327 0.547,0.407c0.19,0.054 0.764,0.081 1.666,0.081l0,1.111l-7.187,0l0,-1.111l0.465,0c0.683,0 1.121,-0.027 1.284,-0.108c0.192,-0.08 0.328,-0.217 0.411,-0.433c0.109,-0.217 0.163,-0.596 0.163,-1.139l0,-12.709c0,-0.568 -0.054,-0.975 -0.136,-1.192c-0.083,-0.217 -0.246,-0.38 -0.438,-0.488c-0.19,-0.109 -0.545,-0.163 -1.01,-0.163l-0.739,0l0,-1.111Z" style="fill:#d2ac67;fill-rule:nonzero;"/><path d="M177.396,284.052l7.186,0l0,1.111l-0.493,0c-0.601,0 -1.01,0.081 -1.255,0.217c-0.248,0.136 -0.411,0.353 -0.52,0.651c-0.054,0.217 -0.11,0.568 -0.11,1.084l0,7.018l7.024,-7.344c0.355,-0.407 0.574,-0.651 0.654,-0.785c0.056,-0.109 0.083,-0.217 0.083,-0.353c0,-0.162 -0.083,-0.298 -0.219,-0.378c-0.163,-0.083 -0.491,-0.11 -1.01,-0.11l-0.437,0l0,-1.111l6.639,0l0,1.111c-0.518,0 -0.983,0.054 -1.42,0.163c-0.438,0.135 -0.766,0.298 -1.012,0.488c-0.547,0.38 -0.929,0.704 -1.174,0.948l-4.974,5.068l5.684,7.478c0.52,0.678 0.929,1.139 1.23,1.411c0.3,0.244 0.628,0.432 0.929,0.515c0.329,0.107 0.82,0.161 1.503,0.161l0,1.111l-7.897,0l0,-1.111l0.465,0c0.518,0 0.846,-0.027 0.929,-0.054c0.163,-0.027 0.272,-0.081 0.355,-0.19c0.109,-0.107 0.136,-0.217 0.136,-0.351c0,-0.217 -0.301,-0.732 -0.902,-1.572l-4.208,-5.636l-2.378,2.411l0,3.549c0,0.597 0.056,1.004 0.192,1.248c0.109,0.217 0.3,0.38 0.574,0.487c0.19,0.054 0.737,0.108 1.612,0.108l0,1.111l-7.186,0l0,-1.111l0.574,0c0.545,0 0.929,-0.054 1.146,-0.161c0.191,-0.11 0.357,-0.3 0.464,-0.571c0.109,-0.243 0.165,-0.704 0.165,-1.355l0,-12.193c0,-0.65 -0.056,-1.084 -0.165,-1.301c-0.107,-0.244 -0.246,-0.407 -0.464,-0.515c-0.19,-0.082 -0.628,-0.136 -1.311,-0.136l-0.409,0l0,-1.111Z" style="fill:#d2ac67;fill-rule:nonzero;"/><path d="M205.678,284.052l7.35,0c2.242,0 3.772,0.136 4.619,0.434c1.065,0.326 1.94,0.894 2.623,1.708c0.684,0.812 1.039,1.87 1.039,3.115c0,1.058 -0.274,2.006 -0.793,2.765c-0.627,0.948 -1.393,1.625 -2.296,2.005c-0.902,0.407 -2.322,0.596 -4.263,0.596l-3.415,0l0,4.689c0,0.704 0.054,1.165 0.11,1.326c0.109,0.273 0.272,0.461 0.437,0.544c0.19,0.107 0.572,0.161 1.146,0.161l0.63,0l0,1.111l-7.187,0l0,-1.111l0.438,0c0.601,0 1.038,-0.054 1.255,-0.161c0.219,-0.083 0.384,-0.244 0.465,-0.461c0.109,-0.217 0.165,-0.624 0.165,-1.221l0,-12.627c0,-0.597 -0.056,-0.975 -0.136,-1.192c-0.083,-0.19 -0.246,-0.326 -0.465,-0.434c-0.219,-0.082 -0.657,-0.136 -1.284,-0.136l-0.438,0l0,-1.111Zm4.864,1.437l0,7.75l2.87,0c1.447,0 2.486,-0.135 3.06,-0.38c0.574,-0.271 1.065,-0.705 1.449,-1.327c0.382,-0.65 0.572,-1.382 0.572,-2.223c0,-0.948 -0.217,-1.706 -0.655,-2.33c-0.464,-0.624 -1.065,-1.058 -1.831,-1.275c-0.518,-0.134 -1.585,-0.215 -3.115,-0.215l-2.35,0Z" style="fill:#d2ac67;fill-rule:nonzero;"/><path d="M222.729,284.052l9.566,0c1.829,0 3.196,0.19 4.125,0.57c0.929,0.378 1.639,0.921 2.159,1.626c0.492,0.704 0.737,1.516 0.737,2.466c0,0.949 -0.245,1.814 -0.737,2.548c-0.464,0.758 -1.175,1.326 -2.104,1.76c-0.902,0.434 -2.132,0.651 -3.635,0.677l4.864,5.936c0.411,0.514 0.656,0.812 0.793,0.921c0.301,0.271 0.629,0.488 0.984,0.624c0.327,0.134 0.711,0.215 1.148,0.215l0.326,0l0,1.111l-4.234,0l-6.805,-8.807l-2.376,0l0,5.692c0,0.622 0.027,1.029 0.054,1.192c0.109,0.297 0.272,0.514 0.491,0.624c0.219,0.134 0.63,0.188 1.257,0.188l0.465,0l0,1.111l-7.078,0l0,-1.111l0.628,0c0.494,0 0.822,-0.027 0.985,-0.081c0.163,-0.08 0.301,-0.19 0.437,-0.324c0.11,-0.163 0.219,-0.353 0.273,-0.597c0,-0.108 0.027,-0.541 0.027,-1.328l0,-12.086c0,-0.541 -0.054,-0.921 -0.163,-1.165c-0.11,-0.217 -0.246,-0.407 -0.438,-0.488c-0.192,-0.109 -0.518,-0.163 -0.983,-0.163l-0.766,0l0,-1.111Zm4.811,1.437l0,6.965l3.825,0c1.285,0 2.185,-0.083 2.705,-0.244c0.737,-0.217 1.338,-0.597 1.776,-1.165c0.41,-0.57 0.629,-1.275 0.629,-2.169c0,-0.732 -0.165,-1.356 -0.464,-1.87c-0.301,-0.514 -0.739,-0.895 -1.257,-1.138c-0.548,-0.244 -1.34,-0.379 -2.406,-0.379l-4.808,0Z" style="fill:#d2ac67;fill-rule:nonzero;"/><path d="M242.378,284.052l15.138,0l1.748,4.85l-1.175,0.434c-0.299,-0.785 -0.6,-1.409 -0.955,-1.869c-0.356,-0.461 -0.766,-0.841 -1.258,-1.166c-0.491,-0.324 -0.983,-0.514 -1.476,-0.623c-0.491,-0.108 -1.393,-0.162 -2.678,-0.162l-4.536,0l0,6.774l2.242,0c0.847,0 1.475,-0.136 1.886,-0.433c0.437,-0.271 0.71,-0.624 0.873,-1.029c0.138,-0.3 0.192,-0.841 0.192,-1.626l0,-0.3l1.311,0l0,8.103l-1.311,0l0,-0.705c0,-0.622 -0.054,-1.055 -0.137,-1.326c-0.082,-0.273 -0.274,-0.543 -0.52,-0.787c-0.245,-0.244 -0.518,-0.407 -0.819,-0.488c-0.273,-0.08 -0.764,-0.134 -1.475,-0.134l-2.242,0l0,5.987c0,0.624 0.027,1.004 0.083,1.138c0.054,0.137 0.163,0.217 0.299,0.3c0.139,0.054 0.494,0.08 1.094,0.08l2.788,0c1.585,0 2.787,-0.19 3.662,-0.568c0.901,-0.353 1.666,-0.921 2.323,-1.681c0.545,-0.595 1.038,-1.436 1.53,-2.521l1.201,0.434l-2.077,5.772l-15.711,0l0,-1.111l0.545,0c0.603,0 0.985,-0.054 1.148,-0.108c0.219,-0.136 0.411,-0.297 0.52,-0.568c0.081,-0.163 0.137,-0.543 0.137,-1.138l0,-12.709c0,-0.571 -0.056,-0.977 -0.164,-1.168c-0.109,-0.188 -0.328,-0.351 -0.602,-0.46c-0.164,-0.054 -0.684,-0.081 -1.584,-0.081l0,-1.111Z" style="fill:#d2ac67;fill-rule:nonzero;"/><path d="M262.025,284.052l5.875,0l5.521,14.608l5.355,-14.608l5.602,0l0,1.111l-0.465,0c-0.574,0 -0.956,0.054 -1.175,0.136c-0.192,0.108 -0.328,0.271 -0.464,0.515c-0.11,0.244 -0.163,0.651 -0.163,1.219l0,12.168c0,0.758 0.053,1.272 0.136,1.489c0.109,0.244 0.246,0.407 0.464,0.517c0.219,0.134 0.601,0.188 1.202,0.188l0.465,0l0,1.111l-7.051,0l0,-1.111l0.52,0c0.438,0 0.766,-0.027 0.983,-0.108c0.219,-0.08 0.384,-0.19 0.52,-0.353c0.136,-0.161 0.219,-0.324 0.246,-0.514c0.027,-0.352 0.054,-0.651 0.054,-0.839l0,-13.577l-6.039,16.502l-1.338,0l-6.148,-16.285l0,13.087c0,0.651 0.053,1.112 0.163,1.355c0.136,0.217 0.301,0.407 0.547,0.544c0.246,0.134 0.683,0.188 1.311,0.188l0.438,0l0,1.111l-6.559,0l0,-1.111l0.383,0c0.628,0 1.066,-0.081 1.338,-0.188c0.275,-0.137 0.465,-0.327 0.601,-0.57c0.11,-0.244 0.165,-0.732 0.165,-1.436l0,-12.086c0,-0.677 -0.055,-1.111 -0.136,-1.328c-0.11,-0.217 -0.274,-0.353 -0.493,-0.461c-0.219,-0.109 -0.628,-0.163 -1.202,-0.163l-0.656,0l0,-1.111Z" style="fill:#d2ac67;fill-rule:nonzero;"/><path d="M286.975,284.052l7.104,0l0,1.111l-0.547,0c-0.518,0 -0.874,0.081 -1.119,0.217c-0.219,0.136 -0.384,0.324 -0.494,0.597c-0.107,0.271 -0.163,0.758 -0.163,1.517l0,11.897c0,0.595 0.056,1.029 0.163,1.272c0.139,0.271 0.302,0.434 0.494,0.571c0.219,0.107 0.574,0.161 1.119,0.161l0.547,0l0,1.111l-7.104,0l0,-1.111l0.601,0c0.518,0 0.873,-0.054 1.092,-0.188c0.219,-0.11 0.384,-0.273 0.493,-0.517c0.081,-0.217 0.136,-0.648 0.136,-1.299l0,-12.141c0,-0.705 -0.055,-1.165 -0.136,-1.382c-0.109,-0.244 -0.274,-0.434 -0.493,-0.542c-0.219,-0.109 -0.574,-0.163 -1.092,-0.163l-0.601,0l0,-1.111Z" style="fill:#d2ac67;fill-rule:nonzero;"/><path d="M296.211,284.052l7.187,0l0,1.111l-0.493,0c-0.574,0 -0.983,0.054 -1.229,0.163c-0.218,0.108 -0.355,0.244 -0.464,0.461c-0.083,0.217 -0.136,0.624 -0.136,1.273l0,8.292c0,1.492 0.19,2.574 0.545,3.308c0.355,0.704 0.958,1.299 1.804,1.787c0.847,0.487 1.776,0.733 2.787,0.733c1.012,0 1.968,-0.273 2.897,-0.787c0.902,-0.515 1.557,-1.138 1.912,-1.843c0.355,-0.704 0.547,-1.843 0.547,-3.388l0,-7.966c0,-0.597 -0.054,-1.002 -0.163,-1.275c-0.137,-0.27 -0.302,-0.46 -0.547,-0.568c-0.219,-0.136 -0.601,-0.19 -1.093,-0.19l-0.52,0l0,-1.111l6.204,0l0,1.111l-0.437,0c-0.684,0 -1.175,0.136 -1.45,0.407c-0.245,0.244 -0.382,0.758 -0.382,1.49l0,8.509c0,1.545 -0.301,2.847 -0.873,3.876c-0.603,1.028 -1.449,1.842 -2.57,2.466c-1.119,0.595 -2.432,0.895 -3.906,0.895c-1.423,0 -2.707,-0.3 -3.882,-0.922c-1.148,-0.624 -2.021,-1.382 -2.568,-2.303c-0.547,-0.921 -0.82,-2.087 -0.82,-3.469l0,-9.052c0,-0.595 -0.056,-1.002 -0.165,-1.219c-0.109,-0.244 -0.246,-0.407 -0.465,-0.515c-0.19,-0.109 -0.545,-0.163 -1.065,-0.163l-0.655,0l0,-1.111Z" style="fill:#d2ac67;fill-rule:nonzero;"/><path d="M317.772,284.052l5.874,0l5.52,14.608l5.356,-14.608l5.603,0l0,1.111l-0.465,0c-0.573,0 -0.957,0.054 -1.174,0.136c-0.192,0.108 -0.329,0.271 -0.465,0.515c-0.109,0.244 -0.165,0.651 -0.165,1.219l0,12.168c0,0.758 0.056,1.272 0.136,1.489c0.11,0.244 0.246,0.407 0.465,0.517c0.219,0.134 0.601,0.188 1.203,0.188l0.465,0l0,1.111l-7.05,0l0,-1.111l0.518,0c0.437,0 0.766,-0.027 0.984,-0.108c0.219,-0.08 0.382,-0.19 0.519,-0.353c0.136,-0.161 0.219,-0.324 0.245,-0.514c0.029,-0.352 0.056,-0.651 0.056,-0.839l0,-13.577l-6.039,16.502l-1.34,0l-6.148,-16.285l0,13.087c0,0.651 0.056,1.112 0.163,1.355c0.138,0.217 0.302,0.407 0.547,0.544c0.246,0.134 0.684,0.188 1.313,0.188l0.436,0l0,1.111l-6.557,0l0,-1.111l0.382,0c0.628,0 1.065,-0.081 1.34,-0.188c0.272,-0.137 0.464,-0.327 0.6,-0.57c0.11,-0.244 0.164,-0.732 0.164,-1.436l0,-12.086c0,-0.677 -0.054,-1.111 -0.137,-1.328c-0.109,-0.217 -0.272,-0.353 -0.491,-0.461c-0.219,-0.109 -0.63,-0.163 -1.204,-0.163l-0.654,0l0,-1.111Z" style="fill:#d2ac67;fill-rule:nonzero;"/><path d="M351.821,284.052l14.237,0l1.722,4.85l-1.148,0.434c-0.493,-1.138 -0.985,-1.95 -1.449,-2.438c-0.465,-0.487 -1.012,-0.867 -1.64,-1.057c-0.629,-0.217 -1.612,-0.325 -2.952,-0.325l-4.042,0l0,7.099l1.829,0c0.985,0 1.668,-0.108 2.077,-0.271c0.437,-0.19 0.766,-0.487 0.985,-0.894c0.218,-0.405 0.328,-0.975 0.328,-1.707l0,-0.487l1.311,0l0,8.102l-1.311,0l0,-0.704c0,-0.705 -0.11,-1.246 -0.328,-1.653c-0.219,-0.38 -0.492,-0.651 -0.876,-0.841c-0.355,-0.163 -1.038,-0.244 -1.967,-0.244l-2.048,0l0,5.746c0,0.514 0.053,0.894 0.163,1.084c0.109,0.217 0.272,0.378 0.491,0.488c0.219,0.107 0.601,0.161 1.175,0.161l0.493,0l0,1.111l-7.05,0l0,-1.111l0.464,0c0.574,0 0.956,-0.054 1.175,-0.161c0.219,-0.11 0.382,-0.271 0.465,-0.488c0.109,-0.217 0.163,-0.624 0.163,-1.221l0,-12.546c0,-0.568 -0.054,-0.948 -0.137,-1.165c-0.109,-0.244 -0.245,-0.407 -0.464,-0.488c-0.192,-0.109 -0.547,-0.163 -1.039,-0.163l-0.627,0l0,-1.111Z" style="fill:#d2ac67;fill-rule:nonzero;"/><path d="M369.118,284.052l7.187,0l0,1.111l-0.657,0c-0.518,0 -0.9,0.054 -1.092,0.136c-0.219,0.108 -0.382,0.244 -0.491,0.434c-0.083,0.188 -0.137,0.515 -0.137,1.002l0,12.846c0,0.595 0.027,0.948 0.081,1.056c0.029,0.163 0.165,0.27 0.328,0.353c0.136,0.054 0.491,0.08 1.094,0.08l1.01,0c1.148,0 2.159,-0.163 3.006,-0.487c0.848,-0.325 1.559,-0.814 2.186,-1.436c0.601,-0.624 1.204,-1.572 1.776,-2.818l1.176,0.405l-2.077,5.772l-13.39,0l0,-1.111l0.601,0c0.547,0 0.929,-0.054 1.148,-0.161c0.191,-0.083 0.328,-0.244 0.437,-0.488c0.109,-0.217 0.163,-0.624 0.163,-1.165l0,-12.521c0,-0.649 -0.054,-1.083 -0.136,-1.3c-0.109,-0.217 -0.246,-0.353 -0.438,-0.461c-0.19,-0.082 -0.574,-0.136 -1.174,-0.136l-0.601,0l0,-1.111Z" style="fill:#d2ac67;fill-rule:nonzero;"/><path d="M392.427,284.052l2.242,0l5.766,15.42c0.273,0.786 0.545,1.301 0.847,1.545c0.299,0.243 0.683,0.378 1.174,0.378l0.302,0l0,1.111l-6.642,0l0,-1.111c0.219,-0.027 0.438,-0.027 0.63,-0.027c0.436,0 0.71,-0.054 0.846,-0.134c0.273,-0.164 0.382,-0.38 0.382,-0.624c0,-0.19 -0.109,-0.651 -0.355,-1.355l-1.257,-3.577l-6.723,0l-1.447,3.984c-0.165,0.406 -0.219,0.704 -0.219,0.867c0,0.161 0.027,0.325 0.137,0.461c0.082,0.134 0.218,0.217 0.382,0.297c0.165,0.054 0.411,0.081 0.766,0.081c0.245,0 0.437,0.027 0.6,0.027l0,1.111l-5.574,0l0,-1.111c0.52,0 0.875,-0.054 1.121,-0.161c0.219,-0.083 0.409,-0.244 0.574,-0.488c0.19,-0.217 0.409,-0.678 0.683,-1.409l5.765,-15.285Zm-2.323,10.325l5.74,0l-2.843,-7.939l-2.897,7.939Z" style="fill:#d2ac67;fill-rule:nonzero;"/><path d="M404.533,283.43l0.929,0l0.137,0.622l11.367,0l0.11,-0.622l0.984,0l1.968,5.419l-1.204,0.434c-0.574,-1.436 -1.255,-2.467 -2.048,-3.062c-0.793,-0.57 -1.804,-0.868 -3.035,-0.868c-0.518,0 -0.846,0.027 -0.929,0.054c-0.109,0.054 -0.163,0.109 -0.216,0.217c-0.029,0.08 -0.056,0.407 -0.056,0.921l0,12.792c0,0.595 0.027,1.029 0.109,1.246c0.054,0.19 0.163,0.351 0.273,0.487c0.138,0.11 0.301,0.19 0.52,0.244c0.219,0.054 0.71,0.081 1.447,0.081l0,1.111l-7.131,0l0,-1.111c0.793,0 1.284,-0.027 1.447,-0.081c0.329,-0.08 0.548,-0.244 0.684,-0.514c0.136,-0.244 0.192,-0.705 0.192,-1.355l0,-13.09c0,-0.378 -0.027,-0.651 -0.056,-0.731c-0.054,-0.081 -0.109,-0.163 -0.219,-0.19c-0.107,-0.054 -0.355,-0.081 -0.681,-0.081c-0.985,0 -1.751,0.108 -2.352,0.38c-0.573,0.244 -1.119,0.649 -1.639,1.246c-0.518,0.597 -0.956,1.355 -1.311,2.304l-1.203,-0.434l1.913,-5.419Z" style="fill:#d2ac67;fill-rule:nonzero;"/><path d="M433.609,284.052l0.956,0l1.42,5.691l-1.229,0.38c-0.792,-1.599 -1.831,-2.846 -3.115,-3.768c-1.065,-0.758 -2.269,-1.138 -3.553,-1.138c-0.793,0 -1.503,0.136 -2.131,0.407c-0.6,0.297 -1.065,0.651 -1.393,1.084c-0.302,0.434 -0.465,0.895 -0.465,1.356c0,0.405 0.11,0.812 0.355,1.192c0.246,0.38 0.628,0.731 1.121,1.029c0.465,0.299 1.284,0.597 2.404,0.921l3.47,1.004c0.438,0.107 1.067,0.351 1.858,0.704c0.82,0.352 1.449,0.732 1.914,1.112c0.465,0.405 0.82,0.892 1.065,1.462c0.246,0.569 0.382,1.166 0.382,1.843c0,1.463 -0.654,2.737 -1.938,3.82c-1.285,1.111 -2.979,1.655 -5.03,1.655c-1.038,0 -1.994,-0.163 -2.841,-0.461c-0.819,-0.299 -1.721,-0.841 -2.706,-1.626l-0.601,1.787l-0.956,0l-1.23,-6.638l1.23,-0.245c0.465,1.221 1.065,2.25 1.803,3.117c0.766,0.841 1.585,1.49 2.514,1.923c0.902,0.434 1.832,0.651 2.787,0.651c1.285,0 2.406,-0.38 3.362,-1.138c0.792,-0.651 1.203,-1.409 1.203,-2.277c0,-0.812 -0.301,-1.462 -0.875,-1.977c-0.574,-0.487 -1.639,-0.975 -3.143,-1.409l-3.334,-0.948c-1.885,-0.543 -3.196,-1.221 -3.962,-2.06c-0.766,-0.84 -1.147,-1.789 -1.147,-2.873c0,-0.839 0.245,-1.626 0.736,-2.357c0.521,-0.705 1.285,-1.302 2.296,-1.789c1.039,-0.488 2.16,-0.732 3.388,-0.732c1.039,0 2.023,0.163 2.979,0.542c0.657,0.243 1.285,0.597 1.832,1.057l0.574,-1.301Z" style="fill:#d2ac67;fill-rule:nonzero;"/></g></g><defs><linearGradient id="_Linear1" x1="0" y1="0" x2="1" y2="0" gradientUnits="userSpaceOnUse" gradientTransform="matrix(-249.682,-218.315,-218.315,249.682,518.739,133.472)"><stop offset="0" style="stop-color:#d69151;stop-opacity:1"/><stop offset="0.3" style="stop-color:#deb572;stop-opacity:1"/><stop offset="0.4" style="stop-color:#d5a96b;stop-opacity:1"/><stop offset="0.5" style="stop-color:#c38e58;stop-opacity:1"/><stop offset="0.6" style="stop-color:#d39d52;stop-opacity:1"/><stop offset="0.7" style="stop-color:#efbb4a;stop-opacity:1"/><stop offset="0.8" style="stop-color:#ffd567;stop-opacity:1"/><stop offset="1" style="stop-color:#fff8db;stop-opacity:1"/></linearGradient><linearGradient id="_Linear2" x1="0" y1="0" x2="1" y2="0" gradientUnits="userSpaceOnUse" gradientTransform="matrix(-435.921,-31.5957,-31.5957,435.921,432.723,68.323)"><stop offset="0" style="stop-color:#d69151;stop-opacity:1"/><stop offset="0.3" style="stop-color:#deb572;stop-opacity:1"/><stop offset="0.4" style="stop-color:#d5a96b;stop-opacity:1"/><stop offset="0.5" style="stop-color:#c38e58;stop-opacity:1"/><stop offset="0.6" style="stop-color:#d39d52;stop-opacity:1"/><stop offset="0.7" style="stop-color:#efbb4a;stop-opacity:1"/><stop offset="0.8" style="stop-color:#ffd567;stop-opacity:1"/><stop offset="1" style="stop-color:#fff8db;stop-opacity:1"/></linearGradient></defs></svg>