<?xml version="1.0" encoding="UTF-8" standalone="no"?>
<!DOCTYPE svg PUBLIC "-//W3C//DTD SVG 1.1//EN" "http://www.w3.org/Graphics/SVG/1.1/DTD/svg11.dtd">
<svg width="100%" height="100%" viewBox="0 0 490 342" version="1.1" xmlns="http://www.w3.org/2000/svg" xmlns:xlink="http://www.w3.org/1999/xlink" xml:space="preserve" xmlns:serif="http://www.serif.com/" style="fill-rule:evenodd;clip-rule:evenodd;stroke-linejoin:round;stroke-miterlimit:2;">
    <path d="M490,17.08C490,7.653 482.347,0 472.92,0L17.08,0C7.653,0 0,7.653 0,17.08L0,324.52C0,333.947 7.653,341.6 17.08,341.6L472.92,341.6C482.347,341.6 490,333.947 490,324.52L490,17.08Z" style="fill:url(#_Radial1);"/>
    <g transform="matrix(1.05262,0,0,1.05262,-34.0184,-3253.73)">
        <path d="M252.717,3164.33L251.29,3162.91C250.896,3162.51 250.699,3162 250.699,3161.48C250.699,3160.97 250.896,3160.45 251.29,3160.05L252.717,3158.63L254.145,3160.05C254.539,3160.45 254.735,3160.97 254.735,3161.48C254.735,3162 254.539,3162.51 254.145,3162.91L252.717,3164.33ZM236.741,3168.62L234.789,3168.1C234.247,3167.95 233.816,3167.6 233.561,3167.16L233.561,3167.15C233.304,3166.71 233.216,3166.16 233.362,3165.62L233.884,3163.67L235.836,3164.19C236.38,3164.34 236.81,3164.69 237.065,3165.13L237.065,3165.14C237.322,3165.58 237.409,3166.13 237.263,3166.67L236.741,3168.62ZM245.392,3168.96L251.678,3175.24L251.681,3175.24C254.975,3178.64 256.249,3182.51 256.432,3186.63C256.482,3187.73 256.453,3188.86 256.367,3190C255.428,3187.7 254.331,3185.53 252.969,3183.59C250.431,3179.96 247.014,3177.15 242.07,3175.75L233.363,3173.42C231.354,3172.88 229.753,3171.58 228.79,3169.91L228.788,3169.91C227.826,3168.24 227.501,3166.2 228.04,3164.2L229.988,3156.92L237.262,3158.87C239.272,3159.41 240.872,3160.71 241.835,3162.38L241.838,3162.38C242.798,3164.05 243.124,3166.08 242.585,3168.09L242.063,3170.05L239.576,3169.38L240.099,3167.43C240.452,3166.1 240.237,3164.76 239.603,3163.66L239.599,3163.66C238.963,3162.57 237.911,3161.71 236.594,3161.36L231.809,3160.08L230.527,3164.86C230.173,3166.18 230.388,3167.52 231.023,3168.62L231.026,3168.62C231.662,3169.72 232.714,3170.58 234.032,3170.93L244.138,3173.64L245.392,3168.96L245.392,3168.96ZM225.046,3180.31L223.096,3180.84C222.552,3180.98 222.008,3180.89 221.562,3180.64L221.563,3180.64C221.115,3180.38 220.767,3179.95 220.62,3179.41L220.098,3177.46L222.048,3176.93C222.59,3176.79 223.136,3176.88 223.582,3177.13C224.028,3177.39 224.377,3177.82 224.524,3178.36L225.046,3180.31L225.046,3180.31ZM232.707,3176.28L241.296,3178.58C245.496,3179.78 248.405,3182.17 250.57,3185.26C251.38,3186.42 252.092,3187.68 252.731,3189.01C251.058,3187.72 249.331,3186.56 247.522,3185.62C243.261,3183.42 238.61,3182.47 233.235,3183.82L224.522,3186.16C222.511,3186.7 220.473,3186.37 218.806,3185.41L218.808,3185.41C217.139,3184.44 215.838,3182.84 215.299,3180.84L213.35,3173.56L220.622,3171.61C222.633,3171.07 224.669,3171.4 226.335,3172.36L226.342,3172.36C228.006,3173.32 229.305,3174.92 229.845,3176.94L230.367,3178.89L227.88,3179.55L227.358,3177.6C227.003,3176.28 226.148,3175.23 225.051,3174.6C223.953,3173.96 222.611,3173.74 221.291,3174.1L216.503,3175.38L217.786,3180.16C218.14,3181.49 218.996,3182.54 220.094,3183.17L220.1,3183.17C221.197,3183.81 222.535,3184.03 223.854,3183.67L233.962,3180.96L232.707,3176.28ZM220.762,3196.29L219.335,3197.72C218.941,3198.11 218.424,3198.31 217.908,3198.31C217.393,3198.31 216.877,3198.11 216.482,3197.72L215.054,3196.29L216.482,3194.86C216.877,3194.47 217.393,3194.27 217.908,3194.27C218.424,3194.27 218.941,3194.47 219.335,3194.86L220.762,3196.29ZM225.384,3188.97L233.963,3186.66C238.542,3185.51 242.523,3186.33 246.178,3188.23C247.165,3188.74 248.133,3189.33 249.086,3189.98C246.665,3189.65 244.278,3189.51 241.952,3189.7C237.509,3190.08 233.329,3191.62 229.61,3195.24L229.593,3195.25L223.232,3201.61C221.762,3203.08 219.834,3203.82 217.908,3203.82C215.981,3203.82 214.055,3203.08 212.586,3201.61L207.263,3196.29L212.586,3190.97C214.055,3189.5 215.981,3188.76 217.908,3188.76C219.834,3188.76 221.762,3189.5 223.232,3190.97L224.658,3192.39L222.841,3194.21L221.413,3192.78C220.445,3191.82 219.177,3191.33 217.908,3191.33C216.639,3191.33 215.372,3191.82 214.403,3192.78L210.899,3196.29L214.403,3199.8C215.372,3200.76 216.639,3201.25 217.908,3201.25C219.177,3201.25 220.445,3200.76 221.413,3199.8L228.814,3192.39L225.384,3188.96L225.384,3188.97ZM225.046,3212.26L224.522,3214.22C224.377,3214.76 224.029,3215.19 223.587,3215.45L223.58,3215.45C223.136,3215.7 222.59,3215.79 222.048,3215.64L220.098,3215.12L220.62,3213.17C220.767,3212.62 221.114,3212.2 221.557,3211.94L221.563,3211.94C222.008,3211.68 222.554,3211.6 223.096,3211.74L225.046,3212.26ZM225.384,3203.62L231.67,3197.33L231.668,3197.33C234.825,3194.26 238.393,3192.95 242.192,3192.63C243.568,3192.52 244.979,3192.53 246.417,3192.64C244.46,3193.44 242.6,3194.35 240.89,3195.45L240.892,3195.45C236.847,3198.04 233.691,3201.6 232.179,3206.94L229.845,3215.64C229.306,3217.65 228.005,3219.25 226.336,3220.22L226.338,3220.22C224.67,3221.18 222.633,3221.51 220.622,3220.97L213.352,3219.02L215.299,3211.74C215.838,3209.74 217.139,3208.14 218.808,3207.17L218.806,3207.17C220.475,3206.21 222.511,3205.88 224.522,3206.42L226.472,3206.95L225.806,3209.43L223.854,3208.91C222.532,3208.55 221.192,3208.77 220.092,3209.4L220.095,3209.41C218.994,3210.04 218.14,3211.09 217.786,3212.41L216.503,3217.2L221.29,3218.48C222.611,3218.83 223.951,3218.62 225.05,3217.98L225.049,3217.98C226.148,3217.35 227.006,3216.29 227.358,3214.98L230.066,3204.87L225.384,3203.62ZM236.741,3223.96L237.263,3225.91C237.409,3226.45 237.324,3227 237.067,3227.45L237.065,3227.44C236.807,3227.89 236.377,3228.24 235.836,3228.39L233.884,3228.91L233.362,3226.96C233.216,3226.42 233.304,3225.87 233.561,3225.43C233.819,3224.98 234.249,3224.63 234.789,3224.48L236.741,3223.96ZM232.707,3216.3L235.009,3207.71C236.298,3203.17 239.002,3200.13 242.469,3197.92L242.475,3197.92C243.41,3197.32 244.402,3196.78 245.441,3196.28C244.212,3197.86 243.11,3199.49 242.201,3201.2C239.89,3205.54 238.862,3210.28 240.252,3215.77L242.586,3224.49C243.124,3226.5 242.798,3228.53 241.839,3230.2L241.836,3230.2C240.872,3231.87 239.272,3233.17 237.263,3233.71L229.99,3235.66L228.041,3228.39C227.503,3226.37 227.828,3224.34 228.791,3222.67L228.791,3222.67C229.752,3221 231.352,3219.7 233.363,3219.16L235.316,3218.64L235.983,3221.12L234.033,3221.65C232.71,3222 231.657,3222.86 231.024,3223.96C230.39,3225.06 230.173,3226.39 230.527,3227.72L231.81,3232.5L236.594,3231.22C237.916,3230.87 238.969,3230.01 239.602,3228.91L239.602,3228.91C240.236,3227.81 240.452,3226.47 240.099,3225.15L237.391,3215.04L232.707,3216.3L232.707,3216.3ZM252.717,3228.24L254.145,3229.67C254.538,3230.07 254.735,3230.58 254.735,3231.1C254.735,3231.62 254.538,3232.13 254.145,3232.52L252.717,3233.95L251.29,3232.52C250.896,3232.13 250.698,3231.62 250.698,3231.1C250.698,3230.58 250.896,3230.07 251.29,3229.67L252.717,3228.24ZM245.392,3223.62L243.094,3215.04C241.915,3210.36 242.8,3206.3 244.783,3202.58C245.264,3201.68 245.81,3200.79 246.409,3199.91C246.124,3202 245.985,3204.06 246.075,3206.09C246.291,3210.89 247.791,3215.41 251.667,3219.4L251.678,3219.41L258.04,3225.78C259.51,3227.25 260.244,3229.17 260.244,3231.1C260.244,3233.03 259.51,3234.95 258.041,3236.42L252.717,3241.74L247.395,3236.42C245.925,3234.95 245.19,3233.03 245.19,3231.1C245.19,3229.17 245.925,3227.25 247.395,3225.78L248.821,3224.35L250.639,3226.17L249.213,3227.59C248.244,3228.56 247.76,3229.83 247.76,3231.1C247.76,3232.37 248.244,3233.63 249.213,3234.6L252.717,3238.11L256.222,3234.6C257.191,3233.63 257.675,3232.37 257.675,3231.1C257.675,3229.83 257.191,3228.56 256.222,3227.59L248.821,3220.19L245.392,3223.62ZM268.693,3223.96L270.645,3224.48C271.185,3224.63 271.616,3224.98 271.874,3225.43C272.131,3225.87 272.218,3226.42 272.073,3226.96L271.55,3228.91L269.598,3228.39C269.058,3228.24 268.628,3227.89 268.369,3227.45C268.112,3227 268.026,3226.45 268.171,3225.91L268.693,3223.96ZM260.043,3223.62L253.757,3217.34L253.754,3217.34C250.463,3213.95 249.187,3210.08 249.002,3205.96C248.953,3204.86 248.981,3203.73 249.068,3202.59C249.901,3204.63 250.859,3206.57 252.016,3208.34C254.593,3212.27 258.116,3215.34 263.364,3216.83L272.071,3219.16C274.081,3219.7 275.682,3221 276.645,3222.67L276.647,3222.67C277.608,3224.34 277.933,3226.37 277.394,3228.38L275.446,3235.66L268.172,3233.71C266.16,3233.17 264.56,3231.87 263.599,3230.2L263.599,3230.2C262.636,3228.53 262.311,3226.49 262.849,3224.49L263.371,3222.54L265.858,3223.2L265.336,3225.15C264.982,3226.47 265.198,3227.81 265.832,3228.91C266.466,3230.01 267.518,3230.87 268.84,3231.22L273.625,3232.5L274.907,3227.72C275.262,3226.39 275.046,3225.06 274.411,3223.96C273.777,3222.86 272.725,3222 271.403,3221.65L261.296,3218.94L260.043,3223.62ZM280.388,3212.26L282.339,3211.74C282.881,3211.6 283.427,3211.68 283.872,3211.94L283.877,3211.94C284.321,3212.2 284.667,3212.63 284.812,3213.17L285.336,3215.12L283.386,3215.64C282.844,3215.79 282.299,3215.7 281.853,3215.45C281.406,3215.19 281.057,3214.76 280.911,3214.22L280.388,3212.26ZM272.727,3216.3L264.139,3214C259.688,3212.73 256.682,3210.11 254.473,3206.73C253.824,3205.74 253.24,3204.68 252.707,3203.57C254.272,3204.78 255.883,3205.87 257.565,3206.77C261.921,3209.11 266.679,3210.15 272.199,3208.76L280.912,3206.42C282.924,3205.88 284.961,3206.21 286.628,3207.17L286.626,3207.17C288.295,3208.14 289.597,3209.74 290.135,3211.74L292.084,3219.02L284.812,3220.97C282.801,3221.51 280.764,3221.18 279.097,3220.22L279.099,3220.22C277.43,3219.26 276.128,3217.65 275.59,3215.64L275.067,3213.69L277.555,3213.03L278.077,3214.97C278.431,3216.3 279.286,3217.35 280.384,3217.98C281.484,3218.62 282.824,3218.83 284.145,3218.48L288.931,3217.2L287.649,3212.41C287.296,3211.09 286.439,3210.04 285.34,3209.41L285.342,3209.4C284.242,3208.77 282.901,3208.55 281.581,3208.91L271.473,3211.62L272.728,3216.3L272.727,3216.3ZM284.673,3196.29L286.099,3194.86C286.494,3194.47 287.01,3194.27 287.526,3194.27C288.042,3194.27 288.559,3194.47 288.953,3194.86L290.38,3196.29L288.953,3197.72C288.559,3198.11 288.042,3198.31 287.526,3198.31C287.01,3198.31 286.494,3198.11 286.099,3197.72L284.673,3196.29ZM280.051,3203.62L271.473,3205.91C266.764,3207.1 262.687,3206.2 258.944,3204.19C258.06,3203.72 257.19,3203.18 256.333,3202.59C256.47,3202.61 256.563,3202.63 256.6,3202.63C260.047,3203.08 263.415,3203.13 266.632,3202.39C269.911,3201.63 273.006,3200.08 275.825,3197.34L275.842,3197.33L282.203,3190.97C283.674,3189.5 285.601,3188.76 287.527,3188.76C289.453,3188.76 291.38,3189.5 292.85,3190.97L298.172,3196.29L292.85,3201.61C291.38,3203.08 289.453,3203.82 287.527,3203.82C285.601,3203.82 283.674,3203.08 282.204,3201.61L280.776,3200.18L282.595,3198.37L284.021,3199.8C284.99,3200.76 286.258,3201.25 287.527,3201.25C288.795,3201.25 290.063,3200.76 291.032,3199.8L294.536,3196.29L291.032,3192.79C290.063,3191.82 288.795,3191.33 287.527,3191.33C286.258,3191.33 284.99,3191.82 284.021,3192.79L276.621,3200.18L280.051,3203.62ZM280.39,3180.31L280.911,3178.36C281.057,3177.82 281.406,3177.39 281.853,3177.13L281.852,3177.13C282.297,3176.87 282.843,3176.79 283.386,3176.93L285.336,3177.46L284.812,3179.41C284.668,3179.95 284.32,3180.38 283.873,3180.64C283.427,3180.89 282.881,3180.98 282.339,3180.84L280.388,3180.31L280.39,3180.31ZM280.051,3188.97L273.764,3195.25L273.766,3195.25C271.372,3197.58 268.75,3198.89 265.977,3199.53C263.756,3200.04 261.421,3200.12 259.015,3199.94C262.152,3198.66 265.041,3197.08 267.454,3194.94C270.095,3192.6 272.133,3189.61 273.256,3185.64L275.59,3176.94C276.129,3174.93 277.43,3173.33 279.099,3172.36L279.097,3172.36C280.765,3171.4 282.801,3171.07 284.812,3171.61L292.084,3173.56L290.135,3180.83C289.596,3182.85 288.296,3184.45 286.632,3185.41L286.626,3185.41C284.959,3186.37 282.923,3186.7 280.912,3186.16L278.963,3185.64L279.629,3183.15L281.58,3183.67C282.901,3184.03 284.241,3183.81 285.341,3183.17C286.438,3182.54 287.294,3181.49 287.648,3180.17L288.931,3175.38L284.143,3174.1C282.825,3173.74 281.488,3173.96 280.39,3174.6L280.384,3174.6C279.286,3175.23 278.43,3176.28 278.076,3177.6L275.368,3187.71L280.049,3188.97L280.051,3188.97ZM268.694,3168.62L268.172,3166.67C268.026,3166.13 268.112,3165.58 268.369,3165.14L268.369,3165.13C268.626,3164.69 269.056,3164.34 269.598,3164.19L271.55,3163.67L272.073,3165.62C272.218,3166.16 272.131,3166.71 271.874,3167.15C271.616,3167.6 271.185,3167.95 270.646,3168.1L268.694,3168.62ZM255.109,3197.7C254.899,3197.96 254.688,3198.22 254.485,3198.47C253.855,3198.68 253.26,3198.88 252.761,3199.05C252.259,3198.97 251.894,3198.91 251.638,3198.86C251.232,3198.51 250.83,3198.14 250.426,3197.77C250.279,3197.32 250.134,3196.87 249.993,3196.42C250.088,3195.96 250.187,3195.5 250.29,3195.05C250.601,3194.7 250.919,3194.35 251.24,3194C251.683,3193.85 252.129,3193.71 252.579,3193.57C253.039,3193.66 253.501,3193.76 253.964,3193.87C254.314,3194.18 254.663,3194.49 255.011,3194.81C255.158,3195.26 255.302,3195.7 255.443,3196.16C255.336,3196.67 255.225,3197.18 255.109,3197.7L255.109,3197.7ZM272.727,3176.28L270.427,3184.87C269.47,3188.24 267.746,3190.77 265.514,3192.75C263.918,3194.16 262.046,3195.32 260,3196.3C261.978,3193.74 263.629,3191.08 264.66,3188.19C265.899,3184.72 266.238,3180.98 265.183,3176.81L262.85,3168.09C262.311,3166.08 262.636,3164.05 263.596,3162.38L263.599,3162.38C264.563,3160.71 266.164,3159.41 268.172,3158.87L275.446,3156.92L277.394,3164.2C277.934,3166.21 277.608,3168.24 276.647,3169.91L276.645,3169.91C275.682,3171.58 274.081,3172.88 272.072,3173.42L270.12,3173.94L269.453,3171.45L271.403,3170.93C272.725,3170.58 273.778,3169.72 274.411,3168.62C275.047,3167.52 275.262,3166.18 274.908,3164.86L273.626,3160.08L268.841,3161.36C267.523,3161.71 266.471,3162.57 265.836,3163.66L265.833,3163.66C265.198,3164.76 264.982,3166.1 265.336,3167.43L268.044,3177.53L272.727,3176.28ZM262.8,3158.67C262.333,3156.99 261.439,3155.4 260.118,3154.08L252.717,3146.68L245.317,3154.08C243.996,3155.4 243.102,3156.99 242.634,3158.67C241.391,3157.45 239.824,3156.52 238.02,3156.04L227.914,3153.33L225.205,3163.44C224.721,3165.24 224.741,3167.06 225.18,3168.75C223.489,3168.31 221.668,3168.3 219.865,3168.78L209.756,3171.49L212.464,3181.59C212.947,3183.39 213.875,3184.96 215.095,3186.21C213.414,3186.67 211.83,3187.57 210.508,3188.89L203.107,3196.29L210.508,3203.69C211.83,3205.01 213.414,3205.9 215.095,3206.37C213.875,3207.62 212.947,3209.18 212.464,3210.99L209.756,3221.1L219.865,3223.8C221.668,3224.28 223.489,3224.26 225.179,3223.83C224.741,3225.51 224.723,3227.34 225.205,3229.14L227.914,3239.25L238.02,3236.54C239.824,3236.06 241.391,3235.13 242.635,3233.91C243.102,3235.59 243.996,3237.18 245.317,3238.5L252.717,3245.9L260.118,3238.5C261.44,3237.18 262.334,3235.59 262.8,3233.91C264.046,3235.13 265.613,3236.06 267.415,3236.54L277.521,3239.25L280.23,3229.14C280.713,3227.34 280.693,3225.51 280.255,3223.83C281.945,3224.26 283.766,3224.28 285.571,3223.8L295.68,3221.1L292.971,3210.99C292.488,3209.18 291.561,3207.62 290.341,3206.37C292.02,3205.9 293.606,3205.01 294.928,3203.69L302.329,3196.29L294.928,3188.89C293.606,3187.57 292.018,3186.67 290.338,3186.21C291.561,3184.96 292.489,3183.39 292.972,3181.59L295.68,3171.49L285.571,3168.78C283.767,3168.29 281.945,3168.31 280.255,3168.75C280.694,3167.06 280.714,3165.24 280.23,3163.44L277.521,3153.33L267.415,3156.04C265.611,3156.52 264.046,3157.45 262.8,3158.67ZM259.026,3192.66C259.311,3190.58 259.451,3188.52 259.36,3186.5C259.146,3181.69 257.647,3177.17 253.768,3173.18L253.757,3173.16L247.395,3166.8C245.926,3165.33 245.191,3163.41 245.191,3161.48C245.191,3159.56 245.925,3157.63 247.394,3156.16L252.717,3150.84L258.04,3156.16C259.51,3157.63 260.245,3159.56 260.245,3161.48C260.245,3163.41 259.51,3165.33 258.041,3166.8L256.613,3168.23L254.795,3166.41L256.222,3164.98C257.191,3164.01 257.675,3162.75 257.675,3161.48C257.675,3160.21 257.191,3158.94 256.222,3157.97L252.717,3154.47L249.212,3157.97C248.244,3158.94 247.76,3160.21 247.76,3161.48C247.76,3162.75 248.244,3164.01 249.212,3164.98L256.613,3172.39L260.043,3168.96L262.341,3177.53C263.233,3181.08 262.944,3184.26 261.893,3187.2C261.218,3189.09 260.226,3190.9 259.026,3192.66" style="fill:rgb(94,70,33);"/>
    </g>
    <g transform="matrix(1.05262,0,0,1.05262,-34.0184,-3089.13)">
        <path d="M119.5,3118.63C118.211,3115.84 116.775,3112.86 115.191,3109.69C113.607,3106.52 112.09,3103.54 110.64,3100.75C110.103,3099.62 109.472,3098.53 108.747,3097.49C108.022,3096.44 106.639,3095.46 104.599,3094.55L104.518,3094.06C105.646,3094.12 106.814,3094.2 108.022,3094.3C109.23,3094.41 110.425,3094.47 111.606,3094.47C112.68,3094.47 113.795,3094.44 114.949,3094.38C116.104,3094.33 117.272,3094.28 118.453,3094.22L118.695,3094.71C118.158,3094.97 117.769,3095.38 117.526,3095.91C117.285,3096.45 117.164,3097.01 117.164,3097.61C117.164,3098.79 117.406,3099.94 117.889,3101.07C119.017,3103.86 120.292,3106.76 121.715,3109.77C123.138,3112.78 124.44,3115.62 125.622,3118.31C126.696,3120.62 127.81,3122.91 128.964,3125.19C130.119,3127.47 131.26,3129.77 132.388,3132.08L133.032,3132.08C133.945,3130.09 134.871,3128.11 135.811,3126.12C136.75,3124.13 137.676,3122.12 138.589,3120.08C139.932,3117.29 141.288,3114.17 142.657,3110.74C144.027,3107.3 145.302,3104.18 146.483,3101.39C146.752,3100.85 146.98,3100.26 147.168,3099.62C147.356,3098.97 147.45,3098.33 147.45,3097.69C147.45,3096.93 147.235,3096.26 146.805,3095.67C146.376,3095.08 145.517,3094.68 144.228,3094.47L144.469,3094.06C145.49,3094.12 146.577,3094.18 147.732,3094.26C148.886,3094.34 150.054,3094.38 151.235,3094.38C152.309,3094.38 153.437,3094.34 154.618,3094.26C155.8,3094.18 157.008,3094.12 158.243,3094.06L158.082,3094.47C156.471,3095.06 155.129,3096.01 154.055,3097.32C152.98,3098.64 152.095,3099.89 151.397,3101.07C149.947,3103.75 148.523,3106.63 147.128,3109.69C145.731,3112.75 144.416,3115.59 143.181,3118.22C142.537,3119.62 141.852,3121.06 141.127,3122.53C140.402,3124.01 139.596,3125.64 138.711,3127.41C137.824,3129.18 136.858,3131.17 135.811,3133.37C134.764,3135.57 133.595,3138.12 132.307,3141.02C132.146,3141.45 131.877,3141.66 131.502,3141.66C131.179,3141.66 130.857,3141.37 130.535,3140.78C129.89,3139.38 129.085,3137.7 128.119,3135.74C127.152,3133.78 126.145,3131.77 125.098,3129.7C124.051,3127.64 123.03,3125.62 122.037,3123.66C121.044,3121.7 120.198,3120.03 119.5,3118.63ZM175.698,3094.71C177.846,3094.71 179.913,3094.61 181.901,3094.42C183.887,3094.24 185.847,3094.14 187.78,3094.14C189.123,3094.14 190.761,3094.33 192.693,3094.71C194.627,3095.08 196.292,3095.62 197.688,3096.32C199.889,3097.5 201.487,3099.07 202.48,3101.03C203.473,3102.99 203.97,3104.91 203.97,3106.79C203.97,3108.99 203.393,3111.06 202.239,3112.99C201.084,3114.92 199.567,3116.48 197.688,3117.66C197.204,3117.88 196.721,3118.11 196.238,3118.35C195.755,3118.59 195.217,3118.76 194.627,3118.87C196.076,3120.86 197.674,3123.1 199.419,3125.6C201.165,3128.09 203.017,3130.44 204.977,3132.64C206.937,3134.85 208.964,3136.68 211.058,3138.16C213.153,3139.64 215.3,3140.38 217.502,3140.38C217.985,3140.38 218.469,3140.35 218.952,3140.3C219.435,3140.24 219.945,3140.22 220.483,3140.22C220.751,3140.22 220.885,3140.32 220.885,3140.54C220.885,3140.81 220.657,3141.07 220.2,3141.34C219.744,3141.61 219.194,3141.84 218.549,3142.03C217.905,3142.22 217.247,3142.36 216.576,3142.47C215.905,3142.58 215.354,3142.63 214.925,3142.63C211.38,3142.63 208.36,3141.84 205.863,3140.26C203.366,3138.67 201.084,3136.71 199.016,3134.38C196.949,3132.04 194.99,3129.56 193.137,3126.93C191.284,3124.29 189.23,3121.9 186.975,3119.76L183.592,3119.76C183.055,3119.7 182.317,3119.72 181.377,3119.8C180.437,3119.88 179.565,3119.94 178.759,3120C178.759,3122.52 178.786,3125.05 178.839,3127.57C178.893,3130.09 179.027,3132.62 179.242,3135.14C179.35,3136.7 179.699,3137.84 180.289,3138.56C180.88,3139.29 181.82,3139.92 183.109,3140.46L183.109,3140.94C181.874,3140.89 180.652,3140.82 179.444,3140.74C178.236,3140.66 177.014,3140.62 175.779,3140.62C174.705,3140.62 173.457,3140.66 172.033,3140.74C170.61,3140.82 169.362,3140.89 168.288,3140.94L168.288,3140.38C169.308,3139.95 170.315,3139.32 171.308,3138.48C172.302,3137.65 172.852,3136.64 172.96,3135.46C173.014,3132.62 173.04,3129.77 173.04,3126.93L173.04,3118.39C173.04,3115.54 172.986,3112.59 172.879,3109.53C172.772,3106.47 172.664,3103.54 172.557,3100.75C172.503,3099.67 172.235,3098.61 171.752,3097.57C171.268,3096.52 170.168,3095.62 168.449,3094.87L168.449,3094.3C169.523,3094.41 170.704,3094.51 171.993,3094.59C173.282,3094.67 174.517,3094.71 175.698,3094.71ZM179.081,3100.99C178.92,3102.44 178.826,3103.91 178.799,3105.42C178.773,3106.92 178.759,3108.45 178.759,3110.01L178.759,3117.26C179.672,3117.26 180.746,3117.25 181.981,3117.22C183.216,3117.19 184.156,3117.18 184.8,3117.18C189.74,3117.18 193.11,3116.27 194.909,3114.44C196.708,3112.61 197.553,3109.93 197.446,3106.39C197.553,3104.94 197.177,3103.42 196.319,3101.84C195.459,3100.25 194.197,3099 192.533,3098.09C191.405,3097.45 190.076,3097.04 188.546,3096.88C187.015,3096.72 185.579,3096.64 184.236,3096.64C183.431,3096.64 182.652,3096.68 181.901,3096.76C181.149,3096.84 180.37,3096.91 179.565,3096.96C179.242,3097.55 179.095,3098.2 179.122,3098.89C179.148,3099.59 179.135,3100.29 179.081,3100.99ZM253.564,3141.5C251.577,3141.5 249.496,3141.38 247.321,3141.14C245.147,3140.9 243.146,3140.3 241.321,3139.33C239.495,3138.36 237.978,3136.94 236.77,3135.06C235.562,3133.18 234.903,3130.63 234.796,3127.41C234.743,3124.78 234.702,3122.87 234.675,3121.69C234.649,3120.51 234.635,3119.49 234.635,3118.63C234.635,3116.59 234.662,3114.44 234.715,3112.18C234.77,3109.93 234.796,3107.73 234.796,3105.58L234.796,3103.16C234.796,3102.36 234.77,3101.58 234.715,3100.83C234.662,3099.75 234.407,3098.65 233.95,3097.53C233.494,3096.4 232.487,3095.38 230.93,3094.47L230.93,3094.06C232.004,3094.12 233.145,3094.18 234.354,3094.26C235.562,3094.34 236.729,3094.38 237.857,3094.38C238.985,3094.38 240.126,3094.34 241.28,3094.26C242.435,3094.18 243.576,3094.12 244.704,3094.06L244.704,3094.47C243.361,3095.06 242.475,3096.01 242.046,3097.32C241.616,3098.64 241.347,3099.89 241.24,3101.07C241.079,3102.57 240.985,3104.13 240.958,3105.74C240.931,3107.35 240.918,3108.99 240.918,3110.66L240.918,3118.22C240.918,3119.14 240.931,3120.15 240.958,3121.25C240.985,3122.35 241.052,3124.08 241.159,3126.44C241.213,3129.18 241.643,3131.36 242.448,3132.97C243.254,3134.58 244.261,3135.81 245.469,3136.67C246.677,3137.53 248.046,3138.08 249.577,3138.32C251.107,3138.56 252.651,3138.68 254.208,3138.68C256.517,3138.68 258.571,3138.54 260.37,3138.24C262.169,3137.95 263.686,3137.32 264.921,3136.35C266.156,3135.38 267.123,3134.01 267.821,3132.24C268.519,3130.47 268.922,3128.08 269.029,3125.07C269.082,3123.41 269.11,3122.09 269.11,3121.12L269.11,3118.39C269.11,3116.78 269.123,3115.12 269.15,3113.43C269.176,3111.74 269.19,3110.06 269.19,3108.4C269.19,3107.11 269.176,3105.84 269.15,3104.57C269.123,3103.31 269.082,3102.06 269.029,3100.83C268.975,3099.27 268.707,3098.03 268.223,3097.12C267.74,3096.21 266.586,3095.32 264.76,3094.47L264.76,3094.06C265.619,3094.12 266.451,3094.17 267.257,3094.22C268.062,3094.28 268.895,3094.3 269.754,3094.3C270.828,3094.3 271.942,3094.28 273.096,3094.22C274.251,3094.17 275.419,3094.09 276.6,3093.98L276.6,3094.38C275.258,3094.97 274.345,3095.73 273.861,3096.64C273.378,3097.55 273.083,3099 272.976,3100.99C272.868,3103.67 272.815,3106.56 272.815,3109.65L272.815,3118.22C272.815,3119.09 272.801,3119.9 272.774,3120.68C272.747,3121.46 272.734,3122.28 272.734,3123.14C272.734,3127.43 272.251,3130.82 271.284,3133.29C270.318,3135.76 268.989,3137.6 267.297,3138.81C265.606,3140.01 263.579,3140.76 261.216,3141.06C258.853,3141.36 256.302,3141.5 253.564,3141.5ZM325.469,3093.66C326.274,3093.77 327.026,3093.87 327.724,3093.98C328.422,3094.09 329.147,3094.14 329.899,3094.14C331.026,3094.14 332.167,3094.12 333.322,3094.06C334.477,3094.01 335.618,3093.93 336.745,3093.82L336.745,3094.22C335.403,3094.81 334.503,3095.75 334.047,3097.04C333.59,3098.33 333.335,3099.59 333.281,3100.83C333.121,3102.33 333.027,3103.89 333,3105.5C332.973,3107.11 332.96,3108.75 332.96,3110.41L332.96,3117.98C332.96,3119.86 332.933,3122.03 332.879,3124.47C332.825,3126.91 332.798,3129.31 332.798,3131.68C332.798,3132.86 332.812,3134 332.839,3135.1C332.865,3136.2 332.906,3137.21 332.96,3138.12C333.013,3139.62 333.04,3140.63 333.04,3141.14C333.04,3141.65 332.852,3141.91 332.476,3141.91C332.208,3141.91 331.563,3141.34 330.543,3140.22L294.78,3104.29L294.377,3104.29C294.27,3105.04 294.216,3105.81 294.216,3106.59L294.216,3108.88C294.216,3110.44 294.243,3112 294.297,3113.55C294.351,3115.11 294.377,3116.59 294.377,3117.98C294.377,3120.78 294.418,3123.6 294.498,3126.44C294.579,3129.29 294.673,3132.11 294.78,3134.9C294.888,3136.08 295.236,3137.14 295.827,3138.08C296.418,3139.02 297.384,3139.76 298.727,3140.3L298.727,3140.78C297.492,3140.67 296.27,3140.59 295.062,3140.54C293.854,3140.48 292.632,3140.46 291.397,3140.46C290.27,3140.46 289.518,3140.47 289.142,3140.5C288.766,3140.52 288.041,3140.59 286.967,3140.7L286.967,3140.22C287.987,3139.78 288.86,3139.14 289.585,3138.28C290.31,3137.42 290.673,3136.4 290.673,3135.22C290.78,3132.38 290.833,3129.53 290.833,3126.68L290.833,3118.14C290.833,3116.27 290.847,3114.32 290.874,3112.31C290.9,3110.29 290.914,3108.29 290.914,3106.31L290.914,3103.28C290.914,3102.29 290.887,3101.34 290.833,3100.43L290.833,3100.02C290.726,3099 290.404,3097.98 289.867,3096.96C289.33,3095.94 288.31,3094.97 286.806,3094.06L286.645,3093.58C287.558,3093.63 288.619,3093.71 289.826,3093.82C291.035,3093.93 292.149,3093.98 293.169,3093.98L328.932,3130.71L329.335,3130.71C329.388,3128.62 329.415,3126.52 329.415,3124.43L329.415,3118.07C329.415,3115.22 329.375,3112.29 329.295,3109.28C329.214,3106.28 329.093,3103.35 328.932,3100.51C328.879,3099.43 328.691,3098.33 328.369,3097.2C328.046,3096.08 327.08,3095.06 325.469,3094.14L325.469,3093.66ZM373.129,3093.9C376.941,3093.9 380.526,3094.4 383.882,3095.39C387.238,3096.38 390.178,3097.81 392.701,3099.66C395.225,3101.51 397.226,3103.75 398.703,3106.39C400.179,3109.02 400.917,3111.97 400.917,3115.24C400.917,3118.95 400.179,3122.37 398.703,3125.51C397.226,3128.66 395.132,3131.37 392.42,3133.65C389.708,3135.93 386.432,3137.73 382.593,3139.05C378.754,3140.36 374.471,3141.02 369.746,3141.02C367.544,3141.02 365.155,3140.93 362.577,3140.74C359.999,3140.55 357.583,3140.46 355.328,3140.46C354.2,3140.46 352.898,3140.48 351.421,3140.54C349.945,3140.59 348.642,3140.67 347.515,3140.78L347.515,3140.22C348.589,3139.78 349.676,3139.01 350.777,3137.88C351.878,3136.75 352.455,3135.6 352.509,3134.41L352.509,3118.22C352.509,3115.38 352.469,3112.43 352.388,3109.37C352.307,3106.31 352.213,3103.38 352.106,3100.59C351.999,3099.51 351.475,3098.45 350.535,3097.4C349.595,3096.36 348.347,3095.38 346.79,3094.47L346.79,3094.14C347.864,3094.25 349.246,3094.33 350.938,3094.38C352.63,3094.44 354.066,3094.47 355.247,3094.47C356.965,3094.47 358.483,3094.44 359.798,3094.38C361.114,3094.33 362.43,3094.26 363.745,3094.18C365.061,3094.1 366.456,3094.03 367.933,3093.98C369.41,3093.93 371.142,3093.9 373.129,3093.9ZM373.102,3096.64C371.598,3096.64 370.095,3096.65 368.591,3096.68C367.101,3096.71 365.705,3096.76 364.416,3096.84C363.128,3096.92 362,3097.04 361.047,3097.2C360.08,3097.36 359.355,3097.58 358.872,3097.85C358.711,3098.33 358.617,3098.84 358.59,3099.38C358.563,3099.91 358.55,3100.4 358.55,3100.83C358.442,3102.33 358.376,3103.89 358.349,3105.5C358.321,3107.11 358.308,3108.75 358.308,3110.41L358.308,3117.98C358.308,3120.78 358.349,3123.6 358.429,3126.44C358.509,3129.29 358.657,3132.11 358.872,3134.9C358.872,3135.38 358.899,3135.7 358.953,3135.87C360.241,3136.72 362.04,3137.3 364.376,3137.6C366.712,3137.89 369.612,3138.04 373.102,3138.04C375.988,3138.04 378.727,3137.5 381.291,3136.43C383.869,3135.36 386.097,3133.88 388.003,3132C389.909,3130.12 391.399,3127.92 392.5,3125.39C393.601,3122.87 394.151,3120.19 394.151,3117.34C394.151,3114.44 393.614,3111.57 392.541,3108.72C391.467,3105.88 389.95,3103.51 387.963,3101.63C386.084,3099.81 383.855,3098.52 381.251,3097.77C378.659,3097.01 375.935,3096.64 373.102,3096.64" style="fill:rgb(94,70,33);fill-rule:nonzero;"/>
    </g>
    <g transform="matrix(1.05262,0,0,1.05262,-34.0184,-2989.24)">
        <path d="M176.666,3063.34C177.36,3063.34 178.027,3063.31 178.668,3063.26C179.309,3063.21 179.942,3063.18 180.566,3063.18C180.999,3063.18 181.515,3063.24 182.113,3063.36C182.711,3063.49 183.235,3063.67 183.686,3063.91C184.379,3064.27 184.904,3064.77 185.259,3065.41C185.614,3066.04 185.792,3066.65 185.792,3067.24C185.792,3067.95 185.567,3068.63 185.116,3069.29C184.665,3069.95 184.128,3070.46 183.504,3070.83C182.897,3071.19 182.265,3071.41 181.606,3071.49C180.948,3071.57 180.315,3071.61 179.708,3071.61C179.552,3071.61 179.366,3071.6 179.149,3071.58C178.933,3071.56 178.724,3071.54 178.525,3071.5C178.326,3071.47 178.157,3071.41 178.018,3071.35C177.879,3071.28 177.81,3071.19 177.81,3071.09C177.81,3070.95 177.844,3070.88 177.914,3070.88C178.174,3070.88 178.46,3070.91 178.772,3070.98C179.084,3071.05 179.37,3071.09 179.63,3071.09C180.167,3071.09 180.726,3070.99 181.307,3070.81C181.888,3070.63 182.369,3070.36 182.75,3069.99C183.114,3069.65 183.361,3069.22 183.491,3068.72C183.621,3068.22 183.686,3067.69 183.686,3067.13C183.721,3066.65 183.586,3066.17 183.283,3065.69C182.98,3065.21 182.568,3064.83 182.048,3064.53C181.667,3064.31 181.242,3064.16 180.774,3064.08C180.306,3064 179.855,3063.96 179.422,3063.96C179.162,3063.96 178.91,3063.97 178.668,3064C178.425,3064.03 178.174,3064.05 177.914,3064.07C177.81,3064.26 177.762,3064.46 177.771,3064.69C177.779,3064.91 177.775,3065.14 177.758,3065.37C177.706,3065.85 177.676,3066.36 177.667,3066.89C177.658,3067.41 177.654,3067.95 177.654,3068.49L177.654,3070.93C177.654,3071.83 177.663,3072.74 177.68,3073.66C177.697,3074.58 177.74,3075.49 177.81,3076.39C177.844,3076.89 177.957,3077.26 178.148,3077.51C178.338,3077.75 178.642,3077.95 179.058,3078.11L179.058,3078.26C178.659,3078.23 178.265,3078.2 177.875,3078.18C177.485,3078.17 177.091,3078.16 176.692,3078.16C176.345,3078.16 175.943,3078.17 175.483,3078.18C175.023,3078.2 174.62,3078.23 174.274,3078.26L174.274,3078.11C174.603,3077.95 174.928,3077.74 175.249,3077.47C175.569,3077.2 175.747,3076.88 175.782,3076.49C175.799,3075.58 175.808,3074.66 175.808,3073.74L175.808,3070.98C175.808,3070.08 175.791,3069.14 175.756,3068.15C175.721,3067.16 175.687,3066.22 175.652,3065.31C175.634,3064.95 175.548,3064.6 175.392,3064.27C175.236,3063.94 174.88,3063.65 174.326,3063.39L174.326,3063.23C174.673,3063.27 175.053,3063.29 175.47,3063.31C175.886,3063.33 176.285,3063.34 176.666,3063.34ZM206.567,3065.31L211.611,3076.31C212.01,3077.21 212.642,3077.82 213.509,3078.13L213.509,3078.26C212.729,3078.16 211.958,3078.11 211.195,3078.11C210.363,3078.11 209.548,3078.16 208.751,3078.26L208.751,3078.16C208.751,3077.98 208.859,3077.8 209.076,3077.61C209.293,3077.42 209.401,3077.2 209.401,3076.96C209.401,3076.7 209.341,3076.47 209.219,3076.26L207.607,3072.36C207.157,3072.33 206.697,3072.3 206.229,3072.27C205.761,3072.24 205.293,3072.23 204.825,3072.23C204.34,3072.23 203.854,3072.24 203.369,3072.27C202.884,3072.3 202.407,3072.33 201.939,3072.36L200.067,3076.6C199.997,3076.75 199.937,3076.9 199.885,3077.03C199.833,3077.16 199.807,3077.29 199.807,3077.43C199.807,3077.66 199.937,3077.9 200.197,3078.16L200.197,3078.26C199.902,3078.23 199.616,3078.2 199.339,3078.18C199.062,3078.17 198.776,3078.16 198.481,3078.16C198.169,3078.16 197.857,3078.17 197.544,3078.18C197.233,3078.2 196.929,3078.23 196.635,3078.26L196.765,3078.16C197.25,3078.02 197.688,3077.78 198.078,3077.46C198.468,3077.13 198.784,3076.72 199.027,3076.23L204.123,3065.57C204.158,3065.43 204.175,3065.33 204.175,3065.26C204.192,3064.91 204.041,3064.56 203.72,3064.18C203.399,3063.81 203.022,3063.49 202.589,3063.23L202.537,3063.1C202.866,3063.12 203.273,3063.14 203.759,3063.16C204.244,3063.17 204.669,3063.18 205.033,3063.18L205.605,3063.18L206.567,3065.31ZM207.165,3071.5L207.165,3071.4L204.955,3066.28L204.903,3066.28L202.459,3071.4L202.459,3071.5C202.84,3071.52 203.226,3071.53 203.616,3071.54C204.006,3071.55 204.4,3071.55 204.799,3071.55C205.18,3071.55 205.57,3071.55 205.969,3071.54C206.368,3071.53 206.766,3071.52 207.165,3071.5ZM231.606,3078.13C231.259,3078.13 230.861,3078.15 230.41,3078.18C229.959,3078.22 229.561,3078.24 229.214,3078.26L229.188,3078.05C229.517,3077.92 229.842,3077.61 230.163,3077.13C230.484,3076.65 230.661,3076.22 230.696,3075.84C230.713,3074.93 230.722,3074.11 230.722,3073.39L230.722,3070.93C230.722,3070.01 230.705,3069.07 230.67,3068.1C230.636,3067.12 230.601,3066.18 230.566,3065.26C230.548,3064.91 230.467,3064.56 230.319,3064.2C230.172,3063.83 229.847,3063.5 229.344,3063.21L229.344,3063.08C229.69,3063.1 230.055,3063.12 230.436,3063.14C230.817,3063.17 231.199,3063.18 231.58,3063.18C231.944,3063.18 232.308,3063.17 232.672,3063.14C233.036,3063.12 233.409,3063.1 233.79,3063.08L233.79,3063.21C233.357,3063.38 233.071,3063.68 232.932,3064.12C232.794,3064.55 232.707,3064.96 232.672,3065.34C232.62,3065.83 232.59,3066.33 232.581,3066.85C232.573,3067.37 232.569,3067.9 232.569,3068.43L232.569,3070.88C232.569,3071.8 232.581,3072.62 232.607,3073.35C232.633,3074.08 232.672,3074.9 232.724,3075.82C232.742,3076.15 232.841,3076.43 233.023,3076.65C233.205,3076.88 233.435,3077.05 233.712,3077.17C233.99,3077.29 234.302,3077.38 234.648,3077.43C234.995,3077.48 235.35,3077.51 235.714,3077.51C236.217,3077.51 236.78,3077.44 237.404,3077.31C238.028,3077.18 238.557,3076.97 238.991,3076.68C239.233,3076.5 239.441,3076.31 239.615,3076.1C239.788,3075.9 239.935,3075.7 240.057,3075.52C240.178,3075.34 240.286,3075.18 240.381,3075.06C240.477,3074.94 240.568,3074.88 240.654,3074.88C240.707,3074.88 240.741,3074.91 240.758,3074.97C240.776,3075.03 240.784,3075.08 240.784,3075.12C240.784,3075.24 240.746,3075.39 240.667,3075.57C240.589,3075.75 240.498,3075.95 240.394,3076.16C240.291,3076.36 240.186,3076.58 240.082,3076.79C239.978,3077.01 239.9,3077.21 239.849,3077.4C239.779,3077.58 239.679,3077.74 239.549,3077.9C239.42,3078.05 239.233,3078.13 238.991,3078.13C238.557,3078.17 238.106,3078.2 237.638,3078.22C237.171,3078.25 236.72,3078.26 236.286,3078.26C235.766,3078.26 235.311,3078.25 234.921,3078.24C234.531,3078.22 234.163,3078.21 233.816,3078.2C233.47,3078.19 233.123,3078.18 232.776,3078.16C232.43,3078.14 232.04,3078.13 231.606,3078.13ZM266.395,3065.31L271.44,3076.31C271.839,3077.21 272.471,3077.82 273.338,3078.13L273.338,3078.26C272.558,3078.16 271.786,3078.11 271.024,3078.11C270.192,3078.11 269.377,3078.16 268.58,3078.26L268.58,3078.16C268.58,3077.98 268.688,3077.8 268.905,3077.61C269.121,3077.42 269.229,3077.2 269.229,3076.96C269.229,3076.7 269.169,3076.47 269.048,3076.26L267.436,3072.36C266.985,3072.33 266.526,3072.3 266.058,3072.27C265.59,3072.24 265.122,3072.23 264.654,3072.23C264.168,3072.23 263.683,3072.24 263.197,3072.27C262.712,3072.3 262.235,3072.33 261.768,3072.36L259.896,3076.6C259.826,3076.75 259.765,3076.9 259.714,3077.03C259.661,3077.16 259.635,3077.29 259.635,3077.43C259.635,3077.66 259.765,3077.9 260.025,3078.16L260.025,3078.26C259.731,3078.23 259.445,3078.2 259.167,3078.18C258.89,3078.17 258.604,3078.16 258.309,3078.16C257.997,3078.16 257.685,3078.17 257.373,3078.18C257.061,3078.2 256.758,3078.23 256.463,3078.26L256.593,3078.16C257.079,3078.02 257.516,3077.78 257.906,3077.46C258.297,3077.13 258.613,3076.72 258.856,3076.23L263.951,3065.57C263.986,3065.43 264.004,3065.33 264.004,3065.26C264.021,3064.91 263.869,3064.56 263.549,3064.18C263.228,3063.81 262.851,3063.49 262.418,3063.23L262.365,3063.1C262.695,3063.12 263.102,3063.14 263.588,3063.16C264.073,3063.17 264.497,3063.18 264.862,3063.18L265.434,3063.18L266.395,3065.31ZM266.994,3071.5L266.994,3071.4L264.783,3066.28L264.732,3066.28L262.288,3071.4L262.288,3071.5C262.669,3071.52 263.055,3071.53 263.445,3071.54C263.835,3071.55 264.229,3071.55 264.628,3071.55C265.009,3071.55 265.399,3071.55 265.798,3071.54C266.196,3071.53 266.595,3071.52 266.994,3071.5ZM303.968,3066.09C303.915,3066.09 303.846,3066.03 303.759,3065.91C303.673,3065.79 303.551,3065.64 303.395,3065.47C303.239,3065.3 303.044,3065.11 302.81,3064.91C302.576,3064.71 302.295,3064.54 301.965,3064.4C301.463,3064.18 300.921,3064.02 300.34,3063.92C299.76,3063.83 299.166,3063.78 298.559,3063.78C297.433,3063.76 296.414,3063.92 295.504,3064.25C294.594,3064.58 293.818,3065.03 293.177,3065.61C292.536,3066.19 292.046,3066.88 291.708,3067.68C291.37,3068.48 291.201,3069.34 291.201,3070.28C291.201,3071.22 291.392,3072.12 291.773,3072.98C292.154,3073.85 292.67,3074.61 293.32,3075.27C293.97,3075.93 294.728,3076.45 295.595,3076.85C296.462,3077.24 297.372,3077.43 298.325,3077.43C298.741,3077.43 299.205,3077.4 299.716,3077.34C300.227,3077.28 300.743,3077.19 301.263,3077.07C301.783,3076.95 302.281,3076.78 302.758,3076.59C303.235,3076.39 303.638,3076.15 303.968,3075.87C304.175,3075.7 304.353,3075.51 304.5,3075.32C304.647,3075.13 304.739,3075.04 304.773,3075.04C304.877,3075.04 304.929,3075.07 304.929,3075.14C304.929,3075.26 304.83,3075.5 304.63,3075.84C304.431,3076.19 304.262,3076.49 304.124,3076.75C303.968,3077.07 303.707,3077.29 303.343,3077.43C302.476,3077.81 301.601,3078.08 300.717,3078.22C299.833,3078.37 298.854,3078.44 297.779,3078.44C296.566,3078.44 295.426,3078.24 294.36,3077.85C293.294,3077.45 292.362,3076.9 291.569,3076.21C290.776,3075.51 290.152,3074.7 289.697,3073.76C289.242,3072.83 289.017,3071.83 289.017,3070.77C289.017,3069.7 289.233,3068.68 289.671,3067.73C290.109,3066.78 290.729,3065.94 291.531,3065.22C292.332,3064.5 293.294,3063.93 294.412,3063.51C295.53,3063.08 296.773,3062.87 298.143,3062.87C298.681,3062.87 299.265,3062.91 299.898,3062.99C300.531,3063.07 301.142,3063.15 301.731,3063.23C302.008,3063.28 302.277,3063.34 302.537,3063.39C302.797,3063.44 303.066,3063.47 303.343,3063.47C303.447,3063.47 303.538,3063.45 303.616,3063.41C303.694,3063.38 303.776,3063.36 303.863,3063.36C303.932,3063.36 303.98,3063.45 304.006,3063.61C304.032,3063.78 304.045,3063.98 304.045,3064.22C304.045,3064.46 304.058,3064.73 304.084,3065.03C304.11,3065.32 304.124,3065.57 304.124,3065.78C304.124,3065.85 304.115,3065.92 304.097,3065.99C304.08,3066.06 304.036,3066.09 303.968,3066.09ZM323.364,3078.11C322.983,3078.11 322.558,3078.12 322.09,3078.16C321.622,3078.19 321.215,3078.23 320.868,3078.26L320.868,3077.98C321.042,3077.91 321.219,3077.79 321.401,3077.62C321.583,3077.46 321.748,3077.28 321.895,3077.08C322.042,3076.88 322.168,3076.67 322.272,3076.44C322.376,3076.22 322.428,3076.01 322.428,3075.82C322.446,3074.92 322.454,3074.11 322.454,3073.39L322.454,3070.93C322.454,3070.03 322.441,3069.08 322.415,3068.1C322.389,3067.11 322.341,3066.16 322.272,3065.26C322.255,3064.9 322.125,3064.54 321.882,3064.2C321.639,3063.85 321.232,3063.55 320.66,3063.31L320.634,3063.1C320.807,3063.12 321.042,3063.13 321.336,3063.15C321.631,3063.16 321.934,3063.18 322.246,3063.2C322.558,3063.22 322.862,3063.24 323.156,3063.26C323.451,3063.28 323.685,3063.28 323.858,3063.28C324.049,3063.28 324.369,3063.28 324.82,3063.26C325.271,3063.24 325.739,3063.22 326.224,3063.21C326.709,3063.18 327.195,3063.16 327.68,3063.13C328.166,3063.11 328.616,3063.1 329.032,3063.1C329.24,3063.1 329.461,3063.11 329.695,3063.12C329.929,3063.12 330.146,3063.14 330.345,3063.17C330.545,3063.2 330.714,3063.23 330.852,3063.28C330.991,3063.34 331.06,3063.41 331.06,3063.49C331.06,3063.88 331.091,3064.18 331.152,3064.4C331.212,3064.63 331.242,3064.89 331.242,3065.18C331.242,3065.29 331.208,3065.34 331.138,3065.34C331.035,3065.34 330.96,3065.28 330.917,3065.17C330.874,3065.06 330.809,3064.94 330.723,3064.82C330.549,3064.61 330.202,3064.4 329.682,3064.2C329.163,3063.99 328.313,3063.88 327.134,3063.88C326.788,3063.88 326.432,3063.9 326.068,3063.94C325.704,3063.97 325.202,3064.01 324.56,3064.04C324.491,3064.23 324.452,3064.43 324.443,3064.65C324.435,3064.87 324.413,3065.09 324.378,3065.31C324.326,3066.06 324.296,3066.84 324.287,3067.64C324.278,3068.45 324.274,3069.23 324.274,3069.99C324.76,3069.99 325.227,3070 325.678,3070.02C326.128,3070.04 326.58,3070.05 327.03,3070.05C327.186,3070.05 327.338,3070.04 327.485,3070.02C327.633,3070 327.784,3069.99 327.94,3069.99C328.339,3069.98 328.746,3069.91 329.163,3069.79C329.579,3069.67 329.96,3069.39 330.306,3068.95L330.437,3068.95C330.419,3069.24 330.393,3069.49 330.358,3069.69C330.324,3069.89 330.306,3070.16 330.306,3070.5L330.306,3071.18C330.306,3071.32 330.315,3071.56 330.332,3071.89L330.176,3071.89C329.951,3071.51 329.596,3071.26 329.11,3071.12C328.625,3070.99 328.166,3070.91 327.732,3070.88C327.195,3070.84 326.632,3070.83 326.042,3070.83L324.274,3070.83L324.274,3070.88C324.274,3071.78 324.296,3072.6 324.339,3073.35C324.382,3074.09 324.421,3074.92 324.456,3075.82C324.474,3076.16 324.612,3076.44 324.872,3076.64C325.132,3076.84 325.444,3077 325.808,3077.12C326.172,3077.24 326.566,3077.32 326.991,3077.35C327.416,3077.39 327.801,3077.4 328.149,3077.4C328.651,3077.4 329.158,3077.37 329.669,3077.31C330.181,3077.25 330.644,3077.08 331.06,3076.78C331.563,3076.43 331.962,3076.07 332.256,3075.7C332.551,3075.33 332.768,3075.14 332.906,3075.14C333.028,3075.14 333.088,3075.2 333.088,3075.32C333.088,3075.45 333.041,3075.58 332.945,3075.74C332.85,3075.9 332.742,3076.07 332.62,3076.25C332.499,3076.43 332.373,3076.62 332.243,3076.82C332.113,3077.02 332.023,3077.21 331.97,3077.4C331.936,3077.58 331.853,3077.74 331.724,3077.9C331.593,3078.05 331.26,3078.13 330.723,3078.13L326.276,3078.13C325.929,3078.13 325.609,3078.13 325.314,3078.12C325.02,3078.11 324.725,3078.11 324.43,3078.11L323.364,3078.11" style="fill:rgb(94,70,33);fill-rule:nonzero;"/>
    </g>
    <g transform="matrix(1.05262,0,0,1.05262,-34.0184,-2992.04)">
        <path d="M163.54,3067.58L163.54,3076.39L162.251,3076.39L162.251,3072.73L133.868,3072.73L133.868,3071.44L162.251,3071.44L162.251,3067.58L163.54,3067.58Z" style="fill:rgb(94,70,33);"/>
    </g>
    <g transform="matrix(1.05262,0,0,1.05262,-34.0184,-2992.04)">
        <path d="M341.896,3067.58L341.896,3076.39L343.185,3076.39L343.185,3072.73L371.567,3072.73L371.567,3071.44L343.185,3071.44L343.185,3067.58L341.896,3067.58Z" style="fill:rgb(94,70,33);"/>
    </g>
    <g transform="matrix(1.94724,0,0,1.94724,-254.404,-5604.84)">
        <path d="M153.57,3024.65C153.912,3024.69 154.449,3024.77 154.597,3025.13C154.816,3025.65 154.367,3027.38 154.381,3028.73C154.405,3031.21 155.411,3033.16 157.899,3033.16L157.933,3033C156.03,3032.51 155.736,3030.99 155.716,3028.73C155.698,3026.99 156.112,3024.94 154.71,3024.62C156.078,3024.22 155.695,3022.32 155.716,3020.5C155.736,3018.24 156.03,3016.72 157.933,3016.23L157.899,3016.06C155.411,3016.06 154.405,3018.01 154.381,3020.5C154.367,3021.84 154.87,3023.61 154.651,3024.13C154.497,3024.45 153.929,3024.45 153.57,3024.45L153.57,3024.65ZM166.762,3016.72C165.872,3016.72 164.671,3016.51 164.288,3016.35L164.288,3018.93L164.493,3018.92L164.493,3018.55C164.493,3017.9 165.013,3017.36 165.667,3017.33L169.561,3017.33L169.561,3029.65C169.53,3030.35 168.952,3030.91 168.247,3030.91L167.987,3030.91L167.983,3031.11L172.476,3031.11L172.473,3030.91L172.213,3030.91C171.501,3030.91 170.923,3030.34 170.899,3029.63L170.899,3017.33L174.789,3017.33C175.443,3017.36 175.96,3017.9 175.96,3018.55L175.96,3018.92L176.168,3018.93L176.168,3016.35C175.782,3016.51 174.584,3016.72 173.694,3016.72L166.762,3016.72ZM177.797,3016.74L177.801,3016.94L178.061,3016.94C178.779,3016.94 179.361,3017.52 179.375,3018.23L179.375,3029.63C179.358,3030.33 178.776,3030.91 178.061,3030.91L177.801,3030.91L177.797,3031.11L182.283,3031.11L182.28,3030.91L182.02,3030.91C181.301,3030.91 180.719,3030.33 180.706,3029.62L180.706,3017.38C180.973,3017.39 182.215,3017.34 183.262,3017.39C184.788,3017.48 185.757,3018.67 185.808,3020.52C185.822,3020.97 185.767,3021.46 185.678,3021.75C185.096,3023.6 183.539,3023.86 182.472,3023.88C181.856,3023.9 181.387,3023.89 181.387,3023.89L181.387,3024.08C182.14,3024.08 182.739,3024.79 183.272,3025.47C183.433,3025.67 185.746,3029.03 185.979,3029.31C186.622,3030.08 187.649,3031.11 189.562,3031.11L190.688,3031.11L190.688,3030.91C189.48,3030.89 188.72,3030.26 187.895,3029.35C187.101,3028.48 185.329,3025.96 185.329,3025.96C184.932,3025.4 184.302,3024.72 183.861,3024.51C185.835,3024.51 187.348,3022.58 187.348,3020.6C187.348,3018.2 185.825,3016.74 183.334,3016.74L177.797,3016.74ZM200.734,3016.74L200.734,3016.94L201.07,3016.94C201.651,3016.94 202.127,3017.36 202.154,3017.93L202.154,3026.03C202.148,3028.86 200.32,3030.75 197.579,3030.75C194.962,3030.75 193.22,3028.76 193.22,3025.77L193.22,3017.93C193.244,3017.35 193.719,3016.94 194.301,3016.94L194.636,3016.94L194.636,3016.74L190.465,3016.74L190.465,3016.94L190.801,3016.94C191.392,3016.94 191.875,3017.37 191.885,3017.96L191.885,3026.07C191.885,3029.27 194.164,3031.4 197.579,3031.4C200.899,3031.4 203.113,3029.25 203.113,3026.03L203.113,3017.91C203.15,3017.35 203.619,3016.94 204.197,3016.94L204.533,3016.94L204.533,3016.74L200.734,3016.74ZM216.023,3027.8C215.391,3029.36 214.556,3030.48 212.379,3030.48L209.436,3030.48L209.436,3018.24C209.447,3017.52 210.032,3016.94 210.75,3016.94L211.01,3016.94L211.014,3016.74L206.521,3016.74L206.524,3016.94L206.784,3016.94C207.503,3016.94 208.085,3017.52 208.098,3018.24L208.098,3029.62C208.085,3030.33 207.503,3030.91 206.784,3030.91L206.524,3030.91L206.521,3031.11L215.035,3031.11L216.229,3027.8L216.023,3027.8ZM223.805,3016.74L223.805,3016.94L224.065,3016.94C224.62,3016.94 225.116,3017.62 224.794,3018.2L224.784,3018.22L221.512,3023.96L218.436,3018.22C218.135,3017.64 218.553,3016.94 219.155,3016.94L219.415,3016.94L219.415,3016.74L214.364,3016.74L214.364,3016.94L214.645,3016.94C215.504,3016.94 216.311,3017.51 216.708,3018.14L220.619,3024.68L220.619,3029.63C220.599,3030.34 220.017,3030.91 219.302,3030.91L219.042,3030.91L219.039,3031.11L223.531,3031.11L223.528,3030.91L223.268,3030.91C222.549,3030.91 221.968,3030.33 221.954,3029.62L221.954,3024.7L226.012,3018.14C226.45,3017.51 227.217,3016.94 228.072,3016.94L228.36,3016.94L228.36,3016.74L223.805,3016.74ZM234.512,3016.74L234.516,3016.94L234.776,3016.94C235.457,3016.94 236.018,3017.46 236.083,3018.12L236.083,3029.62C236.07,3030.33 235.488,3030.91 234.769,3030.91L234.509,3030.91L234.506,3031.11L238.999,3031.11L238.995,3030.91L238.739,3030.91C238.02,3030.91 237.435,3030.33 237.421,3029.62L237.421,3017.35L239.789,3017.35C241.534,3017.35 242.506,3018.61 242.558,3020.5C242.568,3020.95 242.516,3021.45 242.424,3021.74C241.5,3024.68 238.123,3023.95 238.123,3023.95L238.123,3024.14C240.699,3025.5 244.097,3023.83 244.097,3020.7C244.097,3018.25 242.489,3016.74 239.864,3016.74L234.512,3016.74ZM251.061,3016.45L250.876,3016.45C250.876,3016.9 250.117,3018.57 250.117,3018.57L245.463,3029.62C245.045,3030.53 244.286,3030.91 243.663,3030.91L243.478,3030.91L243.478,3031.11L247.612,3031.11L247.612,3030.91L247.431,3030.91C246.904,3030.91 246.356,3030.45 246.647,3029.63L248.019,3026.12L253.552,3026.12L254.863,3029.62C255.164,3030.44 254.613,3030.91 254.083,3030.91L253.905,3030.91L253.905,3031.11L258.528,3031.11L258.528,3030.91L258.353,3030.91C257.727,3030.91 256.967,3030.53 256.55,3029.62L251.061,3016.45ZM248.262,3025.51L250.845,3018.91L253.319,3025.51L248.262,3025.51ZM269.036,3027.8C268.403,3029.36 267.569,3030.48 265.392,3030.48L262.449,3030.48L262.449,3018.24C262.46,3017.52 263.045,3016.94 263.763,3016.94L264.023,3016.94L264.027,3016.74L259.534,3016.74L259.537,3016.94L259.797,3016.94C260.516,3016.94 261.098,3017.52 261.111,3018.24L261.111,3029.62C261.098,3030.33 260.516,3030.91 259.797,3030.91L259.537,3030.91L259.534,3031.11L268.048,3031.11L269.242,3027.8L269.036,3027.8ZM277.218,3016.45L277.034,3016.45C277.034,3016.9 276.274,3018.57 276.274,3018.57L271.62,3029.62C271.203,3030.53 270.443,3030.91 269.82,3030.91L269.636,3030.91L269.636,3031.11L273.769,3031.11L273.769,3030.91L273.588,3030.91C273.061,3030.91 272.513,3030.45 272.804,3029.63L274.176,3026.12L279.71,3026.12L281.02,3029.62C281.321,3030.44 280.77,3030.91 280.24,3030.91L280.062,3030.91L280.062,3031.11L284.685,3031.11L284.685,3030.91L284.511,3030.91C283.884,3030.91 283.125,3030.53 282.707,3029.62L277.218,3016.45ZM274.419,3025.51L277.003,3018.91L279.477,3025.51L274.419,3025.51ZM285.907,3016.72C285.017,3016.72 283.816,3016.51 283.433,3016.35L283.433,3018.93L283.638,3018.92L283.638,3018.55C283.638,3017.9 284.158,3017.36 284.812,3017.33L288.706,3017.33L288.706,3029.65C288.675,3030.35 288.097,3030.91 287.392,3030.91L287.132,3030.91L287.128,3031.11L291.621,3031.11L291.618,3030.91L291.358,3030.91C290.646,3030.91 290.068,3030.34 290.044,3029.63L290.044,3017.33L293.935,3017.33C294.588,3017.36 295.105,3017.9 295.105,3018.55L295.105,3018.92L295.314,3018.93L295.314,3016.35C294.927,3016.51 293.729,3016.72 292.84,3016.72L285.907,3016.72ZM301.432,3030.91L301.172,3030.91C300.453,3030.91 299.868,3030.33 299.858,3029.62L299.858,3018.22C299.875,3017.51 300.457,3016.94 301.172,3016.94L301.432,3016.94L301.435,3016.74L296.943,3016.74L296.946,3016.94L297.206,3016.94C297.921,3016.94 298.503,3017.51 298.52,3018.22L298.52,3029.62C298.506,3030.33 297.924,3030.91 297.206,3030.91L296.946,3030.91L296.943,3031.11L301.435,3031.11L301.432,3030.91ZM310.028,3016.45L309.843,3016.45C309.843,3016.9 309.083,3018.57 309.083,3018.57L304.43,3029.62C304.012,3030.53 303.253,3030.91 302.63,3030.91L302.445,3030.91L302.445,3031.11L306.579,3031.11L306.579,3030.91L306.397,3030.91C305.871,3030.91 305.323,3030.45 305.614,3029.63L306.986,3026.12L312.519,3026.12L313.83,3029.62C314.131,3030.44 313.58,3030.91 313.05,3030.91L312.872,3030.91L312.872,3031.11L317.495,3031.11L317.495,3030.91L317.32,3030.91C316.694,3030.91 315.934,3030.53 315.517,3029.62L310.028,3016.45ZM307.229,3025.51L309.812,3018.91L312.286,3025.51L307.229,3025.51ZM328.003,3027.8C327.37,3029.36 326.536,3030.48 324.359,3030.48L321.416,3030.48L321.416,3018.24C321.426,3017.52 322.012,3016.94 322.73,3016.94L322.99,3016.94L322.994,3016.74L318.501,3016.74L318.504,3016.94L318.764,3016.94C319.483,3016.94 320.065,3017.52 320.078,3018.24L320.078,3029.62C320.065,3030.33 319.483,3030.91 318.764,3030.91L318.504,3030.91L318.501,3031.11L327.015,3031.11L328.209,3027.8L328.003,3027.8ZM334.762,3016.23C336.668,3016.72 336.959,3018.24 336.983,3020.5C337,3022.32 336.616,3024.22 337.985,3024.62C336.582,3024.94 337,3026.99 336.983,3028.73C336.959,3030.99 336.664,3032.51 334.762,3033L334.796,3033.16C337.284,3033.16 338.29,3031.21 338.317,3028.73C338.331,3027.38 337.879,3025.65 338.098,3025.13C338.249,3024.77 338.783,3024.69 339.125,3024.65L339.125,3024.45C338.765,3024.45 338.197,3024.45 338.043,3024.13C337.825,3023.61 338.331,3021.84 338.317,3020.5C338.29,3018.01 337.284,3016.06 334.796,3016.06L334.762,3016.23Z" style="fill:rgb(94,70,33);fill-rule:nonzero;"/>
    </g>
    <g transform="matrix(1.94724,0,0,1.94724,-254.404,-5530.61)">
        <path d="M186.154,3006.78L186.409,3005.87L186.288,3005.87C186.142,3006.04 186.071,3006.11 185.625,3006.11L185.098,3006.11L185.098,3001.14L184.986,3001.14L180.548,3006.66L180.548,3006.78L184.311,3006.78L184.311,3009.04C184.297,3009.41 184,3009.67 183.643,3009.67L183.51,3009.67L183.51,3009.79L185.9,3009.79L185.9,3009.67L185.767,3009.67C185.407,3009.67 185.103,3009.39 185.098,3009.03L185.098,3006.78L186.154,3006.78ZM181.457,3006.11L184.311,3002.57L184.311,3006.11L181.457,3006.11ZM190.82,3002.53L190.822,3002.65L190.965,3002.65C191.371,3002.65 191.678,3002.91 191.69,3003.3L191.69,3009.02C191.68,3009.38 191.373,3009.67 190.965,3009.67L190.822,3009.67L190.82,3009.79L193.818,3009.79C195.011,3009.79 196.515,3009.34 196.515,3007.76C196.515,3006.78 195.653,3005.98 194.48,3005.84C195.142,3005.68 195.81,3005.09 195.81,3004.34C195.81,3002.73 194.161,3002.53 193.291,3002.53L190.82,3002.53ZM192.451,3009.43L192.451,3002.89L193.275,3002.89C194.337,3002.89 194.96,3003.32 194.96,3004.34C194.96,3005.67 193.715,3005.83 192.832,3005.83L192.837,3005.95C194.141,3005.95 195.647,3006.21 195.647,3007.76C195.647,3008.91 194.853,3009.43 193.809,3009.43L192.451,3009.43ZM205.438,3009.79L205.436,3009.67L205.296,3009.67C204.915,3009.67 204.606,3009.39 204.592,3009.03L204.592,3003.28C204.61,3002.93 204.919,3002.65 205.296,3002.65L205.436,3002.65L205.438,3002.53L202.969,3002.53L202.971,3002.65L203.11,3002.65C203.496,3002.65 203.809,3002.94 203.816,3003.3L203.816,3006.02L199.345,3006.02L199.345,3003.28C199.363,3002.93 199.672,3002.65 200.051,3002.65L200.191,3002.65L200.193,3002.53L197.724,3002.53L197.726,3002.65L197.865,3002.65C198.251,3002.65 198.564,3002.94 198.572,3003.3L198.572,3009.01C198.564,3009.38 198.251,3009.67 197.865,3009.67L197.726,3009.67L197.724,3009.79L200.193,3009.79L200.191,3009.67L200.051,3009.67C199.668,3009.67 199.357,3009.38 199.345,3009.02L199.345,3006.39L203.816,3006.39L203.816,3009.02C203.805,3009.38 203.493,3009.67 203.11,3009.67L202.971,3009.67L202.971,3009.79L205.438,3009.79ZM209.651,3005.91L212.291,3003.08C212.58,3002.8 213.002,3002.64 213.466,3002.64L213.515,3002.64L213.515,3002.53L211.054,3002.53L211.054,3002.64L211.161,3002.64C211.441,3002.64 211.605,3002.9 211.425,3003.12L208.821,3006.18L211.48,3009.1C212.049,3009.75 212.895,3009.79 213.26,3009.79L213.714,3009.79L213.714,3009.67C213.188,3009.66 212.941,3009.51 212.655,3009.18L209.651,3005.91ZM208.391,3003.28C208.409,3002.93 208.72,3002.65 209.104,3002.65L209.245,3002.65L209.247,3002.53L206.76,3002.53L206.762,3002.65L206.903,3002.65C207.293,3002.65 207.61,3002.94 207.616,3003.3L207.616,3009.02C207.608,3009.38 207.293,3009.67 206.903,3009.67L206.762,3009.67L206.76,3009.79L209.247,3009.79L209.245,3009.67L209.104,3009.67C208.718,3009.67 208.403,3009.38 208.391,3009.02L208.391,3003.28ZM217.343,3002.53L217.344,3002.65L217.512,3002.65C217.91,3002.65 218.206,3002.92 218.214,3003.29L218.214,3009.03C218.2,3009.39 217.906,3009.67 217.512,3009.67L217.344,3009.67L217.343,3009.79L219.86,3009.79L219.858,3009.67L219.69,3009.67C219.295,3009.67 218.998,3009.38 218.988,3009.02L218.988,3002.89L220.161,3002.89C221.346,3002.89 222.072,3003.49 222.07,3004.47C222.07,3004.68 222.044,3004.96 221.986,3005.13C221.38,3006.87 219.454,3006.36 219.454,3006.36L219.454,3006.47C221.099,3007.27 222.936,3006.44 222.94,3004.6C222.945,3003.31 221.864,3002.53 220.175,3002.53L217.343,3002.53ZM224.045,3002.53L224.047,3002.65L224.21,3002.65C224.596,3002.65 224.887,3002.92 224.899,3003.28L224.899,3009.03C224.883,3009.39 224.594,3009.67 224.21,3009.67L224.047,3009.67L224.045,3009.79L226.522,3009.79L226.52,3009.67L226.356,3009.67C225.967,3009.67 225.676,3009.38 225.668,3009.01L225.668,3002.9C225.783,3002.91 226.381,3002.88 227.061,3002.91C228.036,3002.96 228.645,3003.5 228.672,3004.4C228.68,3004.67 228.645,3004.92 228.587,3005.09C228.24,3006.11 227.477,3006.12 226.807,3006.14C226.411,3006.14 226.112,3006.14 226.112,3006.14L226.112,3006.25C226.591,3006.25 227.01,3006.66 227.339,3007.07C227.434,3007.19 228.389,3008.56 228.526,3008.73C228.906,3009.18 229.435,3009.79 230.775,3009.79L231.157,3009.79L231.157,3009.67C230.485,3009.66 230.145,3009.3 229.653,3008.75C229.152,3008.19 228.591,3007.43 228.593,3007.43C228.333,3007.06 227.925,3006.6 227.66,3006.48C228.747,3006.37 229.544,3005.51 229.544,3004.49C229.544,3003.26 228.607,3002.53 227.081,3002.53L224.045,3002.53ZM237.227,3008.05L237.096,3008.05C236.753,3008.84 236.339,3009.41 235.174,3009.42L233.281,3009.42L233.281,3006.34L235.378,3006.34C235.695,3006.36 235.84,3006.58 235.84,3006.85L235.84,3007.01L235.973,3007.01L235.973,3005.31L235.84,3005.31L235.84,3005.46C235.84,3005.74 235.685,3005.97 235.35,3005.98L233.281,3005.98L233.281,3002.9L235.792,3002.9C236.161,3002.9 236.399,3003.18 236.399,3003.52L236.399,3003.7L236.531,3003.71L236.531,3002.34C236.321,3002.42 235.665,3002.52 235.178,3002.53L231.639,3002.53L231.641,3002.65L231.809,3002.65C232.203,3002.65 232.507,3002.92 232.507,3003.28L232.507,3009.03C232.493,3009.39 232.199,3009.67 231.809,3009.67L231.641,3009.67L231.639,3009.79L236.561,3009.79L237.227,3008.05ZM246.154,3002.36L246.039,3002.36L242.948,3008.51L239.751,3002.36L239.632,3002.36L238.695,3008.99C238.636,3009.42 238.271,3009.67 237.865,3009.67L237.684,3009.67L237.684,3009.79L239.93,3009.79L239.93,3009.68L239.753,3009.68C239.507,3009.68 239.28,3009.46 239.309,3009.21L239.854,3004.33L242.771,3009.96L242.888,3009.96C242.973,3009.46 243.32,3008.72 243.32,3008.72L245.601,3004.22L246.239,3009.21C246.271,3009.47 246.039,3009.68 245.795,3009.68L245.617,3009.68L245.617,3009.79L248.133,3009.79L248.133,3009.67L247.953,3009.67C247.553,3009.67 247.194,3009.43 247.125,3009.01L246.154,3002.36ZM251.633,3009.79L251.629,3009.67L251.468,3009.67C251.023,3009.67 250.66,3009.39 250.646,3009.03L250.646,3003.28C250.668,3002.93 251.027,3002.65 251.468,3002.65L251.631,3002.65L251.631,3002.53L248.888,3002.53L248.89,3002.65L249.051,3002.65C249.501,3002.65 249.865,3002.94 249.875,3003.3L249.875,3009.01C249.865,3009.38 249.501,3009.67 249.051,3009.67L248.89,3009.67L248.888,3009.79L251.633,3009.79ZM258.265,3002.53L258.265,3002.65L258.444,3002.65C258.759,3002.65 259.015,3002.87 259.026,3003.16L259.026,3007.23C259.022,3008.72 258.083,3009.63 256.557,3009.63C255.164,3009.63 254.312,3008.67 254.312,3007.1L254.312,3003.17C254.318,3002.87 254.576,3002.65 254.895,3002.65L255.075,3002.65L255.075,3002.53L252.776,3002.53L252.776,3002.65L252.955,3002.65C253.274,3002.65 253.531,3002.87 253.539,3003.17L253.539,3007.25C253.539,3008.93 254.697,3009.96 256.567,3009.96C258.436,3009.96 259.587,3008.93 259.587,3007.23L259.587,3003.16C259.601,3002.86 259.855,3002.65 260.168,3002.65L260.348,3002.65L260.348,3002.53L258.265,3002.53ZM269.277,3002.36L269.162,3002.36L266.071,3008.51L262.873,3002.36L262.754,3002.36L261.818,3008.99C261.759,3009.42 261.393,3009.67 260.988,3009.67L260.806,3009.67L260.806,3009.79L263.053,3009.79L263.053,3009.68L262.875,3009.68C262.629,3009.68 262.403,3009.46 262.431,3009.21L262.976,3004.33L265.893,3009.96L266.01,3009.96C266.095,3009.46 266.443,3008.72 266.443,3008.72L268.724,3004.22L269.361,3009.21C269.394,3009.47 269.162,3009.68 268.917,3009.68L268.74,3009.68L268.74,3009.79L271.255,3009.79L271.255,3009.67L271.076,3009.67C270.676,3009.67 270.316,3009.43 270.248,3009.01L269.277,3002.36ZM280.156,3002.53L280.156,3002.64L280.253,3002.64C280.535,3002.64 280.852,3002.92 280.669,3003.41L278.446,3008.66L276.28,3003.38C276.125,3002.91 276.425,3002.65 276.704,3002.65L276.799,3002.65L276.799,3002.53L274.311,3002.53L274.311,3002.65L274.402,3002.65C274.727,3002.65 275.093,3002.85 275.339,3003.36L278.329,3009.96L278.444,3009.96C278.468,3009.64 278.912,3008.72 278.91,3008.72L281.415,3003.35C281.664,3002.85 282.043,3002.65 282.366,3002.65L282.463,3002.65L282.463,3002.53L280.156,3002.53ZM285.815,3009.79L285.81,3009.67L285.649,3009.67C285.205,3009.67 284.841,3009.39 284.827,3009.03L284.827,3003.28C284.849,3002.93 285.209,3002.65 285.649,3002.65L285.812,3002.65L285.812,3002.53L283.069,3002.53L283.071,3002.65L283.232,3002.65C283.683,3002.65 284.046,3002.94 284.056,3003.3L284.056,3009.01C284.046,3009.38 283.683,3009.67 283.232,3009.67L283.071,3009.67L283.069,3009.79L285.815,3009.79ZM292.597,3008.05C292.252,3008.84 291.838,3009.41 290.675,3009.42L288.78,3009.42L288.78,3003.3C288.788,3002.94 289.109,3002.65 289.505,3002.65L289.646,3002.65L289.648,3002.53L287.139,3002.53L287.141,3002.65L287.284,3002.65C287.68,3002.65 287.999,3002.94 288.006,3003.3L288.006,3009.03C287.993,3009.39 287.698,3009.67 287.308,3009.67L287.143,3009.67L287.139,3009.79L292.06,3009.79L292.728,3008.05L292.597,3008.05ZM298.799,3008.05C298.454,3008.84 298.04,3009.41 296.877,3009.42L294.981,3009.42L294.981,3003.3C294.99,3002.94 295.311,3002.65 295.706,3002.65L295.847,3002.65L295.849,3002.53L293.34,3002.53L293.342,3002.65L293.486,3002.65C293.881,3002.65 294.2,3002.94 294.208,3003.3L294.208,3009.03C294.194,3009.39 293.9,3009.67 293.51,3009.67L293.344,3009.67L293.34,3009.79L298.262,3009.79L298.93,3008.05L298.799,3008.05ZM303.24,3002.36L303.125,3002.36C303.101,3002.67 302.655,3003.6 302.659,3003.6L300.151,3008.97C299.903,3009.47 299.524,3009.67 299.203,3009.67L299.106,3009.67L299.106,3009.79L301.413,3009.79L301.413,3009.67L301.318,3009.67C301.036,3009.67 300.716,3009.4 300.9,3008.91L301.569,3007.33L304.633,3007.33L305.293,3008.95C305.453,3009.41 305.142,3009.67 304.865,3009.67L304.77,3009.67L304.77,3009.79L307.257,3009.79L307.257,3009.67L307.167,3009.67C306.844,3009.67 306.478,3009.46 306.232,3008.97L303.24,3002.36ZM301.722,3006.97L303.123,3003.66L304.483,3006.97L301.722,3006.97ZM309.135,3004.82C308.755,3004.52 308.662,3004.18 308.66,3003.87C308.654,3003.23 309.306,3002.72 310.116,3002.72C311.067,3002.72 311.515,3003.12 311.515,3003.78L311.654,3003.78L311.636,3002.47L311.23,3002.47C310.96,3002.4 310.586,3002.36 310.033,3002.36C308.911,3002.36 308.014,3003.14 308.03,3004.12C308.037,3004.54 308.158,3005.05 308.608,3005.43L311.032,3007.3C311.343,3007.58 311.473,3007.89 311.473,3008.26C311.473,3009.05 310.861,3009.57 309.859,3009.6C308.79,3009.63 308.055,3008.98 308.162,3007.89L308.023,3007.89C307.857,3008.36 307.827,3009.07 307.903,3009.39C308.343,3009.79 309.274,3009.96 309.993,3009.96C311.188,3009.96 312.145,3009.09 312.137,3008.01C312.133,3007.54 311.961,3007.03 311.588,3006.71L309.135,3004.82Z" style="fill:rgb(94,70,33);fill-rule:nonzero;"/>
    </g>
    <g transform="matrix(1,0,0,1,105.963,34.886)">
        <text x="0px" y="0px" style="font-family:'MicrosoftJhengHeiRegular', 'Microsoft JhengHei', sans-serif;font-size:35.194px;fill:rgb(206,108,49);">Newly Launched</text>
    </g>
    <defs>
        <radialGradient id="_Radial1" cx="0" cy="0" r="1" gradientUnits="userSpaceOnUse" gradientTransform="matrix(338.525,-5.7377,4,236,240,183)"><stop offset="0" style="stop-color:rgb(255,244,221);stop-opacity:1"/><stop offset="0.52" style="stop-color:rgb(243,232,207);stop-opacity:1"/><stop offset="1" style="stop-color:rgb(205,192,159);stop-opacity:1"/></radialGradient>
    </defs>
</svg>
