<?xml version="1.0" encoding="UTF-8" standalone="no"?>
<!DOCTYPE svg PUBLIC "-//W3C//DTD SVG 1.1//EN" "http://www.w3.org/Graphics/SVG/1.1/DTD/svg11.dtd">
<svg width="100%" height="100%" viewBox="0 0 490 342" version="1.1" xmlns="http://www.w3.org/2000/svg" xmlns:xlink="http://www.w3.org/1999/xlink" xml:space="preserve" xmlns:serif="http://www.serif.com/" style="fill-rule:evenodd;clip-rule:evenodd;stroke-linejoin:round;stroke-miterlimit:1.41421;"><g><path d="M490,17.08c0,-9.427 -7.653,-17.08 -17.08,-17.08l-455.84,0c-9.427,0 -17.08,7.653 -17.08,17.08l0,307.44c0,9.427 7.653,17.08 17.08,17.08l455.84,0c9.427,0 17.08,-7.653 17.08,-17.08l0,-307.44Z" style="fill:#ffd573;"/><g><path d="M277.876,232.61l170.13,0l0,-24.999l-184.301,0l0,16.302c0,7.564 6.377,8.697 14.171,8.697Z" style="fill:#643e69;"/><path d="M271.42,224.18l4.17,0l0,1.307l-6.45,0l0,-1.345c1.653,-1.371 2.79,-2.428 3.409,-3.167c0.618,-0.741 0.928,-1.38 0.928,-1.918c0,-0.371 -0.154,-0.67 -0.461,-0.901c-0.308,-0.229 -0.71,-0.343 -1.206,-0.343c-0.35,0 -0.723,0.052 -1.117,0.161c-0.394,0.107 -0.781,0.263 -1.164,0.466l-0.11,-1.46c0.507,-0.185 0.991,-0.325 1.46,-0.422c0.467,-0.096 0.898,-0.142 1.295,-0.142c0.944,0 1.709,0.232 2.297,0.698c0.588,0.463 0.881,1.059 0.881,1.785c0,0.718 -0.299,1.48 -0.893,2.288c-0.594,0.807 -1.607,1.804 -3.039,2.993Zm13.916,-2.639l0,2.652l1.024,0c0.665,0 1.171,-0.115 1.518,-0.344c0.348,-0.23 0.523,-0.563 0.523,-1.001c0,-0.425 -0.161,-0.749 -0.486,-0.972c-0.321,-0.225 -0.795,-0.335 -1.417,-0.335l-1.162,0Zm0,-3.69l0,2.447l0.907,0c0.63,0 1.106,-0.104 1.432,-0.311c0.324,-0.211 0.488,-0.512 0.488,-0.906c0,-0.404 -0.152,-0.709 -0.458,-0.919c-0.305,-0.207 -0.753,-0.311 -1.345,-0.311l-1.024,0Zm-1.889,-1.256l3.22,0c1.118,0 1.964,0.194 2.545,0.585c0.578,0.391 0.868,0.964 0.868,1.717c0,0.485 -0.159,0.897 -0.474,1.241c-0.314,0.341 -0.76,0.583 -1.334,0.726c0.67,0.124 1.183,0.371 1.54,0.743c0.356,0.371 0.534,0.842 0.534,1.409c0,0.805 -0.318,1.419 -0.954,1.839c-0.636,0.421 -1.57,0.632 -2.799,0.632l-3.146,0l0,-8.892Zm8.814,0l1.918,0l0,3.601l3.778,0l0,-3.601l1.917,0l0,8.892l-1.917,0l0,-3.934l-3.778,0l0,3.934l-1.918,0l0,-8.892Zm9.991,0l1.917,0l0,3.88l3.573,-3.88l2.192,0l-4.002,4.124l4.38,4.768l-2.419,0l-3.724,-4.256l0,4.256l-1.917,0l0,-8.892Zm17.12,0l1.916,0l0,7.535l3.891,0l0,1.357l-5.807,0l0,-8.892Zm6.956,0l1.917,0l0,5.211c0,0.863 0.158,1.497 0.475,1.898c0.316,0.404 0.812,0.605 1.484,0.605c0.679,0 1.192,-0.217 1.536,-0.647c0.348,-0.431 0.521,-1.072 0.521,-1.918l0,-5.149l1.804,0l0,5.162c0,1.301 -0.323,2.279 -0.974,2.929c-0.649,0.654 -1.621,0.98 -2.915,0.98c-1.272,0 -2.23,-0.322 -2.878,-0.969c-0.646,-0.647 -0.97,-1.601 -0.97,-2.865l0,-5.237Zm9.453,0l2.241,0l2.071,3.342l2.018,-3.342l2.082,0l-3.046,4.231l3.368,4.661l-2.248,0l-2.337,-3.692l-2.386,3.692l-2.111,0l3.417,-4.661l-3.069,-4.231Zm10.021,0l1.916,0l0,5.211c0,0.863 0.159,1.497 0.476,1.898c0.316,0.404 0.812,0.605 1.483,0.605c0.68,0 1.192,-0.217 1.537,-0.647c0.348,-0.431 0.52,-1.072 0.52,-1.918l0,-5.149l1.806,0l0,5.162c0,1.301 -0.324,2.279 -0.975,2.929c-0.649,0.654 -1.622,0.98 -2.915,0.98c-1.272,0 -2.23,-0.322 -2.879,-0.969c-0.645,-0.647 -0.969,-1.601 -0.969,-2.865l0,-5.237Zm12.016,1.243l0,2.678l0.984,0c0.621,0 1.099,-0.118 1.434,-0.35c0.339,-0.233 0.506,-0.566 0.506,-0.995c0,-0.46 -0.167,-0.798 -0.501,-1.011c-0.336,-0.215 -0.863,-0.322 -1.584,-0.322l-0.839,0Zm-1.888,-1.243l3.18,0c1.182,0 2.071,0.19 2.661,0.572c0.593,0.383 0.889,0.955 0.889,1.72c0,0.572 -0.175,1.044 -0.525,1.417c-0.35,0.375 -0.851,0.624 -1.502,0.75c0.278,0.083 0.502,0.207 0.671,0.374c0.171,0.167 0.363,0.488 0.572,0.97l1.344,3.089l-2.013,0l-1.094,-2.69c-0.154,-0.387 -0.354,-0.658 -0.6,-0.81c-0.246,-0.151 -0.61,-0.228 -1.094,-0.228l-0.601,0l0,3.728l-1.888,0l0,-8.892Zm8.739,0l1.918,0l0,8.892l-1.918,0l0,-8.892Zm8.463,1.128c-0.793,0 -1.432,0.299 -1.917,0.897c-0.485,0.598 -0.728,1.396 -0.728,2.394c0,0.999 0.243,1.802 0.725,2.404c0.483,0.602 1.122,0.903 1.92,0.903c0.797,0 1.439,-0.303 1.926,-0.907c0.488,-0.605 0.733,-1.406 0.733,-2.4c0,-0.993 -0.245,-1.79 -0.733,-2.39c-0.487,-0.6 -1.129,-0.901 -1.926,-0.901Zm0,-1.321c1.424,0 2.549,0.413 3.37,1.24c0.822,0.826 1.233,1.958 1.233,3.395c0,1.443 -0.409,2.575 -1.227,3.398c-0.815,0.822 -1.942,1.231 -3.376,1.231c-1.429,0 -2.551,-0.409 -3.367,-1.231c-0.815,-0.823 -1.223,-1.955 -1.223,-3.398c0,-1.446 0.408,-2.58 1.227,-3.401c0.816,-0.823 1.938,-1.234 3.363,-1.234Zm6.49,0.193l1.917,0l0,5.211c0,0.863 0.158,1.497 0.475,1.898c0.316,0.404 0.812,0.605 1.484,0.605c0.678,0 1.191,-0.217 1.536,-0.647c0.347,-0.431 0.52,-1.072 0.52,-1.918l0,-5.149l1.806,0l0,5.162c0,1.301 -0.324,2.279 -0.975,2.929c-0.649,0.654 -1.621,0.98 -2.915,0.98c-1.272,0 -2.23,-0.322 -2.878,-0.969c-0.647,-0.647 -0.97,-1.601 -0.97,-2.865l0,-5.237Zm15.794,0.232l-0.163,1.397c-0.367,-0.149 -0.728,-0.262 -1.085,-0.337c-0.359,-0.074 -0.713,-0.114 -1.064,-0.114c-0.515,0 -0.915,0.088 -1.202,0.261c-0.287,0.173 -0.431,0.415 -0.431,0.728c0,0.387 0.519,0.821 1.557,1.301c0.1,0.045 0.178,0.081 0.234,0.107c0.969,0.449 1.634,0.875 1.987,1.279c0.353,0.402 0.531,0.884 0.531,1.448c0,0.82 -0.343,1.492 -1.026,2.014c-0.683,0.52 -1.581,0.781 -2.691,0.781c-0.458,0 -1.225,-0.149 -2.305,-0.45c-0.114,-0.034 -0.201,-0.06 -0.259,-0.082l0.178,-1.52c0.546,0.246 1.002,0.42 1.371,0.526c0.368,0.104 0.707,0.155 1.009,0.155c0.517,0 0.934,-0.109 1.256,-0.329c0.319,-0.217 0.48,-0.495 0.48,-0.828c0,-0.433 -0.52,-0.907 -1.558,-1.425l-0.163,-0.08c-0.042,-0.022 -0.108,-0.054 -0.199,-0.094c-0.769,-0.377 -1.31,-0.718 -1.622,-1.028c-0.225,-0.215 -0.395,-0.464 -0.508,-0.737c-0.117,-0.275 -0.176,-0.568 -0.176,-0.877c0,-0.755 0.322,-1.363 0.968,-1.827c0.644,-0.463 1.507,-0.694 2.586,-0.694c0.418,0 1.029,0.103 1.831,0.309c0.21,0.052 0.364,0.094 0.464,0.116Zm10.434,-0.232l5.652,0l0,1.294l-3.722,0l0,2.421l3.555,0l0,1.307l-3.555,0l0,3.87l-1.93,0l0,-8.892Zm7.388,0l1.916,0l0,7.535l3.89,0l0,1.357l-5.806,0l0,-8.892Zm11.008,1.484l-1.625,4l3.188,0l-1.563,-4Zm-1.121,-1.484l2.308,0l3.75,8.892l-2.061,0l-0.807,-2.1l-4.228,0l-0.84,2.1l-1.9,0l3.778,-8.892Zm5.684,0l7.066,0l0,1.371l-2.588,0l0,7.521l-1.917,0l0,-7.521l-2.561,0l0,-1.371Zm14.155,0.232l-0.162,1.397c-0.367,-0.149 -0.729,-0.262 -1.085,-0.337c-0.36,-0.074 -0.714,-0.114 -1.063,-0.114c-0.516,0 -0.917,0.088 -1.204,0.261c-0.287,0.173 -0.431,0.415 -0.431,0.728c0,0.387 0.52,0.821 1.558,1.301c0.099,0.045 0.177,0.081 0.233,0.107c0.969,0.449 1.635,0.875 1.986,1.279c0.355,0.402 0.532,0.884 0.532,1.448c0,0.82 -0.342,1.492 -1.025,2.014c-0.684,0.52 -1.582,0.781 -2.693,0.781c-0.456,0 -1.224,-0.149 -2.303,-0.45c-0.114,-0.034 -0.201,-0.06 -0.259,-0.082l0.177,-1.52c0.546,0.246 1.003,0.42 1.371,0.526c0.369,0.104 0.707,0.155 1.01,0.155c0.516,0 0.933,-0.109 1.254,-0.329c0.32,-0.217 0.482,-0.495 0.482,-0.828c0,-0.433 -0.521,-0.907 -1.559,-1.425l-0.162,-0.08c-0.043,-0.022 -0.108,-0.054 -0.199,-0.094c-0.77,-0.377 -1.311,-0.718 -1.623,-1.028c-0.224,-0.215 -0.395,-0.464 -0.508,-0.737c-0.117,-0.275 -0.175,-0.568 -0.175,-0.877c0,-0.755 0.322,-1.363 0.967,-1.827c0.644,-0.463 1.507,-0.694 2.587,-0.694c0.417,0 1.028,0.103 1.831,0.309c0.21,0.052 0.363,0.094 0.463,0.116Z" style="fill:#fff;fill-rule:nonzero;"/><path d="M343.025,130.482c3.093,0.951 3.632,6.123 -0.064,9.631c-1.826,1.752 -5.861,3.515 -9.554,4.332c-3.37,0.801 -5.819,1.953 -5.826,1.986c-0.034,-0.003 2.531,-1.407 3.988,-4.266c1.627,-3.086 2.485,-6.59 3.404,-8.168c1.802,-3.053 4.901,-4.505 8.052,-3.515Zm-6.225,3.985c-1.295,1.722 -1.546,4.007 -0.202,5.303c1.291,1.26 3.953,0.797 5.603,-1.375c1.704,-2.136 1.405,-4.843 -0.242,-5.623c-1.701,-0.821 -3.804,0.015 -5.159,1.695Z" style="fill:#643e69;"/><path d="M57.263,143.247l12.86,33.28c0.804,-1.733 1.764,-3.954 2.88,-6.662c1.117,-2.708 2.277,-5.558 3.483,-8.548c0.089,-0.26 0.189,-0.509 0.301,-0.747c0.112,-0.239 0.212,-0.488 0.301,-0.748c1.653,-4.16 3.193,-8.092 4.622,-11.797c1.428,-3.705 2.344,-6.208 2.746,-7.508c0.179,-0.477 0.324,-0.931 0.435,-1.364c0.112,-0.434 0.168,-0.802 0.168,-1.106c0,-0.087 0,-0.162 0,-0.227c0,-0.065 -0.023,-0.141 -0.067,-0.228c-0.045,-0.216 -0.134,-0.412 -0.268,-0.585c-0.134,-0.173 -0.313,-0.324 -0.536,-0.455c-0.178,-0.043 -0.357,-0.087 -0.535,-0.13c-0.179,-0.043 -0.38,-0.064 -0.604,-0.064c-0.223,-0.044 -0.457,-0.066 -0.702,-0.066c-0.246,0 -0.48,0 -0.704,0c-0.179,0 -0.346,-0.021 -0.503,-0.065c-0.156,-0.043 -0.234,-0.152 -0.234,-0.325c0,-0.216 0.112,-0.358 0.336,-0.423c0.222,-0.064 0.602,-0.097 1.138,-0.097l1.205,0c0.491,0 0.971,0.011 1.44,0.033c0.469,0.021 0.904,0.032 1.307,0.032c0.625,0.044 1.172,0.076 1.64,0.097c0.47,0.022 0.792,0.033 0.971,0.033c0.089,0 0.324,-0.011 0.703,-0.033c0.38,-0.021 0.815,-0.053 1.307,-0.097l1.473,0c0.313,-0.043 0.614,-0.065 0.905,-0.065c0.289,0 0.569,0 0.837,0c0.357,0 0.636,0.033 0.837,0.097c0.201,0.065 0.301,0.185 0.301,0.358c0,0.174 -0.066,0.293 -0.201,0.358c-0.134,0.064 -0.335,0.097 -0.602,0.097c-0.179,0 -0.514,0.022 -1.005,0.066c-0.491,0.043 -1.004,0.172 -1.54,0.39c-0.135,0.043 -0.257,0.086 -0.369,0.129c-0.111,0.044 -0.212,0.109 -0.301,0.196c-0.447,0.303 -0.95,0.844 -1.507,1.624c-0.558,0.78 -1.284,2.276 -2.178,4.496c-0.357,0.91 -1.271,3.077 -2.745,6.511c-1.473,3.423 -3.059,7.128 -4.756,11.126c-2.054,4.734 -3.818,8.796 -5.29,12.198c-1.474,3.413 -2.59,5.915 -3.35,7.518c-0.758,1.571 -1.294,2.697 -1.607,3.391c-0.312,0.694 -0.58,1.148 -0.804,1.365c-0.089,0.043 -0.156,0.076 -0.2,0.098c-0.045,0.022 -0.112,0.032 -0.201,0.032c-0.135,0 -0.257,-0.032 -0.369,-0.097c-0.111,-0.066 -0.212,-0.141 -0.302,-0.228c-0.222,-0.26 -0.457,-0.672 -0.702,-1.234c-0.247,-0.564 -0.592,-1.366 -1.038,-2.406l-16.41,-39.963c-0.178,-0.434 -0.357,-0.836 -0.535,-1.204c-0.179,-0.379 -0.357,-0.714 -0.536,-1.018c-0.492,-0.866 -1.028,-1.473 -1.608,-1.82c-0.58,-0.346 -1.295,-0.65 -2.143,-0.91c-0.089,0 -0.168,-0.01 -0.234,-0.032c-0.067,-0.022 -0.146,-0.055 -0.235,-0.098c-0.446,-0.043 -0.848,-0.076 -1.206,-0.097c-0.357,-0.022 -0.625,-0.033 -0.804,-0.033c-0.222,0 -0.368,-0.043 -0.434,-0.13c-0.067,-0.087 -0.1,-0.194 -0.1,-0.325c0,-0.216 0.155,-0.346 0.467,-0.39c0.314,-0.043 0.715,-0.065 1.207,-0.065l1.674,0c0.536,0 1.071,0.011 1.607,0.033c0.536,0.021 1.049,0.032 1.541,0.032c0.714,0.044 1.35,0.076 1.909,0.097c0.558,0.022 0.926,0.033 1.105,0.033c0.178,0 0.479,-0.011 0.904,-0.033c0.425,-0.021 0.926,-0.053 1.507,-0.097c0.401,0 0.814,-0.011 1.239,-0.032c0.424,-0.022 0.859,-0.033 1.305,-0.033l1.273,0c0.625,0 1.083,0.033 1.373,0.097c0.291,0.065 0.436,0.185 0.436,0.358c0,0.174 -0.056,0.293 -0.168,0.358c-0.112,0.064 -0.279,0.097 -0.503,0.097c-0.178,0 -0.368,0 -0.569,0c-0.2,0 -0.39,0.022 -0.569,0.066c-0.267,0 -0.524,0.021 -0.77,0.064c-0.246,0.043 -0.457,0.108 -0.636,0.195c-0.268,0.131 -0.469,0.282 -0.603,0.456c-0.134,0.172 -0.223,0.346 -0.267,0.519l0,0.325c0,0.434 0.178,1.127 0.535,2.08c0.358,0.954 0.782,2.058 1.272,3.315l0,-0.065Zm45.271,26.715l0,-8.816c0,-3.733 0,-6.249 0,-7.533c0,-1.283 -0.034,-2.307 -0.104,-3.082l0,-0.15c-0.034,-0.867 -0.197,-1.516 -0.489,-1.95c-0.292,-0.433 -0.867,-0.733 -1.725,-0.9c-0.103,-0.033 -0.241,-0.058 -0.413,-0.075c-0.172,-0.017 -0.343,-0.024 -0.515,-0.024c-0.138,-0.035 -0.284,-0.051 -0.438,-0.051c-0.154,0 -0.283,0 -0.386,0c-0.103,0 -0.197,-0.025 -0.283,-0.076c-0.086,-0.048 -0.13,-0.124 -0.13,-0.224c0,-0.167 0.07,-0.275 0.206,-0.325c0.138,-0.05 0.345,-0.075 0.619,-0.075l1.751,0c0.344,0.033 0.679,0.05 1.006,0.05c0.326,0 0.643,0 0.953,0c0.549,0.033 1.021,0.058 1.416,0.075c0.394,0.017 0.626,0.025 0.696,0.025c0.137,0 0.454,-0.008 0.953,-0.025c0.497,-0.017 1.073,-0.042 1.725,-0.075l0.67,0c0.515,0 1.013,-0.008 1.493,-0.025c0.481,-0.016 0.893,-0.025 1.237,-0.025c0.377,0 0.747,0.009 1.108,0.025c0.36,0.017 0.713,0.025 1.055,0.025c1.305,0.067 2.576,0.259 3.812,0.574c1.237,0.318 2.388,0.843 3.452,1.575c0.206,0.134 0.421,0.3 0.644,0.501c0.224,0.2 0.455,0.433 0.695,0.7c0.55,0.633 1.057,1.424 1.52,2.383c0.464,0.949 0.696,2.025 0.696,3.225c0,1.841 -0.456,3.707 -1.365,5.607c-0.911,1.9 -2.533,3.891 -4.869,5.958c2.13,2.641 4.078,5.042 5.848,7.207c1.768,2.176 3.391,4.041 4.867,5.608c1.409,1.441 2.645,2.375 3.71,2.808c1.065,0.434 1.923,0.701 2.575,0.8c0.481,0.067 0.902,0.109 1.263,0.125c0.36,0.017 0.609,0.025 0.747,0.025c0.136,0 0.249,0.033 0.335,0.1c0.085,0.067 0.128,0.134 0.128,0.2c0,0.134 -0.085,0.225 -0.257,0.275c-0.172,0.05 -0.499,0.075 -0.979,0.075l-3.658,0c-1.408,0 -2.498,-0.058 -3.271,-0.175c-0.773,-0.117 -1.486,-0.341 -2.138,-0.675c0,0 -0.009,-0.008 -0.026,-0.024c-0.017,-0.018 -0.043,-0.025 -0.077,-0.025c-0.309,-0.167 -0.601,-0.35 -0.875,-0.551c-0.276,-0.2 -0.55,-0.417 -0.824,-0.65c-0.791,-0.666 -1.598,-1.517 -2.423,-2.549c-0.823,-1.033 -1.768,-2.233 -2.833,-3.6c-0.171,-0.2 -0.343,-0.416 -0.514,-0.65c-0.173,-0.233 -0.344,-0.45 -0.515,-0.65c-0.07,-0.1 -0.146,-0.208 -0.233,-0.325c-0.086,-0.117 -0.163,-0.224 -0.232,-0.325c-0.858,-1.1 -1.656,-2.158 -2.394,-3.174c-0.739,-1.017 -1.314,-1.775 -1.726,-2.275c-0.035,-0.034 -0.06,-0.059 -0.078,-0.075c-0.017,-0.017 -0.042,-0.042 -0.076,-0.076c-0.07,-0.033 -0.147,-0.066 -0.233,-0.099c-0.086,-0.033 -0.18,-0.05 -0.284,-0.05l-6.336,-0.15c-0.137,0.033 -0.231,0.083 -0.283,0.15c-0.051,0.066 -0.078,0.167 -0.078,0.3l0,1.15c0,2.433 0.01,4.591 0.027,6.474c0.017,1.883 0.094,3.358 0.231,4.424c0.069,0.734 0.233,1.35 0.489,1.85c0.258,0.501 0.765,0.8 1.52,0.9c0.138,0.033 0.284,0.058 0.438,0.075c0.155,0.016 0.318,0.026 0.49,0.026c0.275,0.033 0.541,0.058 0.798,0.074c0.257,0.017 0.456,0.025 0.593,0.025c0.171,0 0.283,0.033 0.335,0.1c0.051,0.067 0.077,0.134 0.077,0.2c0,0.134 -0.069,0.225 -0.206,0.275c-0.137,0.05 -0.343,0.075 -0.619,0.075l-1.03,0c-0.55,0 -1.09,-0.008 -1.623,-0.025c-0.532,-0.017 -1.021,-0.025 -1.468,-0.025c-0.618,-0.033 -1.125,-0.059 -1.519,-0.075c-0.395,-0.017 -0.627,-0.025 -0.696,-0.025c0,0 -0.179,0.008 -0.541,0.025c-0.361,0.016 -0.798,0.042 -1.314,0.075l-0.978,0c-0.378,0.033 -0.738,0.05 -1.082,0.05c-0.343,0 -0.653,0 -0.927,0c-0.275,0 -0.481,-0.025 -0.619,-0.075c-0.136,-0.05 -0.206,-0.141 -0.206,-0.275c0,-0.066 0.035,-0.133 0.104,-0.2c0.068,-0.067 0.172,-0.1 0.308,-0.1c0.104,0 0.224,-0.008 0.361,-0.025c0.138,-0.016 0.275,-0.025 0.412,-0.025c0.138,-0.033 0.275,-0.059 0.413,-0.075c0.137,-0.017 0.257,-0.042 0.36,-0.075c0.515,-0.1 0.867,-0.399 1.057,-0.9c0.188,-0.5 0.334,-1.116 0.437,-1.85c0.138,-1.074 0.214,-2.549 0.232,-4.433c0.017,-1.89 0.026,-4.032 0.026,-6.432l0,-0.05Zm4.12,-20.831l0,16.398c0,0.167 0.027,0.301 0.078,0.4c0.052,0.1 0.146,0.183 0.283,0.25c0.378,0.2 1.039,0.375 1.984,0.525c0.944,0.15 1.948,0.242 3.013,0.275l0.412,0c0.275,0 0.559,-0.008 0.851,-0.025c0.291,-0.017 0.593,-0.059 0.901,-0.125c0.343,-0.067 0.695,-0.158 1.056,-0.275c0.36,-0.117 0.712,-0.292 1.056,-0.525c0.893,-0.6 1.64,-1.566 2.241,-2.884c0.601,-1.324 0.901,-2.932 0.901,-4.84c0,-3.142 -0.798,-5.599 -2.395,-7.366c-1.597,-1.774 -3.77,-2.658 -6.517,-2.658c-0.755,0 -1.451,0.033 -2.086,0.099c-0.635,0.068 -1.091,0.134 -1.365,0.201c-0.137,0.033 -0.241,0.1 -0.309,0.2c-0.069,0.099 -0.104,0.233 -0.104,0.399l0,-0.049Zm31.734,19.323l0,-7.308c0,-3.733 0,-6.249 0,-7.533c0,-1.283 -0.034,-2.307 -0.103,-3.082l0,-0.15c-0.034,-0.867 -0.197,-1.516 -0.489,-1.95c-0.293,-0.433 -0.868,-0.733 -1.726,-0.9c-0.103,-0.033 -0.241,-0.058 -0.413,-0.075c-0.171,-0.017 -0.343,-0.024 -0.514,-0.024c-0.138,-0.035 -0.283,-0.051 -0.439,-0.051c-0.154,0 -0.282,0 -0.386,0c-0.103,0 -0.197,-0.025 -0.283,-0.076c-0.086,-0.048 -0.129,-0.124 -0.129,-0.224c0,-0.167 0.069,-0.275 0.207,-0.325c0.137,-0.05 0.343,-0.075 0.617,-0.075l1.752,0c0.31,0.033 0.627,0.05 0.953,0.05c0.326,0 0.644,0 0.953,0c0.584,0.033 1.082,0.058 1.494,0.075c0.412,0.017 0.67,0.025 0.772,0.025c0.104,0 0.361,-0.008 0.773,-0.025c0.412,-0.017 0.877,-0.042 1.391,-0.075l0.773,0c0.413,0 0.807,-0.008 1.186,-0.025c0.377,-0.016 0.703,-0.025 0.978,-0.025c0.275,0 0.481,0.025 0.618,0.075c0.137,0.05 0.206,0.158 0.206,0.325c0,0.1 -0.043,0.176 -0.129,0.224c-0.086,0.051 -0.18,0.076 -0.282,0.076l-0.156,0c-0.136,0 -0.292,0.016 -0.463,0.051c-0.172,0.033 -0.395,0.066 -0.67,0.099c-0.687,0.1 -1.159,0.384 -1.417,0.849c-0.257,0.467 -0.42,1.134 -0.489,2.001l0,0.15c-0.069,0.775 -0.103,1.799 -0.103,3.082l0,14.541c0,3.641 0.369,6.365 1.108,8.166c0.738,1.799 1.657,3.216 2.756,4.258c0.309,0.299 0.618,0.566 0.927,0.8c0.309,0.233 0.618,0.432 0.927,0.599c0.928,0.534 1.872,0.892 2.834,1.075c0.961,0.183 1.992,0.275 3.091,0.275c1.58,0 3.091,-0.333 4.533,-0.999c1.441,-0.667 2.627,-1.534 3.554,-2.609c1.203,-1.433 2.001,-3.191 2.396,-5.274c0.395,-2.091 0.592,-4.416 0.592,-6.991l0,-6.308c0,-3.733 0,-6.249 0,-7.533c0,-1.283 -0.034,-2.307 -0.103,-3.082l0,-0.15c-0.035,-0.867 -0.197,-1.516 -0.489,-1.95c-0.292,-0.433 -0.867,-0.733 -1.726,-0.9c-0.104,-0.033 -0.24,-0.058 -0.412,-0.075c-0.172,-0.017 -0.343,-0.024 -0.515,-0.024c-0.138,-0.035 -0.284,-0.051 -0.438,-0.051c-0.154,0 -0.283,0 -0.387,0c-0.102,0 -0.197,-0.025 -0.283,-0.076c-0.085,-0.048 -0.129,-0.124 -0.129,-0.224c0,-0.167 0.069,-0.275 0.206,-0.325c0.138,-0.05 0.344,-0.075 0.619,-0.075l1.185,0c0.412,0 0.815,0.009 1.21,0.025c0.396,0.017 0.764,0.025 1.108,0.025c0.515,0.033 0.953,0.058 1.314,0.075c0.36,0.017 0.575,0.025 0.643,0.025c0.104,0 0.31,-0.008 0.618,-0.025c0.309,-0.017 0.671,-0.042 1.082,-0.075l1.082,0c0.275,-0.033 0.541,-0.05 0.799,-0.05c0.257,0 0.506,0 0.747,0c0.274,0 0.481,0.025 0.617,0.075c0.138,0.05 0.206,0.158 0.206,0.325c0,0.1 -0.042,0.176 -0.128,0.224c-0.086,0.051 -0.18,0.076 -0.284,0.076l-0.154,0c-0.137,0 -0.292,0.008 -0.463,0.025c-0.172,0.017 -0.396,0.059 -0.67,0.125c-0.688,0.133 -1.16,0.425 -1.416,0.875c-0.258,0.45 -0.421,1.108 -0.491,1.975l0,0.15c-0.068,0.775 -0.102,1.799 -0.102,3.082l0,12.891c0,0.566 -0.009,1.117 -0.026,1.65c-0.018,0.534 -0.042,1.083 -0.078,1.658c-0.137,2.199 -0.532,4.341 -1.185,6.432c-0.651,2.084 -1.802,3.842 -3.451,5.276c-0.309,0.265 -0.61,0.508 -0.902,0.732c-0.292,0.217 -0.575,0.409 -0.849,0.575c-1.58,1 -3.133,1.642 -4.663,1.925c-1.528,0.284 -2.927,0.425 -4.198,0.425c-0.619,0 -1.572,-0.067 -2.859,-0.2c-1.288,-0.133 -2.635,-0.467 -4.044,-1c-0.653,-0.267 -1.296,-0.582 -1.932,-0.95c-0.635,-0.366 -1.228,-0.825 -1.777,-1.358c-1.271,-1.167 -2.336,-2.742 -3.194,-4.724c-0.858,-1.992 -1.288,-4.8 -1.288,-8.442l0,-0.049Zm46.467,-14.724l0.669,23.947c0.07,2.067 0.25,3.509 0.542,4.326c0.291,0.816 0.781,1.324 1.468,1.524c0.102,0.034 0.198,0.058 0.283,0.076c0.086,0.016 0.18,0.024 0.284,0.024c0.412,0.101 0.806,0.159 1.185,0.175c0.377,0.017 0.652,0.025 0.823,0.025c0.138,0 0.24,0.025 0.31,0.075c0.068,0.05 0.102,0.125 0.102,0.225c0,0.134 -0.076,0.225 -0.232,0.275c-0.154,0.05 -0.386,0.075 -0.695,0.075c-0.721,0 -1.391,-0.008 -2.008,-0.025c-0.619,-0.017 -1.169,-0.025 -1.65,-0.025c-0.48,-0.033 -0.875,-0.059 -1.184,-0.075c-0.309,-0.017 -0.515,-0.025 -0.618,-0.025c-0.103,0 -0.318,0.008 -0.644,0.025c-0.327,0.016 -0.695,0.042 -1.108,0.075c-0.446,0 -0.945,0.008 -1.493,0.025c-0.55,0.017 -1.117,0.025 -1.7,0.025c-0.242,0 -0.438,-0.025 -0.593,-0.075c-0.155,-0.05 -0.232,-0.141 -0.232,-0.275c0,-0.1 0.034,-0.175 0.103,-0.225c0.069,-0.05 0.172,-0.075 0.31,-0.075c0.17,0 0.394,-0.008 0.669,-0.025c0.274,-0.016 0.566,-0.058 0.876,-0.125c0.103,-0.033 0.197,-0.058 0.283,-0.074c0.086,-0.018 0.18,-0.042 0.284,-0.076c0.652,-0.167 1.073,-0.7 1.261,-1.6c0.189,-0.9 0.284,-2.491 0.284,-4.758l0.051,-28.738c0,-0.933 0.044,-1.575 0.129,-1.924c0.085,-0.351 0.231,-0.526 0.438,-0.526c0.103,0 0.249,0.075 0.438,0.225c0.188,0.151 0.368,0.325 0.541,0.525c0.034,0.033 0.069,0.067 0.103,0.1c0.034,0.034 0.051,0.05 0.051,0.05c0.138,0.134 0.258,0.258 0.362,0.376c0.102,0.116 0.205,0.224 0.308,0.324c0.378,0.433 2.215,2.366 5.512,5.799c3.297,3.434 6.92,7.217 10.87,11.35c0.308,0.3 0.61,0.607 0.901,0.924c0.292,0.316 0.576,0.625 0.85,0.925c0.103,0.1 0.207,0.2 0.309,0.3c0.104,0.1 0.206,0.2 0.31,0.3c2.163,2.3 4.198,4.466 6.104,6.499c1.906,2.033 3.202,3.399 3.889,4.1l-0.567,-25.448c-0.034,-1.6 -0.18,-2.733 -0.437,-3.399c-0.258,-0.666 -0.782,-1.1 -1.571,-1.3c-0.104,-0.033 -0.224,-0.059 -0.361,-0.075c-0.137,-0.017 -0.258,-0.025 -0.36,-0.025c-0.378,-0.066 -0.731,-0.108 -1.057,-0.125c-0.326,-0.017 -0.575,-0.025 -0.747,-0.025c-0.172,0 -0.283,-0.033 -0.334,-0.099c-0.052,-0.068 -0.078,-0.15 -0.078,-0.251c0,-0.166 0.094,-0.267 0.284,-0.3c0.188,-0.033 0.437,-0.05 0.747,-0.05l0.515,0c0.514,0 1.013,0.009 1.493,0.025c0.481,0.017 0.928,0.025 1.34,0.025c0.48,0.033 0.902,0.058 1.263,0.075c0.36,0.017 0.609,0.025 0.747,0.025c0.136,0 0.342,-0.008 0.618,-0.025c0.274,-0.017 0.601,-0.042 0.978,-0.075c0.378,0 0.807,-0.008 1.288,-0.025c0.481,-0.016 0.979,-0.025 1.494,-0.025c0.274,0 0.498,0.017 0.669,0.05c0.172,0.033 0.258,0.134 0.258,0.3c0,0.101 -0.051,0.183 -0.154,0.251c-0.104,0.066 -0.24,0.099 -0.412,0.099c-0.138,0 -0.301,0.008 -0.489,0.025c-0.19,0.017 -0.439,0.059 -0.748,0.125c-0.858,0.167 -1.39,0.575 -1.597,1.225c-0.206,0.65 -0.309,1.725 -0.309,3.233l-0.103,29.28c0,1.674 -0.034,2.683 -0.103,3.033c-0.069,0.35 -0.189,0.525 -0.361,0.525c-0.206,0 -0.541,-0.192 -1.004,-0.575c-0.464,-0.384 -1.383,-1.241 -2.756,-2.575c-0.207,-0.2 -1.288,-1.266 -3.246,-3.2c-1.958,-1.933 -4.086,-4.065 -6.388,-6.399c-0.068,-0.1 -0.145,-0.191 -0.231,-0.275c-0.086,-0.083 -0.164,-0.158 -0.232,-0.224c-0.584,-0.601 -1.159,-1.184 -1.726,-1.75c-0.566,-0.567 -1.107,-1.133 -1.623,-1.7c-0.034,-0.033 -0.068,-0.066 -0.102,-0.1c-0.035,-0.034 -0.069,-0.067 -0.103,-0.1c-2.955,-3.1 -5.693,-6.008 -8.217,-8.724c-2.524,-2.716 -4.198,-4.525 -5.023,-5.425l0,-0.05Zm48.063,16.232l0,-8.816c0,-3.733 0,-6.249 0,-7.533c0,-1.283 -0.034,-2.307 -0.102,-3.082l0,-0.15c-0.035,-0.867 -0.198,-1.516 -0.49,-1.95c-0.292,-0.433 -0.867,-0.733 -1.726,-0.9c-0.103,-0.033 -0.241,-0.058 -0.411,-0.075c-0.172,-0.017 -0.344,-0.024 -0.516,-0.024c-0.137,-0.035 -0.283,-0.051 -0.437,-0.051c-0.156,0 -0.284,0 -0.387,0c-0.103,0 -0.198,-0.025 -0.284,-0.076c-0.086,-0.048 -0.128,-0.124 -0.128,-0.224c0,-0.167 0.068,-0.275 0.206,-0.325c0.137,-0.05 0.343,-0.075 0.617,-0.075l1.752,0c0.344,0.033 0.679,0.05 1.005,0.05c0.326,0 0.643,0 0.953,0c0.549,0.033 1.022,0.058 1.417,0.075c0.395,0.017 0.627,0.025 0.695,0.025c0.172,0 0.481,-0.008 0.928,-0.025c0.446,-0.017 0.996,-0.042 1.647,-0.075c0.55,0 1.16,-0.008 1.83,-0.025c0.669,-0.016 1.348,-0.025 2.034,-0.025l1.546,0c1.408,0 3.023,0.033 4.842,0.1c1.821,0.067 3.692,0.316 5.615,0.75c1.615,0.366 3.211,0.933 4.791,1.7c1.58,0.767 3.039,1.824 4.379,3.158c1.305,1.3 2.464,3 3.477,5.108c1.014,2.099 1.52,4.632 1.52,7.607c0,3.133 -0.567,5.908 -1.7,8.307c-1.133,2.409 -2.421,4.342 -3.864,5.808c-0.274,0.3 -0.6,0.617 -0.979,0.95c-0.377,0.333 -0.807,0.667 -1.287,1c-1.34,0.941 -3.091,1.8 -5.254,2.584c-2.164,0.782 -4.861,1.174 -8.088,1.174c-0.585,0 -1.186,-0.008 -1.804,-0.025c-0.618,-0.016 -1.236,-0.041 -1.854,-0.075c-0.619,-0.033 -1.228,-0.067 -1.829,-0.1c-0.6,-0.033 -1.159,-0.067 -1.675,-0.1c-1.133,-0.066 -2.094,-0.134 -2.884,-0.2c-0.79,-0.066 -1.254,-0.1 -1.391,-0.1c-0.068,0 -0.3,0.008 -0.695,0.025c-0.395,0.016 -0.85,0.042 -1.365,0.075l-0.877,0c-0.377,0 -0.755,0.008 -1.133,0.025c-0.378,0.017 -0.703,0.025 -0.979,0.025c-0.274,0 -0.48,-0.025 -0.617,-0.075c-0.138,-0.05 -0.206,-0.141 -0.206,-0.275c0,-0.066 0.034,-0.133 0.102,-0.2c0.069,-0.067 0.172,-0.1 0.31,-0.1c0.103,0 0.223,-0.008 0.361,-0.025c0.136,-0.016 0.274,-0.025 0.411,-0.025c0.138,-0.033 0.275,-0.059 0.412,-0.075c0.138,-0.017 0.258,-0.042 0.361,-0.075c0.515,-0.1 0.867,-0.399 1.056,-0.9c0.189,-0.5 0.335,-1.116 0.437,-1.85c0.138,-1.074 0.216,-2.549 0.232,-4.433c0.018,-1.89 0.026,-4.032 0.026,-6.432l0,-0.05Zm4.328,-9.616l0,6.208c0,2.675 0.008,5.041 0.025,7.108c0.018,2.074 0.044,3.341 0.078,3.808c0,0.199 0.008,0.425 0.026,0.674c0.016,0.251 0.042,0.508 0.076,0.775c0.036,0.5 0.086,0.975 0.156,1.425c0.068,0.458 0.171,0.767 0.308,0.933c0.034,0.034 0.069,0.076 0.104,0.126c0.034,0.049 0.068,0.092 0.102,0.125c0.413,0.433 1.246,0.833 2.499,1.199c1.254,0.367 3.272,0.551 6.053,0.551c2.404,0 4.671,-0.409 6.801,-1.226c2.128,-0.816 3.948,-1.966 5.46,-3.433c1.237,-1.166 2.198,-2.733 2.884,-4.707c0.688,-1.967 1.082,-4 1.185,-6.108c0.035,-0.2 0.051,-0.392 0.051,-0.574c0,-0.185 0,-0.376 0,-0.576c0,-2.533 -0.377,-4.724 -1.133,-6.557c-0.755,-1.834 -1.58,-3.342 -2.473,-4.508c-0.24,-0.301 -0.472,-0.576 -0.695,-0.825c-0.224,-0.251 -0.438,-0.492 -0.644,-0.726c-2.403,-2.466 -5.048,-4.032 -7.933,-4.682c-2.885,-0.651 -5.856,-0.976 -8.911,-0.976c-0.207,0 -0.43,0.01 -0.671,0.026c-0.24,0.017 -0.48,0.025 -0.721,0.025c-0.412,0.033 -0.807,0.075 -1.185,0.125c-0.378,0.05 -0.635,0.108 -0.773,0.175c-0.24,0.1 -0.403,0.225 -0.489,0.375c-0.086,0.15 -0.129,0.358 -0.129,0.625c-0.034,0.633 -0.051,1.633 -0.051,3.008l0,7.657l0,-0.05Z" style="fill:#643e69;fill-rule:nonzero;"/><path d="M289.865,143.246l12.861,33.281c0.803,-1.733 1.763,-3.954 2.88,-6.663c1.116,-2.708 2.276,-5.558 3.482,-8.547c0.09,-0.261 0.19,-0.509 0.302,-0.748c0.111,-0.238 0.212,-0.488 0.301,-0.747c1.651,-4.161 3.193,-8.093 4.622,-11.799c1.428,-3.704 2.344,-6.207 2.745,-7.507c0.179,-0.477 0.324,-0.932 0.436,-1.365c0.112,-0.433 0.167,-0.801 0.167,-1.105c0,-0.087 0,-0.163 0,-0.227c0,-0.065 -0.021,-0.142 -0.067,-0.228c-0.044,-0.217 -0.133,-0.412 -0.268,-0.586c-0.133,-0.172 -0.312,-0.324 -0.536,-0.454c-0.178,-0.043 -0.357,-0.087 -0.535,-0.13c-0.179,-0.044 -0.379,-0.065 -0.603,-0.065c-0.223,-0.044 -0.457,-0.065 -0.704,-0.065c-0.245,0 -0.479,0 -0.703,0c-0.178,0 -0.346,-0.021 -0.502,-0.065c-0.156,-0.043 -0.235,-0.152 -0.235,-0.325c0,-0.217 0.113,-0.358 0.335,-0.423c0.224,-0.064 0.604,-0.097 1.14,-0.097l1.205,0c0.491,0 0.971,0.011 1.44,0.033c0.468,0.022 0.905,0.032 1.305,0.032c0.626,0.043 1.174,0.076 1.641,0.097c0.469,0.022 0.793,0.033 0.972,0.033c0.089,0 0.324,-0.011 0.703,-0.033c0.379,-0.021 0.815,-0.054 1.306,-0.097l1.474,0c0.312,-0.043 0.614,-0.065 0.903,-0.065c0.291,0 0.57,0 0.839,0c0.356,0 0.636,0.033 0.837,0.097c0.2,0.065 0.301,0.184 0.301,0.358c0,0.173 -0.066,0.293 -0.201,0.357c-0.135,0.065 -0.335,0.098 -0.602,0.098c-0.179,0 -0.515,0.021 -1.005,0.065c-0.492,0.043 -1.006,0.173 -1.542,0.39c-0.133,0.043 -0.255,0.087 -0.367,0.13c-0.112,0.044 -0.212,0.108 -0.302,0.195c-0.446,0.303 -0.948,0.845 -1.507,1.625c-0.558,0.78 -1.283,2.275 -2.177,4.496c-0.357,0.91 -1.273,3.077 -2.745,6.511c-1.475,3.424 -3.059,7.128 -4.756,11.127c-2.054,4.734 -3.818,8.796 -5.292,12.197c-1.473,3.413 -2.589,5.916 -3.348,7.519c-0.76,1.571 -1.296,2.697 -1.608,3.391c-0.312,0.693 -0.581,1.148 -0.803,1.365c-0.09,0.043 -0.157,0.076 -0.202,0.098c-0.044,0.022 -0.111,0.032 -0.201,0.032c-0.133,0 -0.256,-0.032 -0.368,-0.097c-0.111,-0.066 -0.212,-0.141 -0.301,-0.228c-0.224,-0.26 -0.459,-0.672 -0.704,-1.234c-0.245,-0.564 -0.591,-1.366 -1.038,-2.406l-16.409,-39.965c-0.179,-0.433 -0.358,-0.835 -0.536,-1.203c-0.179,-0.379 -0.358,-0.715 -0.536,-1.018c-0.491,-0.866 -1.027,-1.473 -1.608,-1.819c-0.58,-0.348 -1.294,-0.651 -2.143,-0.911c-0.089,0 -0.167,-0.011 -0.234,-0.033c-0.067,-0.022 -0.145,-0.054 -0.234,-0.097c-0.446,-0.044 -0.849,-0.076 -1.206,-0.098c-0.357,-0.021 -0.626,-0.032 -0.804,-0.032c-0.224,0 -0.368,-0.043 -0.436,-0.13c-0.067,-0.087 -0.099,-0.196 -0.099,-0.325c0,-0.217 0.156,-0.347 0.468,-0.39c0.312,-0.043 0.715,-0.065 1.206,-0.065l1.674,0c0.535,0 1.071,0.011 1.607,0.033c0.536,0.022 1.05,0.032 1.541,0.032c0.715,0.043 1.351,0.076 1.909,0.097c0.558,0.022 0.926,0.033 1.105,0.033c0.178,0 0.481,-0.011 0.904,-0.033c0.425,-0.021 0.927,-0.054 1.507,-0.097c0.402,0 0.815,-0.01 1.24,-0.032c0.423,-0.022 0.859,-0.033 1.305,-0.033l1.273,0c0.626,0 1.083,0.033 1.373,0.097c0.29,0.065 0.435,0.184 0.435,0.358c0,0.173 -0.055,0.293 -0.166,0.357c-0.113,0.065 -0.28,0.098 -0.503,0.098c-0.178,0 -0.368,0 -0.569,0c-0.201,0 -0.391,0.021 -0.57,0.065c-0.267,0 -0.525,0.021 -0.77,0.065c-0.245,0.043 -0.458,0.108 -0.637,0.195c-0.268,0.13 -0.468,0.282 -0.603,0.455c-0.133,0.173 -0.222,0.346 -0.267,0.52l0,0.325c0,0.434 0.178,1.127 0.536,2.08c0.357,0.953 0.78,2.059 1.272,3.315l0,-0.065Zm49.599,17.9l0,8.815c0,2.434 0.008,4.592 0.026,6.483c0.016,1.883 0.094,3.359 0.232,4.433c0.068,0.734 0.231,1.35 0.489,1.85c0.258,0.5 0.764,0.8 1.519,0.9c0.138,0.033 0.283,0.058 0.438,0.075c0.155,0.016 0.318,0.025 0.489,0.025c0.275,0.034 0.541,0.059 0.799,0.075c0.258,0.017 0.455,0.025 0.593,0.025c0.172,0 0.282,0.033 0.334,0.1c0.052,0.067 0.078,0.134 0.078,0.2c0,0.134 -0.07,0.226 -0.206,0.275c-0.138,0.05 -0.344,0.075 -0.619,0.075l-1.03,0c-0.55,0 -1.09,-0.008 -1.622,-0.025c-0.533,-0.017 -1.022,-0.025 -1.47,-0.025c-0.617,-0.033 -1.124,-0.059 -1.519,-0.074c-0.395,-0.018 -0.627,-0.026 -0.695,-0.026c-0.069,0 -0.3,0.008 -0.695,0.026c-0.395,0.015 -0.851,0.041 -1.366,0.074l-0.875,0c-0.378,0 -0.756,0.008 -1.134,0.025c-0.377,0.017 -0.703,0.025 -0.98,0.025c-0.274,0 -0.48,-0.025 -0.616,-0.075c-0.138,-0.049 -0.207,-0.141 -0.207,-0.275c0,-0.066 0.034,-0.133 0.103,-0.2c0.069,-0.067 0.172,-0.1 0.309,-0.1c0.103,0 0.223,-0.008 0.361,-0.025c0.138,-0.016 0.275,-0.025 0.412,-0.025c0.137,-0.034 0.274,-0.059 0.412,-0.075c0.137,-0.017 0.257,-0.042 0.361,-0.075c0.515,-0.1 0.867,-0.4 1.055,-0.9c0.189,-0.5 0.336,-1.116 0.439,-1.85c0.136,-1.074 0.214,-2.55 0.232,-4.433c0.017,-1.891 0.025,-4.032 0.025,-6.432l0,-8.866c0,-3.733 0,-6.25 0,-7.533c0,-1.283 -0.035,-2.307 -0.103,-3.082l0,-0.15c-0.034,-0.867 -0.188,-1.517 -0.464,-1.95c-0.274,-0.434 -0.703,-0.717 -1.288,-0.85c-0.068,-0.033 -0.136,-0.059 -0.205,-0.076c-0.069,-0.016 -0.137,-0.025 -0.207,-0.025c-0.24,-0.033 -0.462,-0.058 -0.669,-0.074c-0.206,-0.017 -0.378,-0.025 -0.516,-0.025c-0.103,0 -0.197,-0.025 -0.282,-0.076c-0.087,-0.049 -0.129,-0.125 -0.129,-0.224c0,-0.167 0.068,-0.275 0.206,-0.325c0.137,-0.051 0.343,-0.076 0.617,-0.076c0.276,0 0.602,0 0.98,0c0.378,0 0.755,0.017 1.132,0.05l1.031,0c0.515,0.034 0.971,0.059 1.366,0.076c0.395,0.016 0.626,0.024 0.695,0.024c0.068,0 0.3,-0.008 0.695,-0.024c0.395,-0.017 0.85,-0.042 1.365,-0.076l0.877,0c0.377,0 0.755,-0.007 1.133,-0.025c0.378,-0.016 0.704,-0.025 0.979,-0.025c0.274,0 0.48,0.025 0.617,0.076c0.138,0.05 0.206,0.158 0.206,0.325c0,0.099 -0.042,0.175 -0.128,0.224c-0.086,0.051 -0.18,0.076 -0.283,0.076l-0.155,0c-0.137,0 -0.292,0.016 -0.463,0.05c-0.172,0.033 -0.395,0.066 -0.671,0.1c-0.686,0.133 -1.159,0.424 -1.416,0.874c-0.258,0.45 -0.421,1.109 -0.49,1.976l0,0.15c-0.068,0.775 -0.102,1.799 -0.102,3.082c0,1.283 0,3.816 0,7.583l0,-0.05Zm22.666,0l0,8.916c0,3.7 0.078,6.433 0.232,8.183c0.155,1.758 0.455,2.866 0.901,3.332c0.413,0.4 1.048,0.692 1.907,0.875c0.858,0.183 2.284,0.275 4.276,0.275c1.374,0 2.601,-0.066 3.682,-0.2c1.083,-0.133 1.933,-0.566 2.551,-1.299c0.206,-0.234 0.394,-0.509 0.567,-0.826c0.171,-0.317 0.309,-0.624 0.412,-0.925c0.102,-0.233 0.18,-0.449 0.232,-0.65c0.051,-0.2 0.094,-0.399 0.128,-0.599c0.035,-0.201 0.086,-0.359 0.155,-0.476c0.069,-0.116 0.172,-0.175 0.31,-0.175c0.136,0 0.222,0.059 0.256,0.175c0.035,0.117 0.052,0.308 0.052,0.575c0,0.168 -0.034,0.526 -0.103,1.075c-0.069,0.55 -0.137,1.142 -0.205,1.775c-0.069,0.4 -0.147,0.792 -0.232,1.176c-0.087,0.382 -0.163,0.707 -0.233,0.974c0,0.033 -0.008,0.075 -0.025,0.125c-0.017,0.05 -0.043,0.092 -0.077,0.125c-0.138,0.466 -0.378,0.758 -0.722,0.875c-0.343,0.117 -1.151,0.175 -2.421,0.175c-1.855,0 -3.478,-0.017 -4.868,-0.05c-1.391,-0.033 -2.619,-0.067 -3.684,-0.1c-1.099,-0.033 -2.06,-0.066 -2.885,-0.101c-0.824,-0.033 -1.614,-0.049 -2.37,-0.049c-0.102,0 -0.351,0.008 -0.747,0.026c-0.395,0.015 -0.849,0.041 -1.365,0.074l-0.824,0c-0.377,0 -0.756,0.008 -1.133,0.025c-0.378,0.017 -0.704,0.025 -0.979,0.025c-0.275,0 -0.48,-0.025 -0.618,-0.075c-0.138,-0.049 -0.206,-0.141 -0.206,-0.275c0,-0.066 0.034,-0.133 0.103,-0.2c0.069,-0.067 0.171,-0.1 0.309,-0.1c0.104,0 0.224,-0.008 0.361,-0.025c0.137,-0.016 0.274,-0.025 0.412,-0.025c0.137,-0.034 0.274,-0.059 0.412,-0.075c0.137,-0.017 0.258,-0.042 0.36,-0.075c0.516,-0.1 0.868,-0.4 1.056,-0.9c0.19,-0.5 0.336,-1.116 0.438,-1.85c0.138,-1.074 0.215,-2.55 0.233,-4.433c0.016,-1.891 0.025,-4.032 0.025,-6.432l0,-8.866c0,-3.733 0,-6.25 0,-7.533c0,-1.283 -0.034,-2.307 -0.104,-3.082l0,-0.15c-0.034,-0.867 -0.197,-1.517 -0.488,-1.95c-0.292,-0.434 -0.868,-0.733 -1.726,-0.9c-0.104,-0.034 -0.24,-0.059 -0.412,-0.076c-0.173,-0.016 -0.343,-0.024 -0.515,-0.024c-0.138,-0.034 -0.284,-0.05 -0.438,-0.05c-0.155,0 -0.283,0 -0.387,0c-0.102,0 -0.197,-0.025 -0.283,-0.076c-0.086,-0.049 -0.129,-0.125 -0.129,-0.224c0,-0.167 0.069,-0.275 0.206,-0.325c0.138,-0.051 0.344,-0.076 0.619,-0.076l1.751,0c0.343,0.033 0.678,0.05 1.004,0.05c0.326,0 0.644,0 0.953,0c0.55,0.034 1.022,0.059 1.417,0.076c0.395,0.016 0.627,0.024 0.695,0.024c0.069,0 0.327,-0.008 0.773,-0.024c0.447,-0.017 0.963,-0.042 1.546,-0.076l0.773,0c0.48,0 0.936,-0.007 1.365,-0.025c0.429,-0.016 0.798,-0.025 1.107,-0.025c0.276,0 0.482,0.025 0.618,0.076c0.138,0.05 0.207,0.158 0.207,0.325c0,0.099 -0.043,0.175 -0.129,0.224c-0.086,0.051 -0.18,0.076 -0.284,0.076c-0.136,0 -0.326,0.008 -0.567,0.025c-0.239,0.016 -0.48,0.041 -0.72,0.074c-0.069,0 -0.138,0.009 -0.207,0.025c-0.068,0.017 -0.137,0.026 -0.206,0.026c-0.755,0.133 -1.261,0.424 -1.519,0.874c-0.258,0.45 -0.421,1.109 -0.489,1.976l0,0.15c-0.07,0.775 -0.104,1.799 -0.104,3.082c0,1.283 0,3.816 0,7.583l0,-0.05Zm30.497,0l0,8.916c0,3.7 0.078,6.433 0.232,8.183c0.154,1.758 0.456,2.866 0.902,3.332c0.412,0.4 1.047,0.692 1.905,0.875c0.859,0.183 2.285,0.275 4.276,0.275c1.375,0 2.601,-0.066 3.684,-0.2c1.082,-0.133 1.932,-0.566 2.549,-1.299c0.207,-0.234 0.396,-0.509 0.569,-0.826c0.17,-0.317 0.308,-0.624 0.411,-0.925c0.103,-0.233 0.179,-0.449 0.232,-0.65c0.051,-0.2 0.094,-0.399 0.129,-0.599c0.034,-0.201 0.085,-0.359 0.155,-0.476c0.068,-0.116 0.17,-0.175 0.308,-0.175c0.138,0 0.224,0.059 0.258,0.175c0.034,0.117 0.051,0.308 0.051,0.575c0,0.168 -0.034,0.526 -0.103,1.075c-0.068,0.55 -0.138,1.142 -0.206,1.775c-0.068,0.4 -0.146,0.792 -0.232,1.176c-0.086,0.382 -0.162,0.707 -0.231,0.974c0,0.033 -0.009,0.075 -0.026,0.125c-0.017,0.05 -0.043,0.092 -0.077,0.125c-0.138,0.466 -0.379,0.758 -0.722,0.875c-0.343,0.117 -1.151,0.175 -2.42,0.175c-1.856,0 -3.478,-0.017 -4.869,-0.05c-1.391,-0.033 -2.619,-0.067 -3.684,-0.1c-1.099,-0.033 -2.06,-0.066 -2.885,-0.101c-0.824,-0.033 -1.614,-0.049 -2.369,-0.049c-0.103,0 -0.352,0.008 -0.747,0.026c-0.396,0.015 -0.85,0.041 -1.365,0.074l-0.825,0c-0.378,0 -0.755,0.008 -1.133,0.025c-0.378,0.017 -0.704,0.025 -0.979,0.025c-0.275,0 -0.481,-0.025 -0.617,-0.075c-0.138,-0.049 -0.208,-0.141 -0.208,-0.275c0,-0.066 0.035,-0.133 0.104,-0.2c0.069,-0.067 0.172,-0.1 0.308,-0.1c0.104,0 0.225,-0.008 0.362,-0.025c0.137,-0.016 0.275,-0.025 0.411,-0.025c0.138,-0.034 0.276,-0.059 0.413,-0.075c0.137,-0.017 0.258,-0.042 0.36,-0.075c0.516,-0.1 0.867,-0.4 1.057,-0.9c0.189,-0.5 0.335,-1.116 0.437,-1.85c0.138,-1.074 0.215,-2.55 0.233,-4.433c0.017,-1.891 0.025,-4.032 0.025,-6.432l0,-8.866c0,-3.733 0,-6.25 0,-7.533c0,-1.283 -0.034,-2.307 -0.103,-3.082l0,-0.15c-0.035,-0.867 -0.198,-1.517 -0.49,-1.95c-0.292,-0.434 -0.867,-0.733 -1.725,-0.9c-0.103,-0.034 -0.24,-0.059 -0.412,-0.076c-0.172,-0.016 -0.343,-0.024 -0.515,-0.024c-0.137,-0.034 -0.283,-0.05 -0.439,-0.05c-0.154,0 -0.283,0 -0.386,0c-0.102,0 -0.197,-0.025 -0.283,-0.076c-0.086,-0.049 -0.128,-0.125 -0.128,-0.224c0,-0.167 0.068,-0.275 0.205,-0.325c0.137,-0.051 0.344,-0.076 0.618,-0.076l1.752,0c0.344,0.033 0.678,0.05 1.005,0.05c0.326,0 0.643,0 0.953,0c0.549,0.034 1.021,0.059 1.416,0.076c0.396,0.016 0.627,0.024 0.696,0.024c0.068,0 0.326,-0.008 0.773,-0.024c0.446,-0.017 0.961,-0.042 1.545,-0.076l0.773,0c0.481,0 0.935,-0.007 1.365,-0.025c0.429,-0.016 0.798,-0.025 1.108,-0.025c0.275,0 0.48,0.025 0.617,0.076c0.138,0.05 0.207,0.158 0.207,0.325c0,0.099 -0.043,0.175 -0.129,0.224c-0.086,0.051 -0.18,0.076 -0.283,0.076c-0.137,0 -0.326,0.008 -0.567,0.025c-0.24,0.016 -0.481,0.041 -0.721,0.074c-0.069,0 -0.137,0.009 -0.207,0.025c-0.068,0.017 -0.137,0.026 -0.206,0.026c-0.755,0.133 -1.261,0.424 -1.519,0.874c-0.257,0.45 -0.421,1.109 -0.489,1.976l0,0.15c-0.069,0.775 -0.104,1.799 -0.104,3.082c0,1.283 0,3.816 0,7.583l0,-0.05Zm22.41,17.831l11.694,-31.047c0.24,-0.633 0.429,-1.083 0.567,-1.35c0.138,-0.266 0.274,-0.433 0.412,-0.5c0,-0.033 0.016,-0.049 0.052,-0.049l0.205,0c0.035,0 0.051,0.016 0.051,0.049c0.138,0.034 0.275,0.175 0.413,0.425c0.137,0.251 0.326,0.692 0.566,1.326c0.241,0.566 1.013,2.517 2.319,5.85c1.305,3.331 2.73,6.931 4.276,10.798c1.03,2.633 2.035,5.157 3.013,7.575c0.979,2.416 1.777,4.39 2.395,5.924c0.928,2.233 1.761,3.674 2.499,4.324c0.739,0.651 1.383,1.058 1.932,1.225c0.378,0.133 0.755,0.216 1.133,0.25c0.378,0.033 0.687,0.05 0.927,0.05c0.172,0 0.301,0.017 0.386,0.05c0.087,0.034 0.129,0.117 0.129,0.25c0,0.134 -0.102,0.226 -0.308,0.275c-0.207,0.05 -0.447,0.075 -0.721,0.075c-0.379,0 -1.288,0 -2.731,0c-1.442,0 -3.005,-0.033 -4.688,-0.101l-1.082,0c-0.343,-0.033 -0.618,-0.057 -0.823,-0.074c-0.207,-0.017 -0.311,-0.092 -0.311,-0.226c0,-0.099 0.036,-0.174 0.104,-0.224c0.069,-0.05 0.154,-0.091 0.257,-0.125c0,0 0.01,0 0.026,0c0.018,0 0.044,-0.017 0.078,-0.05c0.068,-0.033 0.145,-0.109 0.232,-0.225c0.086,-0.116 0.11,-0.275 0.076,-0.476l0,-0.199c0,-0.066 -0.007,-0.133 -0.025,-0.2c-0.017,-0.066 -0.043,-0.133 -0.077,-0.2l-4.791,-12.348c-0.034,-0.068 -0.086,-0.126 -0.155,-0.175c-0.069,-0.051 -0.171,-0.076 -0.309,-0.076l-11.076,0c-0.137,0.033 -0.241,0.084 -0.309,0.15c-0.068,0.066 -0.137,0.167 -0.206,0.3l-3.091,8.767c-0.24,0.658 -0.421,1.275 -0.541,1.841c-0.12,0.558 -0.18,1.075 -0.18,1.541c0,0.433 0.162,0.759 0.49,0.975c0.325,0.216 0.677,0.358 1.055,0.425c0.069,0.033 0.138,0.05 0.207,0.05c0.068,0 0.137,0 0.206,0l0.515,-0.05c0.171,0.033 0.3,0.075 0.386,0.125c0.086,0.05 0.128,0.126 0.128,0.225c0,0.134 -0.068,0.226 -0.206,0.275c-0.137,0.05 -0.326,0.075 -0.567,0.075c-0.24,0 -0.497,-0.008 -0.772,-0.025c-0.275,-0.017 -0.567,-0.025 -0.875,-0.025l-0.619,0c-0.377,-0.033 -0.729,-0.059 -1.055,-0.074c-0.327,-0.018 -0.559,-0.026 -0.696,-0.026c-0.137,0 -0.404,0.008 -0.799,0.026c-0.395,0.015 -0.867,0.041 -1.416,0.074c-0.378,0 -0.773,0.008 -1.186,0.025c-0.412,0.017 -0.841,0.025 -1.287,0.025l-1.082,0c-0.343,0 -0.592,-0.025 -0.746,-0.075c-0.156,-0.049 -0.232,-0.141 -0.232,-0.275c0,-0.099 0.042,-0.175 0.128,-0.225c0.086,-0.05 0.198,-0.075 0.334,-0.075c0.104,0 0.224,0 0.361,0c0.138,0 0.276,-0.017 0.412,-0.05c0.104,0 0.215,-0.008 0.335,-0.024c0.121,-0.018 0.232,-0.026 0.335,-0.026c1.202,-0.167 2.113,-0.683 2.73,-1.55c0.619,-0.866 1.151,-1.917 1.598,-3.149l0,-0.051Zm7.211,-11.049l9.841,0c0.136,0 0.214,-0.025 0.232,-0.074c0.016,-0.05 0.008,-0.126 -0.027,-0.225l-4.894,-13.549c-0.137,-0.333 -0.266,-0.5 -0.386,-0.5c-0.12,0 -0.249,0.183 -0.387,0.55l-4.533,13.448c-0.034,0.068 -0.052,0.117 -0.052,0.15c0,0.033 0,0.068 0,0.101c0,0.033 0.027,0.059 0.078,0.074c0.052,0.018 0.094,0.025 0.128,0.025Z" style="fill:#008882;fill-rule:nonzero;"/><path d="M337.701,138.735c-77.247,-65.869 -202.564,30.909 -264.259,-29.745c59.151,75.024 170.186,-26.52 264.259,29.745Z" style="fill:#008882;"/><path d="M277.876,232.61l170.13,0l0,-24.999l-184.301,0l0,16.302c0,7.564 6.377,8.697 14.171,8.697Z" style="fill:#643e69;"/><path d="M271.42,224.18l4.17,0l0,1.307l-6.45,0l0,-1.345c1.653,-1.371 2.79,-2.428 3.409,-3.167c0.618,-0.741 0.928,-1.38 0.928,-1.918c0,-0.371 -0.154,-0.67 -0.461,-0.901c-0.308,-0.229 -0.71,-0.343 -1.206,-0.343c-0.35,0 -0.723,0.052 -1.117,0.161c-0.394,0.107 -0.781,0.263 -1.164,0.466l-0.11,-1.46c0.507,-0.185 0.991,-0.325 1.46,-0.422c0.467,-0.096 0.898,-0.142 1.295,-0.142c0.944,0 1.709,0.232 2.297,0.698c0.588,0.463 0.881,1.059 0.881,1.785c0,0.718 -0.299,1.48 -0.893,2.288c-0.594,0.807 -1.607,1.804 -3.039,2.993Zm13.916,-2.639l0,2.652l1.024,0c0.665,0 1.171,-0.115 1.518,-0.344c0.348,-0.23 0.523,-0.563 0.523,-1.001c0,-0.425 -0.161,-0.749 -0.486,-0.972c-0.321,-0.225 -0.795,-0.335 -1.417,-0.335l-1.162,0Zm0,-3.69l0,2.447l0.907,0c0.63,0 1.106,-0.104 1.432,-0.311c0.324,-0.211 0.488,-0.512 0.488,-0.906c0,-0.404 -0.152,-0.709 -0.458,-0.919c-0.305,-0.207 -0.753,-0.311 -1.345,-0.311l-1.024,0Zm-1.889,-1.256l3.22,0c1.118,0 1.964,0.194 2.545,0.585c0.578,0.391 0.868,0.964 0.868,1.717c0,0.485 -0.159,0.897 -0.474,1.241c-0.314,0.341 -0.76,0.583 -1.334,0.726c0.67,0.124 1.183,0.371 1.54,0.743c0.356,0.371 0.534,0.842 0.534,1.409c0,0.805 -0.318,1.419 -0.954,1.839c-0.636,0.421 -1.57,0.632 -2.799,0.632l-3.146,0l0,-8.892Zm8.814,0l1.918,0l0,3.601l3.778,0l0,-3.601l1.917,0l0,8.892l-1.917,0l0,-3.934l-3.778,0l0,3.934l-1.918,0l0,-8.892Zm9.991,0l1.917,0l0,3.88l3.573,-3.88l2.192,0l-4.002,4.124l4.38,4.768l-2.419,0l-3.724,-4.256l0,4.256l-1.917,0l0,-8.892Zm17.12,0l1.916,0l0,7.535l3.891,0l0,1.357l-5.807,0l0,-8.892Zm6.956,0l1.917,0l0,5.211c0,0.863 0.158,1.497 0.475,1.898c0.316,0.404 0.812,0.605 1.484,0.605c0.679,0 1.192,-0.217 1.536,-0.647c0.348,-0.431 0.521,-1.072 0.521,-1.918l0,-5.149l1.804,0l0,5.162c0,1.301 -0.323,2.279 -0.974,2.929c-0.649,0.654 -1.621,0.98 -2.915,0.98c-1.272,0 -2.23,-0.322 -2.878,-0.969c-0.646,-0.647 -0.97,-1.601 -0.97,-2.865l0,-5.237Zm9.453,0l2.241,0l2.071,3.342l2.018,-3.342l2.082,0l-3.046,4.231l3.368,4.661l-2.248,0l-2.337,-3.692l-2.386,3.692l-2.111,0l3.417,-4.661l-3.069,-4.231Zm10.021,0l1.916,0l0,5.211c0,0.863 0.159,1.497 0.476,1.898c0.316,0.404 0.812,0.605 1.483,0.605c0.68,0 1.192,-0.217 1.537,-0.647c0.348,-0.431 0.52,-1.072 0.52,-1.918l0,-5.149l1.806,0l0,5.162c0,1.301 -0.324,2.279 -0.975,2.929c-0.649,0.654 -1.622,0.98 -2.915,0.98c-1.272,0 -2.23,-0.322 -2.879,-0.969c-0.645,-0.647 -0.969,-1.601 -0.969,-2.865l0,-5.237Zm12.016,1.243l0,2.678l0.984,0c0.621,0 1.099,-0.118 1.434,-0.35c0.339,-0.233 0.506,-0.566 0.506,-0.995c0,-0.46 -0.167,-0.798 -0.501,-1.011c-0.336,-0.215 -0.863,-0.322 -1.584,-0.322l-0.839,0Zm-1.888,-1.243l3.18,0c1.182,0 2.071,0.19 2.661,0.572c0.593,0.383 0.889,0.955 0.889,1.72c0,0.572 -0.175,1.044 -0.525,1.417c-0.35,0.375 -0.851,0.624 -1.502,0.75c0.278,0.083 0.502,0.207 0.671,0.374c0.171,0.167 0.363,0.488 0.572,0.97l1.344,3.089l-2.013,0l-1.094,-2.69c-0.154,-0.387 -0.354,-0.658 -0.6,-0.81c-0.246,-0.151 -0.61,-0.228 -1.094,-0.228l-0.601,0l0,3.728l-1.888,0l0,-8.892Zm8.739,0l1.918,0l0,8.892l-1.918,0l0,-8.892Zm8.463,1.128c-0.793,0 -1.432,0.299 -1.917,0.897c-0.485,0.598 -0.728,1.396 -0.728,2.394c0,0.999 0.243,1.802 0.725,2.404c0.483,0.602 1.122,0.903 1.92,0.903c0.797,0 1.439,-0.303 1.926,-0.907c0.488,-0.605 0.733,-1.406 0.733,-2.4c0,-0.993 -0.245,-1.79 -0.733,-2.39c-0.487,-0.6 -1.129,-0.901 -1.926,-0.901Zm0,-1.321c1.424,0 2.549,0.413 3.37,1.24c0.822,0.826 1.233,1.958 1.233,3.395c0,1.443 -0.409,2.575 -1.227,3.398c-0.815,0.822 -1.942,1.231 -3.376,1.231c-1.429,0 -2.551,-0.409 -3.367,-1.231c-0.815,-0.823 -1.223,-1.955 -1.223,-3.398c0,-1.446 0.408,-2.58 1.227,-3.401c0.816,-0.823 1.938,-1.234 3.363,-1.234Zm6.49,0.193l1.917,0l0,5.211c0,0.863 0.158,1.497 0.475,1.898c0.316,0.404 0.812,0.605 1.484,0.605c0.678,0 1.191,-0.217 1.536,-0.647c0.347,-0.431 0.52,-1.072 0.52,-1.918l0,-5.149l1.806,0l0,5.162c0,1.301 -0.324,2.279 -0.975,2.929c-0.649,0.654 -1.621,0.98 -2.915,0.98c-1.272,0 -2.23,-0.322 -2.878,-0.969c-0.647,-0.647 -0.97,-1.601 -0.97,-2.865l0,-5.237Zm15.794,0.232l-0.163,1.397c-0.367,-0.149 -0.728,-0.262 -1.085,-0.337c-0.359,-0.074 -0.713,-0.114 -1.064,-0.114c-0.515,0 -0.915,0.088 -1.202,0.261c-0.287,0.173 -0.431,0.415 -0.431,0.728c0,0.387 0.519,0.821 1.557,1.301c0.1,0.045 0.178,0.081 0.234,0.107c0.969,0.449 1.634,0.875 1.987,1.279c0.353,0.402 0.531,0.884 0.531,1.448c0,0.82 -0.343,1.492 -1.026,2.014c-0.683,0.52 -1.581,0.781 -2.691,0.781c-0.458,0 -1.225,-0.149 -2.305,-0.45c-0.114,-0.034 -0.201,-0.06 -0.259,-0.082l0.178,-1.52c0.546,0.246 1.002,0.42 1.371,0.526c0.368,0.104 0.707,0.155 1.009,0.155c0.517,0 0.934,-0.109 1.256,-0.329c0.319,-0.217 0.48,-0.495 0.48,-0.828c0,-0.433 -0.52,-0.907 -1.558,-1.425l-0.163,-0.08c-0.042,-0.022 -0.108,-0.054 -0.199,-0.094c-0.769,-0.377 -1.31,-0.718 -1.622,-1.028c-0.225,-0.215 -0.395,-0.464 -0.508,-0.737c-0.117,-0.275 -0.176,-0.568 -0.176,-0.877c0,-0.755 0.322,-1.363 0.968,-1.827c0.644,-0.463 1.507,-0.694 2.586,-0.694c0.418,0 1.029,0.103 1.831,0.309c0.21,0.052 0.364,0.094 0.464,0.116Zm10.434,-0.232l5.652,0l0,1.294l-3.722,0l0,2.421l3.555,0l0,1.307l-3.555,0l0,3.87l-1.93,0l0,-8.892Zm7.388,0l1.916,0l0,7.535l3.89,0l0,1.357l-5.806,0l0,-8.892Zm11.008,1.484l-1.625,4l3.188,0l-1.563,-4Zm-1.121,-1.484l2.308,0l3.75,8.892l-2.061,0l-0.807,-2.1l-4.228,0l-0.84,2.1l-1.9,0l3.778,-8.892Zm5.684,0l7.066,0l0,1.371l-2.588,0l0,7.521l-1.917,0l0,-7.521l-2.561,0l0,-1.371Zm14.155,0.232l-0.162,1.397c-0.367,-0.149 -0.729,-0.262 -1.085,-0.337c-0.36,-0.074 -0.714,-0.114 -1.063,-0.114c-0.516,0 -0.917,0.088 -1.204,0.261c-0.287,0.173 -0.431,0.415 -0.431,0.728c0,0.387 0.52,0.821 1.558,1.301c0.099,0.045 0.177,0.081 0.233,0.107c0.969,0.449 1.635,0.875 1.986,1.279c0.355,0.402 0.532,0.884 0.532,1.448c0,0.82 -0.342,1.492 -1.025,2.014c-0.684,0.52 -1.582,0.781 -2.693,0.781c-0.456,0 -1.224,-0.149 -2.303,-0.45c-0.114,-0.034 -0.201,-0.06 -0.259,-0.082l0.177,-1.52c0.546,0.246 1.003,0.42 1.371,0.526c0.369,0.104 0.707,0.155 1.01,0.155c0.516,0 0.933,-0.109 1.254,-0.329c0.32,-0.217 0.482,-0.495 0.482,-0.828c0,-0.433 -0.521,-0.907 -1.559,-1.425l-0.162,-0.08c-0.043,-0.022 -0.108,-0.054 -0.199,-0.094c-0.77,-0.377 -1.311,-0.718 -1.623,-1.028c-0.224,-0.215 -0.395,-0.464 -0.508,-0.737c-0.117,-0.275 -0.175,-0.568 -0.175,-0.877c0,-0.755 0.322,-1.363 0.967,-1.827c0.644,-0.463 1.507,-0.694 2.587,-0.694c0.417,0 1.028,0.103 1.831,0.309c0.21,0.052 0.363,0.094 0.463,0.116Z" style="fill:#fff;fill-rule:nonzero;"/><path d="M343.025,130.482c3.093,0.951 3.632,6.123 -0.064,9.631c-1.826,1.752 -5.861,3.515 -9.554,4.332c-3.37,0.801 -5.819,1.953 -5.826,1.986c-0.034,-0.003 2.531,-1.407 3.988,-4.266c1.627,-3.086 2.485,-6.59 3.404,-8.168c1.802,-3.053 4.901,-4.505 8.052,-3.515Zm-6.225,3.985c-1.295,1.722 -1.546,4.007 -0.202,5.303c1.291,1.26 3.953,0.797 5.603,-1.375c1.704,-2.136 1.405,-4.843 -0.242,-5.623c-1.701,-0.821 -3.804,0.015 -5.159,1.695Z" style="fill:#643e69;"/><path d="M57.263,143.247l12.86,33.28c0.804,-1.733 1.764,-3.954 2.88,-6.662c1.117,-2.708 2.277,-5.558 3.483,-8.548c0.089,-0.26 0.189,-0.509 0.301,-0.747c0.112,-0.239 0.212,-0.488 0.301,-0.748c1.653,-4.16 3.193,-8.092 4.622,-11.797c1.428,-3.705 2.344,-6.208 2.746,-7.508c0.179,-0.477 0.324,-0.931 0.435,-1.364c0.112,-0.434 0.168,-0.802 0.168,-1.106c0,-0.087 0,-0.162 0,-0.227c0,-0.065 -0.023,-0.141 -0.067,-0.228c-0.045,-0.216 -0.134,-0.412 -0.268,-0.585c-0.134,-0.173 -0.313,-0.324 -0.536,-0.455c-0.178,-0.043 -0.357,-0.087 -0.535,-0.13c-0.179,-0.043 -0.38,-0.064 -0.604,-0.064c-0.223,-0.044 -0.457,-0.066 -0.702,-0.066c-0.246,0 -0.48,0 -0.704,0c-0.179,0 -0.346,-0.021 -0.503,-0.065c-0.156,-0.043 -0.234,-0.152 -0.234,-0.325c0,-0.216 0.112,-0.358 0.336,-0.423c0.222,-0.064 0.602,-0.097 1.138,-0.097l1.205,0c0.491,0 0.971,0.011 1.44,0.033c0.469,0.021 0.904,0.032 1.307,0.032c0.625,0.044 1.172,0.076 1.64,0.097c0.47,0.022 0.792,0.033 0.971,0.033c0.089,0 0.324,-0.011 0.703,-0.033c0.38,-0.021 0.815,-0.053 1.307,-0.097l1.473,0c0.313,-0.043 0.614,-0.065 0.905,-0.065c0.289,0 0.569,0 0.837,0c0.357,0 0.636,0.033 0.837,0.097c0.201,0.065 0.301,0.185 0.301,0.358c0,0.174 -0.066,0.293 -0.201,0.358c-0.134,0.064 -0.335,0.097 -0.602,0.097c-0.179,0 -0.514,0.022 -1.005,0.066c-0.491,0.043 -1.004,0.172 -1.54,0.39c-0.135,0.043 -0.257,0.086 -0.369,0.129c-0.111,0.044 -0.212,0.109 -0.301,0.196c-0.447,0.303 -0.95,0.844 -1.507,1.624c-0.558,0.78 -1.284,2.276 -2.178,4.496c-0.357,0.91 -1.271,3.077 -2.745,6.511c-1.473,3.423 -3.059,7.128 -4.756,11.126c-2.054,4.734 -3.818,8.796 -5.29,12.198c-1.474,3.413 -2.59,5.915 -3.35,7.518c-0.758,1.571 -1.294,2.697 -1.607,3.391c-0.312,0.694 -0.58,1.148 -0.804,1.365c-0.089,0.043 -0.156,0.076 -0.2,0.098c-0.045,0.022 -0.112,0.032 -0.201,0.032c-0.135,0 -0.257,-0.032 -0.369,-0.097c-0.111,-0.066 -0.212,-0.141 -0.302,-0.228c-0.222,-0.26 -0.457,-0.672 -0.702,-1.234c-0.247,-0.564 -0.592,-1.366 -1.038,-2.406l-16.41,-39.963c-0.178,-0.434 -0.357,-0.836 -0.535,-1.204c-0.179,-0.379 -0.357,-0.714 -0.536,-1.018c-0.492,-0.866 -1.028,-1.473 -1.608,-1.82c-0.58,-0.346 -1.295,-0.65 -2.143,-0.91c-0.089,0 -0.168,-0.01 -0.234,-0.032c-0.067,-0.022 -0.146,-0.055 -0.235,-0.098c-0.446,-0.043 -0.848,-0.076 -1.206,-0.097c-0.357,-0.022 -0.625,-0.033 -0.804,-0.033c-0.222,0 -0.368,-0.043 -0.434,-0.13c-0.067,-0.087 -0.1,-0.194 -0.1,-0.325c0,-0.216 0.155,-0.346 0.467,-0.39c0.314,-0.043 0.715,-0.065 1.207,-0.065l1.674,0c0.536,0 1.071,0.011 1.607,0.033c0.536,0.021 1.049,0.032 1.541,0.032c0.714,0.044 1.35,0.076 1.909,0.097c0.558,0.022 0.926,0.033 1.105,0.033c0.178,0 0.479,-0.011 0.904,-0.033c0.425,-0.021 0.926,-0.053 1.507,-0.097c0.401,0 0.814,-0.011 1.239,-0.032c0.424,-0.022 0.859,-0.033 1.305,-0.033l1.273,0c0.625,0 1.083,0.033 1.373,0.097c0.291,0.065 0.436,0.185 0.436,0.358c0,0.174 -0.056,0.293 -0.168,0.358c-0.112,0.064 -0.279,0.097 -0.503,0.097c-0.178,0 -0.368,0 -0.569,0c-0.2,0 -0.39,0.022 -0.569,0.066c-0.267,0 -0.524,0.021 -0.77,0.064c-0.246,0.043 -0.457,0.108 -0.636,0.195c-0.268,0.131 -0.469,0.282 -0.603,0.456c-0.134,0.172 -0.223,0.346 -0.267,0.519l0,0.325c0,0.434 0.178,1.127 0.535,2.08c0.358,0.954 0.782,2.058 1.272,3.315l0,-0.065Zm45.271,26.715l0,-8.816c0,-3.733 0,-6.249 0,-7.533c0,-1.283 -0.034,-2.307 -0.104,-3.082l0,-0.15c-0.034,-0.867 -0.197,-1.516 -0.489,-1.95c-0.292,-0.433 -0.867,-0.733 -1.725,-0.9c-0.103,-0.033 -0.241,-0.058 -0.413,-0.075c-0.172,-0.017 -0.343,-0.024 -0.515,-0.024c-0.138,-0.035 -0.284,-0.051 -0.438,-0.051c-0.154,0 -0.283,0 -0.386,0c-0.103,0 -0.197,-0.025 -0.283,-0.076c-0.086,-0.048 -0.13,-0.124 -0.13,-0.224c0,-0.167 0.07,-0.275 0.206,-0.325c0.138,-0.05 0.345,-0.075 0.619,-0.075l1.751,0c0.344,0.033 0.679,0.05 1.006,0.05c0.326,0 0.643,0 0.953,0c0.549,0.033 1.021,0.058 1.416,0.075c0.394,0.017 0.626,0.025 0.696,0.025c0.137,0 0.454,-0.008 0.953,-0.025c0.497,-0.017 1.073,-0.042 1.725,-0.075l0.67,0c0.515,0 1.013,-0.008 1.493,-0.025c0.481,-0.016 0.893,-0.025 1.237,-0.025c0.377,0 0.747,0.009 1.108,0.025c0.36,0.017 0.713,0.025 1.055,0.025c1.305,0.067 2.576,0.259 3.812,0.574c1.237,0.318 2.388,0.843 3.452,1.575c0.206,0.134 0.421,0.3 0.644,0.501c0.224,0.2 0.455,0.433 0.695,0.7c0.55,0.633 1.057,1.424 1.52,2.383c0.464,0.949 0.696,2.025 0.696,3.225c0,1.841 -0.456,3.707 -1.365,5.607c-0.911,1.9 -2.533,3.891 -4.869,5.958c2.13,2.641 4.078,5.042 5.848,7.207c1.768,2.176 3.391,4.041 4.867,5.608c1.409,1.441 2.645,2.375 3.71,2.808c1.065,0.434 1.923,0.701 2.575,0.8c0.481,0.067 0.902,0.109 1.263,0.125c0.36,0.017 0.609,0.025 0.747,0.025c0.136,0 0.249,0.033 0.335,0.1c0.085,0.067 0.128,0.134 0.128,0.2c0,0.134 -0.085,0.225 -0.257,0.275c-0.172,0.05 -0.499,0.075 -0.979,0.075l-3.658,0c-1.408,0 -2.498,-0.058 -3.271,-0.175c-0.773,-0.117 -1.486,-0.341 -2.138,-0.675c0,0 -0.009,-0.008 -0.026,-0.024c-0.017,-0.018 -0.043,-0.025 -0.077,-0.025c-0.309,-0.167 -0.601,-0.35 -0.875,-0.551c-0.276,-0.2 -0.55,-0.417 -0.824,-0.65c-0.791,-0.666 -1.598,-1.517 -2.423,-2.549c-0.823,-1.033 -1.768,-2.233 -2.833,-3.6c-0.171,-0.2 -0.343,-0.416 -0.514,-0.65c-0.173,-0.233 -0.344,-0.45 -0.515,-0.65c-0.07,-0.1 -0.146,-0.208 -0.233,-0.325c-0.086,-0.117 -0.163,-0.224 -0.232,-0.325c-0.858,-1.1 -1.656,-2.158 -2.394,-3.174c-0.739,-1.017 -1.314,-1.775 -1.726,-2.275c-0.035,-0.034 -0.06,-0.059 -0.078,-0.075c-0.017,-0.017 -0.042,-0.042 -0.076,-0.076c-0.07,-0.033 -0.147,-0.066 -0.233,-0.099c-0.086,-0.033 -0.18,-0.05 -0.284,-0.05l-6.336,-0.15c-0.137,0.033 -0.231,0.083 -0.283,0.15c-0.051,0.066 -0.078,0.167 -0.078,0.3l0,1.15c0,2.433 0.01,4.591 0.027,6.474c0.017,1.883 0.094,3.358 0.231,4.424c0.069,0.734 0.233,1.35 0.489,1.85c0.258,0.501 0.765,0.8 1.52,0.9c0.138,0.033 0.284,0.058 0.438,0.075c0.155,0.016 0.318,0.026 0.49,0.026c0.275,0.033 0.541,0.058 0.798,0.074c0.257,0.017 0.456,0.025 0.593,0.025c0.171,0 0.283,0.033 0.335,0.1c0.051,0.067 0.077,0.134 0.077,0.2c0,0.134 -0.069,0.225 -0.206,0.275c-0.137,0.05 -0.343,0.075 -0.619,0.075l-1.03,0c-0.55,0 -1.09,-0.008 -1.623,-0.025c-0.532,-0.017 -1.021,-0.025 -1.468,-0.025c-0.618,-0.033 -1.125,-0.059 -1.519,-0.075c-0.395,-0.017 -0.627,-0.025 -0.696,-0.025c0,0 -0.179,0.008 -0.541,0.025c-0.361,0.016 -0.798,0.042 -1.314,0.075l-0.978,0c-0.378,0.033 -0.738,0.05 -1.082,0.05c-0.343,0 -0.653,0 -0.927,0c-0.275,0 -0.481,-0.025 -0.619,-0.075c-0.136,-0.05 -0.206,-0.141 -0.206,-0.275c0,-0.066 0.035,-0.133 0.104,-0.2c0.068,-0.067 0.172,-0.1 0.308,-0.1c0.104,0 0.224,-0.008 0.361,-0.025c0.138,-0.016 0.275,-0.025 0.412,-0.025c0.138,-0.033 0.275,-0.059 0.413,-0.075c0.137,-0.017 0.257,-0.042 0.36,-0.075c0.515,-0.1 0.867,-0.399 1.057,-0.9c0.188,-0.5 0.334,-1.116 0.437,-1.85c0.138,-1.074 0.214,-2.549 0.232,-4.433c0.017,-1.89 0.026,-4.032 0.026,-6.432l0,-0.05Zm4.12,-20.831l0,16.398c0,0.167 0.027,0.301 0.078,0.4c0.052,0.1 0.146,0.183 0.283,0.25c0.378,0.2 1.039,0.375 1.984,0.525c0.944,0.15 1.948,0.242 3.013,0.275l0.412,0c0.275,0 0.559,-0.008 0.851,-0.025c0.291,-0.017 0.593,-0.059 0.901,-0.125c0.343,-0.067 0.695,-0.158 1.056,-0.275c0.36,-0.117 0.712,-0.292 1.056,-0.525c0.893,-0.6 1.64,-1.566 2.241,-2.884c0.601,-1.324 0.901,-2.932 0.901,-4.84c0,-3.142 -0.798,-5.599 -2.395,-7.366c-1.597,-1.774 -3.77,-2.658 -6.517,-2.658c-0.755,0 -1.451,0.033 -2.086,0.099c-0.635,0.068 -1.091,0.134 -1.365,0.201c-0.137,0.033 -0.241,0.1 -0.309,0.2c-0.069,0.099 -0.104,0.233 -0.104,0.399l0,-0.049Zm31.734,19.323l0,-7.308c0,-3.733 0,-6.249 0,-7.533c0,-1.283 -0.034,-2.307 -0.103,-3.082l0,-0.15c-0.034,-0.867 -0.197,-1.516 -0.489,-1.95c-0.293,-0.433 -0.868,-0.733 -1.726,-0.9c-0.103,-0.033 -0.241,-0.058 -0.413,-0.075c-0.171,-0.017 -0.343,-0.024 -0.514,-0.024c-0.138,-0.035 -0.283,-0.051 -0.439,-0.051c-0.154,0 -0.282,0 -0.386,0c-0.103,0 -0.197,-0.025 -0.283,-0.076c-0.086,-0.048 -0.129,-0.124 -0.129,-0.224c0,-0.167 0.069,-0.275 0.207,-0.325c0.137,-0.05 0.343,-0.075 0.617,-0.075l1.752,0c0.31,0.033 0.627,0.05 0.953,0.05c0.326,0 0.644,0 0.953,0c0.584,0.033 1.082,0.058 1.494,0.075c0.412,0.017 0.67,0.025 0.772,0.025c0.104,0 0.361,-0.008 0.773,-0.025c0.412,-0.017 0.877,-0.042 1.391,-0.075l0.773,0c0.413,0 0.807,-0.008 1.186,-0.025c0.377,-0.016 0.703,-0.025 0.978,-0.025c0.275,0 0.481,0.025 0.618,0.075c0.137,0.05 0.206,0.158 0.206,0.325c0,0.1 -0.043,0.176 -0.129,0.224c-0.086,0.051 -0.18,0.076 -0.282,0.076l-0.156,0c-0.136,0 -0.292,0.016 -0.463,0.051c-0.172,0.033 -0.395,0.066 -0.67,0.099c-0.687,0.1 -1.159,0.384 -1.417,0.849c-0.257,0.467 -0.42,1.134 -0.489,2.001l0,0.15c-0.069,0.775 -0.103,1.799 -0.103,3.082l0,14.541c0,3.641 0.369,6.365 1.108,8.166c0.738,1.799 1.657,3.216 2.756,4.258c0.309,0.299 0.618,0.566 0.927,0.8c0.309,0.233 0.618,0.432 0.927,0.599c0.928,0.534 1.872,0.892 2.834,1.075c0.961,0.183 1.992,0.275 3.091,0.275c1.58,0 3.091,-0.333 4.533,-0.999c1.441,-0.667 2.627,-1.534 3.554,-2.609c1.203,-1.433 2.001,-3.191 2.396,-5.274c0.395,-2.091 0.592,-4.416 0.592,-6.991l0,-6.308c0,-3.733 0,-6.249 0,-7.533c0,-1.283 -0.034,-2.307 -0.103,-3.082l0,-0.15c-0.035,-0.867 -0.197,-1.516 -0.489,-1.95c-0.292,-0.433 -0.867,-0.733 -1.726,-0.9c-0.104,-0.033 -0.24,-0.058 -0.412,-0.075c-0.172,-0.017 -0.343,-0.024 -0.515,-0.024c-0.138,-0.035 -0.284,-0.051 -0.438,-0.051c-0.154,0 -0.283,0 -0.387,0c-0.102,0 -0.197,-0.025 -0.283,-0.076c-0.085,-0.048 -0.129,-0.124 -0.129,-0.224c0,-0.167 0.069,-0.275 0.206,-0.325c0.138,-0.05 0.344,-0.075 0.619,-0.075l1.185,0c0.412,0 0.815,0.009 1.21,0.025c0.396,0.017 0.764,0.025 1.108,0.025c0.515,0.033 0.953,0.058 1.314,0.075c0.36,0.017 0.575,0.025 0.643,0.025c0.104,0 0.31,-0.008 0.618,-0.025c0.309,-0.017 0.671,-0.042 1.082,-0.075l1.082,0c0.275,-0.033 0.541,-0.05 0.799,-0.05c0.257,0 0.506,0 0.747,0c0.274,0 0.481,0.025 0.617,0.075c0.138,0.05 0.206,0.158 0.206,0.325c0,0.1 -0.042,0.176 -0.128,0.224c-0.086,0.051 -0.18,0.076 -0.284,0.076l-0.154,0c-0.137,0 -0.292,0.008 -0.463,0.025c-0.172,0.017 -0.396,0.059 -0.67,0.125c-0.688,0.133 -1.16,0.425 -1.416,0.875c-0.258,0.45 -0.421,1.108 -0.491,1.975l0,0.15c-0.068,0.775 -0.102,1.799 -0.102,3.082l0,12.891c0,0.566 -0.009,1.117 -0.026,1.65c-0.018,0.534 -0.042,1.083 -0.078,1.658c-0.137,2.199 -0.532,4.341 -1.185,6.432c-0.651,2.084 -1.802,3.842 -3.451,5.276c-0.309,0.265 -0.61,0.508 -0.902,0.732c-0.292,0.217 -0.575,0.409 -0.849,0.575c-1.58,1 -3.133,1.642 -4.663,1.925c-1.528,0.284 -2.927,0.425 -4.198,0.425c-0.619,0 -1.572,-0.067 -2.859,-0.2c-1.288,-0.133 -2.635,-0.467 -4.044,-1c-0.653,-0.267 -1.296,-0.582 -1.932,-0.95c-0.635,-0.366 -1.228,-0.825 -1.777,-1.358c-1.271,-1.167 -2.336,-2.742 -3.194,-4.724c-0.858,-1.992 -1.288,-4.8 -1.288,-8.442l0,-0.049Zm46.467,-14.724l0.669,23.947c0.07,2.067 0.25,3.509 0.542,4.326c0.291,0.816 0.781,1.324 1.468,1.524c0.102,0.034 0.198,0.058 0.283,0.076c0.086,0.016 0.18,0.024 0.284,0.024c0.412,0.101 0.806,0.159 1.185,0.175c0.377,0.017 0.652,0.025 0.823,0.025c0.138,0 0.24,0.025 0.31,0.075c0.068,0.05 0.102,0.125 0.102,0.225c0,0.134 -0.076,0.225 -0.232,0.275c-0.154,0.05 -0.386,0.075 -0.695,0.075c-0.721,0 -1.391,-0.008 -2.008,-0.025c-0.619,-0.017 -1.169,-0.025 -1.65,-0.025c-0.48,-0.033 -0.875,-0.059 -1.184,-0.075c-0.309,-0.017 -0.515,-0.025 -0.618,-0.025c-0.103,0 -0.318,0.008 -0.644,0.025c-0.327,0.016 -0.695,0.042 -1.108,0.075c-0.446,0 -0.945,0.008 -1.493,0.025c-0.55,0.017 -1.117,0.025 -1.7,0.025c-0.242,0 -0.438,-0.025 -0.593,-0.075c-0.155,-0.05 -0.232,-0.141 -0.232,-0.275c0,-0.1 0.034,-0.175 0.103,-0.225c0.069,-0.05 0.172,-0.075 0.31,-0.075c0.17,0 0.394,-0.008 0.669,-0.025c0.274,-0.016 0.566,-0.058 0.876,-0.125c0.103,-0.033 0.197,-0.058 0.283,-0.074c0.086,-0.018 0.18,-0.042 0.284,-0.076c0.652,-0.167 1.073,-0.7 1.261,-1.6c0.189,-0.9 0.284,-2.491 0.284,-4.758l0.051,-28.738c0,-0.933 0.044,-1.575 0.129,-1.924c0.085,-0.351 0.231,-0.526 0.438,-0.526c0.103,0 0.249,0.075 0.438,0.225c0.188,0.151 0.368,0.325 0.541,0.525c0.034,0.033 0.069,0.067 0.103,0.1c0.034,0.034 0.051,0.05 0.051,0.05c0.138,0.134 0.258,0.258 0.362,0.376c0.102,0.116 0.205,0.224 0.308,0.324c0.378,0.433 2.215,2.366 5.512,5.799c3.297,3.434 6.92,7.217 10.87,11.35c0.308,0.3 0.61,0.607 0.901,0.924c0.292,0.316 0.576,0.625 0.85,0.925c0.103,0.1 0.207,0.2 0.309,0.3c0.104,0.1 0.206,0.2 0.31,0.3c2.163,2.3 4.198,4.466 6.104,6.499c1.906,2.033 3.202,3.399 3.889,4.1l-0.567,-25.448c-0.034,-1.6 -0.18,-2.733 -0.437,-3.399c-0.258,-0.666 -0.782,-1.1 -1.571,-1.3c-0.104,-0.033 -0.224,-0.059 -0.361,-0.075c-0.137,-0.017 -0.258,-0.025 -0.36,-0.025c-0.378,-0.066 -0.731,-0.108 -1.057,-0.125c-0.326,-0.017 -0.575,-0.025 -0.747,-0.025c-0.172,0 -0.283,-0.033 -0.334,-0.099c-0.052,-0.068 -0.078,-0.15 -0.078,-0.251c0,-0.166 0.094,-0.267 0.284,-0.3c0.188,-0.033 0.437,-0.05 0.747,-0.05l0.515,0c0.514,0 1.013,0.009 1.493,0.025c0.481,0.017 0.928,0.025 1.34,0.025c0.48,0.033 0.902,0.058 1.263,0.075c0.36,0.017 0.609,0.025 0.747,0.025c0.136,0 0.342,-0.008 0.618,-0.025c0.274,-0.017 0.601,-0.042 0.978,-0.075c0.378,0 0.807,-0.008 1.288,-0.025c0.481,-0.016 0.979,-0.025 1.494,-0.025c0.274,0 0.498,0.017 0.669,0.05c0.172,0.033 0.258,0.134 0.258,0.3c0,0.101 -0.051,0.183 -0.154,0.251c-0.104,0.066 -0.24,0.099 -0.412,0.099c-0.138,0 -0.301,0.008 -0.489,0.025c-0.19,0.017 -0.439,0.059 -0.748,0.125c-0.858,0.167 -1.39,0.575 -1.597,1.225c-0.206,0.65 -0.309,1.725 -0.309,3.233l-0.103,29.28c0,1.674 -0.034,2.683 -0.103,3.033c-0.069,0.35 -0.189,0.525 -0.361,0.525c-0.206,0 -0.541,-0.192 -1.004,-0.575c-0.464,-0.384 -1.383,-1.241 -2.756,-2.575c-0.207,-0.2 -1.288,-1.266 -3.246,-3.2c-1.958,-1.933 -4.086,-4.065 -6.388,-6.399c-0.068,-0.1 -0.145,-0.191 -0.231,-0.275c-0.086,-0.083 -0.164,-0.158 -0.232,-0.224c-0.584,-0.601 -1.159,-1.184 -1.726,-1.75c-0.566,-0.567 -1.107,-1.133 -1.623,-1.7c-0.034,-0.033 -0.068,-0.066 -0.102,-0.1c-0.035,-0.034 -0.069,-0.067 -0.103,-0.1c-2.955,-3.1 -5.693,-6.008 -8.217,-8.724c-2.524,-2.716 -4.198,-4.525 -5.023,-5.425l0,-0.05Zm48.063,16.232l0,-8.816c0,-3.733 0,-6.249 0,-7.533c0,-1.283 -0.034,-2.307 -0.102,-3.082l0,-0.15c-0.035,-0.867 -0.198,-1.516 -0.49,-1.95c-0.292,-0.433 -0.867,-0.733 -1.726,-0.9c-0.103,-0.033 -0.241,-0.058 -0.411,-0.075c-0.172,-0.017 -0.344,-0.024 -0.516,-0.024c-0.137,-0.035 -0.283,-0.051 -0.437,-0.051c-0.156,0 -0.284,0 -0.387,0c-0.103,0 -0.198,-0.025 -0.284,-0.076c-0.086,-0.048 -0.128,-0.124 -0.128,-0.224c0,-0.167 0.068,-0.275 0.206,-0.325c0.137,-0.05 0.343,-0.075 0.617,-0.075l1.752,0c0.344,0.033 0.679,0.05 1.005,0.05c0.326,0 0.643,0 0.953,0c0.549,0.033 1.022,0.058 1.417,0.075c0.395,0.017 0.627,0.025 0.695,0.025c0.172,0 0.481,-0.008 0.928,-0.025c0.446,-0.017 0.996,-0.042 1.647,-0.075c0.55,0 1.16,-0.008 1.83,-0.025c0.669,-0.016 1.348,-0.025 2.034,-0.025l1.546,0c1.408,0 3.023,0.033 4.842,0.1c1.821,0.067 3.692,0.316 5.615,0.75c1.615,0.366 3.211,0.933 4.791,1.7c1.58,0.767 3.039,1.824 4.379,3.158c1.305,1.3 2.464,3 3.477,5.108c1.014,2.099 1.52,4.632 1.52,7.607c0,3.133 -0.567,5.908 -1.7,8.307c-1.133,2.409 -2.421,4.342 -3.864,5.808c-0.274,0.3 -0.6,0.617 -0.979,0.95c-0.377,0.333 -0.807,0.667 -1.287,1c-1.34,0.941 -3.091,1.8 -5.254,2.584c-2.164,0.782 -4.861,1.174 -8.088,1.174c-0.585,0 -1.186,-0.008 -1.804,-0.025c-0.618,-0.016 -1.236,-0.041 -1.854,-0.075c-0.619,-0.033 -1.228,-0.067 -1.829,-0.1c-0.6,-0.033 -1.159,-0.067 -1.675,-0.1c-1.133,-0.066 -2.094,-0.134 -2.884,-0.2c-0.79,-0.066 -1.254,-0.1 -1.391,-0.1c-0.068,0 -0.3,0.008 -0.695,0.025c-0.395,0.016 -0.85,0.042 -1.365,0.075l-0.877,0c-0.377,0 -0.755,0.008 -1.133,0.025c-0.378,0.017 -0.703,0.025 -0.979,0.025c-0.274,0 -0.48,-0.025 -0.617,-0.075c-0.138,-0.05 -0.206,-0.141 -0.206,-0.275c0,-0.066 0.034,-0.133 0.102,-0.2c0.069,-0.067 0.172,-0.1 0.31,-0.1c0.103,0 0.223,-0.008 0.361,-0.025c0.136,-0.016 0.274,-0.025 0.411,-0.025c0.138,-0.033 0.275,-0.059 0.412,-0.075c0.138,-0.017 0.258,-0.042 0.361,-0.075c0.515,-0.1 0.867,-0.399 1.056,-0.9c0.189,-0.5 0.335,-1.116 0.437,-1.85c0.138,-1.074 0.216,-2.549 0.232,-4.433c0.018,-1.89 0.026,-4.032 0.026,-6.432l0,-0.05Zm4.328,-9.616l0,6.208c0,2.675 0.008,5.041 0.025,7.108c0.018,2.074 0.044,3.341 0.078,3.808c0,0.199 0.008,0.425 0.026,0.674c0.016,0.251 0.042,0.508 0.076,0.775c0.036,0.5 0.086,0.975 0.156,1.425c0.068,0.458 0.171,0.767 0.308,0.933c0.034,0.034 0.069,0.076 0.104,0.126c0.034,0.049 0.068,0.092 0.102,0.125c0.413,0.433 1.246,0.833 2.499,1.199c1.254,0.367 3.272,0.551 6.053,0.551c2.404,0 4.671,-0.409 6.801,-1.226c2.128,-0.816 3.948,-1.966 5.46,-3.433c1.237,-1.166 2.198,-2.733 2.884,-4.707c0.688,-1.967 1.082,-4 1.185,-6.108c0.035,-0.2 0.051,-0.392 0.051,-0.574c0,-0.185 0,-0.376 0,-0.576c0,-2.533 -0.377,-4.724 -1.133,-6.557c-0.755,-1.834 -1.58,-3.342 -2.473,-4.508c-0.24,-0.301 -0.472,-0.576 -0.695,-0.825c-0.224,-0.251 -0.438,-0.492 -0.644,-0.726c-2.403,-2.466 -5.048,-4.032 -7.933,-4.682c-2.885,-0.651 -5.856,-0.976 -8.911,-0.976c-0.207,0 -0.43,0.01 -0.671,0.026c-0.24,0.017 -0.48,0.025 -0.721,0.025c-0.412,0.033 -0.807,0.075 -1.185,0.125c-0.378,0.05 -0.635,0.108 -0.773,0.175c-0.24,0.1 -0.403,0.225 -0.489,0.375c-0.086,0.15 -0.129,0.358 -0.129,0.625c-0.034,0.633 -0.051,1.633 -0.051,3.008l0,7.657l0,-0.05Z" style="fill:#643e69;fill-rule:nonzero;"/><path d="M289.865,143.246l12.861,33.281c0.803,-1.733 1.763,-3.954 2.88,-6.663c1.116,-2.708 2.276,-5.558 3.482,-8.547c0.09,-0.261 0.19,-0.509 0.302,-0.748c0.111,-0.238 0.212,-0.488 0.301,-0.747c1.651,-4.161 3.193,-8.093 4.622,-11.799c1.428,-3.704 2.344,-6.207 2.745,-7.507c0.179,-0.477 0.324,-0.932 0.436,-1.365c0.112,-0.433 0.167,-0.801 0.167,-1.105c0,-0.087 0,-0.163 0,-0.227c0,-0.065 -0.021,-0.142 -0.067,-0.228c-0.044,-0.217 -0.133,-0.412 -0.268,-0.586c-0.133,-0.172 -0.312,-0.324 -0.536,-0.454c-0.178,-0.043 -0.357,-0.087 -0.535,-0.13c-0.179,-0.044 -0.379,-0.065 -0.603,-0.065c-0.223,-0.044 -0.457,-0.065 -0.704,-0.065c-0.245,0 -0.479,0 -0.703,0c-0.178,0 -0.346,-0.021 -0.502,-0.065c-0.156,-0.043 -0.235,-0.152 -0.235,-0.325c0,-0.217 0.113,-0.358 0.335,-0.423c0.224,-0.064 0.604,-0.097 1.14,-0.097l1.205,0c0.491,0 0.971,0.011 1.44,0.033c0.468,0.022 0.905,0.032 1.305,0.032c0.626,0.043 1.174,0.076 1.641,0.097c0.469,0.022 0.793,0.033 0.972,0.033c0.089,0 0.324,-0.011 0.703,-0.033c0.379,-0.021 0.815,-0.054 1.306,-0.097l1.474,0c0.312,-0.043 0.614,-0.065 0.903,-0.065c0.291,0 0.57,0 0.839,0c0.356,0 0.636,0.033 0.837,0.097c0.2,0.065 0.301,0.184 0.301,0.358c0,0.173 -0.066,0.293 -0.201,0.357c-0.135,0.065 -0.335,0.098 -0.602,0.098c-0.179,0 -0.515,0.021 -1.005,0.065c-0.492,0.043 -1.006,0.173 -1.542,0.39c-0.133,0.043 -0.255,0.087 -0.367,0.13c-0.112,0.044 -0.212,0.108 -0.302,0.195c-0.446,0.303 -0.948,0.845 -1.507,1.625c-0.558,0.78 -1.283,2.275 -2.177,4.496c-0.357,0.91 -1.273,3.077 -2.745,6.511c-1.475,3.424 -3.059,7.128 -4.756,11.127c-2.054,4.734 -3.818,8.796 -5.292,12.197c-1.473,3.413 -2.589,5.916 -3.348,7.519c-0.76,1.571 -1.296,2.697 -1.608,3.391c-0.312,0.693 -0.581,1.148 -0.803,1.365c-0.09,0.043 -0.157,0.076 -0.202,0.098c-0.044,0.022 -0.111,0.032 -0.201,0.032c-0.133,0 -0.256,-0.032 -0.368,-0.097c-0.111,-0.066 -0.212,-0.141 -0.301,-0.228c-0.224,-0.26 -0.459,-0.672 -0.704,-1.234c-0.245,-0.564 -0.591,-1.366 -1.038,-2.406l-16.409,-39.965c-0.179,-0.433 -0.358,-0.835 -0.536,-1.203c-0.179,-0.379 -0.358,-0.715 -0.536,-1.018c-0.491,-0.866 -1.027,-1.473 -1.608,-1.819c-0.58,-0.348 -1.294,-0.651 -2.143,-0.911c-0.089,0 -0.167,-0.011 -0.234,-0.033c-0.067,-0.022 -0.145,-0.054 -0.234,-0.097c-0.446,-0.044 -0.849,-0.076 -1.206,-0.098c-0.357,-0.021 -0.626,-0.032 -0.804,-0.032c-0.224,0 -0.368,-0.043 -0.436,-0.13c-0.067,-0.087 -0.099,-0.196 -0.099,-0.325c0,-0.217 0.156,-0.347 0.468,-0.39c0.312,-0.043 0.715,-0.065 1.206,-0.065l1.674,0c0.535,0 1.071,0.011 1.607,0.033c0.536,0.022 1.05,0.032 1.541,0.032c0.715,0.043 1.351,0.076 1.909,0.097c0.558,0.022 0.926,0.033 1.105,0.033c0.178,0 0.481,-0.011 0.904,-0.033c0.425,-0.021 0.927,-0.054 1.507,-0.097c0.402,0 0.815,-0.01 1.24,-0.032c0.423,-0.022 0.859,-0.033 1.305,-0.033l1.273,0c0.626,0 1.083,0.033 1.373,0.097c0.29,0.065 0.435,0.184 0.435,0.358c0,0.173 -0.055,0.293 -0.166,0.357c-0.113,0.065 -0.28,0.098 -0.503,0.098c-0.178,0 -0.368,0 -0.569,0c-0.201,0 -0.391,0.021 -0.57,0.065c-0.267,0 -0.525,0.021 -0.77,0.065c-0.245,0.043 -0.458,0.108 -0.637,0.195c-0.268,0.13 -0.468,0.282 -0.603,0.455c-0.133,0.173 -0.222,0.346 -0.267,0.52l0,0.325c0,0.434 0.178,1.127 0.536,2.08c0.357,0.953 0.78,2.059 1.272,3.315l0,-0.065Zm49.599,17.9l0,8.815c0,2.434 0.008,4.592 0.026,6.483c0.016,1.883 0.094,3.359 0.232,4.433c0.068,0.734 0.231,1.35 0.489,1.85c0.258,0.5 0.764,0.8 1.519,0.9c0.138,0.033 0.283,0.058 0.438,0.075c0.155,0.016 0.318,0.025 0.489,0.025c0.275,0.034 0.541,0.059 0.799,0.075c0.258,0.017 0.455,0.025 0.593,0.025c0.172,0 0.282,0.033 0.334,0.1c0.052,0.067 0.078,0.134 0.078,0.2c0,0.134 -0.07,0.226 -0.206,0.275c-0.138,0.05 -0.344,0.075 -0.619,0.075l-1.03,0c-0.55,0 -1.09,-0.008 -1.622,-0.025c-0.533,-0.017 -1.022,-0.025 -1.47,-0.025c-0.617,-0.033 -1.124,-0.059 -1.519,-0.074c-0.395,-0.018 -0.627,-0.026 -0.695,-0.026c-0.069,0 -0.3,0.008 -0.695,0.026c-0.395,0.015 -0.851,0.041 -1.366,0.074l-0.875,0c-0.378,0 -0.756,0.008 -1.134,0.025c-0.377,0.017 -0.703,0.025 -0.98,0.025c-0.274,0 -0.48,-0.025 -0.616,-0.075c-0.138,-0.049 -0.207,-0.141 -0.207,-0.275c0,-0.066 0.034,-0.133 0.103,-0.2c0.069,-0.067 0.172,-0.1 0.309,-0.1c0.103,0 0.223,-0.008 0.361,-0.025c0.138,-0.016 0.275,-0.025 0.412,-0.025c0.137,-0.034 0.274,-0.059 0.412,-0.075c0.137,-0.017 0.257,-0.042 0.361,-0.075c0.515,-0.1 0.867,-0.4 1.055,-0.9c0.189,-0.5 0.336,-1.116 0.439,-1.85c0.136,-1.074 0.214,-2.55 0.232,-4.433c0.017,-1.891 0.025,-4.032 0.025,-6.432l0,-8.866c0,-3.733 0,-6.25 0,-7.533c0,-1.283 -0.035,-2.307 -0.103,-3.082l0,-0.15c-0.034,-0.867 -0.188,-1.517 -0.464,-1.95c-0.274,-0.434 -0.703,-0.717 -1.288,-0.85c-0.068,-0.033 -0.136,-0.059 -0.205,-0.076c-0.069,-0.016 -0.137,-0.025 -0.207,-0.025c-0.24,-0.033 -0.462,-0.058 -0.669,-0.074c-0.206,-0.017 -0.378,-0.025 -0.516,-0.025c-0.103,0 -0.197,-0.025 -0.282,-0.076c-0.087,-0.049 -0.129,-0.125 -0.129,-0.224c0,-0.167 0.068,-0.275 0.206,-0.325c0.137,-0.051 0.343,-0.076 0.617,-0.076c0.276,0 0.602,0 0.98,0c0.378,0 0.755,0.017 1.132,0.05l1.031,0c0.515,0.034 0.971,0.059 1.366,0.076c0.395,0.016 0.626,0.024 0.695,0.024c0.068,0 0.3,-0.008 0.695,-0.024c0.395,-0.017 0.85,-0.042 1.365,-0.076l0.877,0c0.377,0 0.755,-0.007 1.133,-0.025c0.378,-0.016 0.704,-0.025 0.979,-0.025c0.274,0 0.48,0.025 0.617,0.076c0.138,0.05 0.206,0.158 0.206,0.325c0,0.099 -0.042,0.175 -0.128,0.224c-0.086,0.051 -0.18,0.076 -0.283,0.076l-0.155,0c-0.137,0 -0.292,0.016 -0.463,0.05c-0.172,0.033 -0.395,0.066 -0.671,0.1c-0.686,0.133 -1.159,0.424 -1.416,0.874c-0.258,0.45 -0.421,1.109 -0.49,1.976l0,0.15c-0.068,0.775 -0.102,1.799 -0.102,3.082c0,1.283 0,3.816 0,7.583l0,-0.05Zm22.666,0l0,8.916c0,3.7 0.078,6.433 0.232,8.183c0.155,1.758 0.455,2.866 0.901,3.332c0.413,0.4 1.048,0.692 1.907,0.875c0.858,0.183 2.284,0.275 4.276,0.275c1.374,0 2.601,-0.066 3.682,-0.2c1.083,-0.133 1.933,-0.566 2.551,-1.299c0.206,-0.234 0.394,-0.509 0.567,-0.826c0.171,-0.317 0.309,-0.624 0.412,-0.925c0.102,-0.233 0.18,-0.449 0.232,-0.65c0.051,-0.2 0.094,-0.399 0.128,-0.599c0.035,-0.201 0.086,-0.359 0.155,-0.476c0.069,-0.116 0.172,-0.175 0.31,-0.175c0.136,0 0.222,0.059 0.256,0.175c0.035,0.117 0.052,0.308 0.052,0.575c0,0.168 -0.034,0.526 -0.103,1.075c-0.069,0.55 -0.137,1.142 -0.205,1.775c-0.069,0.4 -0.147,0.792 -0.232,1.176c-0.087,0.382 -0.163,0.707 -0.233,0.974c0,0.033 -0.008,0.075 -0.025,0.125c-0.017,0.05 -0.043,0.092 -0.077,0.125c-0.138,0.466 -0.378,0.758 -0.722,0.875c-0.343,0.117 -1.151,0.175 -2.421,0.175c-1.855,0 -3.478,-0.017 -4.868,-0.05c-1.391,-0.033 -2.619,-0.067 -3.684,-0.1c-1.099,-0.033 -2.06,-0.066 -2.885,-0.101c-0.824,-0.033 -1.614,-0.049 -2.37,-0.049c-0.102,0 -0.351,0.008 -0.747,0.026c-0.395,0.015 -0.849,0.041 -1.365,0.074l-0.824,0c-0.377,0 -0.756,0.008 -1.133,0.025c-0.378,0.017 -0.704,0.025 -0.979,0.025c-0.275,0 -0.48,-0.025 -0.618,-0.075c-0.138,-0.049 -0.206,-0.141 -0.206,-0.275c0,-0.066 0.034,-0.133 0.103,-0.2c0.069,-0.067 0.171,-0.1 0.309,-0.1c0.104,0 0.224,-0.008 0.361,-0.025c0.137,-0.016 0.274,-0.025 0.412,-0.025c0.137,-0.034 0.274,-0.059 0.412,-0.075c0.137,-0.017 0.258,-0.042 0.36,-0.075c0.516,-0.1 0.868,-0.4 1.056,-0.9c0.19,-0.5 0.336,-1.116 0.438,-1.85c0.138,-1.074 0.215,-2.55 0.233,-4.433c0.016,-1.891 0.025,-4.032 0.025,-6.432l0,-8.866c0,-3.733 0,-6.25 0,-7.533c0,-1.283 -0.034,-2.307 -0.104,-3.082l0,-0.15c-0.034,-0.867 -0.197,-1.517 -0.488,-1.95c-0.292,-0.434 -0.868,-0.733 -1.726,-0.9c-0.104,-0.034 -0.24,-0.059 -0.412,-0.076c-0.173,-0.016 -0.343,-0.024 -0.515,-0.024c-0.138,-0.034 -0.284,-0.05 -0.438,-0.05c-0.155,0 -0.283,0 -0.387,0c-0.102,0 -0.197,-0.025 -0.283,-0.076c-0.086,-0.049 -0.129,-0.125 -0.129,-0.224c0,-0.167 0.069,-0.275 0.206,-0.325c0.138,-0.051 0.344,-0.076 0.619,-0.076l1.751,0c0.343,0.033 0.678,0.05 1.004,0.05c0.326,0 0.644,0 0.953,0c0.55,0.034 1.022,0.059 1.417,0.076c0.395,0.016 0.627,0.024 0.695,0.024c0.069,0 0.327,-0.008 0.773,-0.024c0.447,-0.017 0.963,-0.042 1.546,-0.076l0.773,0c0.48,0 0.936,-0.007 1.365,-0.025c0.429,-0.016 0.798,-0.025 1.107,-0.025c0.276,0 0.482,0.025 0.618,0.076c0.138,0.05 0.207,0.158 0.207,0.325c0,0.099 -0.043,0.175 -0.129,0.224c-0.086,0.051 -0.18,0.076 -0.284,0.076c-0.136,0 -0.326,0.008 -0.567,0.025c-0.239,0.016 -0.48,0.041 -0.72,0.074c-0.069,0 -0.138,0.009 -0.207,0.025c-0.068,0.017 -0.137,0.026 -0.206,0.026c-0.755,0.133 -1.261,0.424 -1.519,0.874c-0.258,0.45 -0.421,1.109 -0.489,1.976l0,0.15c-0.07,0.775 -0.104,1.799 -0.104,3.082c0,1.283 0,3.816 0,7.583l0,-0.05Zm30.497,0l0,8.916c0,3.7 0.078,6.433 0.232,8.183c0.154,1.758 0.456,2.866 0.902,3.332c0.412,0.4 1.047,0.692 1.905,0.875c0.859,0.183 2.285,0.275 4.276,0.275c1.375,0 2.601,-0.066 3.684,-0.2c1.082,-0.133 1.932,-0.566 2.549,-1.299c0.207,-0.234 0.396,-0.509 0.569,-0.826c0.17,-0.317 0.308,-0.624 0.411,-0.925c0.103,-0.233 0.179,-0.449 0.232,-0.65c0.051,-0.2 0.094,-0.399 0.129,-0.599c0.034,-0.201 0.085,-0.359 0.155,-0.476c0.068,-0.116 0.17,-0.175 0.308,-0.175c0.138,0 0.224,0.059 0.258,0.175c0.034,0.117 0.051,0.308 0.051,0.575c0,0.168 -0.034,0.526 -0.103,1.075c-0.068,0.55 -0.138,1.142 -0.206,1.775c-0.068,0.4 -0.146,0.792 -0.232,1.176c-0.086,0.382 -0.162,0.707 -0.231,0.974c0,0.033 -0.009,0.075 -0.026,0.125c-0.017,0.05 -0.043,0.092 -0.077,0.125c-0.138,0.466 -0.379,0.758 -0.722,0.875c-0.343,0.117 -1.151,0.175 -2.42,0.175c-1.856,0 -3.478,-0.017 -4.869,-0.05c-1.391,-0.033 -2.619,-0.067 -3.684,-0.1c-1.099,-0.033 -2.06,-0.066 -2.885,-0.101c-0.824,-0.033 -1.614,-0.049 -2.369,-0.049c-0.103,0 -0.352,0.008 -0.747,0.026c-0.396,0.015 -0.85,0.041 -1.365,0.074l-0.825,0c-0.378,0 -0.755,0.008 -1.133,0.025c-0.378,0.017 -0.704,0.025 -0.979,0.025c-0.275,0 -0.481,-0.025 -0.617,-0.075c-0.138,-0.049 -0.208,-0.141 -0.208,-0.275c0,-0.066 0.035,-0.133 0.104,-0.2c0.069,-0.067 0.172,-0.1 0.308,-0.1c0.104,0 0.225,-0.008 0.362,-0.025c0.137,-0.016 0.275,-0.025 0.411,-0.025c0.138,-0.034 0.276,-0.059 0.413,-0.075c0.137,-0.017 0.258,-0.042 0.36,-0.075c0.516,-0.1 0.867,-0.4 1.057,-0.9c0.189,-0.5 0.335,-1.116 0.437,-1.85c0.138,-1.074 0.215,-2.55 0.233,-4.433c0.017,-1.891 0.025,-4.032 0.025,-6.432l0,-8.866c0,-3.733 0,-6.25 0,-7.533c0,-1.283 -0.034,-2.307 -0.103,-3.082l0,-0.15c-0.035,-0.867 -0.198,-1.517 -0.49,-1.95c-0.292,-0.434 -0.867,-0.733 -1.725,-0.9c-0.103,-0.034 -0.24,-0.059 -0.412,-0.076c-0.172,-0.016 -0.343,-0.024 -0.515,-0.024c-0.137,-0.034 -0.283,-0.05 -0.439,-0.05c-0.154,0 -0.283,0 -0.386,0c-0.102,0 -0.197,-0.025 -0.283,-0.076c-0.086,-0.049 -0.128,-0.125 -0.128,-0.224c0,-0.167 0.068,-0.275 0.205,-0.325c0.137,-0.051 0.344,-0.076 0.618,-0.076l1.752,0c0.344,0.033 0.678,0.05 1.005,0.05c0.326,0 0.643,0 0.953,0c0.549,0.034 1.021,0.059 1.416,0.076c0.396,0.016 0.627,0.024 0.696,0.024c0.068,0 0.326,-0.008 0.773,-0.024c0.446,-0.017 0.961,-0.042 1.545,-0.076l0.773,0c0.481,0 0.935,-0.007 1.365,-0.025c0.429,-0.016 0.798,-0.025 1.108,-0.025c0.275,0 0.48,0.025 0.617,0.076c0.138,0.05 0.207,0.158 0.207,0.325c0,0.099 -0.043,0.175 -0.129,0.224c-0.086,0.051 -0.18,0.076 -0.283,0.076c-0.137,0 -0.326,0.008 -0.567,0.025c-0.24,0.016 -0.481,0.041 -0.721,0.074c-0.069,0 -0.137,0.009 -0.207,0.025c-0.068,0.017 -0.137,0.026 -0.206,0.026c-0.755,0.133 -1.261,0.424 -1.519,0.874c-0.257,0.45 -0.421,1.109 -0.489,1.976l0,0.15c-0.069,0.775 -0.104,1.799 -0.104,3.082c0,1.283 0,3.816 0,7.583l0,-0.05Zm22.41,17.831l11.694,-31.047c0.24,-0.633 0.429,-1.083 0.567,-1.35c0.138,-0.266 0.274,-0.433 0.412,-0.5c0,-0.033 0.016,-0.049 0.052,-0.049l0.205,0c0.035,0 0.051,0.016 0.051,0.049c0.138,0.034 0.275,0.175 0.413,0.425c0.137,0.251 0.326,0.692 0.566,1.326c0.241,0.566 1.013,2.517 2.319,5.85c1.305,3.331 2.73,6.931 4.276,10.798c1.03,2.633 2.035,5.157 3.013,7.575c0.979,2.416 1.777,4.39 2.395,5.924c0.928,2.233 1.761,3.674 2.499,4.324c0.739,0.651 1.383,1.058 1.932,1.225c0.378,0.133 0.755,0.216 1.133,0.25c0.378,0.033 0.687,0.05 0.927,0.05c0.172,0 0.301,0.017 0.386,0.05c0.087,0.034 0.129,0.117 0.129,0.25c0,0.134 -0.102,0.226 -0.308,0.275c-0.207,0.05 -0.447,0.075 -0.721,0.075c-0.379,0 -1.288,0 -2.731,0c-1.442,0 -3.005,-0.033 -4.688,-0.101l-1.082,0c-0.343,-0.033 -0.618,-0.057 -0.823,-0.074c-0.207,-0.017 -0.311,-0.092 -0.311,-0.226c0,-0.099 0.036,-0.174 0.104,-0.224c0.069,-0.05 0.154,-0.091 0.257,-0.125c0,0 0.01,0 0.026,0c0.018,0 0.044,-0.017 0.078,-0.05c0.068,-0.033 0.145,-0.109 0.232,-0.225c0.086,-0.116 0.11,-0.275 0.076,-0.476l0,-0.199c0,-0.066 -0.007,-0.133 -0.025,-0.2c-0.017,-0.066 -0.043,-0.133 -0.077,-0.2l-4.791,-12.348c-0.034,-0.068 -0.086,-0.126 -0.155,-0.175c-0.069,-0.051 -0.171,-0.076 -0.309,-0.076l-11.076,0c-0.137,0.033 -0.241,0.084 -0.309,0.15c-0.068,0.066 -0.137,0.167 -0.206,0.3l-3.091,8.767c-0.24,0.658 -0.421,1.275 -0.541,1.841c-0.12,0.558 -0.18,1.075 -0.18,1.541c0,0.433 0.162,0.759 0.49,0.975c0.325,0.216 0.677,0.358 1.055,0.425c0.069,0.033 0.138,0.05 0.207,0.05c0.068,0 0.137,0 0.206,0l0.515,-0.05c0.171,0.033 0.3,0.075 0.386,0.125c0.086,0.05 0.128,0.126 0.128,0.225c0,0.134 -0.068,0.226 -0.206,0.275c-0.137,0.05 -0.326,0.075 -0.567,0.075c-0.24,0 -0.497,-0.008 -0.772,-0.025c-0.275,-0.017 -0.567,-0.025 -0.875,-0.025l-0.619,0c-0.377,-0.033 -0.729,-0.059 -1.055,-0.074c-0.327,-0.018 -0.559,-0.026 -0.696,-0.026c-0.137,0 -0.404,0.008 -0.799,0.026c-0.395,0.015 -0.867,0.041 -1.416,0.074c-0.378,0 -0.773,0.008 -1.186,0.025c-0.412,0.017 -0.841,0.025 -1.287,0.025l-1.082,0c-0.343,0 -0.592,-0.025 -0.746,-0.075c-0.156,-0.049 -0.232,-0.141 -0.232,-0.275c0,-0.099 0.042,-0.175 0.128,-0.225c0.086,-0.05 0.198,-0.075 0.334,-0.075c0.104,0 0.224,0 0.361,0c0.138,0 0.276,-0.017 0.412,-0.05c0.104,0 0.215,-0.008 0.335,-0.024c0.121,-0.018 0.232,-0.026 0.335,-0.026c1.202,-0.167 2.113,-0.683 2.73,-1.55c0.619,-0.866 1.151,-1.917 1.598,-3.149l0,-0.051Zm7.211,-11.049l9.841,0c0.136,0 0.214,-0.025 0.232,-0.074c0.016,-0.05 0.008,-0.126 -0.027,-0.225l-4.894,-13.549c-0.137,-0.333 -0.266,-0.5 -0.386,-0.5c-0.12,0 -0.249,0.183 -0.387,0.55l-4.533,13.448c-0.034,0.068 -0.052,0.117 -0.052,0.15c0,0.033 0,0.068 0,0.101c0,0.033 0.027,0.059 0.078,0.074c0.052,0.018 0.094,0.025 0.128,0.025Z" style="fill:#008882;fill-rule:nonzero;"/><path d="M337.701,138.735c-77.247,-65.869 -202.564,30.909 -264.259,-29.745c59.151,75.024 170.186,-26.52 264.259,29.745Z" style="fill:#008882;"/></g></g></svg>